%TF.GenerationSoftware,KiCad,Pcbnew,7.0.6*%
%TF.CreationDate,2023-07-20T08:44:50+02:00*%
%TF.ProjectId,dc_sdr,64635f73-6472-42e6-9b69-6361645f7063,rev?*%
%TF.SameCoordinates,Original*%
%TF.FileFunction,Drillmap*%
%TF.FilePolarity,Positive*%
%FSLAX45Y45*%
G04 Gerber Fmt 4.5, Leading zero omitted, Abs format (unit mm)*
G04 Created by KiCad (PCBNEW 7.0.6) date 2023-07-20 08:44:50*
%MOMM*%
%LPD*%
G01*
G04 APERTURE LIST*
%ADD10C,0.100000*%
%ADD11C,0.200000*%
%ADD12C,0.030000*%
%ADD13C,0.060000*%
%ADD14C,0.150000*%
G04 APERTURE END LIST*
D10*
X21615124Y-6924829D02*
X21622815Y-6925478D01*
X21630522Y-6926515D01*
X21638231Y-6927945D01*
X21645932Y-6929773D01*
X21653611Y-6932006D01*
X21661257Y-6934648D01*
X21668859Y-6937707D01*
X21676403Y-6941187D01*
X21684940Y-6945605D01*
X21689048Y-6947891D01*
X21693068Y-6950262D01*
X21697013Y-6952746D01*
X21700899Y-6955368D01*
X21704738Y-6958156D01*
X21708546Y-6961134D01*
X21712337Y-6964329D01*
X21716124Y-6967767D01*
X21719922Y-6971475D01*
X21723745Y-6975479D01*
X21727607Y-6979804D01*
X21731523Y-6984478D01*
X21735506Y-6989526D01*
X21739571Y-6994975D01*
X21769248Y-7036963D01*
X21772275Y-7041258D01*
X21775135Y-7045579D01*
X21777830Y-7049924D01*
X21780361Y-7054293D01*
X21782728Y-7058684D01*
X21784933Y-7063097D01*
X21786978Y-7067530D01*
X21788863Y-7071982D01*
X21790589Y-7076452D01*
X21792157Y-7080938D01*
X21793570Y-7085440D01*
X21794827Y-7089957D01*
X21795930Y-7094487D01*
X21796881Y-7099029D01*
X21797680Y-7103582D01*
X21798328Y-7108145D01*
X21798827Y-7112717D01*
X21799177Y-7117296D01*
X21799381Y-7121882D01*
X21799439Y-7126473D01*
X21799121Y-7135667D01*
X21798232Y-7144868D01*
X21796784Y-7154069D01*
X21794783Y-7163258D01*
X21792240Y-7172428D01*
X21789164Y-7181569D01*
X20677894Y-10443225D01*
X20675790Y-10448681D01*
X20673480Y-10454043D01*
X20670968Y-10459305D01*
X20668260Y-10464463D01*
X20665361Y-10469511D01*
X20662276Y-10474446D01*
X20659009Y-10479261D01*
X20655566Y-10483953D01*
X20651952Y-10488516D01*
X20648171Y-10492945D01*
X20644229Y-10497236D01*
X20640130Y-10501385D01*
X20635881Y-10505385D01*
X20631484Y-10509232D01*
X20626947Y-10512921D01*
X20622273Y-10516448D01*
X20326135Y-10729114D01*
X20318071Y-10734552D01*
X20309784Y-10739407D01*
X20301299Y-10743685D01*
X20292641Y-10747395D01*
X20283833Y-10750545D01*
X20274902Y-10753141D01*
X20265872Y-10755193D01*
X20256767Y-10756707D01*
X20247611Y-10757692D01*
X20238431Y-10758155D01*
X20229250Y-10758105D01*
X20220092Y-10757548D01*
X20210983Y-10756493D01*
X20201948Y-10754947D01*
X20193010Y-10752919D01*
X20184196Y-10750415D01*
X20175528Y-10747445D01*
X20167032Y-10744015D01*
X20158733Y-10740133D01*
X20150656Y-10735808D01*
X20142824Y-10731046D01*
X20135263Y-10725856D01*
X20127997Y-10720246D01*
X20121051Y-10714223D01*
X20114450Y-10707795D01*
X20108218Y-10700970D01*
X20102380Y-10693755D01*
X20096961Y-10686159D01*
X20091985Y-10678189D01*
X20087477Y-10669854D01*
X20083462Y-10661159D01*
X20079964Y-10652115D01*
X20077528Y-10648861D01*
X20070282Y-10640218D01*
X20064884Y-10634402D01*
X20058318Y-10627869D01*
X20050595Y-10620829D01*
X20041727Y-10613492D01*
X20031725Y-10606069D01*
X20020601Y-10598770D01*
X20008367Y-10591804D01*
X19995033Y-10585382D01*
X19980611Y-10579713D01*
X19972996Y-10577228D01*
X19965113Y-10575009D01*
X19956965Y-10573084D01*
X19948551Y-10571478D01*
X19939874Y-10570219D01*
X19930935Y-10569332D01*
X19777407Y-10543813D01*
X19774552Y-10549404D01*
X19772038Y-10555267D01*
X19767507Y-10567425D01*
X19765228Y-10573529D01*
X19762765Y-10579522D01*
X19759988Y-10585308D01*
X19758441Y-10588094D01*
X19756766Y-10590792D01*
X19754946Y-10593390D01*
X19752966Y-10595876D01*
X19750809Y-10598239D01*
X19748459Y-10600466D01*
X19745898Y-10602546D01*
X19743112Y-10604466D01*
X19740083Y-10606214D01*
X19736796Y-10607780D01*
X19733233Y-10609149D01*
X19729378Y-10610311D01*
X19725216Y-10611254D01*
X19720729Y-10611966D01*
X19715901Y-10612434D01*
X19710716Y-10612646D01*
X19705158Y-10612591D01*
X19699209Y-10612258D01*
X19608173Y-10609867D01*
X19603853Y-10609669D01*
X19599388Y-10609165D01*
X19594819Y-10608368D01*
X19590185Y-10607296D01*
X19585527Y-10605964D01*
X19580887Y-10604387D01*
X19576304Y-10602580D01*
X19571818Y-10600561D01*
X19567472Y-10598343D01*
X19563304Y-10595943D01*
X19559356Y-10593376D01*
X19555668Y-10590658D01*
X19552280Y-10587804D01*
X19549234Y-10584830D01*
X19546569Y-10581752D01*
X19545392Y-10580179D01*
X19544326Y-10578585D01*
X19542930Y-10576320D01*
X19541633Y-10574044D01*
X19540432Y-10571761D01*
X19539324Y-10569473D01*
X19538305Y-10567184D01*
X19537372Y-10564896D01*
X19536522Y-10562612D01*
X19535752Y-10560335D01*
X19535059Y-10558068D01*
X19534439Y-10555814D01*
X19533890Y-10553576D01*
X19533407Y-10551356D01*
X19532630Y-10546986D01*
X19532084Y-10542726D01*
X19531741Y-10538600D01*
X19531578Y-10534632D01*
X19531567Y-10530844D01*
X19531684Y-10527260D01*
X19531904Y-10523903D01*
X19532199Y-10520798D01*
X19532546Y-10517967D01*
X19532919Y-10515435D01*
X16794874Y-10499872D01*
X16784559Y-10499511D01*
X16774375Y-10498479D01*
X16764348Y-10496792D01*
X16754507Y-10494467D01*
X16744879Y-10491520D01*
X16735490Y-10487967D01*
X16726369Y-10483826D01*
X16717543Y-10479114D01*
X16709038Y-10473846D01*
X16700883Y-10468040D01*
X16693104Y-10461712D01*
X16685729Y-10454878D01*
X16678785Y-10447557D01*
X16672300Y-10439763D01*
X16666300Y-10431514D01*
X16660814Y-10422827D01*
X16435961Y-10039599D01*
X16430675Y-10031155D01*
X16424906Y-10023124D01*
X16418677Y-10015522D01*
X16412014Y-10008363D01*
X16404942Y-10001662D01*
X16397485Y-9995434D01*
X16389669Y-9989694D01*
X16381517Y-9984457D01*
X16373055Y-9979737D01*
X16364307Y-9975549D01*
X16355299Y-9971909D01*
X16346054Y-9968830D01*
X16336599Y-9966329D01*
X16326956Y-9964419D01*
X16317153Y-9963116D01*
X16307212Y-9962434D01*
X14953268Y-9911093D01*
X13057707Y-9839161D01*
X13048621Y-9838559D01*
X13039706Y-9837456D01*
X13030976Y-9835868D01*
X13022443Y-9833810D01*
X13014117Y-9831298D01*
X13006012Y-9828348D01*
X12998138Y-9824974D01*
X12990508Y-9821192D01*
X12983134Y-9817017D01*
X12976027Y-9812465D01*
X12969200Y-9807552D01*
X12962664Y-9802292D01*
X12956431Y-9796701D01*
X12950513Y-9790794D01*
X12944922Y-9784588D01*
X12939670Y-9778096D01*
X12934768Y-9771335D01*
X12930229Y-9764320D01*
X12926064Y-9757067D01*
X12922286Y-9749591D01*
X12918906Y-9741906D01*
X12915936Y-9734030D01*
X12913387Y-9725976D01*
X12911273Y-9717761D01*
X12909604Y-9709400D01*
X12908393Y-9700908D01*
X12907651Y-9692301D01*
X12907390Y-9683594D01*
X12907623Y-9674802D01*
X12908360Y-9665941D01*
X12909615Y-9657027D01*
X12911398Y-9648074D01*
X12967818Y-9402734D01*
X12969600Y-9395696D01*
X12971701Y-9388781D01*
X12974115Y-9381996D01*
X12976835Y-9375350D01*
X12979854Y-9368852D01*
X12983166Y-9362510D01*
X12986764Y-9356332D01*
X12990642Y-9350327D01*
X12994793Y-9344504D01*
X12999210Y-9338870D01*
X13003887Y-9333434D01*
X13008816Y-9328206D01*
X13013993Y-9323192D01*
X13019409Y-9318402D01*
X13025058Y-9313845D01*
X13030933Y-9309528D01*
X15300694Y-7732720D01*
X15305585Y-7729390D01*
X15310593Y-7726263D01*
X15315714Y-7723339D01*
X15320939Y-7720621D01*
X15326260Y-7718110D01*
X15331671Y-7715807D01*
X15337165Y-7713714D01*
X15342733Y-7711834D01*
X15348369Y-7710168D01*
X15354065Y-7708716D01*
X15359815Y-7707482D01*
X15365610Y-7706466D01*
X15371443Y-7705671D01*
X15377308Y-7705098D01*
X15383196Y-7704748D01*
X15389101Y-7704624D01*
X17870796Y-7693778D01*
X18125871Y-7697853D01*
X20299559Y-7716407D01*
X20301720Y-7710799D01*
X20303653Y-7705021D01*
X20307300Y-7693254D01*
X20309247Y-7687416D01*
X20311431Y-7681710D01*
X20313968Y-7676210D01*
X20315406Y-7673562D01*
X20316976Y-7670993D01*
X20318692Y-7668514D01*
X20320569Y-7666133D01*
X20322621Y-7663862D01*
X20324864Y-7661707D01*
X20327312Y-7659680D01*
X20329979Y-7657790D01*
X20332879Y-7656046D01*
X20336028Y-7654457D01*
X20339440Y-7653033D01*
X20343129Y-7651784D01*
X20347109Y-7650719D01*
X20351397Y-7649846D01*
X20356005Y-7649177D01*
X20360949Y-7648719D01*
X20366243Y-7648484D01*
X20371901Y-7648479D01*
X20463014Y-7645830D01*
X20467334Y-7645794D01*
X20471818Y-7646054D01*
X20476424Y-7646596D01*
X20481111Y-7647407D01*
X20485838Y-7648473D01*
X20490564Y-7649783D01*
X20495246Y-7651321D01*
X20499845Y-7653076D01*
X20504319Y-7655034D01*
X20508627Y-7657182D01*
X20512726Y-7659505D01*
X20516577Y-7661993D01*
X20520138Y-7664630D01*
X20523367Y-7667403D01*
X20526223Y-7670301D01*
X20527499Y-7671791D01*
X20528666Y-7673308D01*
X20530649Y-7676175D01*
X20532455Y-7679063D01*
X20534093Y-7681964D01*
X20535570Y-7684873D01*
X20536895Y-7687784D01*
X20538075Y-7690689D01*
X20539119Y-7693583D01*
X20540035Y-7696459D01*
X20540831Y-7699309D01*
X20541514Y-7702129D01*
X20542094Y-7704911D01*
X20542578Y-7707649D01*
X20542974Y-7710336D01*
X20543290Y-7712967D01*
X20543534Y-7715534D01*
X20543715Y-7718030D01*
X20548983Y-7717724D01*
X20554241Y-7717288D01*
X20559481Y-7716709D01*
X20564699Y-7715972D01*
X20569888Y-7715060D01*
X20575042Y-7713960D01*
X20577604Y-7713334D01*
X20580155Y-7712656D01*
X20582695Y-7711923D01*
X20585221Y-7711133D01*
X20588859Y-7709971D01*
X20592378Y-7708747D01*
X20595778Y-7707468D01*
X20599059Y-7706141D01*
X20602221Y-7704775D01*
X20605263Y-7703376D01*
X20608187Y-7701952D01*
X20610990Y-7700510D01*
X20613675Y-7699057D01*
X20616239Y-7697601D01*
X20621009Y-7694710D01*
X20625299Y-7691895D01*
X20629107Y-7689216D01*
X21141661Y-7317654D01*
X21376240Y-7148885D01*
X21380049Y-7146103D01*
X21383757Y-7143211D01*
X21387363Y-7140212D01*
X21390866Y-7137109D01*
X21394265Y-7133903D01*
X21397560Y-7130598D01*
X21400750Y-7127194D01*
X21403834Y-7123696D01*
X21406812Y-7120104D01*
X21409683Y-7116422D01*
X21412445Y-7112651D01*
X21415099Y-7108794D01*
X21417644Y-7104854D01*
X21420078Y-7100833D01*
X21422402Y-7096733D01*
X21424613Y-7092556D01*
X21466256Y-7010383D01*
X21469984Y-7003471D01*
X21474015Y-6996808D01*
X21478338Y-6990400D01*
X21482940Y-6984251D01*
X21487809Y-6978369D01*
X21492933Y-6972759D01*
X21498301Y-6967426D01*
X21503900Y-6962377D01*
X21509718Y-6957617D01*
X21515743Y-6953151D01*
X21521964Y-6948987D01*
X21528367Y-6945129D01*
X21534942Y-6941583D01*
X21541676Y-6938354D01*
X21548557Y-6935450D01*
X21555573Y-6932875D01*
X21562712Y-6930636D01*
X21569962Y-6928737D01*
X21577312Y-6927185D01*
X21584748Y-6925986D01*
X21592259Y-6925145D01*
X21599834Y-6924668D01*
X21607459Y-6924560D01*
X21615124Y-6924829D01*
X21406580Y-7467204D02*
X21408694Y-7467408D01*
X21410811Y-7467717D01*
X21412928Y-7468134D01*
X21415040Y-7468661D01*
X21417145Y-7469298D01*
X21420554Y-7470560D01*
X21422623Y-7471302D01*
X21424628Y-7472140D01*
X21426568Y-7473070D01*
X21428441Y-7474087D01*
X21430246Y-7475190D01*
X21431980Y-7476375D01*
X21433644Y-7477637D01*
X21435234Y-7478975D01*
X21436749Y-7480383D01*
X21438188Y-7481860D01*
X21439549Y-7483401D01*
X21440830Y-7485003D01*
X21442031Y-7486663D01*
X21443149Y-7488377D01*
X21444183Y-7490142D01*
X21445131Y-7491954D01*
X21445992Y-7493810D01*
X21446764Y-7495707D01*
X21447445Y-7497641D01*
X21448034Y-7499608D01*
X21448530Y-7501606D01*
X21448931Y-7503631D01*
X21449235Y-7505679D01*
X21449440Y-7507747D01*
X21449546Y-7509832D01*
X21449550Y-7511930D01*
X21449452Y-7514037D01*
X21449248Y-7516151D01*
X21448939Y-7518268D01*
X21448521Y-7520385D01*
X21447995Y-7522497D01*
X21447357Y-7524603D01*
X20975564Y-8934400D01*
X20974821Y-8936469D01*
X20973984Y-8938475D01*
X20973055Y-8940415D01*
X20972037Y-8942288D01*
X20970934Y-8944093D01*
X20969749Y-8945827D01*
X20968487Y-8947490D01*
X20967149Y-8949080D01*
X20965741Y-8950596D01*
X20964264Y-8952034D01*
X20962723Y-8953395D01*
X20961121Y-8954677D01*
X20959461Y-8955878D01*
X20957747Y-8956996D01*
X20955982Y-8958029D01*
X20954170Y-8958978D01*
X20952314Y-8959838D01*
X20950417Y-8960610D01*
X20948483Y-8961292D01*
X20946516Y-8961881D01*
X20944518Y-8962377D01*
X20942493Y-8962778D01*
X20940445Y-8963082D01*
X20938377Y-8963287D01*
X20936292Y-8963393D01*
X20934195Y-8963397D01*
X20932087Y-8963298D01*
X20929973Y-8963095D01*
X20927856Y-8962786D01*
X20925740Y-8962368D01*
X20923627Y-8961842D01*
X20921522Y-8961204D01*
X20918114Y-8959943D01*
X20916044Y-8959200D01*
X20914037Y-8958360D01*
X20912095Y-8957427D01*
X20910218Y-8956405D01*
X20908409Y-8955296D01*
X20906670Y-8954106D01*
X20905002Y-8952836D01*
X20903406Y-8951491D01*
X20901885Y-8950074D01*
X20900440Y-8948589D01*
X20899073Y-8947039D01*
X20897785Y-8945429D01*
X20896578Y-8943761D01*
X20895455Y-8942039D01*
X20894416Y-8940267D01*
X20893463Y-8938448D01*
X20892597Y-8936586D01*
X20891822Y-8934684D01*
X20891138Y-8932746D01*
X20890546Y-8930776D01*
X20890050Y-8928777D01*
X20889649Y-8926753D01*
X20889347Y-8924706D01*
X20889144Y-8922642D01*
X20889042Y-8920563D01*
X20889044Y-8918473D01*
X20889150Y-8916376D01*
X20889363Y-8914274D01*
X20889683Y-8912173D01*
X20890114Y-8910074D01*
X20890656Y-8907983D01*
X20891310Y-8905901D01*
X21363103Y-7496103D01*
X21363846Y-7494034D01*
X21364683Y-7492029D01*
X21365613Y-7490089D01*
X21366630Y-7488215D01*
X21367733Y-7486411D01*
X21368918Y-7484676D01*
X21370180Y-7483013D01*
X21371518Y-7481423D01*
X21372926Y-7479908D01*
X21374403Y-7478469D01*
X21375944Y-7477108D01*
X21377546Y-7475826D01*
X21379206Y-7474626D01*
X21380920Y-7473508D01*
X21382685Y-7472474D01*
X21384497Y-7471526D01*
X21386353Y-7470665D01*
X21388250Y-7469893D01*
X21390184Y-7469211D01*
X21392151Y-7468622D01*
X21394149Y-7468126D01*
X21396174Y-7467725D01*
X21398222Y-7467422D01*
X21400290Y-7467216D01*
X21402375Y-7467110D01*
X21404473Y-7467106D01*
X21406580Y-7467204D01*
X21102752Y-7695010D02*
X21104866Y-7695214D01*
X21106982Y-7695523D01*
X21109099Y-7695940D01*
X21111211Y-7696467D01*
X21113316Y-7697104D01*
X21116725Y-7698366D01*
X21118794Y-7699108D01*
X21120799Y-7699946D01*
X21122739Y-7700875D01*
X21124612Y-7701893D01*
X21126417Y-7702996D01*
X21128152Y-7704181D01*
X21129815Y-7705443D01*
X21131405Y-7706781D01*
X21132920Y-7708189D01*
X21134359Y-7709666D01*
X21135720Y-7711207D01*
X21137002Y-7712809D01*
X21138202Y-7714469D01*
X21139320Y-7716183D01*
X21140354Y-7717948D01*
X21141302Y-7719760D01*
X21142163Y-7721616D01*
X21142935Y-7723513D01*
X21143616Y-7725447D01*
X21144206Y-7727414D01*
X21144702Y-7729412D01*
X21145102Y-7731437D01*
X21145406Y-7733485D01*
X21145612Y-7735553D01*
X21145717Y-7737638D01*
X21145722Y-7739736D01*
X21145623Y-7741843D01*
X21145419Y-7743957D01*
X21145110Y-7746074D01*
X21144693Y-7748191D01*
X21144166Y-7750303D01*
X21143528Y-7752408D01*
X20772833Y-8891466D01*
X20772090Y-8893535D01*
X20771253Y-8895541D01*
X20770324Y-8897481D01*
X20769306Y-8899354D01*
X20768203Y-8901159D01*
X20767018Y-8902893D01*
X20765756Y-8904556D01*
X20764418Y-8906146D01*
X20763010Y-8907662D01*
X20761533Y-8909100D01*
X20759992Y-8910461D01*
X20758390Y-8911743D01*
X20756730Y-8912944D01*
X20755016Y-8914062D01*
X20753251Y-8915095D01*
X20751439Y-8916043D01*
X20749583Y-8916904D01*
X20747686Y-8917676D01*
X20745752Y-8918358D01*
X20743785Y-8918947D01*
X20741787Y-8919443D01*
X20739762Y-8919843D01*
X20737714Y-8920147D01*
X20735646Y-8920353D01*
X20733561Y-8920459D01*
X20731463Y-8920463D01*
X20729356Y-8920364D01*
X20727242Y-8920161D01*
X20725125Y-8919851D01*
X20723008Y-8919434D01*
X20720896Y-8918907D01*
X20718791Y-8918270D01*
X20715382Y-8917008D01*
X20713337Y-8916248D01*
X20711353Y-8915396D01*
X20709431Y-8914453D01*
X20707573Y-8913425D01*
X20705781Y-8912313D01*
X20704057Y-8911121D01*
X20702402Y-8909852D01*
X20700817Y-8908511D01*
X20699306Y-8907100D01*
X20697869Y-8905622D01*
X20696508Y-8904080D01*
X20695225Y-8902479D01*
X20694022Y-8900821D01*
X20692900Y-8899110D01*
X20691861Y-8897349D01*
X20690907Y-8895541D01*
X20690040Y-8893690D01*
X20689260Y-8891799D01*
X20688571Y-8889871D01*
X20687973Y-8887909D01*
X20687469Y-8885917D01*
X20687060Y-8883899D01*
X20686748Y-8881857D01*
X20686534Y-8879795D01*
X20686420Y-8877715D01*
X20686409Y-8875623D01*
X20686501Y-8873520D01*
X20686699Y-8871410D01*
X20687004Y-8869296D01*
X20687418Y-8867182D01*
X20687942Y-8865071D01*
X20688579Y-8862967D01*
X21059275Y-7723909D01*
X21060017Y-7721840D01*
X21060854Y-7719834D01*
X21061784Y-7717894D01*
X21062802Y-7716021D01*
X21063905Y-7714217D01*
X21065089Y-7712482D01*
X21066352Y-7710819D01*
X21067689Y-7709229D01*
X21069098Y-7707714D01*
X21070574Y-7706275D01*
X21072115Y-7704914D01*
X21073717Y-7703632D01*
X21075377Y-7702431D01*
X21077091Y-7701313D01*
X21078856Y-7700280D01*
X21080668Y-7699331D01*
X21082524Y-7698471D01*
X21084421Y-7697699D01*
X21086355Y-7697017D01*
X21088323Y-7696428D01*
X21090320Y-7695932D01*
X21092345Y-7695531D01*
X21094393Y-7695227D01*
X21096461Y-7695022D01*
X21098546Y-7694916D01*
X21100644Y-7694912D01*
X21102752Y-7695010D01*
D11*
D12*
X12964400Y-9649700D02*
X12994400Y-9679700D01*
X12994400Y-9649700D02*
X12964400Y-9679700D01*
X13002500Y-9738600D02*
X13032500Y-9768600D01*
X13032500Y-9738600D02*
X13002500Y-9768600D01*
X13116800Y-9764000D02*
X13146800Y-9794000D01*
X13146800Y-9764000D02*
X13116800Y-9794000D01*
X13129500Y-9484600D02*
X13159500Y-9514600D01*
X13159500Y-9484600D02*
X13129500Y-9514600D01*
X13129500Y-9573500D02*
X13159500Y-9603500D01*
X13159500Y-9573500D02*
X13129500Y-9603500D01*
X13243800Y-9281400D02*
X13273800Y-9311400D01*
X13273800Y-9281400D02*
X13243800Y-9311400D01*
X13320000Y-9484600D02*
X13350000Y-9514600D01*
X13350000Y-9484600D02*
X13320000Y-9514600D01*
X13320000Y-9586200D02*
X13350000Y-9616200D01*
X13350000Y-9586200D02*
X13320000Y-9616200D01*
X13447000Y-9243300D02*
X13477000Y-9273300D01*
X13477000Y-9243300D02*
X13447000Y-9273300D01*
X13548600Y-9421100D02*
X13578600Y-9451100D01*
X13578600Y-9421100D02*
X13548600Y-9451100D01*
X13548600Y-9510000D02*
X13578600Y-9540000D01*
X13578600Y-9510000D02*
X13548600Y-9540000D01*
X13828000Y-9421100D02*
X13858000Y-9451100D01*
X13858000Y-9421100D02*
X13828000Y-9451100D01*
X13828000Y-9535400D02*
X13858000Y-9565400D01*
X13858000Y-9535400D02*
X13828000Y-9565400D01*
X13916900Y-9662400D02*
X13946900Y-9692400D01*
X13946900Y-9662400D02*
X13916900Y-9692400D01*
X14018500Y-9471900D02*
X14048500Y-9501900D01*
X14048500Y-9471900D02*
X14018500Y-9501900D01*
X14132800Y-9230600D02*
X14162800Y-9260600D01*
X14162800Y-9230600D02*
X14132800Y-9260600D01*
X14374100Y-9433800D02*
X14404100Y-9463800D01*
X14404100Y-9433800D02*
X14374100Y-9463800D01*
X14501100Y-8925800D02*
X14531100Y-8955800D01*
X14531100Y-8925800D02*
X14501100Y-8955800D01*
X14526500Y-9675100D02*
X14556500Y-9705100D01*
X14556500Y-9675100D02*
X14526500Y-9705100D01*
X14577300Y-9205200D02*
X14607300Y-9235200D01*
X14607300Y-9205200D02*
X14577300Y-9235200D01*
X14577300Y-9497300D02*
X14607300Y-9527300D01*
X14607300Y-9497300D02*
X14577300Y-9527300D01*
X14615400Y-8925800D02*
X14645400Y-8955800D01*
X14645400Y-8925800D02*
X14615400Y-8955800D01*
X14755100Y-8176500D02*
X14785100Y-8206500D01*
X14785100Y-8176500D02*
X14755100Y-8206500D01*
X14793200Y-8748000D02*
X14823200Y-8778000D01*
X14823200Y-8748000D02*
X14793200Y-8778000D01*
X14805900Y-8138400D02*
X14835900Y-8168400D01*
X14835900Y-8138400D02*
X14805900Y-8168400D01*
X14907500Y-8989300D02*
X14937500Y-9019300D01*
X14937500Y-8989300D02*
X14907500Y-9019300D01*
X14907500Y-9446500D02*
X14937500Y-9476500D01*
X14937500Y-9446500D02*
X14907500Y-9476500D01*
X14945600Y-8024100D02*
X14975600Y-8054100D01*
X14975600Y-8024100D02*
X14945600Y-8054100D01*
X14983700Y-8570200D02*
X15013700Y-8600200D01*
X15013700Y-8570200D02*
X14983700Y-8600200D01*
X15021800Y-7998700D02*
X15051800Y-8028700D01*
X15051800Y-7998700D02*
X15021800Y-8028700D01*
X15085300Y-9052800D02*
X15115300Y-9082800D01*
X15115300Y-9052800D02*
X15085300Y-9082800D01*
X15110700Y-9510000D02*
X15140700Y-9540000D01*
X15140700Y-9510000D02*
X15110700Y-9540000D01*
X15136100Y-7897100D02*
X15166100Y-7927100D01*
X15166100Y-7897100D02*
X15136100Y-7927100D01*
X15136100Y-8786100D02*
X15166100Y-8816100D01*
X15166100Y-8786100D02*
X15136100Y-8816100D01*
X15161500Y-8405100D02*
X15191500Y-8435100D01*
X15191500Y-8405100D02*
X15161500Y-8435100D01*
X15174200Y-9167100D02*
X15204200Y-9197100D01*
X15204200Y-9167100D02*
X15174200Y-9197100D01*
X15174200Y-9256000D02*
X15204200Y-9286000D01*
X15204200Y-9256000D02*
X15174200Y-9286000D01*
X15186900Y-8697200D02*
X15216900Y-8727200D01*
X15216900Y-8697200D02*
X15186900Y-8727200D01*
X15263100Y-9167100D02*
X15293100Y-9197100D01*
X15293100Y-9167100D02*
X15263100Y-9197100D01*
X15288500Y-9306800D02*
X15318500Y-9336800D01*
X15318500Y-9306800D02*
X15288500Y-9336800D01*
X15352000Y-8646400D02*
X15382000Y-8676400D01*
X15382000Y-8646400D02*
X15352000Y-8676400D01*
X15352000Y-8709900D02*
X15382000Y-8739900D01*
X15382000Y-8709900D02*
X15352000Y-8739900D01*
X15352000Y-9040100D02*
X15382000Y-9070100D01*
X15382000Y-9040100D02*
X15352000Y-9070100D01*
X15428200Y-9510000D02*
X15458200Y-9540000D01*
X15458200Y-9510000D02*
X15428200Y-9540000D01*
X15428200Y-9637000D02*
X15458200Y-9667000D01*
X15458200Y-9637000D02*
X15428200Y-9667000D01*
X15466300Y-8049500D02*
X15496300Y-8079500D01*
X15496300Y-8049500D02*
X15466300Y-8079500D01*
X15466300Y-9573500D02*
X15496300Y-9603500D01*
X15496300Y-9573500D02*
X15466300Y-9603500D01*
X15504400Y-7986000D02*
X15534400Y-8016000D01*
X15534400Y-7986000D02*
X15504400Y-8016000D01*
X15504400Y-8113000D02*
X15534400Y-8143000D01*
X15534400Y-8113000D02*
X15504400Y-8143000D01*
X15504400Y-9510000D02*
X15534400Y-9540000D01*
X15534400Y-9510000D02*
X15504400Y-9540000D01*
X15504400Y-9637000D02*
X15534400Y-9667000D01*
X15534400Y-9637000D02*
X15504400Y-9667000D01*
X15542500Y-8049500D02*
X15572500Y-8079500D01*
X15572500Y-8049500D02*
X15542500Y-8079500D01*
X15542500Y-9573500D02*
X15572500Y-9603500D01*
X15572500Y-9573500D02*
X15542500Y-9603500D01*
X15580600Y-7986000D02*
X15610600Y-8016000D01*
X15610600Y-7986000D02*
X15580600Y-8016000D01*
X15580600Y-8113000D02*
X15610600Y-8143000D01*
X15610600Y-8113000D02*
X15580600Y-8143000D01*
X15580600Y-9510000D02*
X15610600Y-9540000D01*
X15610600Y-9510000D02*
X15580600Y-9540000D01*
X15580600Y-9637000D02*
X15610600Y-9667000D01*
X15610600Y-9637000D02*
X15580600Y-9667000D01*
X15593300Y-9827500D02*
X15623300Y-9857500D01*
X15623300Y-9827500D02*
X15593300Y-9857500D01*
X15618700Y-8049500D02*
X15648700Y-8079500D01*
X15648700Y-8049500D02*
X15618700Y-8079500D01*
X15618700Y-9573500D02*
X15648700Y-9603500D01*
X15648700Y-9573500D02*
X15618700Y-9603500D01*
X15656800Y-7986000D02*
X15686800Y-8016000D01*
X15686800Y-7986000D02*
X15656800Y-8016000D01*
X15656800Y-8113000D02*
X15686800Y-8143000D01*
X15686800Y-8113000D02*
X15656800Y-8143000D01*
X15656800Y-9510000D02*
X15686800Y-9540000D01*
X15686800Y-9510000D02*
X15656800Y-9540000D01*
X15656800Y-9637000D02*
X15686800Y-9667000D01*
X15686800Y-9637000D02*
X15656800Y-9667000D01*
X15694900Y-8049500D02*
X15724900Y-8079500D01*
X15724900Y-8049500D02*
X15694900Y-8079500D01*
X15694900Y-8240000D02*
X15724900Y-8270000D01*
X15724900Y-8240000D02*
X15694900Y-8270000D01*
X15694900Y-9573500D02*
X15724900Y-9603500D01*
X15724900Y-9573500D02*
X15694900Y-9603500D01*
X15720300Y-8621000D02*
X15750300Y-8651000D01*
X15750300Y-8621000D02*
X15720300Y-8651000D01*
X15720300Y-8684500D02*
X15750300Y-8714500D01*
X15750300Y-8684500D02*
X15720300Y-8714500D01*
X15720300Y-8748000D02*
X15750300Y-8778000D01*
X15750300Y-8748000D02*
X15720300Y-8778000D01*
X15733000Y-7986000D02*
X15763000Y-8016000D01*
X15763000Y-7986000D02*
X15733000Y-8016000D01*
X15733000Y-8113000D02*
X15763000Y-8143000D01*
X15763000Y-8113000D02*
X15733000Y-8143000D01*
X15733000Y-9510000D02*
X15763000Y-9540000D01*
X15763000Y-9510000D02*
X15733000Y-9540000D01*
X15733000Y-9637000D02*
X15763000Y-9667000D01*
X15763000Y-9637000D02*
X15733000Y-9667000D01*
X15809200Y-9154400D02*
X15839200Y-9184400D01*
X15839200Y-9154400D02*
X15809200Y-9184400D01*
X15809200Y-9217900D02*
X15839200Y-9247900D01*
X15839200Y-9217900D02*
X15809200Y-9247900D01*
X15860000Y-8506700D02*
X15890000Y-8536700D01*
X15890000Y-8506700D02*
X15860000Y-8536700D01*
X15987000Y-9433800D02*
X16017000Y-9463800D01*
X16017000Y-9433800D02*
X15987000Y-9463800D01*
X16088600Y-8430500D02*
X16118600Y-8460500D01*
X16118600Y-8430500D02*
X16088600Y-8460500D01*
X16164800Y-8722600D02*
X16194800Y-8752600D01*
X16194800Y-8722600D02*
X16164800Y-8752600D01*
X16177500Y-8240000D02*
X16207500Y-8270000D01*
X16207500Y-8240000D02*
X16177500Y-8270000D01*
X16228300Y-8811500D02*
X16258300Y-8841500D01*
X16258300Y-8811500D02*
X16228300Y-8841500D01*
X16228300Y-8900400D02*
X16258300Y-8930400D01*
X16258300Y-8900400D02*
X16228300Y-8930400D01*
X16228300Y-9103600D02*
X16258300Y-9133600D01*
X16258300Y-9103600D02*
X16228300Y-9133600D01*
X16253700Y-8722600D02*
X16283700Y-8752600D01*
X16283700Y-8722600D02*
X16253700Y-8752600D01*
X16279100Y-9040100D02*
X16309100Y-9070100D01*
X16309100Y-9040100D02*
X16279100Y-9070100D01*
X16279100Y-9319500D02*
X16309100Y-9349500D01*
X16309100Y-9319500D02*
X16279100Y-9349500D01*
X16279100Y-9421100D02*
X16309100Y-9451100D01*
X16309100Y-9421100D02*
X16279100Y-9451100D01*
X16342600Y-8722600D02*
X16372600Y-8752600D01*
X16372600Y-8722600D02*
X16342600Y-8752600D01*
X16342600Y-8951200D02*
X16372600Y-8981200D01*
X16372600Y-8951200D02*
X16342600Y-8981200D01*
X16355300Y-8430500D02*
X16385300Y-8460500D01*
X16385300Y-8430500D02*
X16355300Y-8460500D01*
X16355300Y-8532100D02*
X16385300Y-8562100D01*
X16385300Y-8532100D02*
X16355300Y-8562100D01*
X16393400Y-8887700D02*
X16423400Y-8917700D01*
X16423400Y-8887700D02*
X16393400Y-8917700D01*
X16393400Y-9611600D02*
X16423400Y-9641600D01*
X16423400Y-9611600D02*
X16393400Y-9641600D01*
X16393400Y-9700500D02*
X16423400Y-9730500D01*
X16423400Y-9700500D02*
X16393400Y-9730500D01*
X16482300Y-9103600D02*
X16512300Y-9133600D01*
X16512300Y-9103600D02*
X16482300Y-9133600D01*
X16482300Y-9268700D02*
X16512300Y-9298700D01*
X16512300Y-9268700D02*
X16482300Y-9298700D01*
X16482300Y-9357600D02*
X16512300Y-9387600D01*
X16512300Y-9357600D02*
X16482300Y-9387600D01*
X16482300Y-9446500D02*
X16512300Y-9476500D01*
X16512300Y-9446500D02*
X16482300Y-9476500D01*
X16495000Y-9713200D02*
X16525000Y-9743200D01*
X16525000Y-9713200D02*
X16495000Y-9743200D01*
X16507700Y-9027400D02*
X16537700Y-9057400D01*
X16537700Y-9027400D02*
X16507700Y-9057400D01*
X16507700Y-9192500D02*
X16537700Y-9222500D01*
X16537700Y-9192500D02*
X16507700Y-9222500D01*
X16545800Y-9510000D02*
X16575800Y-9540000D01*
X16575800Y-9510000D02*
X16545800Y-9540000D01*
X16558500Y-8824200D02*
X16588500Y-8854200D01*
X16588500Y-8824200D02*
X16558500Y-8854200D01*
X16596600Y-9040100D02*
X16626600Y-9070100D01*
X16626600Y-9040100D02*
X16596600Y-9070100D01*
X16622000Y-9484600D02*
X16652000Y-9514600D01*
X16652000Y-9484600D02*
X16622000Y-9514600D01*
X16622000Y-9713200D02*
X16652000Y-9743200D01*
X16652000Y-9713200D02*
X16622000Y-9743200D01*
X16622000Y-9916400D02*
X16652000Y-9946400D01*
X16652000Y-9916400D02*
X16622000Y-9946400D01*
X16634700Y-8151100D02*
X16664700Y-8181100D01*
X16664700Y-8151100D02*
X16634700Y-8181100D01*
X16634700Y-8341600D02*
X16664700Y-8371600D01*
X16664700Y-8341600D02*
X16634700Y-8371600D01*
X16660100Y-10018000D02*
X16690100Y-10048000D01*
X16690100Y-10018000D02*
X16660100Y-10048000D01*
X16672800Y-10360900D02*
X16702800Y-10390900D01*
X16702800Y-10360900D02*
X16672800Y-10390900D01*
X16698200Y-9230600D02*
X16728200Y-9260600D01*
X16728200Y-9230600D02*
X16698200Y-9260600D01*
X16698200Y-9294100D02*
X16728200Y-9324100D01*
X16728200Y-9294100D02*
X16698200Y-9324100D01*
X16710900Y-8468600D02*
X16740900Y-8498600D01*
X16740900Y-8468600D02*
X16710900Y-8498600D01*
X16710900Y-9484600D02*
X16740900Y-9514600D01*
X16740900Y-9484600D02*
X16710900Y-9514600D01*
X16710900Y-10411700D02*
X16740900Y-10441700D01*
X16740900Y-10411700D02*
X16710900Y-10441700D01*
X16749000Y-9027400D02*
X16779000Y-9057400D01*
X16779000Y-9027400D02*
X16749000Y-9057400D01*
X16749000Y-9725900D02*
X16779000Y-9755900D01*
X16779000Y-9725900D02*
X16749000Y-9755900D01*
X16761700Y-8240000D02*
X16791700Y-8270000D01*
X16791700Y-8240000D02*
X16761700Y-8270000D01*
X16774400Y-10437100D02*
X16804400Y-10467100D01*
X16804400Y-10437100D02*
X16774400Y-10467100D01*
X16799800Y-9497300D02*
X16829800Y-9527300D01*
X16829800Y-9497300D02*
X16799800Y-9527300D01*
X16812500Y-9891000D02*
X16842500Y-9921000D01*
X16842500Y-9891000D02*
X16812500Y-9921000D01*
X16888700Y-8151100D02*
X16918700Y-8181100D01*
X16918700Y-8151100D02*
X16888700Y-8181100D01*
X16888700Y-8341600D02*
X16918700Y-8371600D01*
X16918700Y-8341600D02*
X16888700Y-8371600D01*
X16888700Y-9510000D02*
X16918700Y-9540000D01*
X16918700Y-9510000D02*
X16888700Y-9540000D01*
X16914100Y-8646400D02*
X16944100Y-8676400D01*
X16944100Y-8646400D02*
X16914100Y-8676400D01*
X16914100Y-8824200D02*
X16944100Y-8854200D01*
X16944100Y-8824200D02*
X16914100Y-8854200D01*
X16952200Y-9027400D02*
X16982200Y-9057400D01*
X16982200Y-9027400D02*
X16952200Y-9057400D01*
X16964900Y-9116300D02*
X16994900Y-9146300D01*
X16994900Y-9116300D02*
X16964900Y-9146300D01*
X16964900Y-9205200D02*
X16994900Y-9235200D01*
X16994900Y-9205200D02*
X16964900Y-9235200D01*
X17041100Y-8303500D02*
X17071100Y-8333500D01*
X17071100Y-8303500D02*
X17041100Y-8333500D01*
X17041100Y-8405100D02*
X17071100Y-8435100D01*
X17071100Y-8405100D02*
X17041100Y-8435100D01*
X17053800Y-8938500D02*
X17083800Y-8968500D01*
X17083800Y-8938500D02*
X17053800Y-8968500D01*
X17066500Y-10183100D02*
X17096500Y-10213100D01*
X17096500Y-10183100D02*
X17066500Y-10213100D01*
X17066500Y-10272000D02*
X17096500Y-10302000D01*
X17096500Y-10272000D02*
X17066500Y-10302000D01*
X17104600Y-7897100D02*
X17134600Y-7927100D01*
X17134600Y-7897100D02*
X17104600Y-7927100D01*
X17193500Y-7909800D02*
X17223500Y-7939800D01*
X17223500Y-7909800D02*
X17193500Y-7939800D01*
X17295100Y-9598900D02*
X17325100Y-9628900D01*
X17325100Y-9598900D02*
X17295100Y-9628900D01*
X17320500Y-9814800D02*
X17350500Y-9844800D01*
X17350500Y-9814800D02*
X17320500Y-9844800D01*
X17333200Y-8138400D02*
X17363200Y-8168400D01*
X17363200Y-8138400D02*
X17333200Y-8168400D01*
X17333200Y-8316200D02*
X17363200Y-8346200D01*
X17363200Y-8316200D02*
X17333200Y-8346200D01*
X17396700Y-8087600D02*
X17426700Y-8117600D01*
X17426700Y-8087600D02*
X17396700Y-8117600D01*
X17447500Y-8379700D02*
X17477500Y-8409700D01*
X17477500Y-8379700D02*
X17447500Y-8409700D01*
X17447500Y-8544800D02*
X17477500Y-8574800D01*
X17477500Y-8544800D02*
X17447500Y-8574800D01*
X17460200Y-8151100D02*
X17490200Y-8181100D01*
X17490200Y-8151100D02*
X17460200Y-8181100D01*
X17460200Y-8240000D02*
X17490200Y-8270000D01*
X17490200Y-8240000D02*
X17460200Y-8270000D01*
X17472900Y-9141700D02*
X17502900Y-9171700D01*
X17502900Y-9141700D02*
X17472900Y-9171700D01*
X17942800Y-8913100D02*
X17972800Y-8943100D01*
X17972800Y-8913100D02*
X17942800Y-8943100D01*
X18260300Y-9573500D02*
X18290300Y-9603500D01*
X18290300Y-9573500D02*
X18260300Y-9603500D01*
X18438100Y-10310100D02*
X18468100Y-10340100D01*
X18468100Y-10310100D02*
X18438100Y-10340100D01*
X18590500Y-8976600D02*
X18620500Y-9006600D01*
X18620500Y-8976600D02*
X18590500Y-9006600D01*
X18666700Y-8113000D02*
X18696700Y-8143000D01*
X18696700Y-8113000D02*
X18666700Y-8143000D01*
X18666700Y-8201900D02*
X18696700Y-8231900D01*
X18696700Y-8201900D02*
X18666700Y-8231900D01*
X18806400Y-8163800D02*
X18836400Y-8193800D01*
X18836400Y-8163800D02*
X18806400Y-8193800D01*
X19060400Y-9357600D02*
X19090400Y-9387600D01*
X19090400Y-9357600D02*
X19060400Y-9387600D01*
X19327100Y-8392400D02*
X19357100Y-8422400D01*
X19357100Y-8392400D02*
X19327100Y-8422400D01*
X19327100Y-8494000D02*
X19357100Y-8524000D01*
X19357100Y-8494000D02*
X19327100Y-8524000D01*
X19327100Y-8595600D02*
X19357100Y-8625600D01*
X19357100Y-8595600D02*
X19327100Y-8625600D01*
X19377900Y-9090900D02*
X19407900Y-9120900D01*
X19407900Y-9090900D02*
X19377900Y-9120900D01*
X19390600Y-8824200D02*
X19420600Y-8854200D01*
X19420600Y-8824200D02*
X19390600Y-8854200D01*
X19428700Y-8392400D02*
X19458700Y-8422400D01*
X19458700Y-8392400D02*
X19428700Y-8422400D01*
X19428700Y-8494000D02*
X19458700Y-8524000D01*
X19458700Y-8494000D02*
X19428700Y-8524000D01*
X19428700Y-8595600D02*
X19458700Y-8625600D01*
X19458700Y-8595600D02*
X19428700Y-8625600D01*
X19530300Y-8392400D02*
X19560300Y-8422400D01*
X19560300Y-8392400D02*
X19530300Y-8422400D01*
X19530300Y-8494000D02*
X19560300Y-8524000D01*
X19560300Y-8494000D02*
X19530300Y-8524000D01*
X19530300Y-8595600D02*
X19560300Y-8625600D01*
X19560300Y-8595600D02*
X19530300Y-8625600D01*
X19568400Y-8176500D02*
X19598400Y-8206500D01*
X19598400Y-8176500D02*
X19568400Y-8206500D01*
X19619200Y-8684500D02*
X19649200Y-8714500D01*
X19649200Y-8684500D02*
X19619200Y-8714500D01*
X19670000Y-9179800D02*
X19700000Y-9209800D01*
X19700000Y-9179800D02*
X19670000Y-9209800D01*
X19682700Y-8748000D02*
X19712700Y-8778000D01*
X19712700Y-8748000D02*
X19682700Y-8778000D01*
X19682700Y-8951200D02*
X19712700Y-8981200D01*
X19712700Y-8951200D02*
X19682700Y-8981200D01*
X19746200Y-8278100D02*
X19776200Y-8308100D01*
X19776200Y-8278100D02*
X19746200Y-8308100D01*
X19758900Y-9586200D02*
X19788900Y-9616200D01*
X19788900Y-9586200D02*
X19758900Y-9616200D01*
X19885900Y-9243300D02*
X19915900Y-9273300D01*
X19915900Y-9243300D02*
X19885900Y-9273300D01*
X19898600Y-9040100D02*
X19928600Y-9070100D01*
X19928600Y-9040100D02*
X19898600Y-9070100D01*
X19936700Y-9624300D02*
X19966700Y-9654300D01*
X19966700Y-9624300D02*
X19936700Y-9654300D01*
X19936700Y-9954500D02*
X19966700Y-9984500D01*
X19966700Y-9954500D02*
X19936700Y-9984500D01*
X19974800Y-9827500D02*
X20004800Y-9857500D01*
X20004800Y-9827500D02*
X19974800Y-9857500D01*
X20038300Y-9078200D02*
X20068300Y-9108200D01*
X20068300Y-9078200D02*
X20038300Y-9108200D01*
X20051000Y-8989300D02*
X20081000Y-9019300D01*
X20081000Y-8989300D02*
X20051000Y-9019300D01*
X20051000Y-9586200D02*
X20081000Y-9616200D01*
X20081000Y-9586200D02*
X20051000Y-9616200D01*
X20161133Y-9254230D02*
X20191133Y-9284230D01*
X20191133Y-9254230D02*
X20161133Y-9284230D01*
X20190700Y-10310100D02*
X20220700Y-10340100D01*
X20220700Y-10310100D02*
X20190700Y-10340100D01*
X20203400Y-8887700D02*
X20233400Y-8917700D01*
X20233400Y-8887700D02*
X20203400Y-8917700D01*
X20203400Y-10665700D02*
X20233400Y-10695700D01*
X20233400Y-10665700D02*
X20203400Y-10695700D01*
X20228800Y-8417800D02*
X20258800Y-8447800D01*
X20258800Y-8417800D02*
X20228800Y-8447800D01*
X20241500Y-8671800D02*
X20271500Y-8701800D01*
X20271500Y-8671800D02*
X20241500Y-8701800D01*
X20241500Y-9992600D02*
X20271500Y-10022600D01*
X20271500Y-9992600D02*
X20241500Y-10022600D01*
X20312052Y-9520259D02*
X20342052Y-9550259D01*
X20342052Y-9520259D02*
X20312052Y-9550259D01*
X20355800Y-10310100D02*
X20385800Y-10340100D01*
X20385800Y-10310100D02*
X20355800Y-10340100D01*
X20361166Y-9375989D02*
X20391166Y-9405989D01*
X20391166Y-9375989D02*
X20361166Y-9405989D01*
X20381200Y-10576800D02*
X20411200Y-10606800D01*
X20411200Y-10576800D02*
X20381200Y-10606800D01*
X20990800Y-9217900D02*
X21020800Y-9247900D01*
X21020800Y-9217900D02*
X20990800Y-9247900D01*
X21016200Y-9167100D02*
X21046200Y-9197100D01*
X21046200Y-9167100D02*
X21016200Y-9197100D01*
X21562300Y-7427200D02*
X21592300Y-7457200D01*
X21592300Y-7427200D02*
X21562300Y-7457200D01*
D13*
X20221108Y-9756933D02*
G75*
G03*
X20221108Y-9756933I-30000J0D01*
G01*
D11*
X20252860Y-9746365D02*
X20148791Y-9710735D01*
X20148791Y-9710734D02*
G75*
G03*
X20129356Y-9767500I-9718J-28383D01*
G01*
X20129356Y-9767500D02*
X20233425Y-9803131D01*
X20233425Y-9803131D02*
G75*
G03*
X20252860Y-9746365I9718J28383D01*
G01*
D13*
X20500973Y-8939515D02*
G75*
G03*
X20500973Y-8939515I-30000J0D01*
G01*
D11*
X20532725Y-8928948D02*
X20428656Y-8893317D01*
X20428656Y-8893317D02*
G75*
G03*
X20409221Y-8950082I-9718J-28383D01*
G01*
X20409221Y-8950082D02*
X20513290Y-8985713D01*
X20513290Y-8985713D02*
G75*
G03*
X20532725Y-8928948I9718J28383D01*
G01*
D13*
X20616572Y-9892330D02*
G75*
G03*
X20616572Y-9892330I-30000J0D01*
G01*
D11*
X20634133Y-9876904D02*
X20558446Y-9850991D01*
X20558446Y-9850991D02*
G75*
G03*
X20539011Y-9907756I-9718J-28383D01*
G01*
X20539011Y-9907756D02*
X20614698Y-9933669D01*
X20614698Y-9933669D02*
G75*
G03*
X20634133Y-9876904I9718J28383D01*
G01*
D13*
X20896437Y-9074912D02*
G75*
G03*
X20896437Y-9074912I-30000J0D01*
G01*
D11*
X20913997Y-9059486D02*
X20838311Y-9033573D01*
X20838311Y-9033573D02*
G75*
G03*
X20818876Y-9090338I-9718J-28383D01*
G01*
X20818876Y-9090338D02*
X20894562Y-9116252D01*
X20894562Y-9116252D02*
G75*
G03*
X20913997Y-9059486I9718J28383D01*
G01*
D14*
X21615400Y-7049700D02*
X21615400Y-7199700D01*
X21540400Y-7124700D02*
X21690400Y-7124700D01*
D11*
X13163167Y-11074639D02*
X13163167Y-10874639D01*
X13163167Y-10874639D02*
X13210786Y-10874639D01*
X13210786Y-10874639D02*
X13239358Y-10884163D01*
X13239358Y-10884163D02*
X13258405Y-10903211D01*
X13258405Y-10903211D02*
X13267929Y-10922258D01*
X13267929Y-10922258D02*
X13277453Y-10960353D01*
X13277453Y-10960353D02*
X13277453Y-10988925D01*
X13277453Y-10988925D02*
X13267929Y-11027020D01*
X13267929Y-11027020D02*
X13258405Y-11046068D01*
X13258405Y-11046068D02*
X13239358Y-11065115D01*
X13239358Y-11065115D02*
X13210786Y-11074639D01*
X13210786Y-11074639D02*
X13163167Y-11074639D01*
X13363167Y-11074639D02*
X13363167Y-10941306D01*
X13363167Y-10979401D02*
X13372691Y-10960353D01*
X13372691Y-10960353D02*
X13382215Y-10950830D01*
X13382215Y-10950830D02*
X13401262Y-10941306D01*
X13401262Y-10941306D02*
X13420310Y-10941306D01*
X13486977Y-11074639D02*
X13486977Y-10941306D01*
X13486977Y-10874639D02*
X13477453Y-10884163D01*
X13477453Y-10884163D02*
X13486977Y-10893687D01*
X13486977Y-10893687D02*
X13496500Y-10884163D01*
X13496500Y-10884163D02*
X13486977Y-10874639D01*
X13486977Y-10874639D02*
X13486977Y-10893687D01*
X13610786Y-11074639D02*
X13591738Y-11065115D01*
X13591738Y-11065115D02*
X13582215Y-11046068D01*
X13582215Y-11046068D02*
X13582215Y-10874639D01*
X13715548Y-11074639D02*
X13696500Y-11065115D01*
X13696500Y-11065115D02*
X13686977Y-11046068D01*
X13686977Y-11046068D02*
X13686977Y-10874639D01*
X13944119Y-11074639D02*
X13944119Y-10874639D01*
X13944119Y-10874639D02*
X14010786Y-11017496D01*
X14010786Y-11017496D02*
X14077453Y-10874639D01*
X14077453Y-10874639D02*
X14077453Y-11074639D01*
X14258405Y-11074639D02*
X14258405Y-10969877D01*
X14258405Y-10969877D02*
X14248881Y-10950830D01*
X14248881Y-10950830D02*
X14229834Y-10941306D01*
X14229834Y-10941306D02*
X14191738Y-10941306D01*
X14191738Y-10941306D02*
X14172691Y-10950830D01*
X14258405Y-11065115D02*
X14239358Y-11074639D01*
X14239358Y-11074639D02*
X14191738Y-11074639D01*
X14191738Y-11074639D02*
X14172691Y-11065115D01*
X14172691Y-11065115D02*
X14163167Y-11046068D01*
X14163167Y-11046068D02*
X14163167Y-11027020D01*
X14163167Y-11027020D02*
X14172691Y-11007972D01*
X14172691Y-11007972D02*
X14191738Y-10998449D01*
X14191738Y-10998449D02*
X14239358Y-10998449D01*
X14239358Y-10998449D02*
X14258405Y-10988925D01*
X14353643Y-10941306D02*
X14353643Y-11141306D01*
X14353643Y-10950830D02*
X14372691Y-10941306D01*
X14372691Y-10941306D02*
X14410786Y-10941306D01*
X14410786Y-10941306D02*
X14429834Y-10950830D01*
X14429834Y-10950830D02*
X14439358Y-10960353D01*
X14439358Y-10960353D02*
X14448881Y-10979401D01*
X14448881Y-10979401D02*
X14448881Y-11036544D01*
X14448881Y-11036544D02*
X14439358Y-11055591D01*
X14439358Y-11055591D02*
X14429834Y-11065115D01*
X14429834Y-11065115D02*
X14410786Y-11074639D01*
X14410786Y-11074639D02*
X14372691Y-11074639D01*
X14372691Y-11074639D02*
X14353643Y-11065115D01*
X14534596Y-11055591D02*
X14544119Y-11065115D01*
X14544119Y-11065115D02*
X14534596Y-11074639D01*
X14534596Y-11074639D02*
X14525072Y-11065115D01*
X14525072Y-11065115D02*
X14534596Y-11055591D01*
X14534596Y-11055591D02*
X14534596Y-11074639D01*
X14534596Y-10950830D02*
X14544119Y-10960353D01*
X14544119Y-10960353D02*
X14534596Y-10969877D01*
X14534596Y-10969877D02*
X14525072Y-10960353D01*
X14525072Y-10960353D02*
X14534596Y-10950830D01*
X14534596Y-10950830D02*
X14534596Y-10969877D01*
D12*
X12872390Y-11388155D02*
X12902390Y-11418155D01*
X12902390Y-11388155D02*
X12872390Y-11418155D01*
D11*
X13201262Y-11294639D02*
X13220310Y-11294639D01*
X13220310Y-11294639D02*
X13239358Y-11304163D01*
X13239358Y-11304163D02*
X13248881Y-11313687D01*
X13248881Y-11313687D02*
X13258405Y-11332734D01*
X13258405Y-11332734D02*
X13267929Y-11370829D01*
X13267929Y-11370829D02*
X13267929Y-11418449D01*
X13267929Y-11418449D02*
X13258405Y-11456544D01*
X13258405Y-11456544D02*
X13248881Y-11475591D01*
X13248881Y-11475591D02*
X13239358Y-11485115D01*
X13239358Y-11485115D02*
X13220310Y-11494639D01*
X13220310Y-11494639D02*
X13201262Y-11494639D01*
X13201262Y-11494639D02*
X13182215Y-11485115D01*
X13182215Y-11485115D02*
X13172691Y-11475591D01*
X13172691Y-11475591D02*
X13163167Y-11456544D01*
X13163167Y-11456544D02*
X13153643Y-11418449D01*
X13153643Y-11418449D02*
X13153643Y-11370829D01*
X13153643Y-11370829D02*
X13163167Y-11332734D01*
X13163167Y-11332734D02*
X13172691Y-11313687D01*
X13172691Y-11313687D02*
X13182215Y-11304163D01*
X13182215Y-11304163D02*
X13201262Y-11294639D01*
X13353643Y-11475591D02*
X13363167Y-11485115D01*
X13363167Y-11485115D02*
X13353643Y-11494639D01*
X13353643Y-11494639D02*
X13344119Y-11485115D01*
X13344119Y-11485115D02*
X13353643Y-11475591D01*
X13353643Y-11475591D02*
X13353643Y-11494639D01*
X13429834Y-11294639D02*
X13553643Y-11294639D01*
X13553643Y-11294639D02*
X13486977Y-11370829D01*
X13486977Y-11370829D02*
X13515548Y-11370829D01*
X13515548Y-11370829D02*
X13534596Y-11380353D01*
X13534596Y-11380353D02*
X13544119Y-11389877D01*
X13544119Y-11389877D02*
X13553643Y-11408925D01*
X13553643Y-11408925D02*
X13553643Y-11456544D01*
X13553643Y-11456544D02*
X13544119Y-11475591D01*
X13544119Y-11475591D02*
X13534596Y-11485115D01*
X13534596Y-11485115D02*
X13515548Y-11494639D01*
X13515548Y-11494639D02*
X13458405Y-11494639D01*
X13458405Y-11494639D02*
X13439358Y-11485115D01*
X13439358Y-11485115D02*
X13429834Y-11475591D01*
X13677453Y-11294639D02*
X13696500Y-11294639D01*
X13696500Y-11294639D02*
X13715548Y-11304163D01*
X13715548Y-11304163D02*
X13725072Y-11313687D01*
X13725072Y-11313687D02*
X13734596Y-11332734D01*
X13734596Y-11332734D02*
X13744119Y-11370829D01*
X13744119Y-11370829D02*
X13744119Y-11418449D01*
X13744119Y-11418449D02*
X13734596Y-11456544D01*
X13734596Y-11456544D02*
X13725072Y-11475591D01*
X13725072Y-11475591D02*
X13715548Y-11485115D01*
X13715548Y-11485115D02*
X13696500Y-11494639D01*
X13696500Y-11494639D02*
X13677453Y-11494639D01*
X13677453Y-11494639D02*
X13658405Y-11485115D01*
X13658405Y-11485115D02*
X13648881Y-11475591D01*
X13648881Y-11475591D02*
X13639358Y-11456544D01*
X13639358Y-11456544D02*
X13629834Y-11418449D01*
X13629834Y-11418449D02*
X13629834Y-11370829D01*
X13629834Y-11370829D02*
X13639358Y-11332734D01*
X13639358Y-11332734D02*
X13648881Y-11313687D01*
X13648881Y-11313687D02*
X13658405Y-11304163D01*
X13658405Y-11304163D02*
X13677453Y-11294639D01*
X13867929Y-11294639D02*
X13886977Y-11294639D01*
X13886977Y-11294639D02*
X13906024Y-11304163D01*
X13906024Y-11304163D02*
X13915548Y-11313687D01*
X13915548Y-11313687D02*
X13925072Y-11332734D01*
X13925072Y-11332734D02*
X13934596Y-11370829D01*
X13934596Y-11370829D02*
X13934596Y-11418449D01*
X13934596Y-11418449D02*
X13925072Y-11456544D01*
X13925072Y-11456544D02*
X13915548Y-11475591D01*
X13915548Y-11475591D02*
X13906024Y-11485115D01*
X13906024Y-11485115D02*
X13886977Y-11494639D01*
X13886977Y-11494639D02*
X13867929Y-11494639D01*
X13867929Y-11494639D02*
X13848881Y-11485115D01*
X13848881Y-11485115D02*
X13839358Y-11475591D01*
X13839358Y-11475591D02*
X13829834Y-11456544D01*
X13829834Y-11456544D02*
X13820310Y-11418449D01*
X13820310Y-11418449D02*
X13820310Y-11370829D01*
X13820310Y-11370829D02*
X13829834Y-11332734D01*
X13829834Y-11332734D02*
X13839358Y-11313687D01*
X13839358Y-11313687D02*
X13848881Y-11304163D01*
X13848881Y-11304163D02*
X13867929Y-11294639D01*
X14020310Y-11494639D02*
X14020310Y-11361306D01*
X14020310Y-11380353D02*
X14029834Y-11370829D01*
X14029834Y-11370829D02*
X14048881Y-11361306D01*
X14048881Y-11361306D02*
X14077453Y-11361306D01*
X14077453Y-11361306D02*
X14096500Y-11370829D01*
X14096500Y-11370829D02*
X14106024Y-11389877D01*
X14106024Y-11389877D02*
X14106024Y-11494639D01*
X14106024Y-11389877D02*
X14115548Y-11370829D01*
X14115548Y-11370829D02*
X14134596Y-11361306D01*
X14134596Y-11361306D02*
X14163167Y-11361306D01*
X14163167Y-11361306D02*
X14182215Y-11370829D01*
X14182215Y-11370829D02*
X14191739Y-11389877D01*
X14191739Y-11389877D02*
X14191739Y-11494639D01*
X14286977Y-11494639D02*
X14286977Y-11361306D01*
X14286977Y-11380353D02*
X14296500Y-11370829D01*
X14296500Y-11370829D02*
X14315548Y-11361306D01*
X14315548Y-11361306D02*
X14344120Y-11361306D01*
X14344120Y-11361306D02*
X14363167Y-11370829D01*
X14363167Y-11370829D02*
X14372691Y-11389877D01*
X14372691Y-11389877D02*
X14372691Y-11494639D01*
X14372691Y-11389877D02*
X14382215Y-11370829D01*
X14382215Y-11370829D02*
X14401262Y-11361306D01*
X14401262Y-11361306D02*
X14429834Y-11361306D01*
X14429834Y-11361306D02*
X14448881Y-11370829D01*
X14448881Y-11370829D02*
X14458405Y-11389877D01*
X14458405Y-11389877D02*
X14458405Y-11494639D01*
X14848881Y-11285115D02*
X14677453Y-11542258D01*
X15106024Y-11294639D02*
X15125072Y-11294639D01*
X15125072Y-11294639D02*
X15144120Y-11304163D01*
X15144120Y-11304163D02*
X15153643Y-11313687D01*
X15153643Y-11313687D02*
X15163167Y-11332734D01*
X15163167Y-11332734D02*
X15172691Y-11370829D01*
X15172691Y-11370829D02*
X15172691Y-11418449D01*
X15172691Y-11418449D02*
X15163167Y-11456544D01*
X15163167Y-11456544D02*
X15153643Y-11475591D01*
X15153643Y-11475591D02*
X15144120Y-11485115D01*
X15144120Y-11485115D02*
X15125072Y-11494639D01*
X15125072Y-11494639D02*
X15106024Y-11494639D01*
X15106024Y-11494639D02*
X15086977Y-11485115D01*
X15086977Y-11485115D02*
X15077453Y-11475591D01*
X15077453Y-11475591D02*
X15067929Y-11456544D01*
X15067929Y-11456544D02*
X15058405Y-11418449D01*
X15058405Y-11418449D02*
X15058405Y-11370829D01*
X15058405Y-11370829D02*
X15067929Y-11332734D01*
X15067929Y-11332734D02*
X15077453Y-11313687D01*
X15077453Y-11313687D02*
X15086977Y-11304163D01*
X15086977Y-11304163D02*
X15106024Y-11294639D01*
X15258405Y-11475591D02*
X15267929Y-11485115D01*
X15267929Y-11485115D02*
X15258405Y-11494639D01*
X15258405Y-11494639D02*
X15248882Y-11485115D01*
X15248882Y-11485115D02*
X15258405Y-11475591D01*
X15258405Y-11475591D02*
X15258405Y-11494639D01*
X15391739Y-11294639D02*
X15410786Y-11294639D01*
X15410786Y-11294639D02*
X15429834Y-11304163D01*
X15429834Y-11304163D02*
X15439358Y-11313687D01*
X15439358Y-11313687D02*
X15448882Y-11332734D01*
X15448882Y-11332734D02*
X15458405Y-11370829D01*
X15458405Y-11370829D02*
X15458405Y-11418449D01*
X15458405Y-11418449D02*
X15448882Y-11456544D01*
X15448882Y-11456544D02*
X15439358Y-11475591D01*
X15439358Y-11475591D02*
X15429834Y-11485115D01*
X15429834Y-11485115D02*
X15410786Y-11494639D01*
X15410786Y-11494639D02*
X15391739Y-11494639D01*
X15391739Y-11494639D02*
X15372691Y-11485115D01*
X15372691Y-11485115D02*
X15363167Y-11475591D01*
X15363167Y-11475591D02*
X15353643Y-11456544D01*
X15353643Y-11456544D02*
X15344120Y-11418449D01*
X15344120Y-11418449D02*
X15344120Y-11370829D01*
X15344120Y-11370829D02*
X15353643Y-11332734D01*
X15353643Y-11332734D02*
X15363167Y-11313687D01*
X15363167Y-11313687D02*
X15372691Y-11304163D01*
X15372691Y-11304163D02*
X15391739Y-11294639D01*
X15648882Y-11494639D02*
X15534596Y-11494639D01*
X15591739Y-11494639D02*
X15591739Y-11294639D01*
X15591739Y-11294639D02*
X15572691Y-11323210D01*
X15572691Y-11323210D02*
X15553643Y-11342258D01*
X15553643Y-11342258D02*
X15534596Y-11351782D01*
X15839358Y-11494639D02*
X15725072Y-11494639D01*
X15782215Y-11494639D02*
X15782215Y-11294639D01*
X15782215Y-11294639D02*
X15763167Y-11323210D01*
X15763167Y-11323210D02*
X15744120Y-11342258D01*
X15744120Y-11342258D02*
X15725072Y-11351782D01*
X15953643Y-11380353D02*
X15934596Y-11370829D01*
X15934596Y-11370829D02*
X15925072Y-11361306D01*
X15925072Y-11361306D02*
X15915548Y-11342258D01*
X15915548Y-11342258D02*
X15915548Y-11332734D01*
X15915548Y-11332734D02*
X15925072Y-11313687D01*
X15925072Y-11313687D02*
X15934596Y-11304163D01*
X15934596Y-11304163D02*
X15953643Y-11294639D01*
X15953643Y-11294639D02*
X15991739Y-11294639D01*
X15991739Y-11294639D02*
X16010786Y-11304163D01*
X16010786Y-11304163D02*
X16020310Y-11313687D01*
X16020310Y-11313687D02*
X16029834Y-11332734D01*
X16029834Y-11332734D02*
X16029834Y-11342258D01*
X16029834Y-11342258D02*
X16020310Y-11361306D01*
X16020310Y-11361306D02*
X16010786Y-11370829D01*
X16010786Y-11370829D02*
X15991739Y-11380353D01*
X15991739Y-11380353D02*
X15953643Y-11380353D01*
X15953643Y-11380353D02*
X15934596Y-11389877D01*
X15934596Y-11389877D02*
X15925072Y-11399401D01*
X15925072Y-11399401D02*
X15915548Y-11418449D01*
X15915548Y-11418449D02*
X15915548Y-11456544D01*
X15915548Y-11456544D02*
X15925072Y-11475591D01*
X15925072Y-11475591D02*
X15934596Y-11485115D01*
X15934596Y-11485115D02*
X15953643Y-11494639D01*
X15953643Y-11494639D02*
X15991739Y-11494639D01*
X15991739Y-11494639D02*
X16010786Y-11485115D01*
X16010786Y-11485115D02*
X16020310Y-11475591D01*
X16020310Y-11475591D02*
X16029834Y-11456544D01*
X16029834Y-11456544D02*
X16029834Y-11418449D01*
X16029834Y-11418449D02*
X16020310Y-11399401D01*
X16020310Y-11399401D02*
X16010786Y-11389877D01*
X16010786Y-11389877D02*
X15991739Y-11380353D01*
X16106024Y-11294639D02*
X16106024Y-11332734D01*
X16182215Y-11294639D02*
X16182215Y-11332734D01*
X16477453Y-11570829D02*
X16467929Y-11561306D01*
X16467929Y-11561306D02*
X16448882Y-11532734D01*
X16448882Y-11532734D02*
X16439358Y-11513687D01*
X16439358Y-11513687D02*
X16429834Y-11485115D01*
X16429834Y-11485115D02*
X16420310Y-11437496D01*
X16420310Y-11437496D02*
X16420310Y-11399401D01*
X16420310Y-11399401D02*
X16429834Y-11351782D01*
X16429834Y-11351782D02*
X16439358Y-11323210D01*
X16439358Y-11323210D02*
X16448882Y-11304163D01*
X16448882Y-11304163D02*
X16467929Y-11275591D01*
X16467929Y-11275591D02*
X16477453Y-11266068D01*
X16658405Y-11494639D02*
X16544120Y-11494639D01*
X16601263Y-11494639D02*
X16601263Y-11294639D01*
X16601263Y-11294639D02*
X16582215Y-11323210D01*
X16582215Y-11323210D02*
X16563167Y-11342258D01*
X16563167Y-11342258D02*
X16544120Y-11351782D01*
X16753644Y-11494639D02*
X16791739Y-11494639D01*
X16791739Y-11494639D02*
X16810787Y-11485115D01*
X16810787Y-11485115D02*
X16820310Y-11475591D01*
X16820310Y-11475591D02*
X16839358Y-11447020D01*
X16839358Y-11447020D02*
X16848882Y-11408925D01*
X16848882Y-11408925D02*
X16848882Y-11332734D01*
X16848882Y-11332734D02*
X16839358Y-11313687D01*
X16839358Y-11313687D02*
X16829834Y-11304163D01*
X16829834Y-11304163D02*
X16810787Y-11294639D01*
X16810787Y-11294639D02*
X16772691Y-11294639D01*
X16772691Y-11294639D02*
X16753644Y-11304163D01*
X16753644Y-11304163D02*
X16744120Y-11313687D01*
X16744120Y-11313687D02*
X16734596Y-11332734D01*
X16734596Y-11332734D02*
X16734596Y-11380353D01*
X16734596Y-11380353D02*
X16744120Y-11399401D01*
X16744120Y-11399401D02*
X16753644Y-11408925D01*
X16753644Y-11408925D02*
X16772691Y-11418449D01*
X16772691Y-11418449D02*
X16810787Y-11418449D01*
X16810787Y-11418449D02*
X16829834Y-11408925D01*
X16829834Y-11408925D02*
X16839358Y-11399401D01*
X16839358Y-11399401D02*
X16848882Y-11380353D01*
X17020310Y-11294639D02*
X16982215Y-11294639D01*
X16982215Y-11294639D02*
X16963167Y-11304163D01*
X16963167Y-11304163D02*
X16953644Y-11313687D01*
X16953644Y-11313687D02*
X16934596Y-11342258D01*
X16934596Y-11342258D02*
X16925072Y-11380353D01*
X16925072Y-11380353D02*
X16925072Y-11456544D01*
X16925072Y-11456544D02*
X16934596Y-11475591D01*
X16934596Y-11475591D02*
X16944120Y-11485115D01*
X16944120Y-11485115D02*
X16963167Y-11494639D01*
X16963167Y-11494639D02*
X17001263Y-11494639D01*
X17001263Y-11494639D02*
X17020310Y-11485115D01*
X17020310Y-11485115D02*
X17029834Y-11475591D01*
X17029834Y-11475591D02*
X17039358Y-11456544D01*
X17039358Y-11456544D02*
X17039358Y-11408925D01*
X17039358Y-11408925D02*
X17029834Y-11389877D01*
X17029834Y-11389877D02*
X17020310Y-11380353D01*
X17020310Y-11380353D02*
X17001263Y-11370829D01*
X17001263Y-11370829D02*
X16963167Y-11370829D01*
X16963167Y-11370829D02*
X16944120Y-11380353D01*
X16944120Y-11380353D02*
X16934596Y-11389877D01*
X16934596Y-11389877D02*
X16925072Y-11408925D01*
X17277453Y-11494639D02*
X17277453Y-11294639D01*
X17363168Y-11494639D02*
X17363168Y-11389877D01*
X17363168Y-11389877D02*
X17353644Y-11370829D01*
X17353644Y-11370829D02*
X17334596Y-11361306D01*
X17334596Y-11361306D02*
X17306025Y-11361306D01*
X17306025Y-11361306D02*
X17286977Y-11370829D01*
X17286977Y-11370829D02*
X17277453Y-11380353D01*
X17486977Y-11494639D02*
X17467929Y-11485115D01*
X17467929Y-11485115D02*
X17458406Y-11475591D01*
X17458406Y-11475591D02*
X17448882Y-11456544D01*
X17448882Y-11456544D02*
X17448882Y-11399401D01*
X17448882Y-11399401D02*
X17458406Y-11380353D01*
X17458406Y-11380353D02*
X17467929Y-11370829D01*
X17467929Y-11370829D02*
X17486977Y-11361306D01*
X17486977Y-11361306D02*
X17515549Y-11361306D01*
X17515549Y-11361306D02*
X17534596Y-11370829D01*
X17534596Y-11370829D02*
X17544120Y-11380353D01*
X17544120Y-11380353D02*
X17553644Y-11399401D01*
X17553644Y-11399401D02*
X17553644Y-11456544D01*
X17553644Y-11456544D02*
X17544120Y-11475591D01*
X17544120Y-11475591D02*
X17534596Y-11485115D01*
X17534596Y-11485115D02*
X17515549Y-11494639D01*
X17515549Y-11494639D02*
X17486977Y-11494639D01*
X17667929Y-11494639D02*
X17648882Y-11485115D01*
X17648882Y-11485115D02*
X17639358Y-11466068D01*
X17639358Y-11466068D02*
X17639358Y-11294639D01*
X17820310Y-11485115D02*
X17801263Y-11494639D01*
X17801263Y-11494639D02*
X17763168Y-11494639D01*
X17763168Y-11494639D02*
X17744120Y-11485115D01*
X17744120Y-11485115D02*
X17734596Y-11466068D01*
X17734596Y-11466068D02*
X17734596Y-11389877D01*
X17734596Y-11389877D02*
X17744120Y-11370829D01*
X17744120Y-11370829D02*
X17763168Y-11361306D01*
X17763168Y-11361306D02*
X17801263Y-11361306D01*
X17801263Y-11361306D02*
X17820310Y-11370829D01*
X17820310Y-11370829D02*
X17829834Y-11389877D01*
X17829834Y-11389877D02*
X17829834Y-11408925D01*
X17829834Y-11408925D02*
X17734596Y-11427972D01*
X17906025Y-11485115D02*
X17925072Y-11494639D01*
X17925072Y-11494639D02*
X17963168Y-11494639D01*
X17963168Y-11494639D02*
X17982215Y-11485115D01*
X17982215Y-11485115D02*
X17991739Y-11466068D01*
X17991739Y-11466068D02*
X17991739Y-11456544D01*
X17991739Y-11456544D02*
X17982215Y-11437496D01*
X17982215Y-11437496D02*
X17963168Y-11427972D01*
X17963168Y-11427972D02*
X17934596Y-11427972D01*
X17934596Y-11427972D02*
X17915549Y-11418449D01*
X17915549Y-11418449D02*
X17906025Y-11399401D01*
X17906025Y-11399401D02*
X17906025Y-11389877D01*
X17906025Y-11389877D02*
X17915549Y-11370829D01*
X17915549Y-11370829D02*
X17934596Y-11361306D01*
X17934596Y-11361306D02*
X17963168Y-11361306D01*
X17963168Y-11361306D02*
X17982215Y-11370829D01*
X18058406Y-11570829D02*
X18067930Y-11561306D01*
X18067930Y-11561306D02*
X18086977Y-11532734D01*
X18086977Y-11532734D02*
X18096501Y-11513687D01*
X18096501Y-11513687D02*
X18106025Y-11485115D01*
X18106025Y-11485115D02*
X18115549Y-11437496D01*
X18115549Y-11437496D02*
X18115549Y-11399401D01*
X18115549Y-11399401D02*
X18106025Y-11351782D01*
X18106025Y-11351782D02*
X18096501Y-11323210D01*
X18096501Y-11323210D02*
X18086977Y-11304163D01*
X18086977Y-11304163D02*
X18067930Y-11275591D01*
X18067930Y-11275591D02*
X18058406Y-11266068D01*
D13*
X12902390Y-11667155D02*
G75*
G03*
X12902390Y-11667155I-30000J0D01*
G01*
D11*
X13201262Y-11558639D02*
X13220310Y-11558639D01*
X13220310Y-11558639D02*
X13239358Y-11568163D01*
X13239358Y-11568163D02*
X13248881Y-11577687D01*
X13248881Y-11577687D02*
X13258405Y-11596734D01*
X13258405Y-11596734D02*
X13267929Y-11634829D01*
X13267929Y-11634829D02*
X13267929Y-11682449D01*
X13267929Y-11682449D02*
X13258405Y-11720544D01*
X13258405Y-11720544D02*
X13248881Y-11739591D01*
X13248881Y-11739591D02*
X13239358Y-11749115D01*
X13239358Y-11749115D02*
X13220310Y-11758639D01*
X13220310Y-11758639D02*
X13201262Y-11758639D01*
X13201262Y-11758639D02*
X13182215Y-11749115D01*
X13182215Y-11749115D02*
X13172691Y-11739591D01*
X13172691Y-11739591D02*
X13163167Y-11720544D01*
X13163167Y-11720544D02*
X13153643Y-11682449D01*
X13153643Y-11682449D02*
X13153643Y-11634829D01*
X13153643Y-11634829D02*
X13163167Y-11596734D01*
X13163167Y-11596734D02*
X13172691Y-11577687D01*
X13172691Y-11577687D02*
X13182215Y-11568163D01*
X13182215Y-11568163D02*
X13201262Y-11558639D01*
X13353643Y-11739591D02*
X13363167Y-11749115D01*
X13363167Y-11749115D02*
X13353643Y-11758639D01*
X13353643Y-11758639D02*
X13344119Y-11749115D01*
X13344119Y-11749115D02*
X13353643Y-11739591D01*
X13353643Y-11739591D02*
X13353643Y-11758639D01*
X13534596Y-11558639D02*
X13496500Y-11558639D01*
X13496500Y-11558639D02*
X13477453Y-11568163D01*
X13477453Y-11568163D02*
X13467929Y-11577687D01*
X13467929Y-11577687D02*
X13448881Y-11606258D01*
X13448881Y-11606258D02*
X13439358Y-11644353D01*
X13439358Y-11644353D02*
X13439358Y-11720544D01*
X13439358Y-11720544D02*
X13448881Y-11739591D01*
X13448881Y-11739591D02*
X13458405Y-11749115D01*
X13458405Y-11749115D02*
X13477453Y-11758639D01*
X13477453Y-11758639D02*
X13515548Y-11758639D01*
X13515548Y-11758639D02*
X13534596Y-11749115D01*
X13534596Y-11749115D02*
X13544119Y-11739591D01*
X13544119Y-11739591D02*
X13553643Y-11720544D01*
X13553643Y-11720544D02*
X13553643Y-11672925D01*
X13553643Y-11672925D02*
X13544119Y-11653877D01*
X13544119Y-11653877D02*
X13534596Y-11644353D01*
X13534596Y-11644353D02*
X13515548Y-11634829D01*
X13515548Y-11634829D02*
X13477453Y-11634829D01*
X13477453Y-11634829D02*
X13458405Y-11644353D01*
X13458405Y-11644353D02*
X13448881Y-11653877D01*
X13448881Y-11653877D02*
X13439358Y-11672925D01*
X13677453Y-11558639D02*
X13696500Y-11558639D01*
X13696500Y-11558639D02*
X13715548Y-11568163D01*
X13715548Y-11568163D02*
X13725072Y-11577687D01*
X13725072Y-11577687D02*
X13734596Y-11596734D01*
X13734596Y-11596734D02*
X13744119Y-11634829D01*
X13744119Y-11634829D02*
X13744119Y-11682449D01*
X13744119Y-11682449D02*
X13734596Y-11720544D01*
X13734596Y-11720544D02*
X13725072Y-11739591D01*
X13725072Y-11739591D02*
X13715548Y-11749115D01*
X13715548Y-11749115D02*
X13696500Y-11758639D01*
X13696500Y-11758639D02*
X13677453Y-11758639D01*
X13677453Y-11758639D02*
X13658405Y-11749115D01*
X13658405Y-11749115D02*
X13648881Y-11739591D01*
X13648881Y-11739591D02*
X13639358Y-11720544D01*
X13639358Y-11720544D02*
X13629834Y-11682449D01*
X13629834Y-11682449D02*
X13629834Y-11634829D01*
X13629834Y-11634829D02*
X13639358Y-11596734D01*
X13639358Y-11596734D02*
X13648881Y-11577687D01*
X13648881Y-11577687D02*
X13658405Y-11568163D01*
X13658405Y-11568163D02*
X13677453Y-11558639D01*
X13867929Y-11558639D02*
X13886977Y-11558639D01*
X13886977Y-11558639D02*
X13906024Y-11568163D01*
X13906024Y-11568163D02*
X13915548Y-11577687D01*
X13915548Y-11577687D02*
X13925072Y-11596734D01*
X13925072Y-11596734D02*
X13934596Y-11634829D01*
X13934596Y-11634829D02*
X13934596Y-11682449D01*
X13934596Y-11682449D02*
X13925072Y-11720544D01*
X13925072Y-11720544D02*
X13915548Y-11739591D01*
X13915548Y-11739591D02*
X13906024Y-11749115D01*
X13906024Y-11749115D02*
X13886977Y-11758639D01*
X13886977Y-11758639D02*
X13867929Y-11758639D01*
X13867929Y-11758639D02*
X13848881Y-11749115D01*
X13848881Y-11749115D02*
X13839358Y-11739591D01*
X13839358Y-11739591D02*
X13829834Y-11720544D01*
X13829834Y-11720544D02*
X13820310Y-11682449D01*
X13820310Y-11682449D02*
X13820310Y-11634829D01*
X13820310Y-11634829D02*
X13829834Y-11596734D01*
X13829834Y-11596734D02*
X13839358Y-11577687D01*
X13839358Y-11577687D02*
X13848881Y-11568163D01*
X13848881Y-11568163D02*
X13867929Y-11558639D01*
X14020310Y-11758639D02*
X14020310Y-11625306D01*
X14020310Y-11644353D02*
X14029834Y-11634829D01*
X14029834Y-11634829D02*
X14048881Y-11625306D01*
X14048881Y-11625306D02*
X14077453Y-11625306D01*
X14077453Y-11625306D02*
X14096500Y-11634829D01*
X14096500Y-11634829D02*
X14106024Y-11653877D01*
X14106024Y-11653877D02*
X14106024Y-11758639D01*
X14106024Y-11653877D02*
X14115548Y-11634829D01*
X14115548Y-11634829D02*
X14134596Y-11625306D01*
X14134596Y-11625306D02*
X14163167Y-11625306D01*
X14163167Y-11625306D02*
X14182215Y-11634829D01*
X14182215Y-11634829D02*
X14191739Y-11653877D01*
X14191739Y-11653877D02*
X14191739Y-11758639D01*
X14286977Y-11758639D02*
X14286977Y-11625306D01*
X14286977Y-11644353D02*
X14296500Y-11634829D01*
X14296500Y-11634829D02*
X14315548Y-11625306D01*
X14315548Y-11625306D02*
X14344120Y-11625306D01*
X14344120Y-11625306D02*
X14363167Y-11634829D01*
X14363167Y-11634829D02*
X14372691Y-11653877D01*
X14372691Y-11653877D02*
X14372691Y-11758639D01*
X14372691Y-11653877D02*
X14382215Y-11634829D01*
X14382215Y-11634829D02*
X14401262Y-11625306D01*
X14401262Y-11625306D02*
X14429834Y-11625306D01*
X14429834Y-11625306D02*
X14448881Y-11634829D01*
X14448881Y-11634829D02*
X14458405Y-11653877D01*
X14458405Y-11653877D02*
X14458405Y-11758639D01*
X14848881Y-11549115D02*
X14677453Y-11806258D01*
X15106024Y-11558639D02*
X15125072Y-11558639D01*
X15125072Y-11558639D02*
X15144120Y-11568163D01*
X15144120Y-11568163D02*
X15153643Y-11577687D01*
X15153643Y-11577687D02*
X15163167Y-11596734D01*
X15163167Y-11596734D02*
X15172691Y-11634829D01*
X15172691Y-11634829D02*
X15172691Y-11682449D01*
X15172691Y-11682449D02*
X15163167Y-11720544D01*
X15163167Y-11720544D02*
X15153643Y-11739591D01*
X15153643Y-11739591D02*
X15144120Y-11749115D01*
X15144120Y-11749115D02*
X15125072Y-11758639D01*
X15125072Y-11758639D02*
X15106024Y-11758639D01*
X15106024Y-11758639D02*
X15086977Y-11749115D01*
X15086977Y-11749115D02*
X15077453Y-11739591D01*
X15077453Y-11739591D02*
X15067929Y-11720544D01*
X15067929Y-11720544D02*
X15058405Y-11682449D01*
X15058405Y-11682449D02*
X15058405Y-11634829D01*
X15058405Y-11634829D02*
X15067929Y-11596734D01*
X15067929Y-11596734D02*
X15077453Y-11577687D01*
X15077453Y-11577687D02*
X15086977Y-11568163D01*
X15086977Y-11568163D02*
X15106024Y-11558639D01*
X15258405Y-11739591D02*
X15267929Y-11749115D01*
X15267929Y-11749115D02*
X15258405Y-11758639D01*
X15258405Y-11758639D02*
X15248882Y-11749115D01*
X15248882Y-11749115D02*
X15258405Y-11739591D01*
X15258405Y-11739591D02*
X15258405Y-11758639D01*
X15391739Y-11558639D02*
X15410786Y-11558639D01*
X15410786Y-11558639D02*
X15429834Y-11568163D01*
X15429834Y-11568163D02*
X15439358Y-11577687D01*
X15439358Y-11577687D02*
X15448882Y-11596734D01*
X15448882Y-11596734D02*
X15458405Y-11634829D01*
X15458405Y-11634829D02*
X15458405Y-11682449D01*
X15458405Y-11682449D02*
X15448882Y-11720544D01*
X15448882Y-11720544D02*
X15439358Y-11739591D01*
X15439358Y-11739591D02*
X15429834Y-11749115D01*
X15429834Y-11749115D02*
X15410786Y-11758639D01*
X15410786Y-11758639D02*
X15391739Y-11758639D01*
X15391739Y-11758639D02*
X15372691Y-11749115D01*
X15372691Y-11749115D02*
X15363167Y-11739591D01*
X15363167Y-11739591D02*
X15353643Y-11720544D01*
X15353643Y-11720544D02*
X15344120Y-11682449D01*
X15344120Y-11682449D02*
X15344120Y-11634829D01*
X15344120Y-11634829D02*
X15353643Y-11596734D01*
X15353643Y-11596734D02*
X15363167Y-11577687D01*
X15363167Y-11577687D02*
X15372691Y-11568163D01*
X15372691Y-11568163D02*
X15391739Y-11558639D01*
X15534596Y-11577687D02*
X15544120Y-11568163D01*
X15544120Y-11568163D02*
X15563167Y-11558639D01*
X15563167Y-11558639D02*
X15610786Y-11558639D01*
X15610786Y-11558639D02*
X15629834Y-11568163D01*
X15629834Y-11568163D02*
X15639358Y-11577687D01*
X15639358Y-11577687D02*
X15648882Y-11596734D01*
X15648882Y-11596734D02*
X15648882Y-11615782D01*
X15648882Y-11615782D02*
X15639358Y-11644353D01*
X15639358Y-11644353D02*
X15525072Y-11758639D01*
X15525072Y-11758639D02*
X15648882Y-11758639D01*
X15715548Y-11558639D02*
X15839358Y-11558639D01*
X15839358Y-11558639D02*
X15772691Y-11634829D01*
X15772691Y-11634829D02*
X15801263Y-11634829D01*
X15801263Y-11634829D02*
X15820310Y-11644353D01*
X15820310Y-11644353D02*
X15829834Y-11653877D01*
X15829834Y-11653877D02*
X15839358Y-11672925D01*
X15839358Y-11672925D02*
X15839358Y-11720544D01*
X15839358Y-11720544D02*
X15829834Y-11739591D01*
X15829834Y-11739591D02*
X15820310Y-11749115D01*
X15820310Y-11749115D02*
X15801263Y-11758639D01*
X15801263Y-11758639D02*
X15744120Y-11758639D01*
X15744120Y-11758639D02*
X15725072Y-11749115D01*
X15725072Y-11749115D02*
X15715548Y-11739591D01*
X16010786Y-11558639D02*
X15972691Y-11558639D01*
X15972691Y-11558639D02*
X15953643Y-11568163D01*
X15953643Y-11568163D02*
X15944120Y-11577687D01*
X15944120Y-11577687D02*
X15925072Y-11606258D01*
X15925072Y-11606258D02*
X15915548Y-11644353D01*
X15915548Y-11644353D02*
X15915548Y-11720544D01*
X15915548Y-11720544D02*
X15925072Y-11739591D01*
X15925072Y-11739591D02*
X15934596Y-11749115D01*
X15934596Y-11749115D02*
X15953643Y-11758639D01*
X15953643Y-11758639D02*
X15991739Y-11758639D01*
X15991739Y-11758639D02*
X16010786Y-11749115D01*
X16010786Y-11749115D02*
X16020310Y-11739591D01*
X16020310Y-11739591D02*
X16029834Y-11720544D01*
X16029834Y-11720544D02*
X16029834Y-11672925D01*
X16029834Y-11672925D02*
X16020310Y-11653877D01*
X16020310Y-11653877D02*
X16010786Y-11644353D01*
X16010786Y-11644353D02*
X15991739Y-11634829D01*
X15991739Y-11634829D02*
X15953643Y-11634829D01*
X15953643Y-11634829D02*
X15934596Y-11644353D01*
X15934596Y-11644353D02*
X15925072Y-11653877D01*
X15925072Y-11653877D02*
X15915548Y-11672925D01*
X16106024Y-11558639D02*
X16106024Y-11596734D01*
X16182215Y-11558639D02*
X16182215Y-11596734D01*
X16477453Y-11834829D02*
X16467929Y-11825306D01*
X16467929Y-11825306D02*
X16448882Y-11796734D01*
X16448882Y-11796734D02*
X16439358Y-11777687D01*
X16439358Y-11777687D02*
X16429834Y-11749115D01*
X16429834Y-11749115D02*
X16420310Y-11701496D01*
X16420310Y-11701496D02*
X16420310Y-11663401D01*
X16420310Y-11663401D02*
X16429834Y-11615782D01*
X16429834Y-11615782D02*
X16439358Y-11587210D01*
X16439358Y-11587210D02*
X16448882Y-11568163D01*
X16448882Y-11568163D02*
X16467929Y-11539591D01*
X16467929Y-11539591D02*
X16477453Y-11530068D01*
X16591739Y-11558639D02*
X16610786Y-11558639D01*
X16610786Y-11558639D02*
X16629834Y-11568163D01*
X16629834Y-11568163D02*
X16639358Y-11577687D01*
X16639358Y-11577687D02*
X16648882Y-11596734D01*
X16648882Y-11596734D02*
X16658405Y-11634829D01*
X16658405Y-11634829D02*
X16658405Y-11682449D01*
X16658405Y-11682449D02*
X16648882Y-11720544D01*
X16648882Y-11720544D02*
X16639358Y-11739591D01*
X16639358Y-11739591D02*
X16629834Y-11749115D01*
X16629834Y-11749115D02*
X16610786Y-11758639D01*
X16610786Y-11758639D02*
X16591739Y-11758639D01*
X16591739Y-11758639D02*
X16572691Y-11749115D01*
X16572691Y-11749115D02*
X16563167Y-11739591D01*
X16563167Y-11739591D02*
X16553644Y-11720544D01*
X16553644Y-11720544D02*
X16544120Y-11682449D01*
X16544120Y-11682449D02*
X16544120Y-11634829D01*
X16544120Y-11634829D02*
X16553644Y-11596734D01*
X16553644Y-11596734D02*
X16563167Y-11577687D01*
X16563167Y-11577687D02*
X16572691Y-11568163D01*
X16572691Y-11568163D02*
X16591739Y-11558639D01*
X16896501Y-11758639D02*
X16896501Y-11558639D01*
X16982215Y-11758639D02*
X16982215Y-11653877D01*
X16982215Y-11653877D02*
X16972691Y-11634829D01*
X16972691Y-11634829D02*
X16953644Y-11625306D01*
X16953644Y-11625306D02*
X16925072Y-11625306D01*
X16925072Y-11625306D02*
X16906025Y-11634829D01*
X16906025Y-11634829D02*
X16896501Y-11644353D01*
X17106025Y-11758639D02*
X17086977Y-11749115D01*
X17086977Y-11749115D02*
X17077453Y-11739591D01*
X17077453Y-11739591D02*
X17067929Y-11720544D01*
X17067929Y-11720544D02*
X17067929Y-11663401D01*
X17067929Y-11663401D02*
X17077453Y-11644353D01*
X17077453Y-11644353D02*
X17086977Y-11634829D01*
X17086977Y-11634829D02*
X17106025Y-11625306D01*
X17106025Y-11625306D02*
X17134596Y-11625306D01*
X17134596Y-11625306D02*
X17153644Y-11634829D01*
X17153644Y-11634829D02*
X17163168Y-11644353D01*
X17163168Y-11644353D02*
X17172691Y-11663401D01*
X17172691Y-11663401D02*
X17172691Y-11720544D01*
X17172691Y-11720544D02*
X17163168Y-11739591D01*
X17163168Y-11739591D02*
X17153644Y-11749115D01*
X17153644Y-11749115D02*
X17134596Y-11758639D01*
X17134596Y-11758639D02*
X17106025Y-11758639D01*
X17286977Y-11758639D02*
X17267929Y-11749115D01*
X17267929Y-11749115D02*
X17258406Y-11730068D01*
X17258406Y-11730068D02*
X17258406Y-11558639D01*
X17439358Y-11749115D02*
X17420310Y-11758639D01*
X17420310Y-11758639D02*
X17382215Y-11758639D01*
X17382215Y-11758639D02*
X17363168Y-11749115D01*
X17363168Y-11749115D02*
X17353644Y-11730068D01*
X17353644Y-11730068D02*
X17353644Y-11653877D01*
X17353644Y-11653877D02*
X17363168Y-11634829D01*
X17363168Y-11634829D02*
X17382215Y-11625306D01*
X17382215Y-11625306D02*
X17420310Y-11625306D01*
X17420310Y-11625306D02*
X17439358Y-11634829D01*
X17439358Y-11634829D02*
X17448882Y-11653877D01*
X17448882Y-11653877D02*
X17448882Y-11672925D01*
X17448882Y-11672925D02*
X17353644Y-11691972D01*
X17525072Y-11749115D02*
X17544120Y-11758639D01*
X17544120Y-11758639D02*
X17582215Y-11758639D01*
X17582215Y-11758639D02*
X17601263Y-11749115D01*
X17601263Y-11749115D02*
X17610787Y-11730068D01*
X17610787Y-11730068D02*
X17610787Y-11720544D01*
X17610787Y-11720544D02*
X17601263Y-11701496D01*
X17601263Y-11701496D02*
X17582215Y-11691972D01*
X17582215Y-11691972D02*
X17553644Y-11691972D01*
X17553644Y-11691972D02*
X17534596Y-11682449D01*
X17534596Y-11682449D02*
X17525072Y-11663401D01*
X17525072Y-11663401D02*
X17525072Y-11653877D01*
X17525072Y-11653877D02*
X17534596Y-11634829D01*
X17534596Y-11634829D02*
X17553644Y-11625306D01*
X17553644Y-11625306D02*
X17582215Y-11625306D01*
X17582215Y-11625306D02*
X17601263Y-11634829D01*
X17848882Y-11682449D02*
X18001263Y-11682449D01*
X17925072Y-11758639D02*
X17925072Y-11606258D01*
X18334596Y-11625306D02*
X18334596Y-11758639D01*
X18286977Y-11549115D02*
X18239358Y-11691972D01*
X18239358Y-11691972D02*
X18363168Y-11691972D01*
X18582215Y-11749115D02*
X18601263Y-11758639D01*
X18601263Y-11758639D02*
X18639358Y-11758639D01*
X18639358Y-11758639D02*
X18658406Y-11749115D01*
X18658406Y-11749115D02*
X18667930Y-11730068D01*
X18667930Y-11730068D02*
X18667930Y-11720544D01*
X18667930Y-11720544D02*
X18658406Y-11701496D01*
X18658406Y-11701496D02*
X18639358Y-11691972D01*
X18639358Y-11691972D02*
X18610787Y-11691972D01*
X18610787Y-11691972D02*
X18591739Y-11682449D01*
X18591739Y-11682449D02*
X18582215Y-11663401D01*
X18582215Y-11663401D02*
X18582215Y-11653877D01*
X18582215Y-11653877D02*
X18591739Y-11634829D01*
X18591739Y-11634829D02*
X18610787Y-11625306D01*
X18610787Y-11625306D02*
X18639358Y-11625306D01*
X18639358Y-11625306D02*
X18658406Y-11634829D01*
X18782215Y-11758639D02*
X18763168Y-11749115D01*
X18763168Y-11749115D02*
X18753644Y-11730068D01*
X18753644Y-11730068D02*
X18753644Y-11558639D01*
X18886977Y-11758639D02*
X18867930Y-11749115D01*
X18867930Y-11749115D02*
X18858406Y-11739591D01*
X18858406Y-11739591D02*
X18848882Y-11720544D01*
X18848882Y-11720544D02*
X18848882Y-11663401D01*
X18848882Y-11663401D02*
X18858406Y-11644353D01*
X18858406Y-11644353D02*
X18867930Y-11634829D01*
X18867930Y-11634829D02*
X18886977Y-11625306D01*
X18886977Y-11625306D02*
X18915549Y-11625306D01*
X18915549Y-11625306D02*
X18934596Y-11634829D01*
X18934596Y-11634829D02*
X18944120Y-11644353D01*
X18944120Y-11644353D02*
X18953644Y-11663401D01*
X18953644Y-11663401D02*
X18953644Y-11720544D01*
X18953644Y-11720544D02*
X18944120Y-11739591D01*
X18944120Y-11739591D02*
X18934596Y-11749115D01*
X18934596Y-11749115D02*
X18915549Y-11758639D01*
X18915549Y-11758639D02*
X18886977Y-11758639D01*
X19010787Y-11625306D02*
X19086977Y-11625306D01*
X19039358Y-11558639D02*
X19039358Y-11730068D01*
X19039358Y-11730068D02*
X19048882Y-11749115D01*
X19048882Y-11749115D02*
X19067930Y-11758639D01*
X19067930Y-11758639D02*
X19086977Y-11758639D01*
X19144120Y-11749115D02*
X19163168Y-11758639D01*
X19163168Y-11758639D02*
X19201263Y-11758639D01*
X19201263Y-11758639D02*
X19220311Y-11749115D01*
X19220311Y-11749115D02*
X19229834Y-11730068D01*
X19229834Y-11730068D02*
X19229834Y-11720544D01*
X19229834Y-11720544D02*
X19220311Y-11701496D01*
X19220311Y-11701496D02*
X19201263Y-11691972D01*
X19201263Y-11691972D02*
X19172692Y-11691972D01*
X19172692Y-11691972D02*
X19153644Y-11682449D01*
X19153644Y-11682449D02*
X19144120Y-11663401D01*
X19144120Y-11663401D02*
X19144120Y-11653877D01*
X19144120Y-11653877D02*
X19153644Y-11634829D01*
X19153644Y-11634829D02*
X19172692Y-11625306D01*
X19172692Y-11625306D02*
X19201263Y-11625306D01*
X19201263Y-11625306D02*
X19220311Y-11634829D01*
X19296501Y-11834829D02*
X19306025Y-11825306D01*
X19306025Y-11825306D02*
X19325073Y-11796734D01*
X19325073Y-11796734D02*
X19334596Y-11777687D01*
X19334596Y-11777687D02*
X19344120Y-11749115D01*
X19344120Y-11749115D02*
X19353644Y-11701496D01*
X19353644Y-11701496D02*
X19353644Y-11663401D01*
X19353644Y-11663401D02*
X19344120Y-11615782D01*
X19344120Y-11615782D02*
X19334596Y-11587210D01*
X19334596Y-11587210D02*
X19325073Y-11568163D01*
X19325073Y-11568163D02*
X19306025Y-11539591D01*
X19306025Y-11539591D02*
X19296501Y-11530068D01*
D14*
X12827390Y-11856155D02*
X12827390Y-12006155D01*
X12752390Y-11931155D02*
X12902390Y-11931155D01*
D11*
X13267929Y-12022639D02*
X13153643Y-12022639D01*
X13210786Y-12022639D02*
X13210786Y-11822639D01*
X13210786Y-11822639D02*
X13191738Y-11851210D01*
X13191738Y-11851210D02*
X13172691Y-11870258D01*
X13172691Y-11870258D02*
X13153643Y-11879782D01*
X13353643Y-12003591D02*
X13363167Y-12013115D01*
X13363167Y-12013115D02*
X13353643Y-12022639D01*
X13353643Y-12022639D02*
X13344119Y-12013115D01*
X13344119Y-12013115D02*
X13353643Y-12003591D01*
X13353643Y-12003591D02*
X13353643Y-12022639D01*
X13544119Y-11822639D02*
X13448881Y-11822639D01*
X13448881Y-11822639D02*
X13439358Y-11917877D01*
X13439358Y-11917877D02*
X13448881Y-11908353D01*
X13448881Y-11908353D02*
X13467929Y-11898829D01*
X13467929Y-11898829D02*
X13515548Y-11898829D01*
X13515548Y-11898829D02*
X13534596Y-11908353D01*
X13534596Y-11908353D02*
X13544119Y-11917877D01*
X13544119Y-11917877D02*
X13553643Y-11936925D01*
X13553643Y-11936925D02*
X13553643Y-11984544D01*
X13553643Y-11984544D02*
X13544119Y-12003591D01*
X13544119Y-12003591D02*
X13534596Y-12013115D01*
X13534596Y-12013115D02*
X13515548Y-12022639D01*
X13515548Y-12022639D02*
X13467929Y-12022639D01*
X13467929Y-12022639D02*
X13448881Y-12013115D01*
X13448881Y-12013115D02*
X13439358Y-12003591D01*
X13677453Y-11822639D02*
X13696500Y-11822639D01*
X13696500Y-11822639D02*
X13715548Y-11832163D01*
X13715548Y-11832163D02*
X13725072Y-11841687D01*
X13725072Y-11841687D02*
X13734596Y-11860734D01*
X13734596Y-11860734D02*
X13744119Y-11898829D01*
X13744119Y-11898829D02*
X13744119Y-11946449D01*
X13744119Y-11946449D02*
X13734596Y-11984544D01*
X13734596Y-11984544D02*
X13725072Y-12003591D01*
X13725072Y-12003591D02*
X13715548Y-12013115D01*
X13715548Y-12013115D02*
X13696500Y-12022639D01*
X13696500Y-12022639D02*
X13677453Y-12022639D01*
X13677453Y-12022639D02*
X13658405Y-12013115D01*
X13658405Y-12013115D02*
X13648881Y-12003591D01*
X13648881Y-12003591D02*
X13639358Y-11984544D01*
X13639358Y-11984544D02*
X13629834Y-11946449D01*
X13629834Y-11946449D02*
X13629834Y-11898829D01*
X13629834Y-11898829D02*
X13639358Y-11860734D01*
X13639358Y-11860734D02*
X13648881Y-11841687D01*
X13648881Y-11841687D02*
X13658405Y-11832163D01*
X13658405Y-11832163D02*
X13677453Y-11822639D01*
X13867929Y-11822639D02*
X13886977Y-11822639D01*
X13886977Y-11822639D02*
X13906024Y-11832163D01*
X13906024Y-11832163D02*
X13915548Y-11841687D01*
X13915548Y-11841687D02*
X13925072Y-11860734D01*
X13925072Y-11860734D02*
X13934596Y-11898829D01*
X13934596Y-11898829D02*
X13934596Y-11946449D01*
X13934596Y-11946449D02*
X13925072Y-11984544D01*
X13925072Y-11984544D02*
X13915548Y-12003591D01*
X13915548Y-12003591D02*
X13906024Y-12013115D01*
X13906024Y-12013115D02*
X13886977Y-12022639D01*
X13886977Y-12022639D02*
X13867929Y-12022639D01*
X13867929Y-12022639D02*
X13848881Y-12013115D01*
X13848881Y-12013115D02*
X13839358Y-12003591D01*
X13839358Y-12003591D02*
X13829834Y-11984544D01*
X13829834Y-11984544D02*
X13820310Y-11946449D01*
X13820310Y-11946449D02*
X13820310Y-11898829D01*
X13820310Y-11898829D02*
X13829834Y-11860734D01*
X13829834Y-11860734D02*
X13839358Y-11841687D01*
X13839358Y-11841687D02*
X13848881Y-11832163D01*
X13848881Y-11832163D02*
X13867929Y-11822639D01*
X14020310Y-12022639D02*
X14020310Y-11889306D01*
X14020310Y-11908353D02*
X14029834Y-11898829D01*
X14029834Y-11898829D02*
X14048881Y-11889306D01*
X14048881Y-11889306D02*
X14077453Y-11889306D01*
X14077453Y-11889306D02*
X14096500Y-11898829D01*
X14096500Y-11898829D02*
X14106024Y-11917877D01*
X14106024Y-11917877D02*
X14106024Y-12022639D01*
X14106024Y-11917877D02*
X14115548Y-11898829D01*
X14115548Y-11898829D02*
X14134596Y-11889306D01*
X14134596Y-11889306D02*
X14163167Y-11889306D01*
X14163167Y-11889306D02*
X14182215Y-11898829D01*
X14182215Y-11898829D02*
X14191739Y-11917877D01*
X14191739Y-11917877D02*
X14191739Y-12022639D01*
X14286977Y-12022639D02*
X14286977Y-11889306D01*
X14286977Y-11908353D02*
X14296500Y-11898829D01*
X14296500Y-11898829D02*
X14315548Y-11889306D01*
X14315548Y-11889306D02*
X14344120Y-11889306D01*
X14344120Y-11889306D02*
X14363167Y-11898829D01*
X14363167Y-11898829D02*
X14372691Y-11917877D01*
X14372691Y-11917877D02*
X14372691Y-12022639D01*
X14372691Y-11917877D02*
X14382215Y-11898829D01*
X14382215Y-11898829D02*
X14401262Y-11889306D01*
X14401262Y-11889306D02*
X14429834Y-11889306D01*
X14429834Y-11889306D02*
X14448881Y-11898829D01*
X14448881Y-11898829D02*
X14458405Y-11917877D01*
X14458405Y-11917877D02*
X14458405Y-12022639D01*
X14848881Y-11813115D02*
X14677453Y-12070258D01*
X15106024Y-11822639D02*
X15125072Y-11822639D01*
X15125072Y-11822639D02*
X15144120Y-11832163D01*
X15144120Y-11832163D02*
X15153643Y-11841687D01*
X15153643Y-11841687D02*
X15163167Y-11860734D01*
X15163167Y-11860734D02*
X15172691Y-11898829D01*
X15172691Y-11898829D02*
X15172691Y-11946449D01*
X15172691Y-11946449D02*
X15163167Y-11984544D01*
X15163167Y-11984544D02*
X15153643Y-12003591D01*
X15153643Y-12003591D02*
X15144120Y-12013115D01*
X15144120Y-12013115D02*
X15125072Y-12022639D01*
X15125072Y-12022639D02*
X15106024Y-12022639D01*
X15106024Y-12022639D02*
X15086977Y-12013115D01*
X15086977Y-12013115D02*
X15077453Y-12003591D01*
X15077453Y-12003591D02*
X15067929Y-11984544D01*
X15067929Y-11984544D02*
X15058405Y-11946449D01*
X15058405Y-11946449D02*
X15058405Y-11898829D01*
X15058405Y-11898829D02*
X15067929Y-11860734D01*
X15067929Y-11860734D02*
X15077453Y-11841687D01*
X15077453Y-11841687D02*
X15086977Y-11832163D01*
X15086977Y-11832163D02*
X15106024Y-11822639D01*
X15258405Y-12003591D02*
X15267929Y-12013115D01*
X15267929Y-12013115D02*
X15258405Y-12022639D01*
X15258405Y-12022639D02*
X15248882Y-12013115D01*
X15248882Y-12013115D02*
X15258405Y-12003591D01*
X15258405Y-12003591D02*
X15258405Y-12022639D01*
X15391739Y-11822639D02*
X15410786Y-11822639D01*
X15410786Y-11822639D02*
X15429834Y-11832163D01*
X15429834Y-11832163D02*
X15439358Y-11841687D01*
X15439358Y-11841687D02*
X15448882Y-11860734D01*
X15448882Y-11860734D02*
X15458405Y-11898829D01*
X15458405Y-11898829D02*
X15458405Y-11946449D01*
X15458405Y-11946449D02*
X15448882Y-11984544D01*
X15448882Y-11984544D02*
X15439358Y-12003591D01*
X15439358Y-12003591D02*
X15429834Y-12013115D01*
X15429834Y-12013115D02*
X15410786Y-12022639D01*
X15410786Y-12022639D02*
X15391739Y-12022639D01*
X15391739Y-12022639D02*
X15372691Y-12013115D01*
X15372691Y-12013115D02*
X15363167Y-12003591D01*
X15363167Y-12003591D02*
X15353643Y-11984544D01*
X15353643Y-11984544D02*
X15344120Y-11946449D01*
X15344120Y-11946449D02*
X15344120Y-11898829D01*
X15344120Y-11898829D02*
X15353643Y-11860734D01*
X15353643Y-11860734D02*
X15363167Y-11841687D01*
X15363167Y-11841687D02*
X15372691Y-11832163D01*
X15372691Y-11832163D02*
X15391739Y-11822639D01*
X15639358Y-11822639D02*
X15544120Y-11822639D01*
X15544120Y-11822639D02*
X15534596Y-11917877D01*
X15534596Y-11917877D02*
X15544120Y-11908353D01*
X15544120Y-11908353D02*
X15563167Y-11898829D01*
X15563167Y-11898829D02*
X15610786Y-11898829D01*
X15610786Y-11898829D02*
X15629834Y-11908353D01*
X15629834Y-11908353D02*
X15639358Y-11917877D01*
X15639358Y-11917877D02*
X15648882Y-11936925D01*
X15648882Y-11936925D02*
X15648882Y-11984544D01*
X15648882Y-11984544D02*
X15639358Y-12003591D01*
X15639358Y-12003591D02*
X15629834Y-12013115D01*
X15629834Y-12013115D02*
X15610786Y-12022639D01*
X15610786Y-12022639D02*
X15563167Y-12022639D01*
X15563167Y-12022639D02*
X15544120Y-12013115D01*
X15544120Y-12013115D02*
X15534596Y-12003591D01*
X15744120Y-12022639D02*
X15782215Y-12022639D01*
X15782215Y-12022639D02*
X15801263Y-12013115D01*
X15801263Y-12013115D02*
X15810786Y-12003591D01*
X15810786Y-12003591D02*
X15829834Y-11975020D01*
X15829834Y-11975020D02*
X15839358Y-11936925D01*
X15839358Y-11936925D02*
X15839358Y-11860734D01*
X15839358Y-11860734D02*
X15829834Y-11841687D01*
X15829834Y-11841687D02*
X15820310Y-11832163D01*
X15820310Y-11832163D02*
X15801263Y-11822639D01*
X15801263Y-11822639D02*
X15763167Y-11822639D01*
X15763167Y-11822639D02*
X15744120Y-11832163D01*
X15744120Y-11832163D02*
X15734596Y-11841687D01*
X15734596Y-11841687D02*
X15725072Y-11860734D01*
X15725072Y-11860734D02*
X15725072Y-11908353D01*
X15725072Y-11908353D02*
X15734596Y-11927401D01*
X15734596Y-11927401D02*
X15744120Y-11936925D01*
X15744120Y-11936925D02*
X15763167Y-11946449D01*
X15763167Y-11946449D02*
X15801263Y-11946449D01*
X15801263Y-11946449D02*
X15820310Y-11936925D01*
X15820310Y-11936925D02*
X15829834Y-11927401D01*
X15829834Y-11927401D02*
X15839358Y-11908353D01*
X16029834Y-12022639D02*
X15915548Y-12022639D01*
X15972691Y-12022639D02*
X15972691Y-11822639D01*
X15972691Y-11822639D02*
X15953643Y-11851210D01*
X15953643Y-11851210D02*
X15934596Y-11870258D01*
X15934596Y-11870258D02*
X15915548Y-11879782D01*
X16106024Y-11822639D02*
X16106024Y-11860734D01*
X16182215Y-11822639D02*
X16182215Y-11860734D01*
X16477453Y-12098829D02*
X16467929Y-12089306D01*
X16467929Y-12089306D02*
X16448882Y-12060734D01*
X16448882Y-12060734D02*
X16439358Y-12041687D01*
X16439358Y-12041687D02*
X16429834Y-12013115D01*
X16429834Y-12013115D02*
X16420310Y-11965496D01*
X16420310Y-11965496D02*
X16420310Y-11927401D01*
X16420310Y-11927401D02*
X16429834Y-11879782D01*
X16429834Y-11879782D02*
X16439358Y-11851210D01*
X16439358Y-11851210D02*
X16448882Y-11832163D01*
X16448882Y-11832163D02*
X16467929Y-11803591D01*
X16467929Y-11803591D02*
X16477453Y-11794068D01*
X16658405Y-12022639D02*
X16544120Y-12022639D01*
X16601263Y-12022639D02*
X16601263Y-11822639D01*
X16601263Y-11822639D02*
X16582215Y-11851210D01*
X16582215Y-11851210D02*
X16563167Y-11870258D01*
X16563167Y-11870258D02*
X16544120Y-11879782D01*
X16896501Y-12022639D02*
X16896501Y-11822639D01*
X16982215Y-12022639D02*
X16982215Y-11917877D01*
X16982215Y-11917877D02*
X16972691Y-11898829D01*
X16972691Y-11898829D02*
X16953644Y-11889306D01*
X16953644Y-11889306D02*
X16925072Y-11889306D01*
X16925072Y-11889306D02*
X16906025Y-11898829D01*
X16906025Y-11898829D02*
X16896501Y-11908353D01*
X17106025Y-12022639D02*
X17086977Y-12013115D01*
X17086977Y-12013115D02*
X17077453Y-12003591D01*
X17077453Y-12003591D02*
X17067929Y-11984544D01*
X17067929Y-11984544D02*
X17067929Y-11927401D01*
X17067929Y-11927401D02*
X17077453Y-11908353D01*
X17077453Y-11908353D02*
X17086977Y-11898829D01*
X17086977Y-11898829D02*
X17106025Y-11889306D01*
X17106025Y-11889306D02*
X17134596Y-11889306D01*
X17134596Y-11889306D02*
X17153644Y-11898829D01*
X17153644Y-11898829D02*
X17163168Y-11908353D01*
X17163168Y-11908353D02*
X17172691Y-11927401D01*
X17172691Y-11927401D02*
X17172691Y-11984544D01*
X17172691Y-11984544D02*
X17163168Y-12003591D01*
X17163168Y-12003591D02*
X17153644Y-12013115D01*
X17153644Y-12013115D02*
X17134596Y-12022639D01*
X17134596Y-12022639D02*
X17106025Y-12022639D01*
X17286977Y-12022639D02*
X17267929Y-12013115D01*
X17267929Y-12013115D02*
X17258406Y-11994068D01*
X17258406Y-11994068D02*
X17258406Y-11822639D01*
X17439358Y-12013115D02*
X17420310Y-12022639D01*
X17420310Y-12022639D02*
X17382215Y-12022639D01*
X17382215Y-12022639D02*
X17363168Y-12013115D01*
X17363168Y-12013115D02*
X17353644Y-11994068D01*
X17353644Y-11994068D02*
X17353644Y-11917877D01*
X17353644Y-11917877D02*
X17363168Y-11898829D01*
X17363168Y-11898829D02*
X17382215Y-11889306D01*
X17382215Y-11889306D02*
X17420310Y-11889306D01*
X17420310Y-11889306D02*
X17439358Y-11898829D01*
X17439358Y-11898829D02*
X17448882Y-11917877D01*
X17448882Y-11917877D02*
X17448882Y-11936925D01*
X17448882Y-11936925D02*
X17353644Y-11955972D01*
X17515549Y-12098829D02*
X17525072Y-12089306D01*
X17525072Y-12089306D02*
X17544120Y-12060734D01*
X17544120Y-12060734D02*
X17553644Y-12041687D01*
X17553644Y-12041687D02*
X17563168Y-12013115D01*
X17563168Y-12013115D02*
X17572691Y-11965496D01*
X17572691Y-11965496D02*
X17572691Y-11927401D01*
X17572691Y-11927401D02*
X17563168Y-11879782D01*
X17563168Y-11879782D02*
X17553644Y-11851210D01*
X17553644Y-11851210D02*
X17544120Y-11832163D01*
X17544120Y-11832163D02*
X17525072Y-11803591D01*
X17525072Y-11803591D02*
X17515549Y-11794068D01*
M02*
