M48
; DRILL file {KiCad 7.0.6} date Thu Jul 20 08:44:33 2023
; FORMAT={-:-/ absolute / metric / decimal}
; #@! TF.CreationDate,2023-07-20T08:44:33+02:00
; #@! TF.GenerationSoftware,Kicad,Pcbnew,7.0.6
; #@! TF.FileFunction,Plated,1,4,PTH
FMAT,2
METRIC
; #@! TA.AperFunction,Plated,PTH,ViaDrill
T1C0.300
; #@! TA.AperFunction,Plated,PTH,ComponentDrill
T2C0.600
; #@! TA.AperFunction,Plated,PTH,ComponentDrill
T3C1.500
%
G90
G05
T1
X129.794Y-96.647
X130.175Y-97.536
X131.318Y-97.79
X131.445Y-94.996
X131.445Y-95.885
X132.588Y-92.964
X133.35Y-94.996
X133.35Y-96.012
X134.62Y-92.583
X135.636Y-94.361
X135.636Y-95.25
X138.43Y-94.361
X138.43Y-95.504
X139.319Y-96.774
X140.335Y-94.869
X141.478Y-92.456
X143.891Y-94.488
X145.161Y-89.408
X145.415Y-96.901
X145.923Y-92.202
X145.923Y-95.123
X146.304Y-89.408
X147.701Y-81.915
X148.082Y-87.63
X148.209Y-81.534
X149.225Y-90.043
X149.225Y-94.615
X149.606Y-80.391
X149.987Y-85.852
X150.368Y-80.137
X151.003Y-90.678
X151.257Y-95.25
X151.511Y-79.121
X151.511Y-88.011
X151.765Y-84.201
X151.892Y-91.821
X151.892Y-92.71
X152.019Y-87.122
X152.781Y-91.821
X153.035Y-93.218
X153.67Y-86.614
X153.67Y-87.249
X153.67Y-90.551
X154.432Y-95.25
X154.432Y-96.52
X154.813Y-80.645
X154.813Y-95.885
X155.194Y-80.01
X155.194Y-81.28
X155.194Y-95.25
X155.194Y-96.52
X155.575Y-80.645
X155.575Y-95.885
X155.956Y-80.01
X155.956Y-81.28
X155.956Y-95.25
X155.956Y-96.52
X156.083Y-98.425
X156.337Y-80.645
X156.337Y-95.885
X156.718Y-80.01
X156.718Y-81.28
X156.718Y-95.25
X156.718Y-96.52
X157.099Y-80.645
X157.099Y-82.55
X157.099Y-95.885
X157.353Y-86.36
X157.353Y-86.995
X157.353Y-87.63
X157.48Y-80.01
X157.48Y-81.28
X157.48Y-95.25
X157.48Y-96.52
X158.242Y-91.694
X158.242Y-92.329
X158.75Y-85.217
X160.02Y-94.488
X161.036Y-84.455
X161.798Y-87.376
X161.925Y-82.55
X162.433Y-88.265
X162.433Y-89.154
X162.433Y-91.186
X162.687Y-87.376
X162.941Y-90.551
X162.941Y-93.345
X162.941Y-94.361
X163.576Y-87.376
X163.576Y-89.662
X163.703Y-84.455
X163.703Y-85.471
X164.084Y-89.027
X164.084Y-96.266
X164.084Y-97.155
X164.973Y-91.186
X164.973Y-92.837
X164.973Y-93.726
X164.973Y-94.615
X165.1Y-97.282
X165.227Y-90.424
X165.227Y-92.075
X165.608Y-95.25
X165.735Y-88.392
X166.116Y-90.551
X166.37Y-94.996
X166.37Y-97.282
X166.37Y-99.314
X166.497Y-81.661
X166.497Y-83.566
X166.751Y-100.33
X166.878Y-103.759
X167.132Y-92.456
X167.132Y-93.091
X167.259Y-84.836
X167.259Y-94.996
X167.259Y-104.267
X167.64Y-90.424
X167.64Y-97.409
X167.767Y-82.55
X167.894Y-104.521
X168.148Y-95.123
X168.275Y-99.06
X169.037Y-81.661
X169.037Y-83.566
X169.037Y-95.25
X169.291Y-86.614
X169.291Y-88.392
X169.672Y-90.424
X169.799Y-91.313
X169.799Y-92.202
X170.561Y-83.185
X170.561Y-84.201
X170.688Y-89.535
X170.815Y-101.981
X170.815Y-102.87
X171.196Y-79.121
X172.085Y-79.248
X173.101Y-96.139
X173.355Y-98.298
X173.482Y-81.534
X173.482Y-83.312
X174.117Y-81.026
X174.625Y-83.947
X174.625Y-85.598
X174.752Y-81.661
X174.752Y-82.55
X174.879Y-91.567
X179.578Y-89.281
X182.753Y-95.885
X184.531Y-103.251
X186.055Y-89.916
X186.817Y-81.28
X186.817Y-82.169
X188.214Y-81.788
X190.754Y-93.726
X193.421Y-84.074
X193.421Y-85.09
X193.421Y-86.106
X193.929Y-91.059
X194.056Y-88.392
X194.437Y-84.074
X194.437Y-85.09
X194.437Y-86.106
X195.453Y-84.074
X195.453Y-85.09
X195.453Y-86.106
X195.834Y-81.915
X196.342Y-86.995
X196.85Y-91.948
X196.977Y-87.63
X196.977Y-89.662
X197.612Y-82.931
X197.739Y-96.012
X199.009Y-92.583
X199.136Y-90.551
X199.517Y-96.393
X199.517Y-99.695
X199.898Y-98.425
X200.533Y-90.932
X200.66Y-90.043
X200.66Y-96.012
X201.761Y-92.692
X202.057Y-103.251
X202.184Y-89.027
X202.184Y-106.807
X202.438Y-84.328
X202.565Y-86.868
X202.565Y-100.076
X203.271Y-95.353
X203.708Y-103.251
X203.762Y-93.91
X203.962Y-105.918
X210.058Y-92.329
X210.312Y-91.821
X215.773Y-74.422
T3
X216.154Y-71.247
T2
X202.431Y-97.747G85X201.391Y-97.391
G05
X205.23Y-89.573G85X204.189Y-89.217
G05
X206.244Y-99.053G85X205.487Y-98.794
G05
X209.043Y-90.879G85X208.286Y-90.62
G05
T0
M30
