%TF.GenerationSoftware,KiCad,Pcbnew,7.0.6*%
%TF.CreationDate,2023-07-20T08:42:54+02:00*%
%TF.ProjectId,dc_sdr,64635f73-6472-42e6-9b69-6361645f7063,rev?*%
%TF.SameCoordinates,Original*%
%TF.FileFunction,Copper,L3,Inr*%
%TF.FilePolarity,Positive*%
%FSLAX46Y46*%
G04 Gerber Fmt 4.6, Leading zero omitted, Abs format (unit mm)*
G04 Created by KiCad (PCBNEW 7.0.6) date 2023-07-20 08:42:54*
%MOMM*%
%LPD*%
G01*
G04 APERTURE LIST*
G04 Aperture macros list*
%AMHorizOval*
0 Thick line with rounded ends*
0 $1 width*
0 $2 $3 position (X,Y) of the first rounded end (center of the circle)*
0 $4 $5 position (X,Y) of the second rounded end (center of the circle)*
0 Add line between two ends*
20,1,$1,$2,$3,$4,$5,0*
0 Add two circle primitives to create the rounded ends*
1,1,$1,$2,$3*
1,1,$1,$4,$5*%
G04 Aperture macros list end*
%TA.AperFunction,ComponentPad*%
%ADD10C,3.000000*%
%TD*%
%TA.AperFunction,ComponentPad*%
%ADD11HorizOval,1.000000X-0.378434X0.129567X0.378434X-0.129567X0*%
%TD*%
%TA.AperFunction,ComponentPad*%
%ADD12HorizOval,1.000000X-0.520347X0.178155X0.520347X-0.178155X0*%
%TD*%
%TA.AperFunction,ViaPad*%
%ADD13C,0.600000*%
%TD*%
%TA.AperFunction,Conductor*%
%ADD14C,0.200000*%
%TD*%
%TA.AperFunction,Conductor*%
%ADD15C,0.500000*%
%TD*%
%TA.AperFunction,Conductor*%
%ADD16C,1.000000*%
%TD*%
G04 APERTURE END LIST*
D10*
%TO.N,ANT*%
%TO.C,REF\u002A\u002A*%
X216154000Y-71247000D03*
%TD*%
D11*
%TO.N,GND*%
%TO.C,J1*%
X208664365Y-90749122D03*
D12*
X204709728Y-89395148D03*
D11*
X205865719Y-98923300D03*
D12*
X201911082Y-97569325D03*
%TD*%
D13*
%TO.N,Net-(J1-CC1)*%
X202184000Y-89027000D03*
%TO.N,GND*%
X149987000Y-85852000D03*
X149225000Y-94615000D03*
%TO.N,LCD0_BL*%
X160020000Y-94488000D03*
X152019000Y-87122000D03*
%TO.N,+3.3V*%
X173482000Y-83312000D03*
X173482000Y-81534000D03*
%TO.N,I2C_BUS_SDA*%
X170561000Y-83185000D03*
%TO.N,+3.3V*%
X174879000Y-91567000D03*
X173101000Y-96139000D03*
X168275000Y-99060000D03*
%TO.N,GND*%
X173355000Y-98298000D03*
%TO.N,+3.3V*%
X199517000Y-96393000D03*
%TO.N,GND*%
X179578000Y-89281000D03*
X140335000Y-94869000D03*
X141478000Y-92456000D03*
X151511000Y-79121000D03*
X194437000Y-84074000D03*
X193421000Y-85090000D03*
X215773000Y-74422000D03*
X194437000Y-85090000D03*
X145923000Y-92202000D03*
X157353000Y-86995000D03*
X129794000Y-96647000D03*
X151511000Y-88011000D03*
X193421000Y-86106000D03*
X194437000Y-86106000D03*
X167132000Y-93091000D03*
X193421000Y-84074000D03*
X157353000Y-87630000D03*
X156083000Y-98425000D03*
X167132000Y-92456000D03*
X186055000Y-89916000D03*
X195453000Y-86106000D03*
X195453000Y-84074000D03*
X153670000Y-90551000D03*
X202438000Y-84328000D03*
X195453000Y-85090000D03*
X202184000Y-106807000D03*
X193929000Y-91059000D03*
X184531000Y-103251000D03*
X157353000Y-86360000D03*
X130175000Y-97536000D03*
X131318000Y-97790000D03*
%TO.N,Net-(U1-VREG_VOUT)*%
X167640000Y-97409000D03*
X164084000Y-97155000D03*
X166751000Y-100330000D03*
X167640000Y-90424000D03*
X169799000Y-91313000D03*
%TO.N,+3.3V*%
X154432000Y-95250000D03*
%TO.N,GND*%
X166878000Y-103759000D03*
%TO.N,+3.3V*%
X155956000Y-95250000D03*
X194056000Y-88392000D03*
X157480000Y-96520000D03*
X157480000Y-95250000D03*
X169291000Y-86614000D03*
X154432000Y-96520000D03*
X195834000Y-81915000D03*
X155194000Y-95250000D03*
X154813000Y-95885000D03*
%TO.N,GND*%
X167259000Y-104267000D03*
%TO.N,+3.3V*%
X156718000Y-96520000D03*
X131445000Y-95885000D03*
%TO.N,GND*%
X202565000Y-100076000D03*
%TO.N,+3.3V*%
X155575000Y-95885000D03*
X188214000Y-81788000D03*
X157099000Y-95885000D03*
X182753000Y-95885000D03*
X155956000Y-96520000D03*
X131445000Y-94996000D03*
%TO.N,GND*%
X167894000Y-104521000D03*
%TO.N,+3.3V*%
X149225000Y-90043000D03*
X166370000Y-99314000D03*
X203962000Y-105918000D03*
X197612000Y-82931000D03*
X156337000Y-95885000D03*
X156718000Y-95250000D03*
X155194000Y-96520000D03*
%TO.N,VBUS*%
X148209000Y-81534000D03*
X153670000Y-86614000D03*
X210312000Y-91821000D03*
X158242000Y-91694000D03*
X147701000Y-81915000D03*
X150368000Y-80137000D03*
X153670000Y-87249000D03*
X210058000Y-92329000D03*
X158242000Y-92329000D03*
X149606000Y-80391000D03*
%TO.N,Net-(J1-CC1)*%
X202565000Y-86868000D03*
%TO.N,USB_DP*%
X169037000Y-81661000D03*
X170815000Y-101981000D03*
X203761656Y-93909894D03*
%TO.N,USB_DN*%
X169037000Y-83566000D03*
X201761326Y-92692297D03*
X170815000Y-102870000D03*
%TO.N,Net-(J1-CC2)*%
X197739000Y-96012000D03*
X203270523Y-95352588D03*
%TO.N,IF_GAIN*%
X190754000Y-93726000D03*
X174752000Y-81661000D03*
%TO.N,I2C_BUS_SDA*%
X151257000Y-95250000D03*
X174752000Y-82550000D03*
X200533000Y-90932000D03*
X133350000Y-96012000D03*
X162433000Y-89154000D03*
%TO.N,Net-(U3-SDA)*%
X196977000Y-87630000D03*
X196850000Y-91948000D03*
%TO.N,I2C_BUS_SCL*%
X174625000Y-83947000D03*
X170561000Y-84201000D03*
X153035000Y-93218000D03*
X133350000Y-94996000D03*
X165227000Y-92075000D03*
X200660000Y-90043000D03*
%TO.N,Net-(U3-SCL)*%
X196977000Y-89662000D03*
X196342000Y-86995000D03*
%TO.N,LCD0_RS*%
X164973000Y-94615000D03*
%TO.N,LCD0_CLK*%
X162941000Y-94361000D03*
%TO.N,LCD0_MOSI*%
X164973000Y-93726000D03*
X158750000Y-85217000D03*
X162433000Y-88265000D03*
%TO.N,LCD0_RST*%
X162941000Y-93345000D03*
%TO.N,LCD0_TE*%
X163703000Y-85471000D03*
X157099000Y-82550000D03*
X164973000Y-92837000D03*
%TO.N,I2S_SDA*%
X165735000Y-88392000D03*
X151892000Y-92710000D03*
%TO.N,I2S_SCL*%
X166116000Y-90551000D03*
X152781000Y-91821000D03*
%TO.N,Net-(U1-USB_DP)*%
X166497000Y-81661000D03*
X168148000Y-95123000D03*
%TO.N,Net-(U1-USB_DM)*%
X169037000Y-95250000D03*
X166497000Y-83566000D03*
%TO.N,LEVER_L*%
X162433000Y-91186000D03*
X199009000Y-92583000D03*
X172085000Y-79248000D03*
%TO.N,LEVER_CL*%
X199136000Y-90551000D03*
X164973000Y-91186000D03*
X171196000Y-79121000D03*
%TO.N,LEVER_P*%
X200660000Y-96012000D03*
X162941000Y-90551000D03*
X174117000Y-81026000D03*
%TO.N,LEVER_CR*%
X163576000Y-89662000D03*
X167767000Y-82550000D03*
X199517000Y-99695000D03*
%TO.N,MCU_RESET*%
X203708000Y-103251000D03*
X169291000Y-88392000D03*
%TO.N,LEVER_R*%
X167259000Y-84836000D03*
X199898000Y-98425000D03*
X164084000Y-89027000D03*
%TO.N,I2S_MCLK*%
X151003000Y-90678000D03*
X170688000Y-89535000D03*
%TO.N,FLASH_SD3*%
X163703000Y-84455000D03*
X167259000Y-94996000D03*
%TO.N,FLASH_SCLK*%
X166370000Y-97282000D03*
X161925000Y-82550000D03*
%TO.N,FLASH_SD0*%
X161036000Y-84455000D03*
X166370000Y-94996000D03*
%TO.N,FLASH_SD2*%
X161798000Y-87376000D03*
X165608000Y-95250000D03*
%TO.N,FLASH_SD1*%
X165100000Y-97282000D03*
X162687000Y-87376000D03*
%TO.N,FLASH_SS*%
X164084000Y-96266000D03*
X139319000Y-96774000D03*
X163576000Y-87376000D03*
%TO.N,LCD0_LEDK*%
X186817000Y-81280000D03*
X148082000Y-87630000D03*
%TO.N,Net-(Display1-LEDA)*%
X186817000Y-82169000D03*
X151765000Y-84201000D03*
%TO.N,Net-(U6-HPR)*%
X138430000Y-95504000D03*
X145923000Y-95123000D03*
%TO.N,AUDIO_R*%
X135636000Y-95250000D03*
%TO.N,Net-(U6-HPL)*%
X138430000Y-94361000D03*
X143891000Y-94488000D03*
%TO.N,AUDIO_L*%
X135636000Y-94361000D03*
%TO.N,+1V8*%
X157480000Y-80010000D03*
X155575000Y-80645000D03*
X157480000Y-81280000D03*
X155194000Y-80010000D03*
X155956000Y-80010000D03*
X157099000Y-80645000D03*
X155956000Y-81280000D03*
X154813000Y-80645000D03*
X156718000Y-81280000D03*
X146304000Y-89408000D03*
X155194000Y-81280000D03*
X156718000Y-80010000D03*
X145415000Y-96901000D03*
X156337000Y-80645000D03*
%TO.N,I2S_WS*%
X169672000Y-90424000D03*
X151892000Y-91821000D03*
%TO.N,CODEC_RST*%
X165227000Y-90424000D03*
X145161000Y-89408000D03*
%TO.N,RGB_LEDS*%
X134620000Y-92583000D03*
X169799000Y-92202000D03*
%TO.N,Net-(BOOT1-A)*%
X132588000Y-92964000D03*
X174625000Y-85598000D03*
X202057000Y-103251000D03*
%TD*%
D14*
%TO.N,MCU_RESET*%
X169291000Y-89621529D02*
X169291000Y-88392000D01*
X167218529Y-91694000D02*
X169291000Y-89621529D01*
X188213041Y-93920529D02*
X169445058Y-93920529D01*
X193071570Y-89062000D02*
X188213041Y-93920529D01*
X169445058Y-93920529D02*
X167218529Y-91694000D01*
X201260000Y-89062000D02*
X193071570Y-89062000D01*
X201803000Y-88519000D02*
X201260000Y-89062000D01*
X202565000Y-88519000D02*
X201803000Y-88519000D01*
X203200000Y-89154000D02*
X202565000Y-88519000D01*
X203200000Y-90345033D02*
X203200000Y-89154000D01*
X204978000Y-91585008D02*
X204439975Y-91585008D01*
X204851000Y-97115765D02*
X204851000Y-93243590D01*
X203708000Y-98258765D02*
X204851000Y-97115765D01*
X204851000Y-93243590D02*
X204978000Y-93116590D01*
X204978000Y-93116590D02*
X204978000Y-91585008D01*
X203708000Y-103251000D02*
X203708000Y-98258765D01*
X204439975Y-91585008D02*
X203200000Y-90345033D01*
%TO.N,LEVER_R*%
X202722079Y-98679000D02*
X200152000Y-98679000D01*
X203581000Y-97820079D02*
X202722079Y-98679000D01*
X203581000Y-95890640D02*
X203581000Y-97820079D01*
X203870523Y-95601117D02*
X203581000Y-95890640D01*
X203870523Y-95104059D02*
X203870523Y-95601117D01*
X203519052Y-94752588D02*
X203870523Y-95104059D01*
X203021994Y-94752588D02*
X203519052Y-94752588D01*
X200971686Y-94869000D02*
X202905582Y-94869000D01*
X200665669Y-94562983D02*
X200971686Y-94869000D01*
X200665669Y-92092297D02*
X200665669Y-94562983D01*
X199756372Y-91183000D02*
X200665669Y-92092297D01*
X198429101Y-91183000D02*
X199756372Y-91183000D01*
X197609000Y-92003100D02*
X198429101Y-91183000D01*
X197609000Y-94560314D02*
X197609000Y-92003100D01*
X200152000Y-98679000D02*
X199898000Y-98425000D01*
X196739000Y-95430314D02*
X197609000Y-94560314D01*
X196739000Y-99886942D02*
X196739000Y-95430314D01*
X195271198Y-101354744D02*
X196739000Y-99886942D01*
X173687058Y-101354744D02*
X195271198Y-101354744D01*
X202905582Y-94869000D02*
X203021994Y-94752588D01*
X168579314Y-96247000D02*
X173687058Y-101354744D01*
X164373000Y-94863529D02*
X165756471Y-96247000D01*
X163868000Y-91752101D02*
X164373000Y-92257101D01*
X163976000Y-90930214D02*
X163868000Y-91038214D01*
X164373000Y-92257101D02*
X164373000Y-94863529D01*
X165756471Y-96247000D02*
X168579314Y-96247000D01*
X164176000Y-89910529D02*
X163976000Y-90110529D01*
X164176000Y-89119000D02*
X164176000Y-89910529D01*
X163868000Y-91038214D02*
X163868000Y-91752101D01*
X163976000Y-90110529D02*
X163976000Y-90930214D01*
X164084000Y-89027000D02*
X164176000Y-89119000D01*
%TO.N,LEVER_CR*%
X199298000Y-99476000D02*
X199517000Y-99695000D01*
X200862471Y-96612000D02*
X199298000Y-98176471D01*
X201295000Y-96225529D02*
X200908529Y-96612000D01*
X201295000Y-95758000D02*
X201295000Y-96225529D01*
X200044000Y-94507000D02*
X201295000Y-95758000D01*
X200044000Y-92036315D02*
X200044000Y-94507000D01*
X200908529Y-96612000D02*
X200862471Y-96612000D01*
X199590686Y-91583000D02*
X200044000Y-92036315D01*
X198009000Y-92168785D02*
X198594786Y-91583000D01*
X198009000Y-94726000D02*
X198009000Y-92168785D01*
X197139000Y-95596000D02*
X198009000Y-94726000D01*
X197139000Y-100052628D02*
X197139000Y-95596000D01*
X195436884Y-101754744D02*
X197139000Y-100052628D01*
X173521372Y-101754744D02*
X195436884Y-101754744D01*
X165590785Y-96647000D02*
X168413628Y-96647000D01*
X199298000Y-98176471D02*
X199298000Y-99476000D01*
X163973000Y-92422786D02*
X163973000Y-95029215D01*
X163576000Y-90764529D02*
X163468000Y-90872529D01*
X163973000Y-95029215D02*
X165590785Y-96647000D01*
X163468000Y-91917786D02*
X163973000Y-92422786D01*
X163576000Y-89662000D02*
X163576000Y-90764529D01*
X163468000Y-90872529D02*
X163468000Y-91917786D01*
X168413628Y-96647000D02*
X173521372Y-101754744D01*
X198594786Y-91583000D02*
X199590686Y-91583000D01*
%TO.N,I2C_BUS_SCL*%
X169487314Y-84201000D02*
X170561000Y-84201000D01*
X166335000Y-87353314D02*
X169487314Y-84201000D01*
X166335000Y-88681000D02*
X166335000Y-87353314D01*
X165648471Y-89154000D02*
X165862000Y-89154000D01*
X164268000Y-91586415D02*
X164268000Y-91203900D01*
X164376000Y-90426471D02*
X165648471Y-89154000D01*
X164756585Y-92075000D02*
X164268000Y-91586415D01*
X165862000Y-89154000D02*
X166335000Y-88681000D01*
X165227000Y-92075000D02*
X164756585Y-92075000D01*
X164268000Y-91203900D02*
X164376000Y-91095900D01*
X164376000Y-91095900D02*
X164376000Y-90426471D01*
%TO.N,RGB_LEDS*%
X170399000Y-91602000D02*
X169799000Y-92202000D01*
X170399000Y-90262000D02*
X170399000Y-91602000D01*
X169891000Y-89754000D02*
X170399000Y-90262000D01*
X169891000Y-88143471D02*
X169891000Y-89754000D01*
X169539529Y-87792000D02*
X169891000Y-88143471D01*
X169042471Y-87792000D02*
X169539529Y-87792000D01*
X168402000Y-87151529D02*
X169042471Y-87792000D01*
X168402000Y-86417686D02*
X168402000Y-87151529D01*
X169618686Y-85201000D02*
X168402000Y-86417686D01*
X171396685Y-85201000D02*
X169618686Y-85201000D01*
X171634686Y-84963000D02*
X171396685Y-85201000D01*
X175023215Y-84963000D02*
X171634686Y-84963000D01*
X175768000Y-84218215D02*
X175023215Y-84963000D01*
X175768000Y-80518001D02*
X175768000Y-84218215D01*
X173498000Y-78248000D02*
X175768000Y-80518001D01*
X171220471Y-78248000D02*
X173498000Y-78248000D01*
X170639471Y-78829000D02*
X171220471Y-78248000D01*
X159874000Y-83752471D02*
X164797471Y-78829000D01*
X164797471Y-78829000D02*
X170639471Y-78829000D01*
X152746000Y-93818000D02*
X153305000Y-93818000D01*
X152273000Y-93345000D02*
X152746000Y-93818000D01*
X135382000Y-93345000D02*
X152273000Y-93345000D01*
X159874000Y-87249000D02*
X159874000Y-83752471D01*
X134620000Y-92583000D02*
X135382000Y-93345000D01*
X153305000Y-93818000D02*
X159874000Y-87249000D01*
%TO.N,LCD0_BL*%
X152111000Y-87214000D02*
X152019000Y-87122000D01*
X152111000Y-88721471D02*
X152111000Y-87214000D01*
X149835736Y-90996735D02*
X152111000Y-88721471D01*
X134792051Y-90996735D02*
X149835736Y-90996735D01*
X133585000Y-92203785D02*
X134792051Y-90996735D01*
X133458000Y-93980000D02*
X133585000Y-93980000D01*
X132750000Y-94688000D02*
X133458000Y-93980000D01*
X133585000Y-93980000D02*
X133585000Y-92203785D01*
X132750000Y-96260529D02*
X132750000Y-94688000D01*
X151332471Y-97501000D02*
X133990471Y-97501000D01*
X154345471Y-94488000D02*
X151332471Y-97501000D01*
X160020000Y-94488000D02*
X154345471Y-94488000D01*
X133990471Y-97501000D02*
X132750000Y-96260529D01*
%TO.N,I2C_BUS_SDA*%
X150403000Y-96104000D02*
X151257000Y-95250000D01*
X133442000Y-96104000D02*
X150403000Y-96104000D01*
X133350000Y-96012000D02*
X133442000Y-96104000D01*
%TO.N,I2C_BUS_SCL*%
X153543000Y-92710000D02*
X153035000Y-93218000D01*
X153543000Y-91734471D02*
X153543000Y-92710000D01*
X151678471Y-91186000D02*
X152994529Y-91186000D01*
X133985000Y-94361000D02*
X133985000Y-92369471D01*
X134957736Y-91396735D02*
X151467736Y-91396735D01*
X151467736Y-91396735D02*
X151678471Y-91186000D01*
X152994529Y-91186000D02*
X153543000Y-91734471D01*
X133350000Y-94996000D02*
X133985000Y-94361000D01*
X133985000Y-92369471D02*
X134957736Y-91396735D01*
D15*
%TO.N,+3.3V*%
X173482000Y-81534000D02*
X173482000Y-83312000D01*
D14*
%TO.N,LEVER_CL*%
X171669000Y-78648000D02*
X171196000Y-79121000D01*
X173332314Y-78648000D02*
X171669000Y-78648000D01*
X175368000Y-80683686D02*
X173332314Y-78648000D01*
X171485000Y-84547000D02*
X174873529Y-84547000D01*
X169453000Y-84801000D02*
X171231000Y-84801000D01*
X175368000Y-84052529D02*
X175368000Y-80683686D01*
X167005000Y-87249000D02*
X169453000Y-84801000D01*
X174873529Y-84547000D02*
X175368000Y-84052529D01*
X167005000Y-91186000D02*
X167005000Y-87249000D01*
X165821529Y-91186000D02*
X167005000Y-91186000D01*
X171231000Y-84801000D02*
X171485000Y-84547000D01*
D15*
%TO.N,+3.3V*%
X169291000Y-86614000D02*
X174244000Y-91567000D01*
X174244000Y-91567000D02*
X174879000Y-91567000D01*
D14*
%TO.N,I2C_BUS_SDA*%
X170561000Y-83185000D02*
X170561000Y-83312000D01*
D16*
%TO.N,+1V8*%
X155194000Y-80010000D02*
X157480000Y-80010000D01*
X156845000Y-80645000D02*
X157099000Y-80645000D01*
X156591000Y-80645000D02*
X156718000Y-80772000D01*
X154813000Y-80645000D02*
X156591000Y-80645000D01*
X156718000Y-80772000D02*
X156845000Y-80645000D01*
X155194000Y-81280000D02*
X157480000Y-81280000D01*
X147972214Y-89408000D02*
X146304000Y-89408000D01*
X155194000Y-82186214D02*
X147972214Y-89408000D01*
X155194000Y-81280000D02*
X155194000Y-82186214D01*
D14*
%TO.N,I2C_BUS_SDA*%
X162560000Y-89154000D02*
X162023157Y-89154000D01*
X163900000Y-82042000D02*
X165913000Y-80029000D01*
X169037000Y-80029000D02*
X170561000Y-81553000D01*
X162023157Y-89154000D02*
X161074000Y-88204843D01*
X162703000Y-84000314D02*
X163900000Y-82803314D01*
X162703000Y-85316372D02*
X162703000Y-84000314D01*
X161074000Y-88204843D02*
X161074000Y-86945372D01*
X165913000Y-80029000D02*
X169037000Y-80029000D01*
X163900000Y-82803314D02*
X163900000Y-82042000D01*
X161074000Y-86945372D02*
X162703000Y-85316372D01*
X170561000Y-81553000D02*
X170561000Y-83185000D01*
%TO.N,I2C_BUS_SCL*%
X165313529Y-92075000D02*
X165227000Y-92075000D01*
%TO.N,Net-(U3-SCL)*%
X196329000Y-87055000D02*
X196371000Y-87013000D01*
%TO.N,LEVER_L*%
X161941000Y-94815685D02*
X163084000Y-95958686D01*
X171323000Y-80010000D02*
X172085000Y-79248000D01*
X172085000Y-79161471D02*
X172085000Y-79248000D01*
X161941000Y-92930785D02*
X161941000Y-94815685D01*
X162433000Y-91186000D02*
X162668000Y-91421000D01*
X162306000Y-91059000D02*
X162306000Y-90568215D01*
X161903000Y-84985000D02*
X161903000Y-83588001D01*
X163958785Y-98444000D02*
X169079256Y-98444000D01*
X198898000Y-99425000D02*
X198898000Y-92694000D01*
X162668000Y-92203785D02*
X161941000Y-92930785D01*
X198898000Y-92694000D02*
X199009000Y-92583000D01*
X163084000Y-95958686D02*
X163084000Y-97569214D01*
X162814000Y-81984315D02*
X165569315Y-79229000D01*
X169079256Y-98444000D02*
X173190000Y-102554744D01*
X170307000Y-80010000D02*
X171323000Y-80010000D01*
X162668000Y-91421000D02*
X162668000Y-92203785D01*
X162814000Y-82677000D02*
X162814000Y-81984315D01*
X163084000Y-97569214D02*
X163958785Y-98444000D01*
X162306000Y-90568215D02*
X160274000Y-88536215D01*
X161903000Y-83588001D02*
X162814000Y-82677000D01*
X195768256Y-102554744D02*
X198898000Y-99425000D01*
X160274000Y-88536215D02*
X160274000Y-86614000D01*
X160274000Y-86614000D02*
X161903000Y-84985000D01*
X162433000Y-91186000D02*
X162306000Y-91059000D01*
X165569315Y-79229000D02*
X169526000Y-79229000D01*
X173190000Y-102554744D02*
X195768256Y-102554744D01*
X169526000Y-79229000D02*
X170307000Y-80010000D01*
%TO.N,LEVER_CL*%
X196250000Y-92196529D02*
X196250000Y-91659000D01*
X165821529Y-92329000D02*
X165821529Y-94320529D01*
X165827000Y-91191471D02*
X165827000Y-92323529D01*
X196250000Y-91659000D02*
X197358000Y-90551000D01*
X165827000Y-92323529D02*
X165821529Y-92329000D01*
X169637000Y-96739000D02*
X173852744Y-100954744D01*
X196339000Y-99721256D02*
X196339000Y-92285529D01*
X169637000Y-95001471D02*
X169637000Y-96739000D01*
X195105512Y-100954744D02*
X196339000Y-99721256D01*
X173852744Y-100954744D02*
X195105512Y-100954744D01*
X196339000Y-92285529D02*
X196250000Y-92196529D01*
X197358000Y-90551000D02*
X199136000Y-90551000D01*
X164973000Y-91186000D02*
X165821529Y-91186000D01*
X165821529Y-91186000D02*
X165827000Y-91191471D01*
X165821529Y-94320529D02*
X168956058Y-94320529D01*
X168956058Y-94320529D02*
X169637000Y-95001471D01*
X171196000Y-79121000D02*
X171196000Y-79207529D01*
%TO.N,LEVER_P*%
X162941000Y-90805000D02*
X163068000Y-90932000D01*
X162341000Y-94650000D02*
X163484000Y-95793000D01*
X163068000Y-92369471D02*
X162341000Y-93096471D01*
X163484000Y-95793000D02*
X163484000Y-97403529D01*
X198760471Y-91983000D02*
X199425000Y-91983000D01*
X169244942Y-98044000D02*
X173355686Y-102154744D01*
X162941000Y-90551000D02*
X162941000Y-90805000D01*
X169291000Y-79629000D02*
X170072000Y-80410000D01*
X162854471Y-90551000D02*
X160674000Y-88370529D01*
X199644000Y-92202000D02*
X199644000Y-94996000D01*
X162341000Y-93096471D02*
X162341000Y-94650000D01*
X199644000Y-94996000D02*
X200660000Y-96012000D01*
X162941000Y-90551000D02*
X162854471Y-90551000D01*
X164124471Y-98044000D02*
X169244942Y-98044000D01*
X170072000Y-80410000D02*
X173501000Y-80410000D01*
X163322000Y-82734686D02*
X163322000Y-82042000D01*
X195602570Y-102154744D02*
X198409000Y-99348314D01*
X198409000Y-92334471D02*
X198760471Y-91983000D01*
X160674000Y-88370529D02*
X160674000Y-86779686D01*
X162303000Y-85150686D02*
X162303000Y-83753687D01*
X199425000Y-91983000D02*
X199644000Y-92202000D01*
X198409000Y-99348314D02*
X198409000Y-92334471D01*
X160674000Y-86779686D02*
X162303000Y-85150686D01*
X163322000Y-82042000D02*
X165735000Y-79629000D01*
X162303000Y-83753687D02*
X163322000Y-82734686D01*
X163484000Y-97403529D02*
X164124471Y-98044000D01*
X165735000Y-79629000D02*
X169291000Y-79629000D01*
X163068000Y-90932000D02*
X163068000Y-92369471D01*
X173501000Y-80410000D02*
X174117000Y-81026000D01*
X173355686Y-102154744D02*
X195602570Y-102154744D01*
%TO.N,LEVER_CR*%
X164300000Y-86916529D02*
X163103000Y-85719529D01*
X164719000Y-82550000D02*
X167767000Y-82550000D01*
X163103000Y-84166000D02*
X164719000Y-82550000D01*
X164300000Y-87922000D02*
X164300000Y-86916529D01*
X163103000Y-85719529D02*
X163103000Y-84166000D01*
X163576000Y-89662000D02*
X163484000Y-89570000D01*
X163484000Y-89570000D02*
X163484000Y-88738000D01*
X163484000Y-88738000D02*
X164300000Y-87922000D01*
%TO.N,LEVER_R*%
X167259000Y-84836000D02*
X164700000Y-87395000D01*
X164084000Y-89027000D02*
X164700000Y-88411000D01*
X164700000Y-87395000D02*
X164700000Y-88411000D01*
%TO.N,FLASH_SD0*%
X161163000Y-84455000D02*
X161036000Y-84455000D01*
%TD*%
%TA.AperFunction,Conductor*%
%TO.N,GND*%
G36*
X196467698Y-89381407D02*
G01*
X196503662Y-89430907D01*
X196503662Y-89492093D01*
X196499560Y-89502627D01*
X196491834Y-89519543D01*
X196471353Y-89661997D01*
X196471353Y-89662002D01*
X196491834Y-89804456D01*
X196546717Y-89924630D01*
X196551623Y-89935373D01*
X196643890Y-90041856D01*
X196645873Y-90044144D01*
X196766942Y-90121950D01*
X196766947Y-90121953D01*
X196864603Y-90150627D01*
X196905035Y-90162499D01*
X196905036Y-90162499D01*
X196905039Y-90162500D01*
X196905041Y-90162500D01*
X197048959Y-90162500D01*
X197048961Y-90162500D01*
X197052479Y-90161467D01*
X197055537Y-90161554D01*
X197055970Y-90161492D01*
X197055980Y-90161566D01*
X197113638Y-90163210D01*
X197162093Y-90200570D01*
X197179335Y-90259276D01*
X197158777Y-90316905D01*
X197155691Y-90320256D01*
X197132839Y-90350515D01*
X197128335Y-90355692D01*
X196083590Y-91400437D01*
X196072361Y-91408550D01*
X196073090Y-91409515D01*
X196065771Y-91415041D01*
X196033372Y-91450580D01*
X196031796Y-91452231D01*
X196017830Y-91466198D01*
X196017817Y-91466213D01*
X196015813Y-91469138D01*
X196011561Y-91474504D01*
X195990084Y-91498065D01*
X195990083Y-91498067D01*
X195986529Y-91507240D01*
X195975896Y-91527412D01*
X195970346Y-91535515D01*
X195970342Y-91535524D01*
X195963045Y-91566545D01*
X195961016Y-91573098D01*
X195949500Y-91602824D01*
X195949500Y-91612651D01*
X195946870Y-91635318D01*
X195944621Y-91644881D01*
X195945631Y-91652118D01*
X195949025Y-91676452D01*
X195949500Y-91683298D01*
X195949500Y-92131364D01*
X195947280Y-92145042D01*
X195948494Y-92145212D01*
X195947226Y-92154295D01*
X195947903Y-92168922D01*
X195949432Y-92202002D01*
X195949447Y-92202312D01*
X195949500Y-92204598D01*
X195949500Y-92224371D01*
X195950152Y-92227861D01*
X195950943Y-92234678D01*
X195952414Y-92266516D01*
X195952415Y-92266523D01*
X195956384Y-92275511D01*
X195963133Y-92297302D01*
X195964939Y-92306962D01*
X195981717Y-92334062D01*
X195984915Y-92340129D01*
X195997793Y-92369292D01*
X195997794Y-92369294D01*
X195997797Y-92369297D01*
X196004744Y-92376245D01*
X196018907Y-92394125D01*
X196023669Y-92401815D01*
X196038500Y-92453936D01*
X196038499Y-99555776D01*
X196019592Y-99613967D01*
X196009503Y-99625780D01*
X195010037Y-100625248D01*
X194955520Y-100653025D01*
X194940033Y-100654244D01*
X174018224Y-100654244D01*
X173960033Y-100635337D01*
X173948220Y-100625248D01*
X169966496Y-96643523D01*
X169938719Y-96589006D01*
X169937500Y-96573519D01*
X169937500Y-96139002D01*
X172595353Y-96139002D01*
X172615834Y-96281456D01*
X172673834Y-96408456D01*
X172675623Y-96412373D01*
X172762382Y-96512499D01*
X172769873Y-96521144D01*
X172884018Y-96594500D01*
X172890947Y-96598953D01*
X172985657Y-96626762D01*
X173029035Y-96639499D01*
X173029036Y-96639499D01*
X173029039Y-96639500D01*
X173029041Y-96639500D01*
X173172959Y-96639500D01*
X173172961Y-96639500D01*
X173311053Y-96598953D01*
X173432128Y-96521143D01*
X173526377Y-96412373D01*
X173586165Y-96281457D01*
X173595522Y-96216376D01*
X173606647Y-96139002D01*
X173606647Y-96138997D01*
X173586165Y-95996543D01*
X173573097Y-95967929D01*
X173535225Y-95885002D01*
X182247353Y-95885002D01*
X182267834Y-96027456D01*
X182318776Y-96139002D01*
X182327623Y-96158373D01*
X182420882Y-96266000D01*
X182421873Y-96267144D01*
X182537009Y-96341137D01*
X182542947Y-96344953D01*
X182649403Y-96376211D01*
X182681035Y-96385499D01*
X182681036Y-96385499D01*
X182681039Y-96385500D01*
X182681041Y-96385500D01*
X182824959Y-96385500D01*
X182824961Y-96385500D01*
X182963053Y-96344953D01*
X183084128Y-96267143D01*
X183178377Y-96158373D01*
X183238165Y-96027457D01*
X183246808Y-95967343D01*
X183258647Y-95885002D01*
X183258647Y-95884997D01*
X183238165Y-95742543D01*
X183229770Y-95724160D01*
X183178377Y-95611627D01*
X183084128Y-95502857D01*
X183084127Y-95502856D01*
X183084126Y-95502855D01*
X182963057Y-95425049D01*
X182963054Y-95425047D01*
X182963053Y-95425047D01*
X182948303Y-95420716D01*
X182824964Y-95384500D01*
X182824961Y-95384500D01*
X182681039Y-95384500D01*
X182681035Y-95384500D01*
X182542949Y-95425046D01*
X182542942Y-95425049D01*
X182421873Y-95502855D01*
X182327622Y-95611628D01*
X182267834Y-95742543D01*
X182247353Y-95884997D01*
X182247353Y-95885002D01*
X173535225Y-95885002D01*
X173526377Y-95865627D01*
X173432128Y-95756857D01*
X173432127Y-95756856D01*
X173432126Y-95756855D01*
X173311057Y-95679049D01*
X173311054Y-95679047D01*
X173311053Y-95679047D01*
X173310961Y-95679020D01*
X173172964Y-95638500D01*
X173172961Y-95638500D01*
X173029039Y-95638500D01*
X173029035Y-95638500D01*
X172890949Y-95679046D01*
X172890942Y-95679049D01*
X172769873Y-95756855D01*
X172675622Y-95865628D01*
X172615834Y-95996543D01*
X172595353Y-96138997D01*
X172595353Y-96139002D01*
X169937500Y-96139002D01*
X169937500Y-95066639D01*
X169939731Y-95052966D01*
X169938505Y-95052795D01*
X169939773Y-95043703D01*
X169937568Y-94996000D01*
X169937552Y-94995678D01*
X169937500Y-94993399D01*
X169937500Y-94973631D01*
X169937500Y-94973627D01*
X169936846Y-94970135D01*
X169936056Y-94963330D01*
X169934585Y-94931479D01*
X169930614Y-94922487D01*
X169923864Y-94900685D01*
X169922061Y-94891039D01*
X169922061Y-94891038D01*
X169905276Y-94863929D01*
X169902088Y-94857881D01*
X169889206Y-94828705D01*
X169889205Y-94828704D01*
X169889204Y-94828702D01*
X169882254Y-94821752D01*
X169868088Y-94803866D01*
X169862921Y-94795522D01*
X169862920Y-94795520D01*
X169837489Y-94776315D01*
X169832310Y-94771809D01*
X169450533Y-94390033D01*
X169422756Y-94335516D01*
X169432327Y-94275084D01*
X169475592Y-94231819D01*
X169520537Y-94221029D01*
X188147877Y-94221029D01*
X188161552Y-94223261D01*
X188161724Y-94222035D01*
X188170805Y-94223301D01*
X188170806Y-94223302D01*
X188170806Y-94223301D01*
X188170807Y-94223302D01*
X188179548Y-94222897D01*
X188218834Y-94221081D01*
X188221111Y-94221029D01*
X188240882Y-94221029D01*
X188240885Y-94221029D01*
X188244378Y-94220375D01*
X188251182Y-94219585D01*
X188283033Y-94218114D01*
X188292017Y-94214146D01*
X188313818Y-94207394D01*
X188323474Y-94205590D01*
X188350584Y-94188803D01*
X188356630Y-94185617D01*
X188385806Y-94172735D01*
X188392750Y-94165789D01*
X188410642Y-94151618D01*
X188418993Y-94146448D01*
X188438206Y-94121003D01*
X188442703Y-94115837D01*
X188832538Y-93726002D01*
X190248353Y-93726002D01*
X190268834Y-93868456D01*
X190321788Y-93984407D01*
X190328623Y-93999373D01*
X190420891Y-94105857D01*
X190422873Y-94108144D01*
X190543416Y-94185612D01*
X190543947Y-94185953D01*
X190641603Y-94214627D01*
X190682035Y-94226499D01*
X190682036Y-94226499D01*
X190682039Y-94226500D01*
X190682041Y-94226500D01*
X190825959Y-94226500D01*
X190825961Y-94226500D01*
X190964053Y-94185953D01*
X191085128Y-94108143D01*
X191179377Y-93999373D01*
X191239165Y-93868457D01*
X191248295Y-93804953D01*
X191259647Y-93726002D01*
X191259647Y-93725997D01*
X191239165Y-93583543D01*
X191229849Y-93563145D01*
X191179377Y-93452627D01*
X191085128Y-93343857D01*
X191085127Y-93343856D01*
X191085126Y-93343855D01*
X190964057Y-93266049D01*
X190964054Y-93266047D01*
X190964053Y-93266047D01*
X190964050Y-93266046D01*
X190825964Y-93225500D01*
X190825961Y-93225500D01*
X190682039Y-93225500D01*
X190682035Y-93225500D01*
X190543949Y-93266046D01*
X190543942Y-93266049D01*
X190422873Y-93343855D01*
X190328622Y-93452628D01*
X190268834Y-93583543D01*
X190248353Y-93725997D01*
X190248353Y-93726002D01*
X188832538Y-93726002D01*
X193167046Y-89391496D01*
X193221563Y-89363719D01*
X193237050Y-89362500D01*
X196409507Y-89362500D01*
X196467698Y-89381407D01*
G37*
%TD.AperFunction*%
%TA.AperFunction,Conductor*%
G36*
X166891744Y-91505407D02*
G01*
X166927708Y-91554907D01*
X166927708Y-91616093D01*
X166927421Y-91616960D01*
X166915755Y-91651766D01*
X166915776Y-91652207D01*
X166913253Y-91679443D01*
X166913149Y-91679881D01*
X166918675Y-91719496D01*
X166919097Y-91724049D01*
X166920943Y-91763988D01*
X166920944Y-91763993D01*
X166921126Y-91764405D01*
X166928609Y-91790703D01*
X166928672Y-91791151D01*
X166930703Y-91794797D01*
X166948129Y-91826086D01*
X166950167Y-91830179D01*
X166966321Y-91866762D01*
X166966322Y-91866763D01*
X166966323Y-91866765D01*
X166966642Y-91867084D01*
X166983121Y-91888906D01*
X166983340Y-91889299D01*
X167014108Y-91914848D01*
X167017482Y-91917925D01*
X168950582Y-93851025D01*
X168978359Y-93905542D01*
X168968788Y-93965974D01*
X168925523Y-94009239D01*
X168880578Y-94020029D01*
X166221029Y-94020029D01*
X166162838Y-94001122D01*
X166126874Y-93951622D01*
X166122029Y-93921029D01*
X166122029Y-92412331D01*
X166126421Y-92388834D01*
X166125814Y-92388721D01*
X166127500Y-92379700D01*
X166127500Y-92369877D01*
X166130129Y-92347212D01*
X166132379Y-92337648D01*
X166128544Y-92310154D01*
X166127975Y-92306075D01*
X166127500Y-92299228D01*
X166127500Y-91585500D01*
X166146407Y-91527309D01*
X166195907Y-91491345D01*
X166226500Y-91486500D01*
X166833553Y-91486500D01*
X166891744Y-91505407D01*
G37*
%TD.AperFunction*%
%TA.AperFunction,Conductor*%
G36*
X151348087Y-91716142D02*
G01*
X151384051Y-91765642D01*
X151387887Y-91810324D01*
X151386902Y-91817180D01*
X151386353Y-91821000D01*
X151386353Y-91821002D01*
X151406834Y-91963456D01*
X151462366Y-92085052D01*
X151466623Y-92094373D01*
X151518545Y-92154295D01*
X151558728Y-92200669D01*
X151582545Y-92257029D01*
X151568686Y-92316624D01*
X151558728Y-92330331D01*
X151466622Y-92436628D01*
X151406834Y-92567543D01*
X151386353Y-92709997D01*
X151386353Y-92710002D01*
X151406834Y-92852456D01*
X151406834Y-92852458D01*
X151430544Y-92904374D01*
X151437519Y-92965160D01*
X151407433Y-93018437D01*
X151351776Y-93043855D01*
X151340491Y-93044500D01*
X135547479Y-93044500D01*
X135489288Y-93025593D01*
X135477475Y-93015504D01*
X135150546Y-92688575D01*
X135122769Y-92634058D01*
X135122558Y-92604482D01*
X135125647Y-92583000D01*
X135125482Y-92581855D01*
X135105165Y-92440543D01*
X135077689Y-92380379D01*
X135045377Y-92309627D01*
X134951128Y-92200857D01*
X134951127Y-92200856D01*
X134951126Y-92200855D01*
X134827684Y-92121524D01*
X134788952Y-92074158D01*
X134785459Y-92013072D01*
X134811202Y-91968239D01*
X135053210Y-91726231D01*
X135107727Y-91698454D01*
X135123214Y-91697235D01*
X151289896Y-91697235D01*
X151348087Y-91716142D01*
G37*
%TD.AperFunction*%
%TA.AperFunction,Conductor*%
G36*
X151462386Y-87005226D02*
G01*
X151505651Y-87048491D01*
X151515434Y-87107522D01*
X151513353Y-87121999D01*
X151513353Y-87122002D01*
X151533834Y-87264456D01*
X151585298Y-87377144D01*
X151593623Y-87395373D01*
X151687872Y-87504143D01*
X151765026Y-87553726D01*
X151803754Y-87601089D01*
X151810500Y-87637008D01*
X151810500Y-88555992D01*
X151791593Y-88614183D01*
X151781504Y-88625996D01*
X149740261Y-90667239D01*
X149685744Y-90695016D01*
X149670257Y-90696235D01*
X149465355Y-90696235D01*
X149407164Y-90677328D01*
X149371200Y-90627828D01*
X149371200Y-90566642D01*
X149407164Y-90517142D01*
X149428874Y-90506467D01*
X149428612Y-90505894D01*
X149435045Y-90502955D01*
X149435053Y-90502953D01*
X149556128Y-90425143D01*
X149650377Y-90316373D01*
X149710165Y-90185457D01*
X149721291Y-90108072D01*
X149730647Y-90043002D01*
X149730647Y-90042997D01*
X149710165Y-89900543D01*
X149699988Y-89878259D01*
X149650377Y-89769627D01*
X149556128Y-89660857D01*
X149556127Y-89660856D01*
X149556126Y-89660855D01*
X149435057Y-89583049D01*
X149435054Y-89583047D01*
X149435053Y-89583047D01*
X149435050Y-89583046D01*
X149296964Y-89542500D01*
X149296961Y-89542500D01*
X149153039Y-89542500D01*
X149153035Y-89542500D01*
X149065578Y-89568180D01*
X149004417Y-89566432D01*
X148955965Y-89529069D01*
X148938727Y-89470362D01*
X148959289Y-89412735D01*
X148967675Y-89403194D01*
X151347439Y-87023430D01*
X151401954Y-86995655D01*
X151462386Y-87005226D01*
G37*
%TD.AperFunction*%
%TA.AperFunction,Conductor*%
G36*
X213900562Y-71473257D02*
G01*
X213936653Y-71522665D01*
X213938621Y-71529488D01*
X213994999Y-71754997D01*
X213995000Y-71755000D01*
X214249000Y-72390000D01*
X214249002Y-72390003D01*
X214249003Y-72390005D01*
X214502998Y-72770998D01*
X214503000Y-72771000D01*
X215138000Y-73152000D01*
X215138001Y-73152000D01*
X215138004Y-73152002D01*
X215383085Y-73250034D01*
X215773000Y-73406000D01*
X215773001Y-73406000D01*
X216407996Y-73406000D01*
X216408000Y-73406000D01*
X217043000Y-73279000D01*
X217248537Y-73176230D01*
X217309039Y-73167118D01*
X217363344Y-73195308D01*
X217390707Y-73250034D01*
X217386521Y-73296707D01*
X206778466Y-104432077D01*
X206757435Y-104486623D01*
X206734350Y-104540203D01*
X206709236Y-104592822D01*
X206682158Y-104644398D01*
X206681839Y-104644954D01*
X206653178Y-104694864D01*
X206652810Y-104695453D01*
X206622338Y-104744185D01*
X206589681Y-104792323D01*
X206555251Y-104839238D01*
X206519134Y-104884833D01*
X206481326Y-104929128D01*
X206441933Y-104972010D01*
X206400950Y-105013491D01*
X206358465Y-105053477D01*
X206314518Y-105091935D01*
X206269176Y-105128806D01*
X206222471Y-105164050D01*
X203261084Y-107290715D01*
X203181735Y-107344227D01*
X203179083Y-107345895D01*
X203157961Y-107358269D01*
X203098952Y-107392836D01*
X203096218Y-107394324D01*
X203014157Y-107435702D01*
X203011365Y-107437003D01*
X202927608Y-107472891D01*
X202924780Y-107474001D01*
X202839595Y-107504464D01*
X202836746Y-107505386D01*
X202750327Y-107530513D01*
X202747475Y-107531251D01*
X202744527Y-107531921D01*
X202660034Y-107551114D01*
X202657190Y-107551674D01*
X202569001Y-107566342D01*
X202566173Y-107566728D01*
X202477453Y-107576272D01*
X202474653Y-107576493D01*
X202385673Y-107580983D01*
X202382904Y-107581045D01*
X202341433Y-107580815D01*
X202293871Y-107580552D01*
X202291153Y-107580462D01*
X202202298Y-107575061D01*
X202199608Y-107574823D01*
X202187987Y-107573477D01*
X202111244Y-107564586D01*
X202108594Y-107564206D01*
X202020882Y-107549202D01*
X202018271Y-107548683D01*
X201931506Y-107528990D01*
X201928938Y-107528335D01*
X201843385Y-107504037D01*
X201840861Y-107503247D01*
X201756723Y-107474413D01*
X201754238Y-107473487D01*
X201671742Y-107440180D01*
X201669302Y-107439117D01*
X201629034Y-107420282D01*
X201588746Y-107401438D01*
X201586383Y-107400254D01*
X201507980Y-107358269D01*
X201505661Y-107356945D01*
X201429663Y-107310741D01*
X201427380Y-107309266D01*
X201354062Y-107258939D01*
X201351832Y-107257315D01*
X201314539Y-107228519D01*
X201281403Y-107202933D01*
X201279226Y-107201151D01*
X201211930Y-107142795D01*
X201209825Y-107140861D01*
X201145901Y-107078614D01*
X201143880Y-107076527D01*
X201112505Y-107042166D01*
X201083554Y-107010459D01*
X201081653Y-107008247D01*
X201025145Y-106938418D01*
X201023337Y-106936040D01*
X200970892Y-106862526D01*
X200969226Y-106860031D01*
X200921090Y-106782931D01*
X200919559Y-106780301D01*
X200875959Y-106699677D01*
X200874561Y-106696885D01*
X200835740Y-106612828D01*
X200834511Y-106609928D01*
X200801223Y-106523857D01*
X200800615Y-106521939D01*
X200800164Y-106520882D01*
X200799503Y-106519924D01*
X200798195Y-106518385D01*
X200780259Y-106494422D01*
X200778438Y-106491558D01*
X200776751Y-106489567D01*
X200774759Y-106487050D01*
X200773656Y-106485886D01*
X200708491Y-106408166D01*
X200706722Y-106405666D01*
X200703978Y-106402697D01*
X200702450Y-106400964D01*
X200700105Y-106398177D01*
X200697885Y-106396129D01*
X200654846Y-106349755D01*
X200653249Y-106347721D01*
X200649195Y-106343666D01*
X200645320Y-106339514D01*
X200643361Y-106337861D01*
X200589162Y-106283934D01*
X200587280Y-106281739D01*
X200584389Y-106279111D01*
X200582686Y-106277487D01*
X200582031Y-106276832D01*
X200580922Y-106275952D01*
X200512263Y-106213366D01*
X200510249Y-106211208D01*
X200506283Y-106207914D01*
X200504707Y-106206482D01*
X200503537Y-106205643D01*
X200423357Y-106139310D01*
X200421079Y-106137121D01*
X200418687Y-106135350D01*
X200416513Y-106133645D01*
X200416160Y-106133352D01*
X200414876Y-106132523D01*
X200323478Y-106064690D01*
X200321187Y-106062713D01*
X200317533Y-106060277D01*
X200315943Y-106059114D01*
X200314634Y-106058376D01*
X200293181Y-106044299D01*
X200282070Y-106037008D01*
X200212251Y-105991193D01*
X200209569Y-105989148D01*
X200207643Y-105988051D01*
X200205215Y-105986563D01*
X200203760Y-105985839D01*
X200113186Y-105934271D01*
X200086931Y-105919323D01*
X200085463Y-105918349D01*
X200085383Y-105918311D01*
X200084795Y-105918002D01*
X203456353Y-105918002D01*
X203476834Y-106060456D01*
X203512846Y-106139310D01*
X203536623Y-106191373D01*
X203612590Y-106279044D01*
X203630873Y-106300144D01*
X203699678Y-106344362D01*
X203751947Y-106377953D01*
X203846330Y-106405666D01*
X203890035Y-106418499D01*
X203890036Y-106418499D01*
X203890039Y-106418500D01*
X203890041Y-106418500D01*
X204033959Y-106418500D01*
X204033961Y-106418500D01*
X204172053Y-106377953D01*
X204293128Y-106300143D01*
X204387377Y-106191373D01*
X204447165Y-106060457D01*
X204457694Y-105987226D01*
X204467647Y-105918002D01*
X204467647Y-105917997D01*
X204447165Y-105775543D01*
X204441603Y-105763364D01*
X204387377Y-105644627D01*
X204293128Y-105535857D01*
X204293127Y-105535856D01*
X204293126Y-105535855D01*
X204172057Y-105458049D01*
X204172054Y-105458047D01*
X204172053Y-105458047D01*
X204172050Y-105458046D01*
X204033964Y-105417500D01*
X204033961Y-105417500D01*
X203890039Y-105417500D01*
X203890035Y-105417500D01*
X203751949Y-105458046D01*
X203751942Y-105458049D01*
X203630873Y-105535855D01*
X203536622Y-105644628D01*
X203476834Y-105775543D01*
X203456353Y-105917997D01*
X203456353Y-105918002D01*
X200084795Y-105918002D01*
X200082629Y-105916864D01*
X200081016Y-105916207D01*
X200064541Y-105908272D01*
X199953256Y-105854671D01*
X199951833Y-105853881D01*
X199949574Y-105852894D01*
X199948064Y-105852388D01*
X199809282Y-105797841D01*
X199807850Y-105797172D01*
X199807755Y-105797141D01*
X199804847Y-105796096D01*
X199804711Y-105796042D01*
X199803160Y-105795643D01*
X199738523Y-105774544D01*
X199735946Y-105773443D01*
X199730115Y-105771799D01*
X199728413Y-105771244D01*
X199727201Y-105770978D01*
X199654648Y-105750558D01*
X199653431Y-105750123D01*
X199651249Y-105749602D01*
X199651174Y-105749581D01*
X199649008Y-105748978D01*
X199647725Y-105748769D01*
X199578033Y-105732305D01*
X199575418Y-105731448D01*
X199569837Y-105730365D01*
X199569836Y-105730364D01*
X199569733Y-105730344D01*
X199569664Y-105730328D01*
X199569661Y-105730328D01*
X199567830Y-105729903D01*
X199566617Y-105729749D01*
X199521429Y-105721127D01*
X199493362Y-105715771D01*
X199490883Y-105715093D01*
X199485588Y-105714287D01*
X199480880Y-105713426D01*
X199478429Y-105713248D01*
X199402390Y-105702212D01*
X199401169Y-105701946D01*
X199398886Y-105701700D01*
X199398885Y-105701700D01*
X199398792Y-105701690D01*
X199398711Y-105701679D01*
X199398709Y-105701679D01*
X199396841Y-105701425D01*
X199395679Y-105701381D01*
X199311041Y-105692981D01*
X199307812Y-105692553D01*
X197789738Y-105440225D01*
X197784540Y-105438497D01*
X197775922Y-105437780D01*
X197773941Y-105437541D01*
X197773791Y-105437583D01*
X197773688Y-105437663D01*
X197772741Y-105439325D01*
X197768547Y-105446125D01*
X197766848Y-105451171D01*
X197746529Y-105490957D01*
X197745695Y-105492366D01*
X197745664Y-105492438D01*
X197744464Y-105494996D01*
X197743918Y-105496496D01*
X197720982Y-105549977D01*
X197720420Y-105551118D01*
X197719911Y-105552476D01*
X197719255Y-105554012D01*
X197718860Y-105555297D01*
X197692535Y-105625938D01*
X197675389Y-105671951D01*
X197674641Y-105673957D01*
X197651816Y-105735099D01*
X197627736Y-105793703D01*
X197626576Y-105796310D01*
X197600077Y-105851520D01*
X197598721Y-105854142D01*
X197584552Y-105879644D01*
X197583333Y-105881718D01*
X197567956Y-105906479D01*
X197566460Y-105908747D01*
X197549935Y-105932342D01*
X197548112Y-105934782D01*
X197530318Y-105957128D01*
X197528153Y-105959666D01*
X197508938Y-105980715D01*
X197506427Y-105983272D01*
X197498069Y-105991193D01*
X197485623Y-106002986D01*
X197482793Y-106005471D01*
X197460190Y-106023831D01*
X197457066Y-106026170D01*
X197432470Y-106043120D01*
X197429129Y-106045230D01*
X197402297Y-106060720D01*
X197398826Y-106062544D01*
X197369484Y-106076514D01*
X197365976Y-106078021D01*
X197356861Y-106081525D01*
X197333872Y-106090362D01*
X197330398Y-106091552D01*
X197295309Y-106102131D01*
X197291954Y-106103015D01*
X197253639Y-106111693D01*
X197250453Y-106112305D01*
X197208710Y-106118922D01*
X197205737Y-106119301D01*
X197160357Y-106123701D01*
X197157608Y-106123890D01*
X197108394Y-106125908D01*
X197105895Y-106125947D01*
X197070634Y-106125601D01*
X197052738Y-106125425D01*
X197050466Y-106125350D01*
X197025626Y-106123956D01*
X196999500Y-106122489D01*
X196997378Y-106122212D01*
X196992127Y-106122076D01*
X196990335Y-106121974D01*
X196989340Y-106122001D01*
X196212771Y-106101612D01*
X196081776Y-106098173D01*
X196074684Y-106097848D01*
X196040223Y-106096270D01*
X196036931Y-106096009D01*
X196027607Y-106094955D01*
X195995417Y-106091315D01*
X195992504Y-106090897D01*
X195976041Y-106088028D01*
X195949614Y-106083423D01*
X195946955Y-106082884D01*
X195903237Y-106072770D01*
X195900778Y-106072135D01*
X195856599Y-106059496D01*
X195854285Y-106058773D01*
X195810163Y-106043777D01*
X195807943Y-106042963D01*
X195764338Y-106025780D01*
X195762160Y-106024861D01*
X195719478Y-106005639D01*
X195717309Y-106004598D01*
X195676089Y-105983568D01*
X195673880Y-105982370D01*
X195671006Y-105980715D01*
X195663668Y-105976488D01*
X195634455Y-105959664D01*
X195632177Y-105958269D01*
X195595060Y-105934137D01*
X195592675Y-105932486D01*
X195592480Y-105932342D01*
X195558259Y-105907123D01*
X195555748Y-105905142D01*
X195524533Y-105878843D01*
X195521850Y-105876410D01*
X195494188Y-105849410D01*
X195491338Y-105846383D01*
X195480623Y-105834006D01*
X195467221Y-105818524D01*
X195465023Y-105815793D01*
X195455121Y-105802553D01*
X195453616Y-105800427D01*
X195443670Y-105785559D01*
X195429732Y-105762936D01*
X195416779Y-105740211D01*
X195404776Y-105717397D01*
X195397645Y-105702682D01*
X195393689Y-105694517D01*
X195383497Y-105671616D01*
X195374372Y-105649229D01*
X195374175Y-105648745D01*
X195365689Y-105625938D01*
X195357994Y-105603182D01*
X195351066Y-105580531D01*
X195351065Y-105580531D01*
X195344871Y-105557999D01*
X195339384Y-105535655D01*
X195334583Y-105513574D01*
X195334559Y-105513464D01*
X195327006Y-105470962D01*
X195326645Y-105468603D01*
X195324407Y-105451171D01*
X195321470Y-105428294D01*
X195321242Y-105426141D01*
X195317909Y-105385981D01*
X195316274Y-105346284D01*
X195316170Y-105308420D01*
X195317342Y-105272604D01*
X195319532Y-105239077D01*
X195322493Y-105208019D01*
X195325957Y-105179747D01*
X195327823Y-105167051D01*
X195329687Y-105160410D01*
X195329730Y-105153879D01*
X195323482Y-105152952D01*
X195316650Y-105153774D01*
X167948728Y-104998216D01*
X167847256Y-104994671D01*
X167843993Y-104994448D01*
X167745440Y-104984462D01*
X167742216Y-104984028D01*
X167645189Y-104967702D01*
X167642018Y-104967062D01*
X167546769Y-104944554D01*
X167543664Y-104943712D01*
X167450478Y-104915189D01*
X167447447Y-104914153D01*
X167356582Y-104879771D01*
X167353636Y-104878546D01*
X167265357Y-104838469D01*
X167262505Y-104837062D01*
X167204443Y-104806061D01*
X167177062Y-104791442D01*
X167174340Y-104789875D01*
X167092012Y-104738880D01*
X167089386Y-104737133D01*
X167010421Y-104680915D01*
X167007892Y-104678989D01*
X166932597Y-104617737D01*
X166930216Y-104615670D01*
X166886177Y-104574866D01*
X166858827Y-104549525D01*
X166856553Y-104547278D01*
X166789338Y-104476406D01*
X166787205Y-104474005D01*
X166724421Y-104398560D01*
X166722437Y-104396011D01*
X166664368Y-104316170D01*
X166662548Y-104313486D01*
X166608559Y-104228001D01*
X165811775Y-102870002D01*
X170309353Y-102870002D01*
X170329834Y-103012456D01*
X170373716Y-103108543D01*
X170389623Y-103143373D01*
X170482879Y-103250997D01*
X170483873Y-103252144D01*
X170604942Y-103329950D01*
X170604947Y-103329953D01*
X170711403Y-103361211D01*
X170743035Y-103370499D01*
X170743036Y-103370499D01*
X170743039Y-103370500D01*
X170743041Y-103370500D01*
X170886959Y-103370500D01*
X170886961Y-103370500D01*
X171025053Y-103329953D01*
X171146128Y-103252143D01*
X171147117Y-103251002D01*
X201551353Y-103251002D01*
X201571834Y-103393456D01*
X201631622Y-103524371D01*
X201631623Y-103524373D01*
X201725872Y-103633143D01*
X201725873Y-103633144D01*
X201846942Y-103710950D01*
X201846947Y-103710953D01*
X201953403Y-103742211D01*
X201985035Y-103751499D01*
X201985036Y-103751499D01*
X201985039Y-103751500D01*
X201985041Y-103751500D01*
X202128959Y-103751500D01*
X202128961Y-103751500D01*
X202267053Y-103710953D01*
X202388128Y-103633143D01*
X202482377Y-103524373D01*
X202542165Y-103393457D01*
X202562647Y-103251000D01*
X202547172Y-103143371D01*
X202542165Y-103108543D01*
X202542164Y-103108543D01*
X202482377Y-102977627D01*
X202388128Y-102868857D01*
X202388127Y-102868856D01*
X202388126Y-102868855D01*
X202267057Y-102791049D01*
X202267054Y-102791047D01*
X202267053Y-102791047D01*
X202252991Y-102786918D01*
X202128964Y-102750500D01*
X202128961Y-102750500D01*
X201985039Y-102750500D01*
X201985035Y-102750500D01*
X201846949Y-102791046D01*
X201846942Y-102791049D01*
X201725873Y-102868855D01*
X201631622Y-102977628D01*
X201571834Y-103108543D01*
X201551353Y-103250997D01*
X201551353Y-103251002D01*
X171147117Y-103251002D01*
X171240377Y-103143373D01*
X171300165Y-103012457D01*
X171320647Y-102870000D01*
X171320482Y-102868855D01*
X171300165Y-102727543D01*
X171279624Y-102682565D01*
X171240377Y-102596627D01*
X171148271Y-102490330D01*
X171124454Y-102433970D01*
X171138313Y-102374375D01*
X171148268Y-102360672D01*
X171240377Y-102254373D01*
X171300165Y-102123457D01*
X171306992Y-102075971D01*
X171320647Y-101981002D01*
X171320647Y-101980997D01*
X171300165Y-101838543D01*
X171240377Y-101707628D01*
X171240377Y-101707627D01*
X171146128Y-101598857D01*
X171146127Y-101598856D01*
X171146126Y-101598855D01*
X171025057Y-101521049D01*
X171025054Y-101521047D01*
X171025053Y-101521047D01*
X171025050Y-101521046D01*
X170886964Y-101480500D01*
X170886961Y-101480500D01*
X170743039Y-101480500D01*
X170743035Y-101480500D01*
X170604949Y-101521046D01*
X170604942Y-101521049D01*
X170483873Y-101598855D01*
X170389622Y-101707628D01*
X170329834Y-101838543D01*
X170309353Y-101980997D01*
X170309353Y-101981002D01*
X170329834Y-102123456D01*
X170389623Y-102254373D01*
X170481727Y-102360668D01*
X170505545Y-102417027D01*
X170491686Y-102476623D01*
X170481728Y-102490329D01*
X170389623Y-102596626D01*
X170329834Y-102727543D01*
X170309353Y-102869997D01*
X170309353Y-102870002D01*
X165811775Y-102870002D01*
X164364235Y-100402885D01*
X164363161Y-100400651D01*
X164360084Y-100395807D01*
X164360084Y-100395806D01*
X164360037Y-100395732D01*
X164359989Y-100395649D01*
X164359987Y-100395647D01*
X164356810Y-100390152D01*
X164355285Y-100388139D01*
X164308956Y-100314126D01*
X164308147Y-100312622D01*
X164306549Y-100310240D01*
X164305468Y-100308901D01*
X164251542Y-100233843D01*
X164250630Y-100232365D01*
X164250526Y-100232239D01*
X164248723Y-100229889D01*
X164247564Y-100228629D01*
X164189320Y-100157539D01*
X164188361Y-100156195D01*
X164188156Y-100155974D01*
X164186198Y-100153731D01*
X164186026Y-100153522D01*
X164184821Y-100152388D01*
X164125370Y-100088510D01*
X164123287Y-100085927D01*
X164121568Y-100084292D01*
X164119487Y-100082192D01*
X164119318Y-100082011D01*
X164118063Y-100080968D01*
X164085277Y-100049904D01*
X164054994Y-100021211D01*
X164052725Y-100018729D01*
X164050940Y-100017237D01*
X164048625Y-100015176D01*
X164048570Y-100015124D01*
X164047261Y-100014164D01*
X163992431Y-99968371D01*
X163981317Y-99959088D01*
X163978794Y-99956615D01*
X163976428Y-99954877D01*
X163974089Y-99953044D01*
X163972753Y-99952177D01*
X163899542Y-99898415D01*
X163898339Y-99897411D01*
X163898221Y-99897335D01*
X163895784Y-99895658D01*
X163895747Y-99895631D01*
X163894380Y-99894864D01*
X163818389Y-99846040D01*
X163817061Y-99845052D01*
X163816670Y-99844833D01*
X163814224Y-99843367D01*
X163814139Y-99843313D01*
X163812753Y-99842644D01*
X163733641Y-99798518D01*
X163732195Y-99797586D01*
X163729401Y-99796140D01*
X163727806Y-99795498D01*
X163646492Y-99756572D01*
X163645053Y-99755755D01*
X163644655Y-99755594D01*
X163642102Y-99754467D01*
X163640638Y-99753967D01*
X163559951Y-99721360D01*
X163557020Y-99719920D01*
X163554433Y-99719045D01*
X163551912Y-99718116D01*
X163551516Y-99717957D01*
X163549954Y-99717549D01*
X163463901Y-99688892D01*
X163462422Y-99688289D01*
X163462003Y-99688176D01*
X163459402Y-99687399D01*
X163459044Y-99687281D01*
X163457467Y-99686971D01*
X163444553Y-99683554D01*
X163369458Y-99663688D01*
X163367921Y-99663168D01*
X163367448Y-99663072D01*
X163364784Y-99662454D01*
X163364555Y-99662394D01*
X163362982Y-99662182D01*
X163273031Y-99644366D01*
X163271518Y-99643959D01*
X163270798Y-99643858D01*
X163268488Y-99643475D01*
X163267847Y-99643353D01*
X163266301Y-99643250D01*
X163174714Y-99631076D01*
X163173245Y-99630788D01*
X163172732Y-99630748D01*
X163170450Y-99630517D01*
X163169950Y-99630454D01*
X163168427Y-99630443D01*
X163075143Y-99624045D01*
X163074371Y-99623946D01*
X163072243Y-99623845D01*
X163072241Y-99623845D01*
X163072157Y-99623841D01*
X163072058Y-99623835D01*
X163072055Y-99623835D01*
X163069968Y-99623709D01*
X163069139Y-99623726D01*
X151144458Y-99171543D01*
X149532801Y-99110429D01*
X149532800Y-99110429D01*
X149530925Y-99110357D01*
X149530924Y-99110357D01*
X130577102Y-98391115D01*
X130568656Y-98390554D01*
X130487674Y-98385184D01*
X130484870Y-98384918D01*
X130398535Y-98374235D01*
X130395755Y-98373810D01*
X130311246Y-98358439D01*
X130308505Y-98357859D01*
X130293488Y-98354239D01*
X130225907Y-98337943D01*
X130223211Y-98337212D01*
X130142672Y-98312913D01*
X130140037Y-98312037D01*
X130061594Y-98283482D01*
X130059039Y-98282470D01*
X129983799Y-98250228D01*
X129982840Y-98249817D01*
X129980354Y-98248669D01*
X129906540Y-98212081D01*
X129904147Y-98210812D01*
X129832781Y-98170412D01*
X129830474Y-98169022D01*
X129761681Y-98124961D01*
X129759471Y-98123460D01*
X129693361Y-98075880D01*
X129691269Y-98074287D01*
X129627992Y-98023364D01*
X129625975Y-98021649D01*
X129565636Y-97967527D01*
X129563719Y-97965714D01*
X129514069Y-97916158D01*
X129506411Y-97908514D01*
X129504615Y-97906623D01*
X129450481Y-97846528D01*
X129448790Y-97844548D01*
X129397919Y-97781677D01*
X129396338Y-97779613D01*
X129388850Y-97769285D01*
X129348859Y-97714125D01*
X129347379Y-97711964D01*
X129303428Y-97644040D01*
X129302059Y-97641797D01*
X129261743Y-97571582D01*
X129260490Y-97569259D01*
X129251494Y-97551458D01*
X129223905Y-97496862D01*
X129222775Y-97494468D01*
X129209258Y-97463743D01*
X129190042Y-97420060D01*
X129189060Y-97417652D01*
X129160302Y-97341389D01*
X129159428Y-97338866D01*
X129134756Y-97260894D01*
X129134012Y-97258298D01*
X129113552Y-97178801D01*
X129112951Y-97176169D01*
X129112512Y-97173972D01*
X129096800Y-97095253D01*
X129096342Y-97092577D01*
X129084615Y-97010361D01*
X129084308Y-97007677D01*
X129077127Y-96924364D01*
X129076967Y-96921599D01*
X129074445Y-96837311D01*
X129074440Y-96834522D01*
X129074527Y-96831228D01*
X129076690Y-96749445D01*
X129076842Y-96746668D01*
X129078442Y-96727445D01*
X129083985Y-96660852D01*
X129084291Y-96658112D01*
X129096450Y-96571722D01*
X129096918Y-96568974D01*
X129101081Y-96548077D01*
X129114474Y-96480837D01*
X129251495Y-95885002D01*
X130939353Y-95885002D01*
X130959834Y-96027456D01*
X131010776Y-96139002D01*
X131019623Y-96158373D01*
X131112882Y-96266000D01*
X131113873Y-96267144D01*
X131229009Y-96341137D01*
X131234947Y-96344953D01*
X131341403Y-96376211D01*
X131373035Y-96385499D01*
X131373036Y-96385499D01*
X131373039Y-96385500D01*
X131373041Y-96385500D01*
X131516959Y-96385500D01*
X131516961Y-96385500D01*
X131655053Y-96344953D01*
X131776128Y-96267143D01*
X131870377Y-96158373D01*
X131930165Y-96027457D01*
X131938808Y-95967343D01*
X131950647Y-95885002D01*
X131950647Y-95884997D01*
X131930165Y-95742543D01*
X131921770Y-95724160D01*
X131870377Y-95611627D01*
X131808241Y-95539918D01*
X131778272Y-95505331D01*
X131754454Y-95448972D01*
X131768313Y-95389376D01*
X131778272Y-95375669D01*
X131826046Y-95320534D01*
X131870377Y-95269373D01*
X131930165Y-95138457D01*
X131941868Y-95057059D01*
X131950647Y-94996002D01*
X131950647Y-94995997D01*
X131930165Y-94853543D01*
X131923641Y-94839258D01*
X131870377Y-94722627D01*
X131828138Y-94673880D01*
X132444620Y-94673880D01*
X132449024Y-94705454D01*
X132449499Y-94712299D01*
X132449499Y-96195370D01*
X132447280Y-96209044D01*
X132448493Y-96209214D01*
X132447226Y-96218295D01*
X132448537Y-96246628D01*
X132449432Y-96266000D01*
X132449447Y-96266312D01*
X132449500Y-96268598D01*
X132449500Y-96288371D01*
X132450152Y-96291861D01*
X132450943Y-96298678D01*
X132452414Y-96330516D01*
X132452415Y-96330523D01*
X132456384Y-96339511D01*
X132463133Y-96361302D01*
X132464939Y-96370962D01*
X132481717Y-96398062D01*
X132484915Y-96404129D01*
X132493428Y-96423407D01*
X132497794Y-96433294D01*
X132504745Y-96440245D01*
X132518907Y-96458125D01*
X132524081Y-96466481D01*
X132549511Y-96485685D01*
X132554690Y-96490191D01*
X133731907Y-97667407D01*
X133740008Y-97678647D01*
X133740987Y-97677909D01*
X133746515Y-97685230D01*
X133782040Y-97717616D01*
X133783694Y-97719195D01*
X133791418Y-97726918D01*
X133797674Y-97733174D01*
X133800599Y-97735178D01*
X133805976Y-97739437D01*
X133829535Y-97760914D01*
X133829536Y-97760914D01*
X133829538Y-97760916D01*
X133838696Y-97764463D01*
X133858883Y-97775103D01*
X133866990Y-97780657D01*
X133898023Y-97787955D01*
X133904566Y-97789982D01*
X133916536Y-97794619D01*
X133926773Y-97798585D01*
X133934298Y-97801500D01*
X133944123Y-97801500D01*
X133966787Y-97804129D01*
X133976352Y-97806379D01*
X134004116Y-97802506D01*
X134007924Y-97801975D01*
X134014770Y-97801500D01*
X151267307Y-97801500D01*
X151280982Y-97803732D01*
X151281154Y-97802506D01*
X151290235Y-97803772D01*
X151290236Y-97803773D01*
X151290236Y-97803772D01*
X151290237Y-97803773D01*
X151298978Y-97803368D01*
X151338264Y-97801552D01*
X151340541Y-97801500D01*
X151360312Y-97801500D01*
X151360315Y-97801500D01*
X151363808Y-97800846D01*
X151370612Y-97800056D01*
X151402463Y-97798585D01*
X151411447Y-97794617D01*
X151433248Y-97787865D01*
X151442904Y-97786061D01*
X151470014Y-97769274D01*
X151476060Y-97766088D01*
X151505236Y-97753206D01*
X151512180Y-97746260D01*
X151530072Y-97732089D01*
X151538423Y-97726919D01*
X151557636Y-97701474D01*
X151562133Y-97696308D01*
X152690110Y-96568331D01*
X153820665Y-95437775D01*
X153875180Y-95410000D01*
X153935612Y-95419571D01*
X153978877Y-95462836D01*
X153980720Y-95466655D01*
X154006621Y-95523370D01*
X154006622Y-95523371D01*
X154006623Y-95523373D01*
X154098891Y-95629857D01*
X154100873Y-95632144D01*
X154209063Y-95701673D01*
X154221947Y-95709953D01*
X154245730Y-95716936D01*
X154296238Y-95751470D01*
X154316801Y-95809097D01*
X154315833Y-95826015D01*
X154307353Y-95884996D01*
X154307353Y-95885002D01*
X154315833Y-95943983D01*
X154305400Y-96004272D01*
X154261522Y-96046914D01*
X154245735Y-96053061D01*
X154221947Y-96060046D01*
X154100873Y-96137855D01*
X154006622Y-96246628D01*
X153946834Y-96377543D01*
X153926353Y-96519997D01*
X153926353Y-96520002D01*
X153946834Y-96662456D01*
X154004550Y-96788833D01*
X154006623Y-96793373D01*
X154098890Y-96899856D01*
X154100873Y-96902144D01*
X154221942Y-96979950D01*
X154221947Y-96979953D01*
X154328403Y-97011211D01*
X154360035Y-97020499D01*
X154360036Y-97020499D01*
X154360039Y-97020500D01*
X154360041Y-97020500D01*
X154503959Y-97020500D01*
X154503961Y-97020500D01*
X154642053Y-96979953D01*
X154759478Y-96904488D01*
X154818652Y-96888934D01*
X154866520Y-96904487D01*
X154983947Y-96979953D01*
X155090403Y-97011211D01*
X155122035Y-97020499D01*
X155122036Y-97020499D01*
X155122039Y-97020500D01*
X155122041Y-97020500D01*
X155265959Y-97020500D01*
X155265961Y-97020500D01*
X155404053Y-96979953D01*
X155521478Y-96904488D01*
X155580652Y-96888934D01*
X155628520Y-96904487D01*
X155745947Y-96979953D01*
X155852403Y-97011211D01*
X155884035Y-97020499D01*
X155884036Y-97020499D01*
X155884039Y-97020500D01*
X155884041Y-97020500D01*
X156027959Y-97020500D01*
X156027961Y-97020500D01*
X156166053Y-96979953D01*
X156283478Y-96904488D01*
X156342652Y-96888934D01*
X156390520Y-96904487D01*
X156507947Y-96979953D01*
X156614403Y-97011211D01*
X156646035Y-97020499D01*
X156646036Y-97020499D01*
X156646039Y-97020500D01*
X156646041Y-97020500D01*
X156789959Y-97020500D01*
X156789961Y-97020500D01*
X156928053Y-96979953D01*
X157045478Y-96904488D01*
X157104652Y-96888934D01*
X157152520Y-96904487D01*
X157269947Y-96979953D01*
X157376403Y-97011211D01*
X157408035Y-97020499D01*
X157408036Y-97020499D01*
X157408039Y-97020500D01*
X157408041Y-97020500D01*
X157551959Y-97020500D01*
X157551961Y-97020500D01*
X157690053Y-96979953D01*
X157811128Y-96902143D01*
X157905377Y-96793373D01*
X157965165Y-96662457D01*
X157977952Y-96573519D01*
X157985647Y-96520002D01*
X157985647Y-96519997D01*
X157965165Y-96377543D01*
X157948539Y-96341137D01*
X157905377Y-96246627D01*
X157811128Y-96137857D01*
X157811127Y-96137856D01*
X157811126Y-96137855D01*
X157690057Y-96060049D01*
X157690054Y-96060047D01*
X157690053Y-96060047D01*
X157666266Y-96053062D01*
X157615760Y-96018527D01*
X157595198Y-95960900D01*
X157596165Y-95943990D01*
X157604647Y-95885000D01*
X157604646Y-95884996D01*
X157599846Y-95851610D01*
X157596166Y-95826014D01*
X157606599Y-95765727D01*
X157650476Y-95723084D01*
X157666258Y-95716939D01*
X157690053Y-95709953D01*
X157811128Y-95632143D01*
X157905377Y-95523373D01*
X157965165Y-95392457D01*
X157978163Y-95302054D01*
X157985647Y-95250002D01*
X157985647Y-95249997D01*
X157965165Y-95107543D01*
X157946816Y-95067364D01*
X157905377Y-94976627D01*
X157884323Y-94952329D01*
X157860507Y-94895971D01*
X157874366Y-94836376D01*
X157920607Y-94796309D01*
X157959144Y-94788500D01*
X159572917Y-94788500D01*
X159631108Y-94807407D01*
X159647733Y-94822667D01*
X159688872Y-94870143D01*
X159757468Y-94914227D01*
X159808437Y-94946983D01*
X159809947Y-94947953D01*
X159916403Y-94979211D01*
X159948035Y-94988499D01*
X159948036Y-94988499D01*
X159948039Y-94988500D01*
X159948041Y-94988500D01*
X160091959Y-94988500D01*
X160091961Y-94988500D01*
X160230053Y-94947953D01*
X160351128Y-94870143D01*
X160445377Y-94761373D01*
X160505165Y-94630457D01*
X160513041Y-94575680D01*
X160525647Y-94488002D01*
X160525647Y-94487997D01*
X160505165Y-94345543D01*
X160500085Y-94334420D01*
X160445377Y-94214627D01*
X160351128Y-94105857D01*
X160351127Y-94105856D01*
X160351126Y-94105855D01*
X160230057Y-94028049D01*
X160230054Y-94028047D01*
X160230053Y-94028047D01*
X160227189Y-94027206D01*
X160091964Y-93987500D01*
X160091961Y-93987500D01*
X159948039Y-93987500D01*
X159948035Y-93987500D01*
X159809949Y-94028046D01*
X159809942Y-94028049D01*
X159688876Y-94105854D01*
X159688871Y-94105858D01*
X159647736Y-94153331D01*
X159595340Y-94184927D01*
X159572917Y-94187500D01*
X154410635Y-94187500D01*
X154396959Y-94185267D01*
X154396788Y-94186494D01*
X154387704Y-94185226D01*
X154347357Y-94187092D01*
X154339677Y-94187447D01*
X154337401Y-94187500D01*
X154317624Y-94187500D01*
X154314129Y-94188153D01*
X154307316Y-94188943D01*
X154275480Y-94190414D01*
X154266476Y-94194389D01*
X154244697Y-94201132D01*
X154235039Y-94202937D01*
X154235037Y-94202938D01*
X154207942Y-94219714D01*
X154201874Y-94222913D01*
X154172705Y-94235793D01*
X154165751Y-94242747D01*
X154147874Y-94256907D01*
X154139518Y-94262081D01*
X154120313Y-94287512D01*
X154115809Y-94292688D01*
X151236996Y-97171504D01*
X151182479Y-97199281D01*
X151166992Y-97200500D01*
X145982493Y-97200500D01*
X145924302Y-97181593D01*
X145888338Y-97132093D01*
X145888338Y-97070907D01*
X145892440Y-97060373D01*
X145895868Y-97052865D01*
X145900165Y-97043457D01*
X145913869Y-96948145D01*
X145920647Y-96901002D01*
X145920647Y-96900997D01*
X145900165Y-96758543D01*
X145878224Y-96710500D01*
X145840377Y-96627627D01*
X145788996Y-96568330D01*
X145765180Y-96511971D01*
X145779039Y-96452376D01*
X145825280Y-96412308D01*
X145863817Y-96404500D01*
X150337836Y-96404500D01*
X150351511Y-96406732D01*
X150351683Y-96405506D01*
X150360764Y-96406772D01*
X150360765Y-96406773D01*
X150360765Y-96406772D01*
X150360766Y-96406773D01*
X150369507Y-96406368D01*
X150408793Y-96404552D01*
X150411070Y-96404500D01*
X150430841Y-96404500D01*
X150430844Y-96404500D01*
X150434337Y-96403846D01*
X150441141Y-96403056D01*
X150472992Y-96401585D01*
X150481976Y-96397617D01*
X150503777Y-96390865D01*
X150513433Y-96389061D01*
X150540543Y-96372274D01*
X150546589Y-96369088D01*
X150575765Y-96356206D01*
X150582709Y-96349260D01*
X150600601Y-96335089D01*
X150608952Y-96329919D01*
X150628165Y-96304474D01*
X150632662Y-96299308D01*
X151152474Y-95779496D01*
X151206991Y-95751719D01*
X151222478Y-95750500D01*
X151328959Y-95750500D01*
X151328961Y-95750500D01*
X151467053Y-95709953D01*
X151588128Y-95632143D01*
X151682377Y-95523373D01*
X151742165Y-95392457D01*
X151755163Y-95302054D01*
X151762647Y-95250002D01*
X151762647Y-95249997D01*
X151742165Y-95107543D01*
X151723816Y-95067364D01*
X151682377Y-94976627D01*
X151588128Y-94867857D01*
X151588127Y-94867856D01*
X151588126Y-94867855D01*
X151467057Y-94790049D01*
X151467054Y-94790047D01*
X151467053Y-94790047D01*
X151467050Y-94790046D01*
X151328964Y-94749500D01*
X151328961Y-94749500D01*
X151185039Y-94749500D01*
X151185035Y-94749500D01*
X151046949Y-94790046D01*
X151046942Y-94790049D01*
X150925873Y-94867855D01*
X150831622Y-94976628D01*
X150771834Y-95107543D01*
X150751353Y-95249996D01*
X150751353Y-95249997D01*
X150751353Y-95250000D01*
X150754442Y-95271483D01*
X150744007Y-95331772D01*
X150726453Y-95355574D01*
X150307526Y-95774503D01*
X150253009Y-95802281D01*
X150237522Y-95803500D01*
X146070498Y-95803500D01*
X146012307Y-95784593D01*
X145976343Y-95735093D01*
X145976343Y-95673907D01*
X146012307Y-95624407D01*
X146042607Y-95609510D01*
X146133053Y-95582953D01*
X146254128Y-95505143D01*
X146348377Y-95396373D01*
X146408165Y-95265457D01*
X146421937Y-95169670D01*
X146428647Y-95123002D01*
X146428647Y-95122997D01*
X146408165Y-94980543D01*
X146399559Y-94961698D01*
X146348377Y-94849627D01*
X146254128Y-94740857D01*
X146254127Y-94740856D01*
X146254126Y-94740855D01*
X146133057Y-94663049D01*
X146133054Y-94663047D01*
X146133053Y-94663047D01*
X146133050Y-94663046D01*
X145994964Y-94622500D01*
X145994961Y-94622500D01*
X145851039Y-94622500D01*
X145851035Y-94622500D01*
X145712949Y-94663046D01*
X145712942Y-94663049D01*
X145591873Y-94740855D01*
X145497622Y-94849628D01*
X145437834Y-94980543D01*
X145417353Y-95122997D01*
X145417353Y-95123002D01*
X145437834Y-95265456D01*
X145497622Y-95396371D01*
X145497623Y-95396373D01*
X145589891Y-95502857D01*
X145591873Y-95505144D01*
X145712942Y-95582950D01*
X145712947Y-95582953D01*
X145803393Y-95609510D01*
X145853900Y-95644046D01*
X145874462Y-95701673D01*
X145857224Y-95760380D01*
X145808771Y-95797743D01*
X145775502Y-95803500D01*
X138997493Y-95803500D01*
X138939302Y-95784593D01*
X138903338Y-95735093D01*
X138903338Y-95673907D01*
X138907440Y-95663373D01*
X138913823Y-95649395D01*
X138915165Y-95646457D01*
X138926134Y-95570166D01*
X138935647Y-95504002D01*
X138935647Y-95503997D01*
X138915165Y-95361543D01*
X138897001Y-95321770D01*
X138855377Y-95230627D01*
X138761128Y-95121857D01*
X138761127Y-95121856D01*
X138761126Y-95121855D01*
X138640057Y-95044049D01*
X138640054Y-95044047D01*
X138640053Y-95044047D01*
X138638881Y-95043703D01*
X138583664Y-95027490D01*
X138533157Y-94992954D01*
X138512595Y-94935327D01*
X138529833Y-94876620D01*
X138578286Y-94839258D01*
X138583664Y-94837510D01*
X138587526Y-94836376D01*
X138640053Y-94820953D01*
X138761128Y-94743143D01*
X138855377Y-94634373D01*
X138915165Y-94503457D01*
X138917387Y-94488002D01*
X143385353Y-94488002D01*
X143405834Y-94630456D01*
X143457298Y-94743144D01*
X143465623Y-94761373D01*
X143557891Y-94867857D01*
X143559873Y-94870144D01*
X143680942Y-94947950D01*
X143680947Y-94947953D01*
X143787403Y-94979211D01*
X143819035Y-94988499D01*
X143819036Y-94988499D01*
X143819039Y-94988500D01*
X143819041Y-94988500D01*
X143962959Y-94988500D01*
X143962961Y-94988500D01*
X144101053Y-94947953D01*
X144222128Y-94870143D01*
X144316377Y-94761373D01*
X144376165Y-94630457D01*
X144384041Y-94575680D01*
X144396647Y-94488002D01*
X144396647Y-94487997D01*
X144376165Y-94345543D01*
X144371085Y-94334420D01*
X144316377Y-94214627D01*
X144222128Y-94105857D01*
X144222127Y-94105856D01*
X144222126Y-94105855D01*
X144101057Y-94028049D01*
X144101054Y-94028047D01*
X144101053Y-94028047D01*
X144098189Y-94027206D01*
X143962964Y-93987500D01*
X143962961Y-93987500D01*
X143819039Y-93987500D01*
X143819035Y-93987500D01*
X143680949Y-94028046D01*
X143680942Y-94028049D01*
X143559873Y-94105855D01*
X143465622Y-94214628D01*
X143405834Y-94345543D01*
X143385353Y-94487997D01*
X143385353Y-94488002D01*
X138917387Y-94488002D01*
X138923673Y-94444279D01*
X138935647Y-94361002D01*
X138935647Y-94360997D01*
X138915165Y-94218543D01*
X138907214Y-94201132D01*
X138855377Y-94087627D01*
X138761128Y-93978857D01*
X138761127Y-93978856D01*
X138761126Y-93978855D01*
X138640057Y-93901049D01*
X138640054Y-93901047D01*
X138640053Y-93901047D01*
X138640050Y-93901046D01*
X138501964Y-93860500D01*
X138501961Y-93860500D01*
X138358039Y-93860500D01*
X138358035Y-93860500D01*
X138219949Y-93901046D01*
X138219942Y-93901049D01*
X138098873Y-93978855D01*
X138004622Y-94087628D01*
X137944834Y-94218543D01*
X137924353Y-94360997D01*
X137924353Y-94361002D01*
X137944834Y-94503456D01*
X137997861Y-94619567D01*
X138004623Y-94634373D01*
X138096891Y-94740857D01*
X138098873Y-94743144D01*
X138198869Y-94807407D01*
X138219947Y-94820953D01*
X138272474Y-94836376D01*
X138276336Y-94837510D01*
X138326842Y-94872046D01*
X138347404Y-94929673D01*
X138330166Y-94988380D01*
X138281713Y-95025743D01*
X138276339Y-95027488D01*
X138242980Y-95037284D01*
X138219947Y-95044047D01*
X138219942Y-95044049D01*
X138098873Y-95121855D01*
X138004622Y-95230628D01*
X137944834Y-95361543D01*
X137924353Y-95503997D01*
X137924353Y-95504002D01*
X137944834Y-95646456D01*
X137952560Y-95663373D01*
X137959535Y-95724160D01*
X137929449Y-95777437D01*
X137873793Y-95802855D01*
X137862507Y-95803500D01*
X136034801Y-95803500D01*
X135976610Y-95784593D01*
X135940646Y-95735093D01*
X135940646Y-95673907D01*
X135963950Y-95638758D01*
X135962491Y-95637494D01*
X135967128Y-95632143D01*
X136061377Y-95523373D01*
X136121165Y-95392457D01*
X136134163Y-95302054D01*
X136141647Y-95250002D01*
X136141647Y-95249997D01*
X136121165Y-95107543D01*
X136102816Y-95067364D01*
X136061377Y-94976627D01*
X135974721Y-94876620D01*
X135969271Y-94870330D01*
X135945454Y-94813970D01*
X135959313Y-94754375D01*
X135969268Y-94740672D01*
X136061377Y-94634373D01*
X136121165Y-94503457D01*
X136129673Y-94444279D01*
X136141647Y-94361002D01*
X136141647Y-94360997D01*
X136121165Y-94218543D01*
X136113214Y-94201132D01*
X136061377Y-94087627D01*
X135967128Y-93978857D01*
X135967127Y-93978856D01*
X135967126Y-93978855D01*
X135846057Y-93901049D01*
X135846054Y-93901047D01*
X135846053Y-93901047D01*
X135846050Y-93901046D01*
X135707964Y-93860500D01*
X135707961Y-93860500D01*
X135564039Y-93860500D01*
X135564035Y-93860500D01*
X135425949Y-93901046D01*
X135425942Y-93901049D01*
X135304873Y-93978855D01*
X135210622Y-94087628D01*
X135150834Y-94218543D01*
X135130353Y-94360997D01*
X135130353Y-94361002D01*
X135150834Y-94503456D01*
X135210623Y-94634373D01*
X135302727Y-94740668D01*
X135326545Y-94797027D01*
X135312686Y-94856623D01*
X135302728Y-94870329D01*
X135210623Y-94976626D01*
X135150834Y-95107543D01*
X135130353Y-95249997D01*
X135130353Y-95250002D01*
X135150834Y-95392456D01*
X135210622Y-95523370D01*
X135210623Y-95523373D01*
X135304872Y-95632143D01*
X135309509Y-95637494D01*
X135307691Y-95639068D01*
X135333627Y-95682078D01*
X135328390Y-95743039D01*
X135288321Y-95789279D01*
X135237199Y-95803500D01*
X133868627Y-95803500D01*
X133810436Y-95784593D01*
X133778574Y-95745627D01*
X133776997Y-95742175D01*
X133775377Y-95738627D01*
X133681128Y-95629857D01*
X133681127Y-95629856D01*
X133681126Y-95629855D01*
X133614883Y-95587284D01*
X133576152Y-95539918D01*
X133572658Y-95478833D01*
X133605737Y-95427360D01*
X133614883Y-95420716D01*
X133631557Y-95410000D01*
X133681128Y-95378143D01*
X133775377Y-95269373D01*
X133835165Y-95138457D01*
X133846868Y-95057059D01*
X133855647Y-94996002D01*
X133855647Y-94995998D01*
X133852558Y-94974516D01*
X133862991Y-94914227D01*
X133880543Y-94890426D01*
X134151406Y-94619564D01*
X134162665Y-94611493D01*
X134161905Y-94610487D01*
X134169221Y-94604961D01*
X134169228Y-94604958D01*
X134201643Y-94569398D01*
X134203155Y-94567815D01*
X134217175Y-94553797D01*
X134219188Y-94550857D01*
X134223437Y-94545492D01*
X134244916Y-94521933D01*
X134248465Y-94512769D01*
X134259111Y-94492575D01*
X134264657Y-94484480D01*
X134271956Y-94453443D01*
X134273980Y-94446908D01*
X134285500Y-94417173D01*
X134285500Y-94407348D01*
X134288129Y-94384683D01*
X134290379Y-94375119D01*
X134285975Y-94343546D01*
X134285500Y-94336699D01*
X134285500Y-93138660D01*
X134304407Y-93080469D01*
X134353907Y-93044505D01*
X134412389Y-93043670D01*
X134548039Y-93083500D01*
X134548041Y-93083500D01*
X134654521Y-93083500D01*
X134712712Y-93102407D01*
X134724525Y-93112496D01*
X135123436Y-93511407D01*
X135131537Y-93522647D01*
X135132516Y-93521909D01*
X135138044Y-93529230D01*
X135173569Y-93561616D01*
X135175223Y-93563195D01*
X135189201Y-93577172D01*
X135189203Y-93577174D01*
X135192128Y-93579178D01*
X135197505Y-93583437D01*
X135221063Y-93604913D01*
X135221064Y-93604913D01*
X135221067Y-93604916D01*
X135230233Y-93608467D01*
X135250412Y-93619103D01*
X135258520Y-93624657D01*
X135289558Y-93631957D01*
X135296096Y-93633982D01*
X135325827Y-93645500D01*
X135335652Y-93645500D01*
X135358316Y-93648129D01*
X135367881Y-93650379D01*
X135392494Y-93646945D01*
X135399453Y-93645975D01*
X135406299Y-93645500D01*
X152107521Y-93645500D01*
X152165712Y-93664407D01*
X152177525Y-93674496D01*
X152487436Y-93984407D01*
X152495537Y-93995647D01*
X152496516Y-93994909D01*
X152502044Y-94002230D01*
X152537569Y-94034616D01*
X152539223Y-94036195D01*
X152546947Y-94043918D01*
X152553203Y-94050174D01*
X152556128Y-94052178D01*
X152561505Y-94056437D01*
X152585064Y-94077914D01*
X152585065Y-94077914D01*
X152585067Y-94077916D01*
X152594230Y-94081466D01*
X152614416Y-94092105D01*
X152622519Y-94097656D01*
X152653553Y-94104955D01*
X152660090Y-94106979D01*
X152689827Y-94118500D01*
X152699652Y-94118500D01*
X152722316Y-94121129D01*
X152731881Y-94123379D01*
X152759645Y-94119506D01*
X152763453Y-94118975D01*
X152770299Y-94118500D01*
X153239836Y-94118500D01*
X153253511Y-94120732D01*
X153253683Y-94119506D01*
X153262764Y-94120772D01*
X153262765Y-94120773D01*
X153262765Y-94120772D01*
X153262766Y-94120773D01*
X153271507Y-94120368D01*
X153310793Y-94118552D01*
X153313070Y-94118500D01*
X153332841Y-94118500D01*
X153332844Y-94118500D01*
X153336337Y-94117846D01*
X153343141Y-94117056D01*
X153374992Y-94115585D01*
X153383976Y-94111617D01*
X153405777Y-94104865D01*
X153415433Y-94103061D01*
X153442543Y-94086274D01*
X153448589Y-94083088D01*
X153477765Y-94070206D01*
X153484709Y-94063260D01*
X153502601Y-94049089D01*
X153510952Y-94043919D01*
X153530165Y-94018474D01*
X153534662Y-94013308D01*
X155218968Y-92329002D01*
X157736353Y-92329002D01*
X157756834Y-92471456D01*
X157815247Y-92599360D01*
X157816623Y-92602373D01*
X157894542Y-92692297D01*
X157910873Y-92711144D01*
X158031942Y-92788950D01*
X158031947Y-92788953D01*
X158094463Y-92807309D01*
X158170035Y-92829499D01*
X158170036Y-92829499D01*
X158170039Y-92829500D01*
X158170041Y-92829500D01*
X158313959Y-92829500D01*
X158313961Y-92829500D01*
X158452053Y-92788953D01*
X158573128Y-92711143D01*
X158667377Y-92602373D01*
X158727165Y-92471457D01*
X158740854Y-92376245D01*
X158747647Y-92329002D01*
X158747647Y-92328997D01*
X158727165Y-92186543D01*
X158666007Y-92052627D01*
X158659032Y-91991840D01*
X158666007Y-91970373D01*
X158696129Y-91904415D01*
X158727165Y-91836457D01*
X158743327Y-91724049D01*
X158747647Y-91694002D01*
X158747647Y-91693997D01*
X158727165Y-91551543D01*
X158716145Y-91527412D01*
X158667377Y-91420627D01*
X158573128Y-91311857D01*
X158573127Y-91311856D01*
X158573126Y-91311855D01*
X158452057Y-91234049D01*
X158452054Y-91234047D01*
X158452053Y-91234047D01*
X158452050Y-91234046D01*
X158313964Y-91193500D01*
X158313961Y-91193500D01*
X158170039Y-91193500D01*
X158170035Y-91193500D01*
X158031949Y-91234046D01*
X158031942Y-91234049D01*
X157910873Y-91311855D01*
X157816622Y-91420628D01*
X157756834Y-91551543D01*
X157736353Y-91693997D01*
X157736353Y-91694002D01*
X157756833Y-91836454D01*
X157817993Y-91970374D01*
X157824967Y-92031160D01*
X157817993Y-92052626D01*
X157756833Y-92186545D01*
X157736353Y-92328997D01*
X157736353Y-92329002D01*
X155218968Y-92329002D01*
X156751720Y-90796250D01*
X159804497Y-87743472D01*
X159859013Y-87715697D01*
X159919445Y-87725268D01*
X159962710Y-87768533D01*
X159973500Y-87813478D01*
X159973500Y-88471050D01*
X159971280Y-88484728D01*
X159972494Y-88484898D01*
X159971226Y-88493981D01*
X159973447Y-88541998D01*
X159973500Y-88544284D01*
X159973500Y-88564057D01*
X159974152Y-88567547D01*
X159974943Y-88574364D01*
X159976414Y-88606202D01*
X159976415Y-88606209D01*
X159980384Y-88615197D01*
X159987133Y-88636988D01*
X159988939Y-88646648D01*
X160005717Y-88673748D01*
X160008915Y-88679815D01*
X160020602Y-88706281D01*
X160021794Y-88708980D01*
X160028745Y-88715931D01*
X160042907Y-88733811D01*
X160044989Y-88737173D01*
X160048081Y-88742167D01*
X160073511Y-88761371D01*
X160078690Y-88765877D01*
X161976504Y-90663690D01*
X162004281Y-90718207D01*
X162005500Y-90733694D01*
X162005500Y-90895739D01*
X161996553Y-90936865D01*
X161947835Y-91043539D01*
X161947833Y-91043547D01*
X161927353Y-91185997D01*
X161927353Y-91186002D01*
X161947834Y-91328456D01*
X161998693Y-91439819D01*
X162007623Y-91459373D01*
X162099891Y-91565857D01*
X162101873Y-91568144D01*
X162221279Y-91644881D01*
X162222947Y-91645953D01*
X162296391Y-91667517D01*
X162346898Y-91702052D01*
X162367460Y-91759679D01*
X162367500Y-91762507D01*
X162367500Y-92038305D01*
X162348593Y-92096496D01*
X162338504Y-92108309D01*
X161774590Y-92672222D01*
X161763361Y-92680335D01*
X161764090Y-92681300D01*
X161756771Y-92686826D01*
X161724372Y-92722365D01*
X161722796Y-92724016D01*
X161708830Y-92737983D01*
X161708817Y-92737998D01*
X161706813Y-92740923D01*
X161702561Y-92746289D01*
X161681084Y-92769850D01*
X161681083Y-92769852D01*
X161677529Y-92779025D01*
X161666896Y-92799197D01*
X161661346Y-92807300D01*
X161661342Y-92807309D01*
X161654045Y-92838330D01*
X161652016Y-92844883D01*
X161640500Y-92874609D01*
X161640500Y-92884436D01*
X161637870Y-92907103D01*
X161635621Y-92916664D01*
X161640025Y-92948237D01*
X161640500Y-92955083D01*
X161640500Y-94750519D01*
X161638280Y-94764197D01*
X161639494Y-94764367D01*
X161638226Y-94773450D01*
X161640447Y-94821467D01*
X161640500Y-94823753D01*
X161640500Y-94843527D01*
X161641152Y-94847017D01*
X161641942Y-94853831D01*
X161642175Y-94858861D01*
X161643414Y-94885671D01*
X161643415Y-94885678D01*
X161647384Y-94894666D01*
X161654133Y-94916457D01*
X161655939Y-94926120D01*
X161672718Y-94953218D01*
X161675917Y-94959288D01*
X161688792Y-94988447D01*
X161688793Y-94988448D01*
X161688794Y-94988450D01*
X161695745Y-94995401D01*
X161709907Y-95013281D01*
X161715081Y-95021637D01*
X161740511Y-95040841D01*
X161745690Y-95045347D01*
X162754504Y-96054160D01*
X162782281Y-96108677D01*
X162783500Y-96124164D01*
X162783500Y-97504048D01*
X162781280Y-97517726D01*
X162782494Y-97517896D01*
X162781226Y-97526979D01*
X162783447Y-97574996D01*
X162783500Y-97577282D01*
X162783500Y-97597056D01*
X162784152Y-97600546D01*
X162784943Y-97607363D01*
X162786414Y-97639200D01*
X162786415Y-97639207D01*
X162790384Y-97648195D01*
X162797133Y-97669986D01*
X162798939Y-97679649D01*
X162815718Y-97706747D01*
X162818917Y-97712817D01*
X162831792Y-97741976D01*
X162831793Y-97741977D01*
X162831794Y-97741979D01*
X162838745Y-97748930D01*
X162852907Y-97766810D01*
X162854440Y-97769285D01*
X162858081Y-97775166D01*
X162883511Y-97794370D01*
X162888690Y-97798876D01*
X163700221Y-98610407D01*
X163708322Y-98621647D01*
X163709301Y-98620909D01*
X163714829Y-98628230D01*
X163750354Y-98660616D01*
X163752008Y-98662195D01*
X163765986Y-98676172D01*
X163765988Y-98676174D01*
X163768913Y-98678178D01*
X163774290Y-98682437D01*
X163797848Y-98703913D01*
X163797849Y-98703913D01*
X163797852Y-98703916D01*
X163807018Y-98707467D01*
X163827197Y-98718103D01*
X163835305Y-98723657D01*
X163866343Y-98730957D01*
X163872881Y-98732982D01*
X163902612Y-98744500D01*
X163912437Y-98744500D01*
X163935101Y-98747129D01*
X163944666Y-98749379D01*
X163976238Y-98744975D01*
X163983086Y-98744500D01*
X165993242Y-98744500D01*
X166051433Y-98763407D01*
X166087397Y-98812907D01*
X166087397Y-98874093D01*
X166051433Y-98923593D01*
X166046766Y-98926784D01*
X166038872Y-98931857D01*
X165944622Y-99040628D01*
X165884834Y-99171543D01*
X165864353Y-99313997D01*
X165864353Y-99314002D01*
X165884834Y-99456456D01*
X165913833Y-99519953D01*
X165944623Y-99587373D01*
X166031640Y-99687797D01*
X166038873Y-99696144D01*
X166139936Y-99761093D01*
X166159947Y-99773953D01*
X166266403Y-99805211D01*
X166298035Y-99814499D01*
X166298036Y-99814499D01*
X166298039Y-99814500D01*
X166298041Y-99814500D01*
X166318647Y-99814500D01*
X166376838Y-99833407D01*
X166412802Y-99882907D01*
X166412802Y-99944093D01*
X166393466Y-99978331D01*
X166325623Y-100056626D01*
X166265834Y-100187543D01*
X166245353Y-100329997D01*
X166245353Y-100330002D01*
X166265834Y-100472456D01*
X166284547Y-100513430D01*
X166325623Y-100603373D01*
X166419872Y-100712143D01*
X166419873Y-100712144D01*
X166501660Y-100764705D01*
X166540947Y-100789953D01*
X166647403Y-100821211D01*
X166679035Y-100830499D01*
X166679036Y-100830499D01*
X166679039Y-100830500D01*
X166679041Y-100830500D01*
X166822959Y-100830500D01*
X166822961Y-100830500D01*
X166961053Y-100789953D01*
X167082128Y-100712143D01*
X167176377Y-100603373D01*
X167236165Y-100472457D01*
X167256647Y-100330000D01*
X167254148Y-100312622D01*
X167236165Y-100187543D01*
X167221280Y-100154950D01*
X167176377Y-100056627D01*
X167082128Y-99947857D01*
X167082127Y-99947856D01*
X167082126Y-99947855D01*
X166961057Y-99870049D01*
X166961054Y-99870047D01*
X166961053Y-99870047D01*
X166961050Y-99870046D01*
X166822964Y-99829500D01*
X166822961Y-99829500D01*
X166802353Y-99829500D01*
X166744162Y-99810593D01*
X166708198Y-99761093D01*
X166708198Y-99699907D01*
X166727534Y-99665669D01*
X166757758Y-99630788D01*
X166795377Y-99587373D01*
X166855165Y-99456457D01*
X166875647Y-99314000D01*
X166875482Y-99312855D01*
X166855165Y-99171543D01*
X166812829Y-99078841D01*
X166795377Y-99040627D01*
X166701128Y-98931857D01*
X166693233Y-98926783D01*
X166654503Y-98879417D01*
X166651011Y-98818332D01*
X166684090Y-98766860D01*
X166741107Y-98744661D01*
X166746758Y-98744500D01*
X167714814Y-98744500D01*
X167773005Y-98763407D01*
X167808969Y-98812907D01*
X167808969Y-98874093D01*
X167804867Y-98884627D01*
X167789834Y-98917543D01*
X167769353Y-99059997D01*
X167769353Y-99060002D01*
X167789834Y-99202456D01*
X167840776Y-99314002D01*
X167849623Y-99333373D01*
X167860303Y-99345698D01*
X167943873Y-99442144D01*
X167966145Y-99456457D01*
X168064947Y-99519953D01*
X168171403Y-99551211D01*
X168203035Y-99560499D01*
X168203036Y-99560499D01*
X168203039Y-99560500D01*
X168203041Y-99560500D01*
X168346959Y-99560500D01*
X168346961Y-99560500D01*
X168485053Y-99519953D01*
X168606128Y-99442143D01*
X168700377Y-99333373D01*
X168760165Y-99202457D01*
X168773254Y-99111420D01*
X168780647Y-99060002D01*
X168780647Y-99059997D01*
X168760165Y-98917543D01*
X168745133Y-98884627D01*
X168738158Y-98823840D01*
X168768244Y-98770563D01*
X168823900Y-98745145D01*
X168835186Y-98744500D01*
X168913777Y-98744500D01*
X168971968Y-98763407D01*
X168983781Y-98773496D01*
X172931436Y-102721151D01*
X172939537Y-102732391D01*
X172940516Y-102731653D01*
X172946044Y-102738974D01*
X172981569Y-102771360D01*
X172983223Y-102772939D01*
X172990947Y-102780662D01*
X172997203Y-102786918D01*
X173000128Y-102788922D01*
X173005505Y-102793181D01*
X173029064Y-102814658D01*
X173029065Y-102814658D01*
X173029067Y-102814660D01*
X173038225Y-102818207D01*
X173058412Y-102828847D01*
X173066519Y-102834401D01*
X173097552Y-102841699D01*
X173104095Y-102843726D01*
X173116065Y-102848363D01*
X173126302Y-102852329D01*
X173133827Y-102855244D01*
X173143652Y-102855244D01*
X173166316Y-102857873D01*
X173175881Y-102860123D01*
X173203645Y-102856250D01*
X173207453Y-102855719D01*
X173214299Y-102855244D01*
X195703092Y-102855244D01*
X195716767Y-102857476D01*
X195716939Y-102856250D01*
X195726020Y-102857516D01*
X195726021Y-102857517D01*
X195726021Y-102857516D01*
X195726022Y-102857517D01*
X195734763Y-102857112D01*
X195774049Y-102855296D01*
X195776326Y-102855244D01*
X195796097Y-102855244D01*
X195796100Y-102855244D01*
X195799593Y-102854590D01*
X195806397Y-102853800D01*
X195838248Y-102852329D01*
X195847232Y-102848361D01*
X195869033Y-102841609D01*
X195878689Y-102839805D01*
X195905799Y-102823018D01*
X195911845Y-102819832D01*
X195941021Y-102806950D01*
X195947965Y-102800004D01*
X195965857Y-102785833D01*
X195974208Y-102780663D01*
X195993421Y-102755218D01*
X195997918Y-102750052D01*
X197424920Y-101323050D01*
X197745263Y-101002707D01*
X200689787Y-101002707D01*
X200700107Y-101166736D01*
X200750896Y-101323052D01*
X200828981Y-101446092D01*
X200838962Y-101461819D01*
X200902036Y-101521049D01*
X200958771Y-101574327D01*
X200958770Y-101574327D01*
X201102794Y-101653505D01*
X201102796Y-101653506D01*
X201261987Y-101694379D01*
X201261990Y-101694379D01*
X201385089Y-101694379D01*
X201507217Y-101678951D01*
X201507218Y-101678950D01*
X201507222Y-101678950D01*
X201660035Y-101618447D01*
X201793001Y-101521842D01*
X201897764Y-101395205D01*
X201967743Y-101246492D01*
X201998540Y-101085049D01*
X201988220Y-100921019D01*
X201937432Y-100764708D01*
X201937431Y-100764707D01*
X201937431Y-100764705D01*
X201849366Y-100625939D01*
X201729556Y-100513430D01*
X201729557Y-100513430D01*
X201585533Y-100434252D01*
X201426343Y-100393379D01*
X201426341Y-100393379D01*
X201303239Y-100393379D01*
X201181110Y-100408806D01*
X201181107Y-100408807D01*
X201028293Y-100469311D01*
X201028289Y-100469313D01*
X200895326Y-100565916D01*
X200790563Y-100692553D01*
X200720584Y-100841266D01*
X200689788Y-101002702D01*
X200689787Y-101002707D01*
X197745263Y-101002707D01*
X198892976Y-99854993D01*
X198947491Y-99827218D01*
X199007923Y-99836789D01*
X199051188Y-99880054D01*
X199053031Y-99883872D01*
X199091621Y-99968371D01*
X199185873Y-100077144D01*
X199306835Y-100154881D01*
X199306947Y-100154953D01*
X199413403Y-100186211D01*
X199445035Y-100195499D01*
X199445036Y-100195499D01*
X199445039Y-100195500D01*
X199445041Y-100195500D01*
X199588959Y-100195500D01*
X199588961Y-100195500D01*
X199727053Y-100154953D01*
X199848128Y-100077143D01*
X199942377Y-99968373D01*
X200002165Y-99837457D01*
X200019190Y-99719045D01*
X200022647Y-99695002D01*
X200022647Y-99694997D01*
X200002165Y-99552543D01*
X199963188Y-99467196D01*
X199942377Y-99421627D01*
X199848128Y-99312857D01*
X199848127Y-99312856D01*
X199848126Y-99312855D01*
X199727054Y-99235047D01*
X199669607Y-99218179D01*
X199619101Y-99183642D01*
X199598540Y-99126015D01*
X199598500Y-99123189D01*
X199598500Y-98990937D01*
X199617407Y-98932746D01*
X199666907Y-98896782D01*
X199725389Y-98895947D01*
X199826039Y-98925500D01*
X199826041Y-98925500D01*
X199941231Y-98925500D01*
X199981936Y-98937081D01*
X199982510Y-98935601D01*
X199991066Y-98938915D01*
X199991067Y-98938916D01*
X200000230Y-98942465D01*
X200020416Y-98953105D01*
X200028519Y-98958656D01*
X200059553Y-98965955D01*
X200066090Y-98967979D01*
X200095827Y-98979500D01*
X200105652Y-98979500D01*
X200128316Y-98982129D01*
X200137881Y-98984379D01*
X200165645Y-98980506D01*
X200169453Y-98979975D01*
X200176299Y-98979500D01*
X202656915Y-98979500D01*
X202670590Y-98981732D01*
X202670762Y-98980506D01*
X202679843Y-98981772D01*
X202679844Y-98981773D01*
X202679844Y-98981772D01*
X202679845Y-98981773D01*
X202688586Y-98981368D01*
X202727872Y-98979552D01*
X202730149Y-98979500D01*
X202749920Y-98979500D01*
X202749923Y-98979500D01*
X202753416Y-98978846D01*
X202760220Y-98978056D01*
X202792071Y-98976585D01*
X202801055Y-98972617D01*
X202822856Y-98965865D01*
X202832512Y-98964061D01*
X202859622Y-98947274D01*
X202865668Y-98944088D01*
X202894844Y-98931206D01*
X202901788Y-98924260D01*
X202919680Y-98910089D01*
X202928031Y-98904919D01*
X202947247Y-98879470D01*
X202951737Y-98874311D01*
X203238498Y-98587551D01*
X203293013Y-98559775D01*
X203353445Y-98569346D01*
X203396710Y-98612611D01*
X203407500Y-98657556D01*
X203407500Y-102797105D01*
X203388593Y-102855296D01*
X203381258Y-102863289D01*
X203381509Y-102863506D01*
X203376872Y-102868856D01*
X203376872Y-102868857D01*
X203375882Y-102870000D01*
X203282622Y-102977628D01*
X203222834Y-103108543D01*
X203202353Y-103250997D01*
X203202353Y-103251002D01*
X203222834Y-103393456D01*
X203282622Y-103524371D01*
X203282623Y-103524373D01*
X203376872Y-103633143D01*
X203376873Y-103633144D01*
X203497942Y-103710950D01*
X203497947Y-103710953D01*
X203604403Y-103742211D01*
X203636035Y-103751499D01*
X203636036Y-103751499D01*
X203636039Y-103751500D01*
X203636041Y-103751500D01*
X203779959Y-103751500D01*
X203779961Y-103751500D01*
X203918053Y-103710953D01*
X204039128Y-103633143D01*
X204133377Y-103524373D01*
X204193165Y-103393457D01*
X204213647Y-103251000D01*
X204198172Y-103143371D01*
X204193165Y-103108543D01*
X204133377Y-102977627D01*
X204039128Y-102868857D01*
X204039127Y-102868856D01*
X204034491Y-102863506D01*
X204036527Y-102861741D01*
X204011073Y-102819531D01*
X204008500Y-102797110D01*
X204008500Y-102764004D01*
X204027409Y-102705815D01*
X204076910Y-102669852D01*
X204138096Y-102669854D01*
X204155194Y-102677254D01*
X204164860Y-102682568D01*
X204228632Y-102717627D01*
X204387823Y-102758500D01*
X204387826Y-102758500D01*
X204510925Y-102758500D01*
X204633053Y-102743072D01*
X204633054Y-102743071D01*
X204633058Y-102743071D01*
X204785871Y-102682568D01*
X204918837Y-102585963D01*
X205023600Y-102459326D01*
X205093579Y-102310613D01*
X205124376Y-102149170D01*
X205114056Y-101985140D01*
X205063268Y-101828829D01*
X205063267Y-101828828D01*
X205063267Y-101828826D01*
X204975202Y-101690060D01*
X204855392Y-101577551D01*
X204855393Y-101577551D01*
X204711369Y-101498373D01*
X204552179Y-101457500D01*
X204552177Y-101457500D01*
X204429075Y-101457500D01*
X204306946Y-101472927D01*
X204306943Y-101472928D01*
X204242678Y-101498373D01*
X204154129Y-101533432D01*
X204154127Y-101533433D01*
X204148339Y-101535725D01*
X204147761Y-101534266D01*
X204095081Y-101544310D01*
X204039722Y-101518253D01*
X204010252Y-101464632D01*
X204008500Y-101446092D01*
X204008500Y-98716902D01*
X204485068Y-98716902D01*
X204490117Y-98920211D01*
X204535991Y-99118356D01*
X204620808Y-99303204D01*
X204741102Y-99467196D01*
X204891949Y-99603619D01*
X205067158Y-99706877D01*
X205305280Y-99788404D01*
X205305281Y-99788404D01*
X205532022Y-99126145D01*
X206005064Y-99288104D01*
X205778323Y-99950362D01*
X205778323Y-99950364D01*
X205968211Y-100015378D01*
X206116654Y-100049904D01*
X206319963Y-100055161D01*
X206319972Y-100055160D01*
X206520176Y-100019382D01*
X206709084Y-99944035D01*
X206709085Y-99944034D01*
X206878954Y-99832204D01*
X206878960Y-99832200D01*
X207022845Y-99688461D01*
X207079216Y-99603019D01*
X207079216Y-99603018D01*
X206320332Y-99343194D01*
X206365620Y-99332851D01*
X206458560Y-99270065D01*
X206522542Y-99177946D01*
X206548927Y-99068934D01*
X206534150Y-98957752D01*
X206486977Y-98871756D01*
X207246020Y-99131635D01*
X207246021Y-99131634D01*
X207246368Y-99129703D01*
X207241320Y-98926383D01*
X207195446Y-98728243D01*
X207110629Y-98543395D01*
X206990335Y-98379403D01*
X206839488Y-98242980D01*
X206664278Y-98139721D01*
X206664275Y-98139719D01*
X206426157Y-98058193D01*
X206426156Y-98058194D01*
X206199413Y-98720453D01*
X205726370Y-98558494D01*
X205953112Y-97896233D01*
X205763223Y-97831220D01*
X205763210Y-97831217D01*
X205614783Y-97796695D01*
X205614785Y-97796695D01*
X205411474Y-97791438D01*
X205411465Y-97791439D01*
X205211261Y-97827217D01*
X205022356Y-97902563D01*
X205022352Y-97902565D01*
X204852483Y-98014395D01*
X204852477Y-98014400D01*
X204708595Y-98158137D01*
X204652220Y-98243580D01*
X205411108Y-98503405D01*
X205365818Y-98513749D01*
X205272879Y-98576535D01*
X205208896Y-98668654D01*
X205182512Y-98777666D01*
X205197288Y-98888848D01*
X205244459Y-98974841D01*
X204485416Y-98714963D01*
X204485415Y-98714963D01*
X204485068Y-98716902D01*
X204008500Y-98716902D01*
X204008500Y-98424243D01*
X204027407Y-98366052D01*
X204037490Y-98354245D01*
X205017405Y-97374329D01*
X205028664Y-97366258D01*
X205027905Y-97365252D01*
X205035221Y-97359726D01*
X205035228Y-97359723D01*
X205067632Y-97324176D01*
X205069186Y-97322548D01*
X205083174Y-97308562D01*
X205085181Y-97305630D01*
X205089440Y-97300255D01*
X205091991Y-97297457D01*
X205110916Y-97276698D01*
X205114465Y-97267535D01*
X205125106Y-97247347D01*
X205130656Y-97239246D01*
X205137955Y-97208208D01*
X205139977Y-97201679D01*
X205151500Y-97171938D01*
X205151500Y-97162112D01*
X205154129Y-97139448D01*
X205156379Y-97129884D01*
X205151975Y-97098311D01*
X205151500Y-97091464D01*
X205151500Y-93410668D01*
X205170407Y-93352477D01*
X205177330Y-93343981D01*
X205194632Y-93325001D01*
X205196186Y-93323373D01*
X205210174Y-93309387D01*
X205212181Y-93306455D01*
X205216440Y-93301080D01*
X205237916Y-93277523D01*
X205241465Y-93268360D01*
X205252106Y-93248172D01*
X205257656Y-93240071D01*
X205264955Y-93209033D01*
X205266977Y-93202504D01*
X205278500Y-93172763D01*
X205278500Y-93162938D01*
X205281129Y-93140273D01*
X205283379Y-93130709D01*
X205278973Y-93099123D01*
X205278499Y-93092304D01*
X205278499Y-91640737D01*
X205282280Y-91613639D01*
X205282401Y-91613215D01*
X205278711Y-91573392D01*
X205278500Y-91568823D01*
X205278500Y-91557165D01*
X205278078Y-91554907D01*
X205276354Y-91545686D01*
X205275727Y-91541193D01*
X205272035Y-91501348D01*
X205271837Y-91500951D01*
X205263140Y-91475000D01*
X205263060Y-91474572D01*
X205248204Y-91450580D01*
X205242006Y-91440570D01*
X205239785Y-91436583D01*
X205221958Y-91400779D01*
X205221956Y-91400777D01*
X205221628Y-91400478D01*
X205204154Y-91379435D01*
X205203919Y-91379055D01*
X205197738Y-91372275D01*
X205199877Y-91370324D01*
X205173234Y-91332187D01*
X205174367Y-91271013D01*
X205189395Y-91243079D01*
X205222267Y-91200241D01*
X205280256Y-91060244D01*
X205300035Y-90910008D01*
X205299552Y-90906343D01*
X205288245Y-90820457D01*
X205280256Y-90759772D01*
X205258084Y-90706246D01*
X205253284Y-90645253D01*
X205285253Y-90593084D01*
X205332133Y-90570907D01*
X205489836Y-90542724D01*
X207283714Y-90542724D01*
X207288763Y-90746033D01*
X207334637Y-90944178D01*
X207419454Y-91129026D01*
X207539748Y-91293018D01*
X207690595Y-91429441D01*
X207865804Y-91532699D01*
X208103926Y-91614226D01*
X208103927Y-91614226D01*
X208330668Y-90951967D01*
X208803710Y-91113926D01*
X208576969Y-91776184D01*
X208576969Y-91776186D01*
X208766857Y-91841200D01*
X208915300Y-91875726D01*
X209118609Y-91880983D01*
X209118618Y-91880982D01*
X209318822Y-91845204D01*
X209507730Y-91769857D01*
X209507731Y-91769856D01*
X209661960Y-91668323D01*
X209720960Y-91652118D01*
X209778218Y-91673688D01*
X209811862Y-91724793D01*
X209814389Y-91765101D01*
X209806353Y-91820995D01*
X209806353Y-91821000D01*
X209807141Y-91826484D01*
X209796702Y-91886772D01*
X209762672Y-91923848D01*
X209726874Y-91946854D01*
X209632622Y-92055628D01*
X209572834Y-92186543D01*
X209552353Y-92328997D01*
X209552353Y-92329002D01*
X209572834Y-92471456D01*
X209631247Y-92599360D01*
X209632623Y-92602373D01*
X209710542Y-92692297D01*
X209726873Y-92711144D01*
X209847942Y-92788950D01*
X209847947Y-92788953D01*
X209910463Y-92807309D01*
X209986035Y-92829499D01*
X209986036Y-92829499D01*
X209986039Y-92829500D01*
X209986041Y-92829500D01*
X210129959Y-92829500D01*
X210129961Y-92829500D01*
X210268053Y-92788953D01*
X210389128Y-92711143D01*
X210483377Y-92602373D01*
X210543165Y-92471457D01*
X210556854Y-92376245D01*
X210563647Y-92329002D01*
X210563647Y-92328999D01*
X210562860Y-92323528D01*
X210573289Y-92263238D01*
X210607325Y-92226151D01*
X210643128Y-92203143D01*
X210737377Y-92094373D01*
X210797165Y-91963457D01*
X210810625Y-91869838D01*
X210817647Y-91821002D01*
X210817647Y-91820997D01*
X210797165Y-91678543D01*
X210792498Y-91668323D01*
X210737377Y-91547627D01*
X210643128Y-91438857D01*
X210643127Y-91438856D01*
X210643126Y-91438855D01*
X210522057Y-91361049D01*
X210522054Y-91361047D01*
X210522053Y-91361047D01*
X210522050Y-91361046D01*
X210383964Y-91320500D01*
X210383961Y-91320500D01*
X210240039Y-91320500D01*
X210240035Y-91320500D01*
X210101949Y-91361046D01*
X210101942Y-91361049D01*
X209995522Y-91429441D01*
X209936347Y-91444996D01*
X209909931Y-91439819D01*
X209118979Y-91169016D01*
X209164266Y-91158673D01*
X209257206Y-91095887D01*
X209321188Y-91003768D01*
X209347573Y-90894756D01*
X209332796Y-90783574D01*
X209285623Y-90697578D01*
X210044666Y-90957457D01*
X210044667Y-90957456D01*
X210045014Y-90955525D01*
X210039966Y-90752205D01*
X209994092Y-90554065D01*
X209909275Y-90369217D01*
X209788981Y-90205225D01*
X209638134Y-90068802D01*
X209462924Y-89965543D01*
X209462921Y-89965541D01*
X209224803Y-89884015D01*
X209224802Y-89884016D01*
X208998059Y-90546275D01*
X208525016Y-90384316D01*
X208751758Y-89722055D01*
X208561869Y-89657042D01*
X208561856Y-89657039D01*
X208413429Y-89622517D01*
X208413431Y-89622517D01*
X208210120Y-89617260D01*
X208210111Y-89617261D01*
X208009907Y-89653039D01*
X207821002Y-89728385D01*
X207820998Y-89728387D01*
X207651129Y-89840217D01*
X207651123Y-89840222D01*
X207507241Y-89983959D01*
X207450866Y-90069402D01*
X208209754Y-90329227D01*
X208164464Y-90339571D01*
X208071525Y-90402357D01*
X208007542Y-90494476D01*
X207981158Y-90603488D01*
X207995934Y-90714670D01*
X208043105Y-90800663D01*
X207284062Y-90540785D01*
X207284061Y-90540785D01*
X207283714Y-90542724D01*
X205489836Y-90542724D01*
X205506097Y-90539818D01*
X205695005Y-90464471D01*
X205695006Y-90464470D01*
X205864875Y-90352640D01*
X205864881Y-90352636D01*
X206008764Y-90208899D01*
X206065138Y-90123454D01*
X206065138Y-90123453D01*
X205306254Y-89863629D01*
X205351542Y-89853287D01*
X205444481Y-89790501D01*
X205508464Y-89698382D01*
X205534848Y-89589370D01*
X205520071Y-89478188D01*
X205472899Y-89392193D01*
X206231941Y-89652071D01*
X206231942Y-89652070D01*
X206232289Y-89650139D01*
X206227241Y-89446820D01*
X206227241Y-89446819D01*
X206181368Y-89248679D01*
X206096549Y-89063831D01*
X205976257Y-88899839D01*
X205825410Y-88763416D01*
X205821411Y-88761059D01*
X206863409Y-88761059D01*
X206863630Y-88763790D01*
X206863686Y-88774282D01*
X206863623Y-88775536D01*
X206863704Y-88777187D01*
X206863727Y-88778888D01*
X206863861Y-88780082D01*
X206864671Y-88794908D01*
X206864664Y-88796199D01*
X206864840Y-88797991D01*
X206865164Y-88803245D01*
X206865666Y-88805959D01*
X206866693Y-88815866D01*
X206866763Y-88817263D01*
X206866777Y-88817351D01*
X206867114Y-88819881D01*
X206867486Y-88823372D01*
X206868132Y-88826162D01*
X206869616Y-88835870D01*
X206869730Y-88837150D01*
X206870109Y-88839086D01*
X206870454Y-88841218D01*
X206870790Y-88842444D01*
X206873614Y-88856380D01*
X206873793Y-88857626D01*
X206874204Y-88859286D01*
X206875210Y-88864067D01*
X206876049Y-88866574D01*
X206878374Y-88875757D01*
X206878625Y-88877149D01*
X206879227Y-88879138D01*
X206879227Y-88879140D01*
X206879253Y-88879226D01*
X206879274Y-88879308D01*
X206879275Y-88879309D01*
X206880536Y-88884238D01*
X206881604Y-88886945D01*
X206881910Y-88887949D01*
X206884304Y-88895811D01*
X206884618Y-88897130D01*
X206884836Y-88897740D01*
X206885565Y-88899941D01*
X206886495Y-88902988D01*
X206887642Y-88905596D01*
X206889576Y-88911003D01*
X206890295Y-88913622D01*
X206892134Y-88918157D01*
X206893741Y-88922579D01*
X206894950Y-88924992D01*
X206898630Y-88933923D01*
X206899085Y-88935276D01*
X206899451Y-88936057D01*
X206900384Y-88938177D01*
X206901715Y-88941403D01*
X206903141Y-88943933D01*
X206905378Y-88948706D01*
X206906370Y-88951323D01*
X206908584Y-88955556D01*
X206908585Y-88955558D01*
X206908619Y-88955623D01*
X206908662Y-88955714D01*
X206910736Y-88960104D01*
X206912252Y-88962507D01*
X206914777Y-88967293D01*
X206915873Y-88969792D01*
X206918180Y-88973740D01*
X206920785Y-88978626D01*
X206922441Y-88980963D01*
X206926973Y-88988648D01*
X206927555Y-88989789D01*
X206928575Y-88991363D01*
X206930929Y-88995303D01*
X206932543Y-88997417D01*
X206938165Y-89005991D01*
X206938854Y-89007188D01*
X206939041Y-89007444D01*
X206940517Y-89009582D01*
X206942350Y-89012392D01*
X206944315Y-89014706D01*
X206949924Y-89022435D01*
X206950692Y-89023650D01*
X206951032Y-89024071D01*
X206952622Y-89026155D01*
X206954575Y-89028860D01*
X206956648Y-89031077D01*
X206962802Y-89038757D01*
X206963568Y-89039838D01*
X206964699Y-89041125D01*
X206968193Y-89045460D01*
X206970331Y-89047503D01*
X206973162Y-89050709D01*
X206974928Y-89053053D01*
X206978262Y-89056492D01*
X206978263Y-89056494D01*
X206978326Y-89056559D01*
X206978381Y-89056621D01*
X206978382Y-89056621D01*
X206981306Y-89059918D01*
X206983412Y-89061791D01*
X206987663Y-89066163D01*
X206989611Y-89068477D01*
X206991704Y-89070419D01*
X206993664Y-89072340D01*
X206996087Y-89074852D01*
X206998563Y-89076819D01*
X207003887Y-89081791D01*
X207005228Y-89083044D01*
X207006211Y-89084099D01*
X207006994Y-89084764D01*
X207008665Y-89086249D01*
X207012289Y-89089619D01*
X207014818Y-89091392D01*
X207021062Y-89096679D01*
X207022091Y-89097677D01*
X207023708Y-89098921D01*
X207027549Y-89102154D01*
X207030005Y-89103745D01*
X207034320Y-89107051D01*
X207036648Y-89109127D01*
X207039125Y-89110826D01*
X207041362Y-89112453D01*
X207043925Y-89114430D01*
X207046632Y-89116008D01*
X207054707Y-89121588D01*
X207055903Y-89122540D01*
X207056313Y-89122792D01*
X207058747Y-89124388D01*
X207061210Y-89126108D01*
X207064029Y-89127574D01*
X207069405Y-89130910D01*
X207072929Y-89133097D01*
X207074122Y-89133937D01*
X207074149Y-89133952D01*
X207076734Y-89135464D01*
X207079382Y-89137123D01*
X207082301Y-89138456D01*
X207090941Y-89143240D01*
X207092231Y-89144077D01*
X207092827Y-89144367D01*
X207095264Y-89145638D01*
X207098461Y-89147418D01*
X207101450Y-89148592D01*
X207105367Y-89150512D01*
X207110132Y-89152848D01*
X207111457Y-89153616D01*
X207112075Y-89153880D01*
X207114543Y-89155015D01*
X207118324Y-89156880D01*
X207121470Y-89157914D01*
X207127149Y-89160354D01*
X207129935Y-89161551D01*
X207131277Y-89162241D01*
X207131976Y-89162500D01*
X207134353Y-89163450D01*
X207137422Y-89164771D01*
X207140368Y-89165616D01*
X207143562Y-89166802D01*
X207143666Y-89166854D01*
X207153555Y-89170514D01*
X207153556Y-89170515D01*
X207184727Y-89182052D01*
X207186185Y-89182698D01*
X207186322Y-89182740D01*
X207189168Y-89183696D01*
X207191775Y-89184660D01*
X207195081Y-89185391D01*
X207202016Y-89187491D01*
X207204822Y-89188563D01*
X207207522Y-89189230D01*
X207210091Y-89189938D01*
X207214294Y-89191219D01*
X207217550Y-89191728D01*
X207226660Y-89193999D01*
X207228145Y-89194476D01*
X207228446Y-89194533D01*
X207231475Y-89195207D01*
X207235536Y-89196245D01*
X207238998Y-89196603D01*
X207244088Y-89197607D01*
X207247202Y-89198458D01*
X207249539Y-89198778D01*
X207252729Y-89199322D01*
X207255411Y-89199869D01*
X207258637Y-89200096D01*
X207265048Y-89201033D01*
X207268322Y-89201760D01*
X207270585Y-89201951D01*
X207274122Y-89202378D01*
X207277684Y-89202938D01*
X207281301Y-89202961D01*
X207286431Y-89203455D01*
X207289457Y-89203965D01*
X207292077Y-89204077D01*
X207294966Y-89204284D01*
X207298766Y-89204668D01*
X207302093Y-89204540D01*
X207307352Y-89204786D01*
X207310591Y-89205174D01*
X207312934Y-89205147D01*
X207316301Y-89205222D01*
X207319580Y-89205406D01*
X207323019Y-89205110D01*
X207328097Y-89205099D01*
X207331179Y-89205324D01*
X207334283Y-89205157D01*
X207336955Y-89205085D01*
X207340791Y-89205085D01*
X207343933Y-89204663D01*
X207345101Y-89204603D01*
X207349055Y-89204403D01*
X207352186Y-89204476D01*
X207355040Y-89204177D01*
X207357928Y-89203960D01*
X207361920Y-89203776D01*
X207362909Y-89203590D01*
X208889824Y-89203590D01*
X208889866Y-89204443D01*
X208889923Y-89206827D01*
X208889923Y-89210172D01*
X208890288Y-89213122D01*
X208890764Y-89222875D01*
X208890738Y-89224091D01*
X208890937Y-89226440D01*
X208891218Y-89231277D01*
X208891666Y-89233860D01*
X208892698Y-89244376D01*
X208892757Y-89245700D01*
X208892800Y-89245988D01*
X208893080Y-89248226D01*
X208893463Y-89251977D01*
X208894098Y-89254769D01*
X208895532Y-89264464D01*
X208895643Y-89265767D01*
X208895998Y-89267618D01*
X208896331Y-89269761D01*
X208896670Y-89271017D01*
X208898145Y-89278471D01*
X208899434Y-89284980D01*
X208899611Y-89286251D01*
X208899987Y-89287792D01*
X208899987Y-89287794D01*
X208900007Y-89287876D01*
X208900016Y-89287919D01*
X208901055Y-89293059D01*
X208901971Y-89295783D01*
X208904116Y-89304421D01*
X208904345Y-89305725D01*
X208904980Y-89307895D01*
X208905535Y-89310065D01*
X208906005Y-89311310D01*
X208909974Y-89324531D01*
X208910266Y-89325783D01*
X208910872Y-89327533D01*
X208910872Y-89327535D01*
X208910899Y-89327613D01*
X208910926Y-89327701D01*
X208910926Y-89327702D01*
X208912283Y-89332122D01*
X208913359Y-89334579D01*
X208915303Y-89340083D01*
X208916067Y-89342882D01*
X208917311Y-89345936D01*
X208918135Y-89348104D01*
X208919243Y-89351238D01*
X208920532Y-89353837D01*
X208924187Y-89362800D01*
X208924609Y-89364078D01*
X208925517Y-89366062D01*
X208927469Y-89370758D01*
X208928796Y-89373118D01*
X208932858Y-89381864D01*
X208933307Y-89383008D01*
X208934175Y-89384699D01*
X208936517Y-89389629D01*
X208937940Y-89391883D01*
X208938479Y-89392910D01*
X208940337Y-89396457D01*
X208941388Y-89398873D01*
X208943719Y-89402913D01*
X208944804Y-89404945D01*
X208945540Y-89406019D01*
X208949479Y-89412735D01*
X208952362Y-89417651D01*
X208953012Y-89418955D01*
X208953463Y-89419644D01*
X208954747Y-89421717D01*
X208957065Y-89425676D01*
X208959015Y-89428151D01*
X208961347Y-89431725D01*
X208962621Y-89434029D01*
X208965367Y-89437885D01*
X208967975Y-89441823D01*
X208969687Y-89443858D01*
X208975544Y-89451955D01*
X208976326Y-89453195D01*
X208976588Y-89453519D01*
X208978252Y-89455706D01*
X208980118Y-89458304D01*
X208982232Y-89460570D01*
X208988309Y-89468170D01*
X208989170Y-89469399D01*
X208989368Y-89469621D01*
X208991253Y-89471865D01*
X208993476Y-89474675D01*
X208995843Y-89476948D01*
X209001949Y-89483869D01*
X209002788Y-89484945D01*
X209003970Y-89486165D01*
X209003971Y-89486167D01*
X209004034Y-89486232D01*
X209004089Y-89486294D01*
X209004090Y-89486294D01*
X209006990Y-89489563D01*
X209009110Y-89491448D01*
X209012868Y-89495309D01*
X209013334Y-89495788D01*
X209015275Y-89498101D01*
X209017560Y-89500223D01*
X209019381Y-89502003D01*
X209021738Y-89504429D01*
X209024119Y-89506330D01*
X209027879Y-89509832D01*
X209031380Y-89513094D01*
X209032284Y-89514048D01*
X209033660Y-89515221D01*
X209033662Y-89515224D01*
X209033730Y-89515282D01*
X209033792Y-89515339D01*
X209033794Y-89515339D01*
X209037402Y-89518658D01*
X209039662Y-89520282D01*
X209043990Y-89523930D01*
X209046273Y-89526164D01*
X209048492Y-89527835D01*
X209050870Y-89529743D01*
X209053025Y-89531585D01*
X209055754Y-89533353D01*
X209063560Y-89539295D01*
X209064725Y-89540317D01*
X209065277Y-89540693D01*
X209067505Y-89542300D01*
X209069997Y-89544206D01*
X209072698Y-89545769D01*
X209081042Y-89551481D01*
X209082233Y-89552416D01*
X209082633Y-89552660D01*
X209084993Y-89554191D01*
X209087418Y-89555864D01*
X209090220Y-89557305D01*
X209098870Y-89562606D01*
X209100171Y-89563534D01*
X209100609Y-89563770D01*
X209103216Y-89565278D01*
X209103609Y-89565521D01*
X209105046Y-89566179D01*
X209117644Y-89573043D01*
X209118998Y-89573905D01*
X209119253Y-89574026D01*
X209122140Y-89575509D01*
X209124213Y-89576660D01*
X209127263Y-89577863D01*
X209131406Y-89579852D01*
X209136955Y-89582516D01*
X209138382Y-89583328D01*
X209138631Y-89583430D01*
X209141640Y-89584778D01*
X209144713Y-89586279D01*
X209148021Y-89587345D01*
X209156935Y-89591075D01*
X209158420Y-89591823D01*
X209158665Y-89591909D01*
X209161835Y-89593141D01*
X209163836Y-89593998D01*
X209166991Y-89594883D01*
X209180940Y-89599891D01*
X209208318Y-89610020D01*
X209211548Y-89611485D01*
X209213182Y-89611965D01*
X209216924Y-89613227D01*
X209218695Y-89613904D01*
X209222277Y-89614701D01*
X209229316Y-89616833D01*
X209232132Y-89617908D01*
X209234837Y-89618577D01*
X209237406Y-89619285D01*
X209241604Y-89620565D01*
X209244858Y-89621073D01*
X209249152Y-89622143D01*
X209253985Y-89623347D01*
X209255465Y-89623823D01*
X209255760Y-89623879D01*
X209258789Y-89624553D01*
X209262851Y-89625591D01*
X209266319Y-89625950D01*
X209268557Y-89626391D01*
X209270043Y-89626685D01*
X209273112Y-89627568D01*
X209277186Y-89628159D01*
X209279713Y-89628592D01*
X209283046Y-89629252D01*
X209286094Y-89629462D01*
X209288910Y-89629873D01*
X209292283Y-89630366D01*
X209295478Y-89631079D01*
X209298040Y-89631303D01*
X209301258Y-89631691D01*
X209304694Y-89632220D01*
X209308113Y-89632258D01*
X209313743Y-89632800D01*
X209316765Y-89633309D01*
X209319391Y-89633421D01*
X209322280Y-89633628D01*
X209326079Y-89634012D01*
X209329407Y-89633884D01*
X209334665Y-89634130D01*
X209337904Y-89634518D01*
X209340247Y-89634491D01*
X209343614Y-89634566D01*
X209346893Y-89634750D01*
X209350332Y-89634454D01*
X209355410Y-89634443D01*
X209358492Y-89634668D01*
X209361596Y-89634501D01*
X209364268Y-89634429D01*
X209368112Y-89634429D01*
X209371264Y-89634005D01*
X209373659Y-89633884D01*
X209376386Y-89633746D01*
X209379502Y-89633818D01*
X209382352Y-89633520D01*
X209385240Y-89633303D01*
X209389227Y-89633119D01*
X209392486Y-89632506D01*
X209396759Y-89632081D01*
X209400011Y-89632011D01*
X209403001Y-89631546D01*
X209406005Y-89631171D01*
X209409450Y-89630848D01*
X209412631Y-89630105D01*
X209417450Y-89629390D01*
X209420622Y-89629164D01*
X209423520Y-89628572D01*
X209426528Y-89628053D01*
X209430108Y-89627548D01*
X209433323Y-89626624D01*
X209438069Y-89625685D01*
X209441215Y-89625299D01*
X209443798Y-89624638D01*
X209446795Y-89623968D01*
X209451194Y-89623127D01*
X209454476Y-89621976D01*
X209457203Y-89621299D01*
X209460478Y-89620768D01*
X209463828Y-89619740D01*
X209466784Y-89618932D01*
X209469834Y-89618198D01*
X209472866Y-89617022D01*
X209477073Y-89615762D01*
X209480238Y-89615091D01*
X209483655Y-89613868D01*
X209486303Y-89613002D01*
X209490257Y-89611831D01*
X209493202Y-89610495D01*
X209495766Y-89609592D01*
X209499328Y-89608688D01*
X209502691Y-89607267D01*
X209506006Y-89606004D01*
X209509177Y-89604923D01*
X209512281Y-89603340D01*
X209515579Y-89601998D01*
X209518701Y-89601021D01*
X209522037Y-89599452D01*
X209524651Y-89598313D01*
X209528516Y-89596758D01*
X209531368Y-89595116D01*
X209534920Y-89593469D01*
X209537755Y-89592411D01*
X209540787Y-89590818D01*
X209543080Y-89589688D01*
X209546290Y-89588206D01*
X209548870Y-89586587D01*
X209552341Y-89584771D01*
X209555369Y-89583508D01*
X209558873Y-89581435D01*
X209561292Y-89580094D01*
X209564313Y-89578527D01*
X209566880Y-89576737D01*
X209570648Y-89574530D01*
X209573815Y-89573008D01*
X209576166Y-89571432D01*
X209579386Y-89569446D01*
X209582888Y-89567465D01*
X209585900Y-89565053D01*
X209587479Y-89564023D01*
X209590669Y-89562322D01*
X209593459Y-89560251D01*
X209596399Y-89558229D01*
X209598774Y-89556717D01*
X209601383Y-89554493D01*
X209604993Y-89551881D01*
X209607970Y-89550072D01*
X209610098Y-89548326D01*
X209613007Y-89546113D01*
X209615516Y-89544345D01*
X209618101Y-89541896D01*
X209621669Y-89539042D01*
X209624276Y-89537258D01*
X209626453Y-89535316D01*
X209628705Y-89533423D01*
X209630895Y-89531690D01*
X209633078Y-89529456D01*
X209636912Y-89526070D01*
X209639470Y-89524154D01*
X209641999Y-89521673D01*
X209644010Y-89519806D01*
X209646563Y-89517564D01*
X209648631Y-89515204D01*
X209651907Y-89512011D01*
X209654397Y-89509951D01*
X209656825Y-89507322D01*
X209658787Y-89505314D01*
X209662087Y-89502122D01*
X209664172Y-89499409D01*
X209665679Y-89497789D01*
X209668222Y-89495509D01*
X209670911Y-89492283D01*
X209672918Y-89490019D01*
X209675935Y-89486817D01*
X209677957Y-89483894D01*
X209680134Y-89481305D01*
X209682445Y-89478962D01*
X209684338Y-89476438D01*
X209686247Y-89474050D01*
X209688012Y-89471975D01*
X209689752Y-89469293D01*
X209692244Y-89466010D01*
X209694618Y-89463422D01*
X209697035Y-89459842D01*
X209698859Y-89457314D01*
X209700479Y-89455211D01*
X209702108Y-89452399D01*
X209702664Y-89451585D01*
X209704847Y-89448387D01*
X209707075Y-89445663D01*
X209708915Y-89442598D01*
X209710687Y-89439855D01*
X209712769Y-89436851D01*
X209714325Y-89433719D01*
X209716577Y-89430034D01*
X209718551Y-89427323D01*
X209720051Y-89424523D01*
X209721642Y-89421769D01*
X209723669Y-89418505D01*
X209725078Y-89415252D01*
X209726840Y-89412009D01*
X209728902Y-89408893D01*
X209730199Y-89406084D01*
X209731897Y-89402743D01*
X209733243Y-89400324D01*
X209734499Y-89397048D01*
X209736481Y-89392910D01*
X209738043Y-89390271D01*
X209739825Y-89386060D01*
X209740808Y-89383884D01*
X209742610Y-89380137D01*
X209743613Y-89377003D01*
X209745542Y-89372386D01*
X209747212Y-89369152D01*
X209748051Y-89366704D01*
X209749433Y-89363128D01*
X209749895Y-89361484D01*
X209751680Y-89356509D01*
X209752754Y-89354421D01*
X209756113Y-89344151D01*
X209759500Y-89334990D01*
X209760000Y-89332535D01*
X210826742Y-86144929D01*
X210863139Y-86095749D01*
X210892727Y-86081361D01*
X211057498Y-86032980D01*
X211244305Y-85936675D01*
X211409509Y-85806756D01*
X211547142Y-85647920D01*
X211652227Y-85465908D01*
X211720967Y-85267297D01*
X211750877Y-85059266D01*
X211740877Y-84849334D01*
X211691327Y-84645088D01*
X211646725Y-84547424D01*
X211604020Y-84453912D01*
X211604018Y-84453909D01*
X211505744Y-84315903D01*
X211489456Y-84293030D01*
X211471104Y-84234663D01*
X211476217Y-84204192D01*
X214470643Y-75256348D01*
X214471746Y-75253943D01*
X214474045Y-75246186D01*
X214476243Y-75239725D01*
X214476744Y-75237269D01*
X214477725Y-75234029D01*
X214479119Y-75230611D01*
X214480021Y-75226816D01*
X214480957Y-75223419D01*
X214481847Y-75220583D01*
X214482409Y-75217155D01*
X214483828Y-75211465D01*
X214484888Y-75208280D01*
X214485389Y-75205610D01*
X214486116Y-75202341D01*
X214487011Y-75198875D01*
X214487389Y-75195387D01*
X214488260Y-75190968D01*
X214489225Y-75187589D01*
X214489646Y-75184476D01*
X214490222Y-75181097D01*
X214490675Y-75178897D01*
X214490913Y-75175689D01*
X214491767Y-75169847D01*
X214492575Y-75166375D01*
X214492822Y-75163416D01*
X214493267Y-75159741D01*
X214493733Y-75156810D01*
X214493778Y-75153241D01*
X214494258Y-75148259D01*
X214494816Y-75145092D01*
X214494951Y-75141897D01*
X214495166Y-75138911D01*
X214495486Y-75135792D01*
X214495383Y-75132536D01*
X214495626Y-75127361D01*
X214496058Y-75123980D01*
X214496023Y-75120995D01*
X214496097Y-75117624D01*
X214496250Y-75114904D01*
X214495987Y-75111575D01*
X214495977Y-75106632D01*
X214496233Y-75103459D01*
X214496030Y-75099645D01*
X214495960Y-75097004D01*
X214495960Y-75093717D01*
X214495572Y-75090668D01*
X214495309Y-75085473D01*
X214495403Y-75082277D01*
X214495047Y-75078838D01*
X214494837Y-75076036D01*
X214494683Y-75072736D01*
X214494124Y-75069610D01*
X214493628Y-75064616D01*
X214493566Y-75061546D01*
X214493033Y-75057991D01*
X214492721Y-75055467D01*
X214492338Y-75051554D01*
X214491623Y-75048502D01*
X214490991Y-75044242D01*
X214490778Y-75041054D01*
X214490081Y-75037604D01*
X214489596Y-75034794D01*
X214489199Y-75032017D01*
X214488378Y-75029030D01*
X214487297Y-75023570D01*
X214486926Y-75020451D01*
X214486134Y-75017319D01*
X214485517Y-75014544D01*
X214485418Y-75014034D01*
X214484957Y-75012601D01*
X214482952Y-75004521D01*
X214482415Y-75001089D01*
X214481312Y-74997526D01*
X214480444Y-74994353D01*
X214479703Y-74991243D01*
X214478472Y-74988094D01*
X214477241Y-74983986D01*
X214476572Y-74980855D01*
X214475409Y-74977606D01*
X214474522Y-74974883D01*
X214474336Y-74974253D01*
X214473720Y-74972833D01*
X214471265Y-74965866D01*
X214470465Y-74962652D01*
X214468608Y-74958125D01*
X214467664Y-74955636D01*
X214466647Y-74952721D01*
X214465300Y-74950005D01*
X214463576Y-74945771D01*
X214462666Y-74942844D01*
X214460873Y-74938976D01*
X214459925Y-74936797D01*
X214458612Y-74933568D01*
X214457161Y-74930974D01*
X214455002Y-74926318D01*
X214454006Y-74923654D01*
X214451756Y-74919317D01*
X214450923Y-74917537D01*
X214450216Y-74916374D01*
X214449278Y-74914582D01*
X214446283Y-74908859D01*
X214445120Y-74906072D01*
X214442265Y-74901177D01*
X214441350Y-74899434D01*
X214440563Y-74898272D01*
X214440360Y-74897926D01*
X214436008Y-74890498D01*
X214434576Y-74887528D01*
X214432792Y-74884835D01*
X214431115Y-74882117D01*
X214429522Y-74879339D01*
X214427453Y-74876669D01*
X214425458Y-74873611D01*
X214423884Y-74870673D01*
X214421576Y-74867517D01*
X214419929Y-74865119D01*
X214419710Y-74864779D01*
X214418743Y-74863612D01*
X214413219Y-74855976D01*
X214411552Y-74853257D01*
X214409634Y-74850885D01*
X214407841Y-74848527D01*
X214407553Y-74848124D01*
X214406498Y-74846977D01*
X214400650Y-74839664D01*
X214398972Y-74837203D01*
X214396651Y-74834573D01*
X214395122Y-74832752D01*
X214393022Y-74830128D01*
X214390893Y-74828053D01*
X214388034Y-74824817D01*
X214386037Y-74822115D01*
X214383273Y-74819307D01*
X214381261Y-74817137D01*
X214380905Y-74816729D01*
X214379739Y-74815689D01*
X214373127Y-74808904D01*
X214371309Y-74806733D01*
X214367836Y-74803474D01*
X214364380Y-74799960D01*
X214362136Y-74798176D01*
X214358964Y-74795227D01*
X214356757Y-74792791D01*
X214353733Y-74790264D01*
X214351643Y-74788414D01*
X214351177Y-74787977D01*
X214349922Y-74787063D01*
X214342234Y-74780596D01*
X214340197Y-74778619D01*
X214336754Y-74775986D01*
X214335455Y-74774900D01*
X214334338Y-74774152D01*
X214326768Y-74768407D01*
X214324478Y-74766347D01*
X214321063Y-74764005D01*
X214319180Y-74762648D01*
X214318644Y-74762242D01*
X214317426Y-74761519D01*
X214309201Y-74755902D01*
X214305509Y-74753380D01*
X214304387Y-74752501D01*
X214303710Y-74752085D01*
X214301789Y-74750843D01*
X214299130Y-74749035D01*
X214296512Y-74747684D01*
X214290872Y-74744237D01*
X214288513Y-74742550D01*
X214284652Y-74740436D01*
X214280945Y-74738189D01*
X214278342Y-74737007D01*
X214272446Y-74733803D01*
X214269896Y-74732162D01*
X214267037Y-74730791D01*
X214264821Y-74729659D01*
X214264311Y-74729382D01*
X214262952Y-74728834D01*
X214253056Y-74724092D01*
X214250505Y-74722634D01*
X214247570Y-74721401D01*
X214245432Y-74720442D01*
X214244584Y-74720037D01*
X214243174Y-74719561D01*
X214229597Y-74713890D01*
X214228236Y-74713210D01*
X214227715Y-74713025D01*
X214225138Y-74712025D01*
X214225034Y-74711981D01*
X214223671Y-74711577D01*
X214211630Y-74707257D01*
X214205727Y-74705139D01*
X214187597Y-74698428D01*
X214174612Y-74693621D01*
X214173249Y-74693018D01*
X214172687Y-74692844D01*
X214170553Y-74692128D01*
X214170044Y-74691944D01*
X214168627Y-74691607D01*
X214153887Y-74687143D01*
X214152619Y-74686662D01*
X214150618Y-74686151D01*
X214150617Y-74686150D01*
X214150531Y-74686128D01*
X214150450Y-74686104D01*
X214150448Y-74686104D01*
X214148435Y-74685507D01*
X214147077Y-74685267D01*
X214132490Y-74681630D01*
X214131184Y-74681217D01*
X214130484Y-74681077D01*
X214128320Y-74680593D01*
X214125130Y-74679804D01*
X214122247Y-74679450D01*
X214116215Y-74678261D01*
X214113672Y-74677541D01*
X214108282Y-74676694D01*
X214108212Y-74676683D01*
X214108112Y-74676664D01*
X214108111Y-74676664D01*
X214106452Y-74676348D01*
X214105186Y-74676239D01*
X214090070Y-74674029D01*
X214088849Y-74673775D01*
X214087091Y-74673591D01*
X214087089Y-74673590D01*
X214087003Y-74673581D01*
X214086916Y-74673569D01*
X214086914Y-74673569D01*
X214084738Y-74673269D01*
X214083402Y-74673235D01*
X214069118Y-74671860D01*
X214067815Y-74671649D01*
X214065827Y-74671544D01*
X214063904Y-74671373D01*
X214062618Y-74671394D01*
X214048011Y-74670710D01*
X214046642Y-74670558D01*
X214045849Y-74670558D01*
X214043624Y-74670508D01*
X214042887Y-74670474D01*
X214041519Y-74670563D01*
X214027018Y-74670593D01*
X214025802Y-74670517D01*
X214023746Y-74670600D01*
X214021761Y-74670619D01*
X214020489Y-74670765D01*
X214006133Y-74671493D01*
X214004856Y-74671476D01*
X214002948Y-74671652D01*
X214002861Y-74671660D01*
X214002775Y-74671665D01*
X214002774Y-74671665D01*
X214000871Y-74671775D01*
X213999600Y-74671984D01*
X213994122Y-74672529D01*
X213985251Y-74673410D01*
X213984065Y-74673456D01*
X213982161Y-74673718D01*
X213979893Y-74673964D01*
X213978632Y-74674242D01*
X213964936Y-74676274D01*
X213963633Y-74676382D01*
X213961738Y-74676745D01*
X213961737Y-74676745D01*
X213961643Y-74676763D01*
X213961566Y-74676775D01*
X213961564Y-74676775D01*
X213959948Y-74677027D01*
X213958766Y-74677332D01*
X213944382Y-74680178D01*
X213943146Y-74680347D01*
X213941379Y-74680774D01*
X213939834Y-74681090D01*
X213938679Y-74681444D01*
X213932279Y-74683032D01*
X213928647Y-74683934D01*
X213926196Y-74684352D01*
X213921465Y-74685713D01*
X213921385Y-74685736D01*
X213921296Y-74685759D01*
X213921295Y-74685759D01*
X213919556Y-74686208D01*
X213918433Y-74686619D01*
X213904775Y-74690711D01*
X213903517Y-74691003D01*
X213901677Y-74691638D01*
X213899990Y-74692157D01*
X213898861Y-74692630D01*
X213889433Y-74695953D01*
X213886920Y-74696632D01*
X213882328Y-74698458D01*
X213880508Y-74699114D01*
X213879371Y-74699661D01*
X213873614Y-74702004D01*
X213866322Y-74704971D01*
X213865049Y-74705398D01*
X213863339Y-74706186D01*
X213862106Y-74706691D01*
X213861027Y-74707257D01*
X213847499Y-74713531D01*
X213846457Y-74713941D01*
X213844751Y-74714806D01*
X213843242Y-74715530D01*
X213842323Y-74716075D01*
X213833234Y-74720831D01*
X213830693Y-74721929D01*
X213826596Y-74724304D01*
X213824607Y-74725360D01*
X213823500Y-74726118D01*
X213811891Y-74732919D01*
X213810777Y-74733476D01*
X213808931Y-74734653D01*
X213804614Y-74737255D01*
X213802692Y-74738723D01*
X213794665Y-74743959D01*
X213793473Y-74744627D01*
X213791783Y-74745838D01*
X213790406Y-74746744D01*
X213789402Y-74747560D01*
X213777868Y-74755902D01*
X213776710Y-74756630D01*
X213775154Y-74757866D01*
X213773718Y-74758911D01*
X213772734Y-74759801D01*
X213761728Y-74768604D01*
X213760795Y-74769255D01*
X213759127Y-74770686D01*
X213757296Y-74772183D01*
X213756401Y-74773094D01*
X213746408Y-74781918D01*
X213745270Y-74782787D01*
X213743688Y-74784321D01*
X213742268Y-74785582D01*
X213741346Y-74786603D01*
X213730978Y-74796704D01*
X213730063Y-74797500D01*
X213728914Y-74798718D01*
X213727380Y-74800229D01*
X213726516Y-74801297D01*
X213723849Y-74804165D01*
X213717223Y-74811292D01*
X213716199Y-74812250D01*
X213714858Y-74813831D01*
X213714857Y-74813832D01*
X213714801Y-74813898D01*
X213714742Y-74813962D01*
X213714741Y-74813963D01*
X213713460Y-74815352D01*
X213712648Y-74816456D01*
X213703257Y-74827620D01*
X213702446Y-74828482D01*
X213701415Y-74829811D01*
X213700393Y-74831051D01*
X213699731Y-74832027D01*
X213697800Y-74834573D01*
X213690860Y-74843712D01*
X213690003Y-74844695D01*
X213688820Y-74846395D01*
X213688819Y-74846397D01*
X213688771Y-74846466D01*
X213688718Y-74846537D01*
X213688717Y-74846539D01*
X213687704Y-74847895D01*
X213687057Y-74848975D01*
X213678764Y-74861120D01*
X213677961Y-74862147D01*
X213676914Y-74863829D01*
X213675663Y-74865692D01*
X213675037Y-74866899D01*
X213667507Y-74879223D01*
X213666763Y-74880289D01*
X213665868Y-74881906D01*
X213664712Y-74883841D01*
X213664171Y-74885027D01*
X213657162Y-74897926D01*
X213656453Y-74899061D01*
X213655718Y-74900579D01*
X213655717Y-74900581D01*
X213655686Y-74900645D01*
X213655638Y-74900734D01*
X213655637Y-74900736D01*
X213654728Y-74902422D01*
X213654196Y-74903754D01*
X213647616Y-74917486D01*
X213646923Y-74918746D01*
X213646892Y-74918823D01*
X213645814Y-74921258D01*
X213645473Y-74921975D01*
X213645004Y-74923360D01*
X213639069Y-74937568D01*
X213638492Y-74938763D01*
X213638389Y-74939049D01*
X213637541Y-74941234D01*
X213637397Y-74941580D01*
X213637013Y-74942874D01*
X213633222Y-74953443D01*
X213632646Y-74954723D01*
X213630556Y-74960877D01*
X213628408Y-74966987D01*
X213628103Y-74968206D01*
X210658824Y-83840925D01*
X210622427Y-83890107D01*
X210574353Y-83908059D01*
X210437404Y-83921136D01*
X210235743Y-83980349D01*
X210048943Y-84076651D01*
X210048940Y-84076653D01*
X209883736Y-84206571D01*
X209746103Y-84365408D01*
X209641020Y-84547417D01*
X209641017Y-84547424D01*
X209572280Y-84746026D01*
X209572278Y-84746032D01*
X209542369Y-84954057D01*
X209542369Y-84954064D01*
X209552369Y-85163994D01*
X209552370Y-85164001D01*
X209601918Y-85368237D01*
X209601923Y-85368250D01*
X209689225Y-85559415D01*
X209689227Y-85559418D01*
X209811134Y-85730613D01*
X209811136Y-85730615D01*
X209811137Y-85730616D01*
X209928824Y-85842830D01*
X209957891Y-85896669D01*
X209954388Y-85945897D01*
X208913250Y-89056999D01*
X208913218Y-89057082D01*
X208912643Y-89058811D01*
X208910665Y-89064831D01*
X208910418Y-89065880D01*
X208910329Y-89066163D01*
X208906835Y-89077264D01*
X208906443Y-89078325D01*
X208906096Y-89079603D01*
X208906096Y-89079605D01*
X208906077Y-89079675D01*
X208906048Y-89079770D01*
X208906048Y-89079771D01*
X208905431Y-89081791D01*
X208905179Y-89083142D01*
X208904000Y-89087691D01*
X208901531Y-89097221D01*
X208901121Y-89098451D01*
X208900667Y-89100542D01*
X208900667Y-89100544D01*
X208900649Y-89100627D01*
X208900628Y-89100712D01*
X208900203Y-89102430D01*
X208900028Y-89103654D01*
X208896916Y-89118826D01*
X208896612Y-89119975D01*
X208896341Y-89121629D01*
X208895966Y-89123540D01*
X208895851Y-89124841D01*
X208893585Y-89139694D01*
X208893302Y-89141022D01*
X208893129Y-89142687D01*
X208892881Y-89144353D01*
X208892825Y-89145681D01*
X208891327Y-89160498D01*
X208891111Y-89161804D01*
X208891006Y-89163630D01*
X208891006Y-89163633D01*
X208891001Y-89163720D01*
X208890993Y-89163805D01*
X208890993Y-89163806D01*
X208890819Y-89165650D01*
X208890836Y-89166957D01*
X208890103Y-89181463D01*
X208889959Y-89182725D01*
X208889938Y-89184723D01*
X208889858Y-89186780D01*
X208889935Y-89187992D01*
X208889924Y-89202146D01*
X208889824Y-89203590D01*
X207362909Y-89203590D01*
X207365180Y-89203163D01*
X207369453Y-89202738D01*
X207372705Y-89202668D01*
X207375688Y-89202204D01*
X207378692Y-89201829D01*
X207382139Y-89201505D01*
X207385318Y-89200764D01*
X207390126Y-89200050D01*
X207393307Y-89199824D01*
X207396208Y-89199231D01*
X207399216Y-89198712D01*
X207402797Y-89198207D01*
X207406013Y-89197283D01*
X207410740Y-89196347D01*
X207413879Y-89195962D01*
X207416466Y-89195301D01*
X207419480Y-89194629D01*
X207422513Y-89194051D01*
X207425597Y-89193023D01*
X207429912Y-89191952D01*
X207433169Y-89191425D01*
X207436516Y-89190398D01*
X207439472Y-89189590D01*
X207442524Y-89188856D01*
X207445550Y-89187683D01*
X207447846Y-89186995D01*
X207449748Y-89186424D01*
X207452922Y-89185752D01*
X207456344Y-89184527D01*
X207458992Y-89183661D01*
X207462946Y-89182490D01*
X207465891Y-89181154D01*
X207468455Y-89180251D01*
X207472017Y-89179347D01*
X207475380Y-89177926D01*
X207478695Y-89176663D01*
X207481866Y-89175582D01*
X207484970Y-89173999D01*
X207488268Y-89172657D01*
X207491390Y-89171680D01*
X207494726Y-89170111D01*
X207497340Y-89168972D01*
X207501207Y-89167416D01*
X207504061Y-89165773D01*
X207507822Y-89164029D01*
X207510939Y-89162857D01*
X207513032Y-89161731D01*
X207516241Y-89160150D01*
X207518475Y-89159147D01*
X207521330Y-89157366D01*
X207525387Y-89155244D01*
X207528630Y-89153876D01*
X207531251Y-89152295D01*
X207534296Y-89150602D01*
X207537303Y-89149064D01*
X207540121Y-89147074D01*
X207544164Y-89144706D01*
X207547155Y-89143232D01*
X207548919Y-89142048D01*
X207551973Y-89140153D01*
X207554196Y-89138882D01*
X207556841Y-89136853D01*
X207560170Y-89134681D01*
X207563357Y-89132982D01*
X207566148Y-89130910D01*
X207569088Y-89128888D01*
X207571459Y-89127379D01*
X207574059Y-89125162D01*
X207577978Y-89122328D01*
X207580712Y-89120652D01*
X207583037Y-89118768D01*
X207585393Y-89116973D01*
X207588638Y-89114648D01*
X207591054Y-89112344D01*
X207591900Y-89111668D01*
X207594516Y-89109574D01*
X207597282Y-89107675D01*
X207598872Y-89106235D01*
X207601688Y-89103867D01*
X207603312Y-89102601D01*
X207605637Y-89100230D01*
X207608826Y-89097412D01*
X207611819Y-89095218D01*
X207614350Y-89092688D01*
X207617093Y-89090145D01*
X207619429Y-89088137D01*
X207621799Y-89085395D01*
X207624611Y-89082656D01*
X207627098Y-89080599D01*
X207629515Y-89077982D01*
X207631477Y-89075974D01*
X207634763Y-89072795D01*
X207636839Y-89070094D01*
X207638295Y-89068528D01*
X207641061Y-89066051D01*
X207643395Y-89063208D01*
X207645816Y-89060470D01*
X207647972Y-89058206D01*
X207650046Y-89055267D01*
X207652819Y-89051970D01*
X207655135Y-89049621D01*
X207657030Y-89047095D01*
X207658933Y-89044714D01*
X207661672Y-89041493D01*
X207663513Y-89038541D01*
X207665061Y-89036502D01*
X207667468Y-89033869D01*
X207669677Y-89030579D01*
X207671585Y-89027930D01*
X207673371Y-89025615D01*
X207675035Y-89022711D01*
X207677539Y-89019043D01*
X207679765Y-89016322D01*
X207681604Y-89013258D01*
X207683376Y-89010515D01*
X207685465Y-89007501D01*
X207687027Y-89004360D01*
X207689264Y-89000700D01*
X207691241Y-88997983D01*
X207692741Y-88995183D01*
X207694332Y-88992429D01*
X207696358Y-88989167D01*
X207697762Y-88985922D01*
X207699524Y-88982680D01*
X207701589Y-88979559D01*
X207702889Y-88976745D01*
X207704587Y-88973404D01*
X207705933Y-88970985D01*
X207707192Y-88967700D01*
X207709180Y-88963549D01*
X207710736Y-88960923D01*
X207712514Y-88956720D01*
X207713497Y-88954544D01*
X207715303Y-88950788D01*
X207716308Y-88947652D01*
X207717321Y-88945227D01*
X207718229Y-88943051D01*
X207719902Y-88939812D01*
X207720741Y-88937365D01*
X207722122Y-88933790D01*
X207722585Y-88932146D01*
X207725394Y-88924314D01*
X207726609Y-88921767D01*
X207728431Y-88915988D01*
X207729225Y-88913671D01*
X207731284Y-88908111D01*
X207731895Y-88905309D01*
X211432284Y-77534912D01*
X211433083Y-77533154D01*
X211435763Y-77524224D01*
X211438788Y-77515033D01*
X211439135Y-77513086D01*
X211439415Y-77512161D01*
X211440823Y-77508706D01*
X211441733Y-77504875D01*
X211442669Y-77501478D01*
X211443564Y-77498626D01*
X211444129Y-77495188D01*
X211445545Y-77489512D01*
X211446604Y-77486329D01*
X211447103Y-77483670D01*
X211447830Y-77480401D01*
X211448725Y-77476936D01*
X211449104Y-77473437D01*
X211449670Y-77470567D01*
X211450670Y-77467260D01*
X211451394Y-77462195D01*
X211451860Y-77459479D01*
X211452427Y-77456642D01*
X211452650Y-77453583D01*
X211453467Y-77447996D01*
X211454258Y-77444602D01*
X211454541Y-77441334D01*
X211454947Y-77437978D01*
X211455393Y-77435107D01*
X211455451Y-77431722D01*
X211455969Y-77426337D01*
X211456528Y-77423164D01*
X211456663Y-77419957D01*
X211456878Y-77416971D01*
X211457198Y-77413853D01*
X211457095Y-77410596D01*
X211457338Y-77405421D01*
X211457769Y-77402052D01*
X211457734Y-77399080D01*
X211457810Y-77395678D01*
X211457962Y-77392996D01*
X211457699Y-77389661D01*
X211457689Y-77384685D01*
X211457946Y-77381515D01*
X211457743Y-77377704D01*
X211457673Y-77375063D01*
X211457673Y-77371776D01*
X211457285Y-77368732D01*
X211457021Y-77363525D01*
X211457115Y-77360337D01*
X211456759Y-77356897D01*
X211456549Y-77354095D01*
X211456395Y-77350799D01*
X211455837Y-77347680D01*
X211455339Y-77342671D01*
X211455278Y-77339606D01*
X211454745Y-77336051D01*
X211454433Y-77333527D01*
X211454050Y-77329617D01*
X211453336Y-77326570D01*
X211452784Y-77322846D01*
X211452594Y-77319743D01*
X211451745Y-77315452D01*
X211451338Y-77313098D01*
X211450767Y-77309249D01*
X211449939Y-77306325D01*
X211449927Y-77306267D01*
X211448948Y-77301319D01*
X211448574Y-77298251D01*
X211447851Y-77295387D01*
X211447232Y-77292606D01*
X211446611Y-77289376D01*
X211445599Y-77286342D01*
X211444667Y-77282588D01*
X211444129Y-77279154D01*
X211443024Y-77275585D01*
X211442156Y-77272412D01*
X211441413Y-77269294D01*
X211440179Y-77266137D01*
X211438920Y-77261935D01*
X211438261Y-77258868D01*
X211437096Y-77255598D01*
X211436247Y-77252988D01*
X211435467Y-77250345D01*
X211434260Y-77247565D01*
X211433151Y-77244418D01*
X211432363Y-77241182D01*
X211430302Y-77236145D01*
X211429399Y-77233766D01*
X211428290Y-77230603D01*
X211426949Y-77227909D01*
X211425321Y-77223909D01*
X211424436Y-77221060D01*
X211422608Y-77217090D01*
X211421608Y-77214765D01*
X211421459Y-77214393D01*
X211420762Y-77213103D01*
X211416720Y-77204389D01*
X211415724Y-77201724D01*
X211413468Y-77197376D01*
X211412635Y-77195596D01*
X211411926Y-77194430D01*
X211408158Y-77187229D01*
X211406893Y-77184170D01*
X211404699Y-77180457D01*
X211403320Y-77177962D01*
X211401713Y-77174846D01*
X211399839Y-77172173D01*
X211397835Y-77168753D01*
X211396536Y-77166043D01*
X211393622Y-77161560D01*
X211390859Y-77156863D01*
X211389011Y-77154492D01*
X211387159Y-77151653D01*
X211385591Y-77148725D01*
X211383288Y-77145576D01*
X211381641Y-77143178D01*
X211381422Y-77142838D01*
X211380455Y-77141671D01*
X211374931Y-77134035D01*
X211373264Y-77131316D01*
X211371346Y-77128944D01*
X211369553Y-77126586D01*
X211369265Y-77126183D01*
X211368214Y-77125040D01*
X211363968Y-77119732D01*
X211362901Y-77118398D01*
X211361280Y-77115975D01*
X211357640Y-77111815D01*
X211357640Y-77111814D01*
X211357591Y-77111758D01*
X211357529Y-77111681D01*
X211357527Y-77111680D01*
X211354528Y-77107955D01*
X211352455Y-77105943D01*
X211349744Y-77102874D01*
X211347746Y-77100171D01*
X211344985Y-77097366D01*
X211342973Y-77095196D01*
X211342620Y-77094791D01*
X211341450Y-77093748D01*
X211334839Y-77086964D01*
X211333018Y-77084790D01*
X211329549Y-77081534D01*
X211326088Y-77078015D01*
X211323855Y-77076240D01*
X211320690Y-77073298D01*
X211318478Y-77070857D01*
X211315446Y-77068323D01*
X211313356Y-77066473D01*
X211312900Y-77066046D01*
X211311649Y-77065135D01*
X211306677Y-77060953D01*
X211303942Y-77058652D01*
X211301910Y-77056680D01*
X211298466Y-77054046D01*
X211297166Y-77052960D01*
X211296046Y-77052209D01*
X211292061Y-77049184D01*
X211288750Y-77046671D01*
X211286466Y-77044602D01*
X211281801Y-77041394D01*
X211280499Y-77040412D01*
X211279353Y-77039723D01*
X211276626Y-77037861D01*
X211267219Y-77031438D01*
X211266097Y-77030558D01*
X211265423Y-77030144D01*
X211263502Y-77028902D01*
X211260843Y-77027094D01*
X211258225Y-77025743D01*
X211252585Y-77022296D01*
X211250226Y-77020609D01*
X211246365Y-77018495D01*
X211242657Y-77016248D01*
X211240051Y-77015064D01*
X211234279Y-77011927D01*
X211231655Y-77010233D01*
X211228839Y-77008890D01*
X211226452Y-77007671D01*
X211225907Y-77007373D01*
X211224483Y-77006806D01*
X211214764Y-77002149D01*
X211212214Y-77000692D01*
X211209283Y-76999460D01*
X211207145Y-76998501D01*
X211206297Y-76998096D01*
X211204887Y-76997620D01*
X211191310Y-76991949D01*
X211189949Y-76991269D01*
X211189428Y-76991084D01*
X211186851Y-76990084D01*
X211186744Y-76990039D01*
X211185382Y-76989635D01*
X211167439Y-76983197D01*
X211136327Y-76971681D01*
X211134967Y-76971080D01*
X211134400Y-76970904D01*
X211132266Y-76970188D01*
X211131757Y-76970004D01*
X211130340Y-76969667D01*
X211115600Y-76965203D01*
X211114332Y-76964722D01*
X211112331Y-76964211D01*
X211112330Y-76964210D01*
X211112244Y-76964188D01*
X211112163Y-76964164D01*
X211112161Y-76964164D01*
X211110143Y-76963566D01*
X211108787Y-76963326D01*
X211094208Y-76959691D01*
X211092905Y-76959278D01*
X211092196Y-76959137D01*
X211090032Y-76958653D01*
X211086836Y-76957863D01*
X211083950Y-76957508D01*
X211077977Y-76956330D01*
X211075531Y-76955635D01*
X211069995Y-76954753D01*
X211069994Y-76954753D01*
X211069925Y-76954742D01*
X211069824Y-76954723D01*
X211069822Y-76954723D01*
X211068118Y-76954402D01*
X211066872Y-76954295D01*
X211051787Y-76952090D01*
X211050569Y-76951836D01*
X211048804Y-76951651D01*
X211048802Y-76951651D01*
X211048716Y-76951642D01*
X211048629Y-76951630D01*
X211048627Y-76951630D01*
X211046443Y-76951329D01*
X211045114Y-76951295D01*
X211030826Y-76949920D01*
X211029512Y-76949708D01*
X211027547Y-76949605D01*
X211025642Y-76949434D01*
X211024347Y-76949454D01*
X211009728Y-76948770D01*
X211008358Y-76948618D01*
X211007562Y-76948618D01*
X211005337Y-76948568D01*
X211004607Y-76948535D01*
X211003228Y-76948624D01*
X210988727Y-76948652D01*
X210987511Y-76948576D01*
X210985458Y-76948659D01*
X210983473Y-76948678D01*
X210982201Y-76948824D01*
X210967847Y-76949552D01*
X210966569Y-76949535D01*
X210964661Y-76949711D01*
X210964574Y-76949719D01*
X210964488Y-76949724D01*
X210964487Y-76949724D01*
X210962584Y-76949834D01*
X210961314Y-76950043D01*
X210955675Y-76950604D01*
X210946965Y-76951469D01*
X210945777Y-76951515D01*
X210943873Y-76951777D01*
X210941607Y-76952023D01*
X210940345Y-76952301D01*
X210926644Y-76954333D01*
X210925350Y-76954440D01*
X210923451Y-76954804D01*
X210923450Y-76954804D01*
X210923356Y-76954822D01*
X210923279Y-76954834D01*
X210923277Y-76954834D01*
X210921650Y-76955088D01*
X210920478Y-76955390D01*
X210906022Y-76958252D01*
X210904782Y-76958424D01*
X210903091Y-76958833D01*
X210901124Y-76959236D01*
X210899897Y-76959626D01*
X210886584Y-76962930D01*
X210885188Y-76963174D01*
X210883177Y-76963773D01*
X210883176Y-76963773D01*
X210883092Y-76963798D01*
X210883008Y-76963819D01*
X210883007Y-76963819D01*
X210881048Y-76964309D01*
X210879724Y-76964806D01*
X210866466Y-76968777D01*
X210865212Y-76969069D01*
X210863400Y-76969696D01*
X210861744Y-76970202D01*
X210860588Y-76970686D01*
X210851204Y-76973993D01*
X210848815Y-76974637D01*
X210844115Y-76976489D01*
X210844114Y-76976489D01*
X210844048Y-76976515D01*
X210843951Y-76976550D01*
X210843950Y-76976550D01*
X210842077Y-76977226D01*
X210840936Y-76977779D01*
X210828040Y-76983028D01*
X210826929Y-76983400D01*
X210825055Y-76984243D01*
X210823106Y-76985056D01*
X210822001Y-76985659D01*
X210809211Y-76991589D01*
X210808173Y-76991998D01*
X210806464Y-76992864D01*
X210804973Y-76993580D01*
X210804052Y-76994126D01*
X210794944Y-76998891D01*
X210792407Y-76999987D01*
X210788308Y-77002363D01*
X210786319Y-77003419D01*
X210785212Y-77004177D01*
X210773603Y-77010978D01*
X210772489Y-77011535D01*
X210770643Y-77012712D01*
X210766326Y-77015314D01*
X210764404Y-77016782D01*
X210756377Y-77022018D01*
X210755185Y-77022686D01*
X210753495Y-77023897D01*
X210752114Y-77024805D01*
X210751116Y-77025617D01*
X210739310Y-77034156D01*
X210738218Y-77034853D01*
X210736874Y-77035921D01*
X210735425Y-77036976D01*
X210734446Y-77037861D01*
X210723447Y-77046660D01*
X210722502Y-77047319D01*
X210720840Y-77048745D01*
X210719009Y-77050242D01*
X210718112Y-77051155D01*
X210708125Y-77059974D01*
X210706987Y-77060844D01*
X210705401Y-77062381D01*
X210703982Y-77063642D01*
X210703060Y-77064662D01*
X210692808Y-77074651D01*
X210691919Y-77075420D01*
X210690618Y-77076786D01*
X210687233Y-77080170D01*
X210685707Y-77082068D01*
X210678931Y-77089354D01*
X210677916Y-77090304D01*
X210676571Y-77091889D01*
X210676570Y-77091890D01*
X210676514Y-77091956D01*
X210676455Y-77092020D01*
X210676454Y-77092021D01*
X210675174Y-77093410D01*
X210674359Y-77094517D01*
X210664976Y-77105672D01*
X210664161Y-77106538D01*
X210663128Y-77107870D01*
X210662097Y-77109121D01*
X210661441Y-77110090D01*
X210654937Y-77118659D01*
X210653175Y-77120658D01*
X210650474Y-77124538D01*
X210649543Y-77125792D01*
X210648939Y-77126786D01*
X210640113Y-77139711D01*
X210639400Y-77140648D01*
X210638629Y-77141887D01*
X210637376Y-77143753D01*
X210636751Y-77144958D01*
X210629216Y-77157288D01*
X210628475Y-77158349D01*
X210627581Y-77159965D01*
X210626425Y-77161900D01*
X210625884Y-77163086D01*
X210618875Y-77175985D01*
X210618166Y-77177120D01*
X210617431Y-77178638D01*
X210617430Y-77178640D01*
X210617399Y-77178704D01*
X210617351Y-77178793D01*
X210617350Y-77178795D01*
X210616441Y-77180481D01*
X210615909Y-77181813D01*
X210609329Y-77195545D01*
X210608636Y-77196805D01*
X210608605Y-77196882D01*
X210607527Y-77199317D01*
X210607187Y-77200030D01*
X210606719Y-77201415D01*
X210600778Y-77215636D01*
X210600202Y-77216829D01*
X210600101Y-77217109D01*
X210599253Y-77219294D01*
X210599108Y-77219641D01*
X210598722Y-77220944D01*
X210593238Y-77236230D01*
X210592913Y-77236999D01*
X210592273Y-77238921D01*
X210590433Y-77244151D01*
X210590003Y-77245894D01*
X206887756Y-88621999D01*
X206887284Y-88623138D01*
X206885312Y-88629511D01*
X206884415Y-88632318D01*
X206884274Y-88632940D01*
X206879969Y-88647168D01*
X206879507Y-88648382D01*
X206878940Y-88650568D01*
X206878302Y-88652752D01*
X206878072Y-88654064D01*
X206874438Y-88668695D01*
X206874044Y-88669951D01*
X206873705Y-88671627D01*
X206873705Y-88671629D01*
X206873686Y-88671723D01*
X206873668Y-88671798D01*
X206873668Y-88671799D01*
X206873256Y-88673515D01*
X206873088Y-88674774D01*
X206870107Y-88689993D01*
X206869796Y-88691210D01*
X206869557Y-88692788D01*
X206869557Y-88692790D01*
X206869544Y-88692876D01*
X206869528Y-88692961D01*
X206869528Y-88692962D01*
X206869159Y-88694923D01*
X206869057Y-88696251D01*
X206866937Y-88710949D01*
X206866659Y-88712294D01*
X206866492Y-88714043D01*
X206866238Y-88715863D01*
X206866196Y-88717193D01*
X206864820Y-88731880D01*
X206864604Y-88733238D01*
X206864517Y-88735074D01*
X206864517Y-88735075D01*
X206864513Y-88735159D01*
X206864505Y-88735248D01*
X206864352Y-88736949D01*
X206864375Y-88738291D01*
X206863747Y-88752624D01*
X206863589Y-88754008D01*
X206863589Y-88756224D01*
X206863409Y-88761059D01*
X205821411Y-88761059D01*
X205650200Y-88660157D01*
X205650197Y-88660155D01*
X205270167Y-88530042D01*
X205270165Y-88530042D01*
X205043422Y-89192301D01*
X204570380Y-89030342D01*
X204797122Y-88368082D01*
X204465313Y-88254479D01*
X204465310Y-88254478D01*
X204316880Y-88219955D01*
X204113570Y-88214698D01*
X204113561Y-88214699D01*
X203913358Y-88250477D01*
X203724449Y-88325824D01*
X203724448Y-88325825D01*
X203554579Y-88437655D01*
X203554573Y-88437659D01*
X203410693Y-88581394D01*
X203335082Y-88695991D01*
X203287253Y-88734149D01*
X203226130Y-88736907D01*
X203182444Y-88711473D01*
X202823565Y-88352594D01*
X202815479Y-88341344D01*
X202814487Y-88342094D01*
X202808958Y-88334772D01*
X202773428Y-88302382D01*
X202771775Y-88300804D01*
X202757797Y-88286826D01*
X202757363Y-88286529D01*
X202754859Y-88284813D01*
X202749496Y-88280564D01*
X202725933Y-88259084D01*
X202716762Y-88255531D01*
X202696586Y-88244895D01*
X202688484Y-88239345D01*
X202688479Y-88239343D01*
X202657457Y-88232046D01*
X202650902Y-88230016D01*
X202621177Y-88218501D01*
X202621174Y-88218500D01*
X202621173Y-88218500D01*
X202621172Y-88218500D01*
X202611348Y-88218500D01*
X202588683Y-88215870D01*
X202579119Y-88213621D01*
X202579118Y-88213621D01*
X202547547Y-88218025D01*
X202540701Y-88218500D01*
X201868165Y-88218500D01*
X201854489Y-88216267D01*
X201854318Y-88217494D01*
X201845234Y-88216226D01*
X201804887Y-88218092D01*
X201797207Y-88218447D01*
X201794931Y-88218500D01*
X201775153Y-88218500D01*
X201771658Y-88219153D01*
X201764845Y-88219943D01*
X201733010Y-88221414D01*
X201733006Y-88221415D01*
X201724015Y-88225385D01*
X201702227Y-88232132D01*
X201692570Y-88233937D01*
X201692564Y-88233939D01*
X201665466Y-88250717D01*
X201659399Y-88253915D01*
X201630237Y-88266792D01*
X201630233Y-88266795D01*
X201623284Y-88273744D01*
X201605409Y-88287903D01*
X201597048Y-88293080D01*
X201577836Y-88318519D01*
X201573332Y-88323695D01*
X201164526Y-88732503D01*
X201110009Y-88760281D01*
X201094522Y-88761500D01*
X194591525Y-88761500D01*
X194533334Y-88742593D01*
X194497370Y-88693093D01*
X194497370Y-88631907D01*
X194501472Y-88621374D01*
X194541165Y-88534458D01*
X194541165Y-88534456D01*
X194546985Y-88493981D01*
X194555511Y-88434678D01*
X194561647Y-88392002D01*
X194561647Y-88391997D01*
X194541165Y-88249543D01*
X194526771Y-88218025D01*
X194481377Y-88118627D01*
X194387128Y-88009857D01*
X194387127Y-88009856D01*
X194387126Y-88009855D01*
X194266057Y-87932049D01*
X194266054Y-87932047D01*
X194266053Y-87932047D01*
X194266050Y-87932046D01*
X194127964Y-87891500D01*
X194127961Y-87891500D01*
X193984039Y-87891500D01*
X193984035Y-87891500D01*
X193845949Y-87932046D01*
X193845942Y-87932049D01*
X193724873Y-88009855D01*
X193630622Y-88118628D01*
X193570834Y-88249543D01*
X193550353Y-88391997D01*
X193550353Y-88392002D01*
X193570834Y-88534456D01*
X193570834Y-88534458D01*
X193610528Y-88621374D01*
X193617503Y-88682160D01*
X193587417Y-88735437D01*
X193531760Y-88760855D01*
X193520475Y-88761500D01*
X193136738Y-88761500D01*
X193123059Y-88759267D01*
X193122889Y-88760493D01*
X193113805Y-88759225D01*
X193072551Y-88761133D01*
X193065766Y-88761447D01*
X193063487Y-88761500D01*
X193043726Y-88761500D01*
X193043721Y-88761500D01*
X193043719Y-88761501D01*
X193040221Y-88762154D01*
X193033420Y-88762942D01*
X193001578Y-88764415D01*
X192992584Y-88768386D01*
X192970798Y-88775132D01*
X192961142Y-88776937D01*
X192961135Y-88776940D01*
X192934035Y-88793718D01*
X192927966Y-88796917D01*
X192898808Y-88809792D01*
X192898801Y-88809796D01*
X192891856Y-88816742D01*
X192873976Y-88830905D01*
X192865618Y-88836080D01*
X192846409Y-88861515D01*
X192841905Y-88866692D01*
X188117566Y-93591033D01*
X188063049Y-93618810D01*
X188047562Y-93620029D01*
X169610537Y-93620029D01*
X169552346Y-93601122D01*
X169540533Y-93591033D01*
X167713504Y-91764003D01*
X167685727Y-91709486D01*
X167695298Y-91649054D01*
X167713501Y-91623998D01*
X168998486Y-90339013D01*
X169053001Y-90311238D01*
X169113433Y-90320809D01*
X169156698Y-90364074D01*
X169165458Y-90416919D01*
X169166353Y-90416919D01*
X169166353Y-90422319D01*
X169166482Y-90423098D01*
X169166353Y-90423995D01*
X169166353Y-90424002D01*
X169186834Y-90566456D01*
X169246622Y-90697371D01*
X169246623Y-90697373D01*
X169320162Y-90782242D01*
X169340873Y-90806144D01*
X169395742Y-90841406D01*
X169434473Y-90888772D01*
X169437967Y-90949857D01*
X169417039Y-90989520D01*
X169373623Y-91039626D01*
X169313834Y-91170543D01*
X169293353Y-91312997D01*
X169293353Y-91313002D01*
X169313834Y-91455456D01*
X169372789Y-91584546D01*
X169373623Y-91586373D01*
X169425249Y-91645953D01*
X169465728Y-91692669D01*
X169489545Y-91749029D01*
X169475686Y-91808624D01*
X169465728Y-91822331D01*
X169373622Y-91928628D01*
X169313834Y-92059543D01*
X169293353Y-92201997D01*
X169293353Y-92202002D01*
X169313834Y-92344456D01*
X169365296Y-92457140D01*
X169373623Y-92475373D01*
X169465891Y-92581857D01*
X169467873Y-92584144D01*
X169588942Y-92661950D01*
X169588947Y-92661953D01*
X169681552Y-92689144D01*
X169727035Y-92702499D01*
X169727036Y-92702499D01*
X169727039Y-92702500D01*
X169727041Y-92702500D01*
X169870959Y-92702500D01*
X169870961Y-92702500D01*
X170009053Y-92661953D01*
X170130128Y-92584143D01*
X170224377Y-92475373D01*
X170284165Y-92344457D01*
X170295517Y-92265499D01*
X170304647Y-92202002D01*
X170304647Y-92202000D01*
X170304455Y-92200668D01*
X170301558Y-92180517D01*
X170311990Y-92120228D01*
X170329543Y-92096426D01*
X170565405Y-91860564D01*
X170576664Y-91852493D01*
X170575905Y-91851487D01*
X170583221Y-91845961D01*
X170583228Y-91845958D01*
X170615632Y-91810411D01*
X170617186Y-91808783D01*
X170631174Y-91794797D01*
X170633181Y-91791865D01*
X170637440Y-91786490D01*
X170640178Y-91783487D01*
X170658916Y-91762933D01*
X170662465Y-91753770D01*
X170673106Y-91733582D01*
X170678656Y-91725481D01*
X170685955Y-91694443D01*
X170687977Y-91687914D01*
X170699500Y-91658173D01*
X170699500Y-91648347D01*
X170702129Y-91625683D01*
X170704379Y-91616119D01*
X170700230Y-91586373D01*
X170699975Y-91584546D01*
X170699500Y-91577699D01*
X170699500Y-90327168D01*
X170701731Y-90313495D01*
X170700505Y-90313324D01*
X170701773Y-90304232D01*
X170699553Y-90256215D01*
X170699500Y-90253928D01*
X170699500Y-90234160D01*
X170699500Y-90234156D01*
X170698846Y-90230664D01*
X170698056Y-90223859D01*
X170696585Y-90192008D01*
X170692614Y-90183016D01*
X170685865Y-90161220D01*
X170684061Y-90151567D01*
X170684060Y-90151566D01*
X170683885Y-90150626D01*
X170691783Y-90089952D01*
X170733835Y-90045508D01*
X170753310Y-90037452D01*
X170759958Y-90035500D01*
X170759961Y-90035500D01*
X170898053Y-89994953D01*
X171019128Y-89917143D01*
X171113377Y-89808373D01*
X171173165Y-89677457D01*
X171182372Y-89613419D01*
X171193647Y-89535002D01*
X171193647Y-89534997D01*
X171172158Y-89385534D01*
X171175024Y-89385121D01*
X171176418Y-89336494D01*
X171213783Y-89288044D01*
X171272491Y-89270810D01*
X171330117Y-89291375D01*
X171339656Y-89299759D01*
X172051774Y-90011877D01*
X173905592Y-91865696D01*
X173909294Y-91869838D01*
X173929117Y-91894696D01*
X173934121Y-91900970D01*
X173983271Y-91934480D01*
X174031118Y-91969793D01*
X174031120Y-91969793D01*
X174037677Y-91973259D01*
X174037469Y-91973651D01*
X174039450Y-91974651D01*
X174039643Y-91974253D01*
X174046324Y-91977470D01*
X174046327Y-91977472D01*
X174103176Y-91995007D01*
X174103177Y-91995007D01*
X174159300Y-92014646D01*
X174166593Y-92016026D01*
X174166510Y-92016460D01*
X174168697Y-92016831D01*
X174168763Y-92016394D01*
X174176096Y-92017499D01*
X174176098Y-92017500D01*
X174176100Y-92017500D01*
X174235559Y-92017500D01*
X174295010Y-92019725D01*
X174295016Y-92019723D01*
X174302384Y-92018894D01*
X174302433Y-92019332D01*
X174316347Y-92017500D01*
X174626712Y-92017500D01*
X174662083Y-92025195D01*
X174662153Y-92024958D01*
X174665468Y-92025931D01*
X174667838Y-92026447D01*
X174668943Y-92026951D01*
X174668944Y-92026951D01*
X174668947Y-92026953D01*
X174774041Y-92057811D01*
X174807035Y-92067499D01*
X174807036Y-92067499D01*
X174807039Y-92067500D01*
X174807041Y-92067500D01*
X174950959Y-92067500D01*
X174950961Y-92067500D01*
X175089053Y-92026953D01*
X175210128Y-91949143D01*
X175304377Y-91840373D01*
X175364165Y-91709457D01*
X175374045Y-91640738D01*
X175384647Y-91567002D01*
X175384647Y-91566997D01*
X175364165Y-91424543D01*
X175362377Y-91420627D01*
X175304377Y-91293627D01*
X175210128Y-91184857D01*
X175210127Y-91184856D01*
X175210126Y-91184855D01*
X175089057Y-91107049D01*
X175089054Y-91107047D01*
X175089053Y-91107047D01*
X175089050Y-91107046D01*
X174950964Y-91066500D01*
X174950961Y-91066500D01*
X174807039Y-91066500D01*
X174807035Y-91066500D01*
X174668943Y-91107048D01*
X174667838Y-91107553D01*
X174665468Y-91108068D01*
X174662153Y-91109042D01*
X174662083Y-91108804D01*
X174626712Y-91116500D01*
X174471611Y-91116500D01*
X174413420Y-91097593D01*
X174401607Y-91087504D01*
X170309105Y-86995002D01*
X195836353Y-86995002D01*
X195856834Y-87137456D01*
X195914834Y-87264456D01*
X195916623Y-87268373D01*
X196007690Y-87373471D01*
X196010873Y-87377144D01*
X196104704Y-87437445D01*
X196131947Y-87454953D01*
X196238403Y-87486211D01*
X196270035Y-87495499D01*
X196270036Y-87495499D01*
X196270039Y-87495500D01*
X196270041Y-87495500D01*
X196376439Y-87495500D01*
X196434630Y-87514407D01*
X196470594Y-87563907D01*
X196474431Y-87608589D01*
X196471353Y-87629997D01*
X196471353Y-87630002D01*
X196491834Y-87772456D01*
X196542891Y-87884253D01*
X196551623Y-87903373D01*
X196643891Y-88009857D01*
X196645873Y-88012144D01*
X196766942Y-88089950D01*
X196766947Y-88089953D01*
X196864603Y-88118627D01*
X196905035Y-88130499D01*
X196905036Y-88130499D01*
X196905039Y-88130500D01*
X196905041Y-88130500D01*
X197048959Y-88130500D01*
X197048961Y-88130500D01*
X197187053Y-88089953D01*
X197308128Y-88012143D01*
X197402377Y-87903373D01*
X197462165Y-87772457D01*
X197481145Y-87640449D01*
X197482647Y-87630002D01*
X197482647Y-87629997D01*
X197462165Y-87487543D01*
X197439286Y-87437445D01*
X197402377Y-87356627D01*
X197308128Y-87247857D01*
X197308127Y-87247856D01*
X197308126Y-87247855D01*
X197187057Y-87170049D01*
X197187054Y-87170047D01*
X197187053Y-87170047D01*
X197187050Y-87170046D01*
X197048964Y-87129500D01*
X197048961Y-87129500D01*
X196942561Y-87129500D01*
X196884370Y-87110593D01*
X196848406Y-87061093D01*
X196844569Y-87016411D01*
X196847647Y-86995002D01*
X196847647Y-86994997D01*
X196829388Y-86868002D01*
X202059353Y-86868002D01*
X202079834Y-87010456D01*
X202134201Y-87129500D01*
X202139623Y-87141373D01*
X202231891Y-87247857D01*
X202233873Y-87250144D01*
X202349250Y-87324292D01*
X202354947Y-87327953D01*
X202451448Y-87356288D01*
X202493035Y-87368499D01*
X202493036Y-87368499D01*
X202493039Y-87368500D01*
X202493041Y-87368500D01*
X202636959Y-87368500D01*
X202636961Y-87368500D01*
X202775053Y-87327953D01*
X202896128Y-87250143D01*
X202990377Y-87141373D01*
X203050165Y-87010457D01*
X203066087Y-86899717D01*
X203070647Y-86868002D01*
X203070647Y-86867997D01*
X203050165Y-86725543D01*
X203021167Y-86662047D01*
X202990377Y-86594627D01*
X202896128Y-86485857D01*
X202896127Y-86485856D01*
X202896126Y-86485855D01*
X202775057Y-86408049D01*
X202775054Y-86408047D01*
X202775053Y-86408047D01*
X202775050Y-86408046D01*
X202636964Y-86367500D01*
X202636961Y-86367500D01*
X202493039Y-86367500D01*
X202493035Y-86367500D01*
X202354949Y-86408046D01*
X202354942Y-86408049D01*
X202233873Y-86485855D01*
X202139622Y-86594628D01*
X202079834Y-86725543D01*
X202059353Y-86867997D01*
X202059353Y-86868002D01*
X196829388Y-86868002D01*
X196827165Y-86852543D01*
X196810695Y-86816479D01*
X196767377Y-86721627D01*
X196673128Y-86612857D01*
X196673127Y-86612856D01*
X196673126Y-86612855D01*
X196552057Y-86535049D01*
X196552054Y-86535047D01*
X196552053Y-86535047D01*
X196552050Y-86535046D01*
X196413964Y-86494500D01*
X196413961Y-86494500D01*
X196270039Y-86494500D01*
X196270035Y-86494500D01*
X196131949Y-86535046D01*
X196131942Y-86535049D01*
X196010873Y-86612855D01*
X195916622Y-86721628D01*
X195856834Y-86852543D01*
X195836353Y-86994997D01*
X195836353Y-86995002D01*
X170309105Y-86995002D01*
X169780822Y-86466719D01*
X169760776Y-86437846D01*
X169716377Y-86340627D01*
X169622128Y-86231857D01*
X169622127Y-86231856D01*
X169622126Y-86231855D01*
X169501057Y-86154049D01*
X169501054Y-86154047D01*
X169501053Y-86154047D01*
X169501050Y-86154046D01*
X169362957Y-86113498D01*
X169356059Y-86112507D01*
X169301151Y-86085511D01*
X169272598Y-86031396D01*
X169281306Y-85970834D01*
X169300145Y-85944511D01*
X169714162Y-85530496D01*
X169768678Y-85502719D01*
X169784165Y-85501500D01*
X171331520Y-85501500D01*
X171345195Y-85503732D01*
X171345367Y-85502506D01*
X171354448Y-85503772D01*
X171354449Y-85503773D01*
X171354449Y-85503772D01*
X171354450Y-85503773D01*
X171363191Y-85503368D01*
X171402477Y-85501552D01*
X171404754Y-85501500D01*
X171424526Y-85501500D01*
X171424529Y-85501500D01*
X171428022Y-85500846D01*
X171434826Y-85500056D01*
X171466676Y-85498585D01*
X171475661Y-85494617D01*
X171497460Y-85487866D01*
X171507118Y-85486061D01*
X171534227Y-85469274D01*
X171540283Y-85466083D01*
X171569450Y-85453206D01*
X171576397Y-85446258D01*
X171594281Y-85432092D01*
X171602637Y-85426919D01*
X171621847Y-85401479D01*
X171626344Y-85396310D01*
X171730162Y-85292494D01*
X171784678Y-85264719D01*
X171800164Y-85263500D01*
X174073491Y-85263500D01*
X174131682Y-85282407D01*
X174167646Y-85331907D01*
X174167646Y-85393093D01*
X174163544Y-85403626D01*
X174139834Y-85455541D01*
X174139834Y-85455543D01*
X174119353Y-85597997D01*
X174119353Y-85598002D01*
X174139834Y-85740456D01*
X174191298Y-85853144D01*
X174199623Y-85871373D01*
X174267052Y-85949191D01*
X174293873Y-85980144D01*
X174373388Y-86031245D01*
X174414947Y-86057953D01*
X174508802Y-86085511D01*
X174553035Y-86098499D01*
X174553036Y-86098499D01*
X174553039Y-86098500D01*
X174553041Y-86098500D01*
X174696959Y-86098500D01*
X174696961Y-86098500D01*
X174835053Y-86057953D01*
X174956128Y-85980143D01*
X175050377Y-85871373D01*
X175110165Y-85740457D01*
X175119296Y-85676950D01*
X175130647Y-85598002D01*
X175130647Y-85597997D01*
X175111680Y-85466078D01*
X175110165Y-85455543D01*
X175076802Y-85382490D01*
X175069828Y-85321706D01*
X175099914Y-85268428D01*
X175131098Y-85249048D01*
X175133643Y-85248061D01*
X175133648Y-85248061D01*
X175160758Y-85231274D01*
X175166804Y-85228088D01*
X175195980Y-85215206D01*
X175202924Y-85208260D01*
X175220816Y-85194089D01*
X175229167Y-85188919D01*
X175248380Y-85163474D01*
X175252877Y-85158308D01*
X175576330Y-84834855D01*
X175934405Y-84476779D01*
X175945664Y-84468708D01*
X175944905Y-84467702D01*
X175952221Y-84462176D01*
X175952228Y-84462173D01*
X175984632Y-84426626D01*
X175986186Y-84424998D01*
X176000174Y-84411012D01*
X176002181Y-84408080D01*
X176006440Y-84402705D01*
X176027916Y-84379148D01*
X176031465Y-84369985D01*
X176042106Y-84349797D01*
X176047656Y-84341696D01*
X176054955Y-84310658D01*
X176056977Y-84304129D01*
X176068500Y-84274388D01*
X176068500Y-84264563D01*
X176071129Y-84241898D01*
X176073379Y-84232334D01*
X176069453Y-84204187D01*
X176068975Y-84200761D01*
X176068500Y-84193914D01*
X176068500Y-82931002D01*
X197106353Y-82931002D01*
X197126834Y-83073456D01*
X197177776Y-83185002D01*
X197186623Y-83204373D01*
X197263095Y-83292627D01*
X197280873Y-83313144D01*
X197401942Y-83390950D01*
X197401947Y-83390953D01*
X197508403Y-83422211D01*
X197540035Y-83431499D01*
X197540036Y-83431499D01*
X197540039Y-83431500D01*
X197540041Y-83431500D01*
X197683959Y-83431500D01*
X197683961Y-83431500D01*
X197822053Y-83390953D01*
X197943128Y-83313143D01*
X198037377Y-83204373D01*
X198097165Y-83073457D01*
X198105390Y-83016249D01*
X198117647Y-82931002D01*
X198117647Y-82930997D01*
X198097165Y-82788543D01*
X198085425Y-82762836D01*
X198055908Y-82698204D01*
X202915824Y-82698204D01*
X202925824Y-82908134D01*
X202925825Y-82908141D01*
X202975373Y-83112377D01*
X202975378Y-83112390D01*
X203062680Y-83303555D01*
X203062682Y-83303558D01*
X203184589Y-83474753D01*
X203184591Y-83474755D01*
X203184592Y-83474756D01*
X203336700Y-83619790D01*
X203513506Y-83733417D01*
X203708621Y-83811529D01*
X203914993Y-83851304D01*
X203914996Y-83851304D01*
X204072503Y-83851304D01*
X204229296Y-83836332D01*
X204430953Y-83777120D01*
X204438311Y-83773327D01*
X204506157Y-83738350D01*
X204617760Y-83680815D01*
X204782964Y-83550896D01*
X204920597Y-83392060D01*
X205025682Y-83210048D01*
X205094422Y-83011437D01*
X205124332Y-82803406D01*
X205114332Y-82593474D01*
X205064782Y-82389228D01*
X205058261Y-82374950D01*
X204977475Y-82198052D01*
X204977473Y-82198049D01*
X204855566Y-82026854D01*
X204836435Y-82008613D01*
X204703456Y-81881818D01*
X204526650Y-81768191D01*
X204526647Y-81768190D01*
X204526646Y-81768189D01*
X204443318Y-81734830D01*
X204331535Y-81690079D01*
X204125163Y-81650304D01*
X203967653Y-81650304D01*
X203810859Y-81665276D01*
X203609198Y-81724489D01*
X203422398Y-81820791D01*
X203422395Y-81820793D01*
X203257191Y-81950711D01*
X203119558Y-82109548D01*
X203014475Y-82291557D01*
X203014472Y-82291564D01*
X202945735Y-82490166D01*
X202945733Y-82490172D01*
X202915824Y-82698197D01*
X202915824Y-82698204D01*
X198055908Y-82698204D01*
X198037377Y-82657627D01*
X197943128Y-82548857D01*
X197943127Y-82548856D01*
X197943126Y-82548855D01*
X197822057Y-82471049D01*
X197822054Y-82471047D01*
X197822053Y-82471047D01*
X197822050Y-82471046D01*
X197683964Y-82430500D01*
X197683961Y-82430500D01*
X197540039Y-82430500D01*
X197540035Y-82430500D01*
X197401949Y-82471046D01*
X197401942Y-82471049D01*
X197280873Y-82548855D01*
X197186622Y-82657628D01*
X197126834Y-82788543D01*
X197106353Y-82930997D01*
X197106353Y-82931002D01*
X176068500Y-82931002D01*
X176068500Y-82169002D01*
X186311353Y-82169002D01*
X186331834Y-82311456D01*
X186364939Y-82383944D01*
X186391623Y-82442373D01*
X186483891Y-82548857D01*
X186485873Y-82551144D01*
X186564321Y-82601559D01*
X186606947Y-82628953D01*
X186704603Y-82657627D01*
X186745035Y-82669499D01*
X186745036Y-82669499D01*
X186745039Y-82669500D01*
X186745041Y-82669500D01*
X186888959Y-82669500D01*
X186888961Y-82669500D01*
X187027053Y-82628953D01*
X187148128Y-82551143D01*
X187242377Y-82442373D01*
X187302165Y-82311457D01*
X187314046Y-82228820D01*
X187322647Y-82169002D01*
X187322647Y-82168997D01*
X187302165Y-82026543D01*
X187299775Y-82021309D01*
X187242377Y-81895627D01*
X187179775Y-81823380D01*
X187150272Y-81789331D01*
X187149710Y-81788002D01*
X187708353Y-81788002D01*
X187728834Y-81930456D01*
X187780298Y-82043144D01*
X187788623Y-82061373D01*
X187880891Y-82167857D01*
X187882873Y-82170144D01*
X188003942Y-82247950D01*
X188003947Y-82247953D01*
X188101603Y-82276627D01*
X188142035Y-82288499D01*
X188142036Y-82288499D01*
X188142039Y-82288500D01*
X188142041Y-82288500D01*
X188285959Y-82288500D01*
X188285961Y-82288500D01*
X188424053Y-82247953D01*
X188545128Y-82170143D01*
X188639377Y-82061373D01*
X188699165Y-81930457D01*
X188701387Y-81915002D01*
X195328353Y-81915002D01*
X195348834Y-82057456D01*
X195400298Y-82170144D01*
X195408623Y-82188373D01*
X195499807Y-82293606D01*
X195502873Y-82297144D01*
X195611063Y-82366673D01*
X195623947Y-82374953D01*
X195724644Y-82404520D01*
X195762035Y-82415499D01*
X195762036Y-82415499D01*
X195762039Y-82415500D01*
X195762041Y-82415500D01*
X195905959Y-82415500D01*
X195905961Y-82415500D01*
X196044053Y-82374953D01*
X196165128Y-82297143D01*
X196259377Y-82188373D01*
X196319165Y-82057457D01*
X196329533Y-81985345D01*
X196339647Y-81915002D01*
X196339647Y-81914997D01*
X196319165Y-81772543D01*
X196304466Y-81740357D01*
X196259377Y-81641627D01*
X196165128Y-81532857D01*
X196165127Y-81532856D01*
X196165126Y-81532855D01*
X196044057Y-81455049D01*
X196044054Y-81455047D01*
X196044053Y-81455047D01*
X196034405Y-81452214D01*
X195905964Y-81414500D01*
X195905961Y-81414500D01*
X195762039Y-81414500D01*
X195762035Y-81414500D01*
X195623949Y-81455046D01*
X195623942Y-81455049D01*
X195502873Y-81532855D01*
X195408622Y-81641628D01*
X195348834Y-81772543D01*
X195328353Y-81914997D01*
X195328353Y-81915002D01*
X188701387Y-81915002D01*
X188706158Y-81881818D01*
X188719647Y-81788002D01*
X188719647Y-81787997D01*
X188699165Y-81645543D01*
X188657071Y-81553371D01*
X188639377Y-81514627D01*
X188545128Y-81405857D01*
X188545127Y-81405856D01*
X188545126Y-81405855D01*
X188424057Y-81328049D01*
X188424054Y-81328047D01*
X188424053Y-81328047D01*
X188416295Y-81325769D01*
X188285964Y-81287500D01*
X188285961Y-81287500D01*
X188142039Y-81287500D01*
X188142035Y-81287500D01*
X188003949Y-81328046D01*
X188003942Y-81328049D01*
X187882873Y-81405855D01*
X187788622Y-81514628D01*
X187728834Y-81645543D01*
X187708353Y-81787997D01*
X187708353Y-81788002D01*
X187149710Y-81788002D01*
X187126454Y-81732972D01*
X187140313Y-81673376D01*
X187150272Y-81659669D01*
X187200228Y-81602016D01*
X187242377Y-81553373D01*
X187302165Y-81422457D01*
X187315739Y-81328046D01*
X187322647Y-81280002D01*
X187322647Y-81279997D01*
X187302165Y-81137543D01*
X187273167Y-81074047D01*
X187242377Y-81006627D01*
X187148128Y-80897857D01*
X187148127Y-80897856D01*
X187148126Y-80897855D01*
X187027057Y-80820049D01*
X187027054Y-80820047D01*
X187027053Y-80820047D01*
X187027050Y-80820046D01*
X186888964Y-80779500D01*
X186888961Y-80779500D01*
X186745039Y-80779500D01*
X186745035Y-80779500D01*
X186606949Y-80820046D01*
X186606942Y-80820049D01*
X186485873Y-80897855D01*
X186391622Y-81006628D01*
X186331834Y-81137543D01*
X186311353Y-81279997D01*
X186311353Y-81280002D01*
X186331834Y-81422456D01*
X186388811Y-81547215D01*
X186391623Y-81553373D01*
X186433772Y-81602016D01*
X186483728Y-81659669D01*
X186507545Y-81716029D01*
X186493686Y-81775624D01*
X186483728Y-81789331D01*
X186391622Y-81895628D01*
X186331834Y-82026543D01*
X186311353Y-82168997D01*
X186311353Y-82169002D01*
X176068500Y-82169002D01*
X176068500Y-80583169D01*
X176070731Y-80569496D01*
X176069505Y-80569325D01*
X176070773Y-80560233D01*
X176068553Y-80512216D01*
X176068500Y-80509929D01*
X176068500Y-80490161D01*
X176068500Y-80490157D01*
X176067846Y-80486665D01*
X176067056Y-80479860D01*
X176065585Y-80448009D01*
X176061614Y-80439017D01*
X176054864Y-80417215D01*
X176053061Y-80407569D01*
X176053061Y-80407568D01*
X176036276Y-80380459D01*
X176033088Y-80374411D01*
X176020206Y-80345235D01*
X176020205Y-80345234D01*
X176020204Y-80345232D01*
X176013254Y-80338282D01*
X175999088Y-80320396D01*
X175993921Y-80312051D01*
X175993919Y-80312049D01*
X175968487Y-80292843D01*
X175963310Y-80288338D01*
X173756565Y-78081594D01*
X173748479Y-78070344D01*
X173747487Y-78071094D01*
X173741958Y-78063772D01*
X173706428Y-78031382D01*
X173704775Y-78029804D01*
X173690797Y-78015826D01*
X173687859Y-78013813D01*
X173682496Y-78009564D01*
X173658933Y-77988084D01*
X173649762Y-77984531D01*
X173629586Y-77973895D01*
X173621484Y-77968345D01*
X173621479Y-77968343D01*
X173590457Y-77961046D01*
X173583902Y-77959016D01*
X173554177Y-77947501D01*
X173554174Y-77947500D01*
X173554173Y-77947500D01*
X173554172Y-77947500D01*
X173544348Y-77947500D01*
X173521683Y-77944870D01*
X173512119Y-77942621D01*
X173512118Y-77942621D01*
X173480547Y-77947025D01*
X173473701Y-77947500D01*
X171285635Y-77947500D01*
X171271959Y-77945267D01*
X171271788Y-77946494D01*
X171262704Y-77945226D01*
X171222357Y-77947092D01*
X171214677Y-77947447D01*
X171212401Y-77947500D01*
X171192624Y-77947500D01*
X171189129Y-77948153D01*
X171182316Y-77948943D01*
X171150481Y-77950414D01*
X171150477Y-77950415D01*
X171141486Y-77954385D01*
X171119698Y-77961132D01*
X171110041Y-77962937D01*
X171110035Y-77962939D01*
X171082937Y-77979717D01*
X171076870Y-77982915D01*
X171047708Y-77995792D01*
X171047704Y-77995795D01*
X171040755Y-78002744D01*
X171022880Y-78016903D01*
X171014519Y-78022080D01*
X170995307Y-78047519D01*
X170990803Y-78052695D01*
X170543997Y-78499503D01*
X170489480Y-78527281D01*
X170473993Y-78528500D01*
X164862635Y-78528500D01*
X164848959Y-78526267D01*
X164848788Y-78527494D01*
X164839704Y-78526226D01*
X164799357Y-78528092D01*
X164791677Y-78528447D01*
X164789401Y-78528500D01*
X164769624Y-78528500D01*
X164766129Y-78529153D01*
X164759316Y-78529943D01*
X164727480Y-78531414D01*
X164718476Y-78535389D01*
X164696697Y-78542132D01*
X164687039Y-78543937D01*
X164687037Y-78543938D01*
X164659942Y-78560714D01*
X164653874Y-78563913D01*
X164624705Y-78576793D01*
X164617751Y-78583747D01*
X164599874Y-78597907D01*
X164591518Y-78603081D01*
X164572313Y-78628512D01*
X164567809Y-78633688D01*
X159707590Y-83493908D01*
X159696361Y-83502021D01*
X159697090Y-83502986D01*
X159689771Y-83508512D01*
X159657372Y-83544051D01*
X159655796Y-83545702D01*
X159641830Y-83559669D01*
X159641817Y-83559684D01*
X159639813Y-83562609D01*
X159635561Y-83567975D01*
X159614084Y-83591536D01*
X159614083Y-83591538D01*
X159610529Y-83600711D01*
X159599896Y-83620883D01*
X159594346Y-83628986D01*
X159594342Y-83628995D01*
X159587045Y-83660016D01*
X159585016Y-83666569D01*
X159573500Y-83696295D01*
X159573500Y-83706122D01*
X159570870Y-83728789D01*
X159568621Y-83738350D01*
X159573025Y-83769923D01*
X159573500Y-83776769D01*
X159573500Y-87083520D01*
X159554593Y-87141711D01*
X159544504Y-87153524D01*
X154012504Y-92685524D01*
X153957987Y-92713301D01*
X153897555Y-92703730D01*
X153854290Y-92660465D01*
X153843500Y-92615520D01*
X153843500Y-91799639D01*
X153845731Y-91785966D01*
X153844505Y-91785795D01*
X153845773Y-91776703D01*
X153844286Y-91744536D01*
X153843552Y-91728678D01*
X153843500Y-91726399D01*
X153843500Y-91706631D01*
X153843500Y-91706627D01*
X153842846Y-91703135D01*
X153842056Y-91696330D01*
X153840585Y-91664479D01*
X153836615Y-91655488D01*
X153829864Y-91633686D01*
X153828600Y-91626925D01*
X153828061Y-91624038D01*
X153811276Y-91596929D01*
X153808084Y-91590872D01*
X153795206Y-91561706D01*
X153795205Y-91561704D01*
X153788256Y-91554755D01*
X153774090Y-91536870D01*
X153768919Y-91528519D01*
X153743483Y-91509310D01*
X153738306Y-91504805D01*
X153253094Y-91019594D01*
X153245008Y-91008344D01*
X153244016Y-91009094D01*
X153238487Y-91001772D01*
X153223667Y-90988262D01*
X153202952Y-90969377D01*
X153201304Y-90967804D01*
X153187326Y-90953826D01*
X153184388Y-90951813D01*
X153179025Y-90947564D01*
X153155462Y-90926084D01*
X153146291Y-90922531D01*
X153126115Y-90911895D01*
X153118013Y-90906345D01*
X153118008Y-90906343D01*
X153086986Y-90899046D01*
X153080431Y-90897016D01*
X153050706Y-90885501D01*
X153050703Y-90885500D01*
X153050702Y-90885500D01*
X153050701Y-90885500D01*
X153040877Y-90885500D01*
X153018212Y-90882870D01*
X153008648Y-90880621D01*
X153008647Y-90880621D01*
X152977076Y-90885025D01*
X152970230Y-90885500D01*
X151743635Y-90885500D01*
X151729959Y-90883267D01*
X151729788Y-90884494D01*
X151720704Y-90883226D01*
X151680357Y-90885092D01*
X151672677Y-90885447D01*
X151670401Y-90885500D01*
X151650624Y-90885500D01*
X151647129Y-90886153D01*
X151640316Y-90886943D01*
X151599316Y-90888838D01*
X151599162Y-90885510D01*
X151554179Y-90881758D01*
X151507840Y-90841803D01*
X151493837Y-90782242D01*
X151494502Y-90776384D01*
X151508647Y-90678002D01*
X151508647Y-90677997D01*
X151488165Y-90535543D01*
X151471731Y-90499559D01*
X151428377Y-90404627D01*
X151334128Y-90295857D01*
X151263551Y-90250500D01*
X151210684Y-90216524D01*
X151171953Y-90169158D01*
X151168461Y-90108072D01*
X151194202Y-90063238D01*
X152277405Y-88980035D01*
X152288664Y-88971964D01*
X152287905Y-88970958D01*
X152295221Y-88965432D01*
X152295228Y-88965429D01*
X152327632Y-88929882D01*
X152329186Y-88928254D01*
X152343174Y-88914268D01*
X152345181Y-88911336D01*
X152349440Y-88905961D01*
X152350042Y-88905301D01*
X152370916Y-88882404D01*
X152374465Y-88873241D01*
X152385106Y-88853053D01*
X152390656Y-88844952D01*
X152397955Y-88813914D01*
X152399977Y-88807385D01*
X152411500Y-88777644D01*
X152411500Y-88767818D01*
X152414129Y-88745154D01*
X152416379Y-88735590D01*
X152411975Y-88704017D01*
X152411500Y-88697170D01*
X152411500Y-87470239D01*
X152430407Y-87412048D01*
X152435669Y-87405421D01*
X152444377Y-87395373D01*
X152504165Y-87264457D01*
X152506387Y-87249002D01*
X153164353Y-87249002D01*
X153184834Y-87391456D01*
X153240985Y-87514407D01*
X153244623Y-87522373D01*
X153318385Y-87607499D01*
X153338873Y-87631144D01*
X153396574Y-87668226D01*
X153459947Y-87708953D01*
X153566403Y-87740211D01*
X153598035Y-87749499D01*
X153598036Y-87749499D01*
X153598039Y-87749500D01*
X153598041Y-87749500D01*
X153741959Y-87749500D01*
X153741961Y-87749500D01*
X153880053Y-87708953D01*
X154001128Y-87631143D01*
X154095377Y-87522373D01*
X154155165Y-87391457D01*
X154164296Y-87327950D01*
X154175647Y-87249002D01*
X154175647Y-87248997D01*
X154155165Y-87106543D01*
X154155165Y-87106541D01*
X154094007Y-86972625D01*
X154087032Y-86911839D01*
X154094007Y-86890372D01*
X154097915Y-86881815D01*
X154155165Y-86756457D01*
X154175647Y-86614000D01*
X154175482Y-86612855D01*
X154155165Y-86471543D01*
X154126167Y-86408047D01*
X154095377Y-86340627D01*
X154001128Y-86231857D01*
X154001127Y-86231856D01*
X154001126Y-86231855D01*
X153880057Y-86154049D01*
X153880054Y-86154047D01*
X153880053Y-86154047D01*
X153880050Y-86154046D01*
X153741964Y-86113500D01*
X153741961Y-86113500D01*
X153598039Y-86113500D01*
X153598035Y-86113500D01*
X153459949Y-86154046D01*
X153459942Y-86154049D01*
X153338873Y-86231855D01*
X153244622Y-86340628D01*
X153184834Y-86471543D01*
X153164353Y-86613997D01*
X153164353Y-86614002D01*
X153184834Y-86756456D01*
X153245993Y-86890373D01*
X153252968Y-86951160D01*
X153245993Y-86972627D01*
X153184834Y-87106543D01*
X153164353Y-87248997D01*
X153164353Y-87249002D01*
X152506387Y-87249002D01*
X152514528Y-87192379D01*
X152524647Y-87122002D01*
X152524647Y-87121997D01*
X152504165Y-86979543D01*
X152475167Y-86916047D01*
X152444377Y-86848627D01*
X152350128Y-86739857D01*
X152350127Y-86739856D01*
X152350126Y-86739855D01*
X152229057Y-86662049D01*
X152229054Y-86662047D01*
X152229053Y-86662047D01*
X152229050Y-86662046D01*
X152090964Y-86621500D01*
X152090961Y-86621500D01*
X151988378Y-86621500D01*
X151930187Y-86602593D01*
X151894223Y-86553093D01*
X151894223Y-86491907D01*
X151918374Y-86452496D01*
X153153868Y-85217002D01*
X158244353Y-85217002D01*
X158264834Y-85359456D01*
X158315776Y-85471002D01*
X158324623Y-85490373D01*
X158417879Y-85597997D01*
X158418873Y-85599144D01*
X158539942Y-85676950D01*
X158539947Y-85676953D01*
X158646403Y-85708211D01*
X158678035Y-85717499D01*
X158678036Y-85717499D01*
X158678039Y-85717500D01*
X158678041Y-85717500D01*
X158821959Y-85717500D01*
X158821961Y-85717500D01*
X158960053Y-85676953D01*
X159081128Y-85599143D01*
X159175377Y-85490373D01*
X159235165Y-85359457D01*
X159248415Y-85267301D01*
X159255647Y-85217002D01*
X159255647Y-85216997D01*
X159235165Y-85074543D01*
X159200628Y-84998918D01*
X159175377Y-84943627D01*
X159081128Y-84834857D01*
X159081127Y-84834856D01*
X159081126Y-84834855D01*
X158960057Y-84757049D01*
X158960054Y-84757047D01*
X158960053Y-84757047D01*
X158960050Y-84757046D01*
X158821964Y-84716500D01*
X158821961Y-84716500D01*
X158678039Y-84716500D01*
X158678035Y-84716500D01*
X158539949Y-84757046D01*
X158539942Y-84757049D01*
X158418873Y-84834855D01*
X158324622Y-84943628D01*
X158264834Y-85074543D01*
X158244353Y-85216997D01*
X158244353Y-85217002D01*
X153153868Y-85217002D01*
X155673319Y-82697551D01*
X155675474Y-82695521D01*
X155722183Y-82654143D01*
X155757653Y-82602754D01*
X155759373Y-82600416D01*
X155797878Y-82551270D01*
X155802966Y-82539962D01*
X155811769Y-82524354D01*
X155818818Y-82514144D01*
X155840951Y-82455779D01*
X155842077Y-82453062D01*
X155867695Y-82396145D01*
X155869931Y-82383937D01*
X155874745Y-82366673D01*
X155879140Y-82355086D01*
X155886660Y-82293147D01*
X155887105Y-82290222D01*
X155898358Y-82228820D01*
X155894589Y-82166521D01*
X155894500Y-82163554D01*
X155894500Y-82079500D01*
X155913407Y-82021309D01*
X155962907Y-81985345D01*
X155993500Y-81980500D01*
X156722242Y-81980500D01*
X156780433Y-81999407D01*
X156816397Y-82048907D01*
X156816397Y-82110093D01*
X156780433Y-82159593D01*
X156775766Y-82162784D01*
X156767872Y-82167857D01*
X156673622Y-82276628D01*
X156613834Y-82407543D01*
X156593353Y-82549997D01*
X156593353Y-82550002D01*
X156613834Y-82692456D01*
X156664503Y-82803403D01*
X156673623Y-82823373D01*
X156750095Y-82911627D01*
X156767873Y-82932144D01*
X156767875Y-82932145D01*
X156888947Y-83009953D01*
X156992549Y-83040373D01*
X157027035Y-83050499D01*
X157027036Y-83050499D01*
X157027039Y-83050500D01*
X157027041Y-83050500D01*
X157170959Y-83050500D01*
X157170961Y-83050500D01*
X157309053Y-83009953D01*
X157430128Y-82932143D01*
X157524377Y-82823373D01*
X157584165Y-82692457D01*
X157597403Y-82600384D01*
X157604647Y-82550002D01*
X157604647Y-82549997D01*
X157584165Y-82407543D01*
X157575796Y-82389217D01*
X157524377Y-82276627D01*
X157430128Y-82167857D01*
X157422233Y-82162783D01*
X157383503Y-82115417D01*
X157380011Y-82054332D01*
X157413090Y-82002860D01*
X157470107Y-81980661D01*
X157475758Y-81980500D01*
X157522368Y-81980500D01*
X157522372Y-81980500D01*
X157522378Y-81980499D01*
X157522381Y-81980499D01*
X157532048Y-81979325D01*
X157648872Y-81965140D01*
X157807930Y-81904818D01*
X157947929Y-81808183D01*
X158060734Y-81680852D01*
X158139790Y-81530225D01*
X158180500Y-81365056D01*
X158180500Y-81194944D01*
X158139790Y-81029775D01*
X158060734Y-80879148D01*
X157947929Y-80751817D01*
X157911212Y-80726473D01*
X157874065Y-80677856D01*
X157872587Y-80616689D01*
X157907345Y-80566335D01*
X157911179Y-80563549D01*
X157947929Y-80538183D01*
X158060734Y-80410852D01*
X158139790Y-80260225D01*
X158180500Y-80095056D01*
X158180500Y-79924944D01*
X158139790Y-79759775D01*
X158060734Y-79609148D01*
X157947929Y-79481817D01*
X157807930Y-79385182D01*
X157648872Y-79324860D01*
X157636222Y-79323324D01*
X157522381Y-79309500D01*
X157522372Y-79309500D01*
X155151628Y-79309500D01*
X155151618Y-79309500D01*
X155025128Y-79324860D01*
X154866070Y-79385182D01*
X154726072Y-79481816D01*
X154726069Y-79481818D01*
X154613267Y-79609146D01*
X154534209Y-79759776D01*
X154493500Y-79924941D01*
X154493500Y-79962404D01*
X154474593Y-80020595D01*
X154450739Y-80043879D01*
X154345072Y-80116816D01*
X154345069Y-80116818D01*
X154232267Y-80244146D01*
X154153209Y-80394776D01*
X154112500Y-80559941D01*
X154112500Y-80730058D01*
X154153209Y-80895223D01*
X154153209Y-80895224D01*
X154153210Y-80895225D01*
X154232266Y-81045852D01*
X154257246Y-81074049D01*
X154345069Y-81173181D01*
X154345075Y-81173186D01*
X154450738Y-81246120D01*
X154487888Y-81294736D01*
X154493500Y-81327595D01*
X154493500Y-81855048D01*
X154474593Y-81913239D01*
X154464504Y-81925052D01*
X152376335Y-84013220D01*
X152321818Y-84040997D01*
X152261386Y-84031426D01*
X152218121Y-83988161D01*
X152216298Y-83984386D01*
X152190377Y-83927627D01*
X152096128Y-83818857D01*
X152096127Y-83818856D01*
X152096126Y-83818855D01*
X151975057Y-83741049D01*
X151975054Y-83741047D01*
X151975053Y-83741047D01*
X151965868Y-83738350D01*
X151836964Y-83700500D01*
X151836961Y-83700500D01*
X151693039Y-83700500D01*
X151693035Y-83700500D01*
X151554949Y-83741046D01*
X151554942Y-83741049D01*
X151433873Y-83818855D01*
X151339622Y-83927628D01*
X151279834Y-84058543D01*
X151259353Y-84200997D01*
X151259353Y-84201002D01*
X151279834Y-84343456D01*
X151330776Y-84455002D01*
X151339623Y-84474373D01*
X151402918Y-84547420D01*
X151433873Y-84583144D01*
X151456145Y-84597457D01*
X151554947Y-84660953D01*
X151554948Y-84660953D01*
X151557313Y-84662473D01*
X151596044Y-84709839D01*
X151599538Y-84770924D01*
X151573794Y-84815761D01*
X148749106Y-87640449D01*
X148694589Y-87668226D01*
X148634157Y-87658655D01*
X148590892Y-87615390D01*
X148581110Y-87584533D01*
X148572172Y-87522371D01*
X148567165Y-87487543D01*
X148507377Y-87356627D01*
X148413128Y-87247857D01*
X148413127Y-87247856D01*
X148413126Y-87247855D01*
X148292057Y-87170049D01*
X148292054Y-87170047D01*
X148292053Y-87170047D01*
X148292050Y-87170046D01*
X148153964Y-87129500D01*
X148153961Y-87129500D01*
X148010039Y-87129500D01*
X148010035Y-87129500D01*
X147871949Y-87170046D01*
X147871942Y-87170049D01*
X147750873Y-87247855D01*
X147656622Y-87356628D01*
X147596834Y-87487543D01*
X147576353Y-87629997D01*
X147576353Y-87630002D01*
X147596834Y-87772456D01*
X147647891Y-87884253D01*
X147656623Y-87903373D01*
X147748891Y-88009857D01*
X147750873Y-88012144D01*
X147871942Y-88089950D01*
X147871947Y-88089953D01*
X147969603Y-88118627D01*
X148010035Y-88130499D01*
X148010036Y-88130499D01*
X148010039Y-88130500D01*
X148010041Y-88130500D01*
X148020048Y-88130500D01*
X148078239Y-88149407D01*
X148114203Y-88198907D01*
X148114203Y-88260093D01*
X148090052Y-88299503D01*
X147711053Y-88678503D01*
X147656536Y-88706281D01*
X147641049Y-88707500D01*
X146261618Y-88707500D01*
X146135128Y-88722860D01*
X145976070Y-88783182D01*
X145836072Y-88879816D01*
X145836069Y-88879818D01*
X145723266Y-89007146D01*
X145697402Y-89056425D01*
X145653617Y-89099162D01*
X145593073Y-89108001D01*
X145538897Y-89079566D01*
X145534923Y-89075246D01*
X145534752Y-89075049D01*
X145492128Y-89025857D01*
X145492127Y-89025856D01*
X145492126Y-89025855D01*
X145371057Y-88948049D01*
X145371054Y-88948047D01*
X145371053Y-88948047D01*
X145361449Y-88945227D01*
X145232964Y-88907500D01*
X145232961Y-88907500D01*
X145089039Y-88907500D01*
X145089035Y-88907500D01*
X144950949Y-88948046D01*
X144950942Y-88948049D01*
X144829873Y-89025855D01*
X144735622Y-89134628D01*
X144675834Y-89265543D01*
X144655353Y-89407997D01*
X144655353Y-89408002D01*
X144675834Y-89550456D01*
X144726776Y-89662002D01*
X144735623Y-89681373D01*
X144828633Y-89788713D01*
X144829873Y-89790144D01*
X144950942Y-89867950D01*
X144950947Y-89867953D01*
X145038805Y-89893750D01*
X145089035Y-89908499D01*
X145089036Y-89908499D01*
X145089039Y-89908500D01*
X145089041Y-89908500D01*
X145232959Y-89908500D01*
X145232961Y-89908500D01*
X145371053Y-89867953D01*
X145492128Y-89790143D01*
X145534923Y-89740753D01*
X145587318Y-89709157D01*
X145648279Y-89714392D01*
X145694521Y-89754459D01*
X145697402Y-89759575D01*
X145723265Y-89808851D01*
X145835351Y-89935371D01*
X145836071Y-89936183D01*
X145976070Y-90032818D01*
X146135128Y-90093140D01*
X146239301Y-90105789D01*
X146261618Y-90108499D01*
X146261622Y-90108499D01*
X146261628Y-90108500D01*
X147949555Y-90108500D01*
X147952520Y-90108589D01*
X148010118Y-90112073D01*
X148014819Y-90112358D01*
X148014819Y-90112357D01*
X148014820Y-90112358D01*
X148076233Y-90101103D01*
X148079138Y-90100661D01*
X148141086Y-90093140D01*
X148152676Y-90088744D01*
X148169939Y-90083931D01*
X148182146Y-90081695D01*
X148239068Y-90056075D01*
X148241802Y-90054943D01*
X148300144Y-90032818D01*
X148310356Y-90025768D01*
X148325964Y-90016965D01*
X148337271Y-90011878D01*
X148386388Y-89973395D01*
X148388796Y-89971625D01*
X148440143Y-89936183D01*
X148440862Y-89935371D01*
X148481521Y-89889474D01*
X148483551Y-89887319D01*
X148530653Y-89840217D01*
X148578367Y-89792502D01*
X148632882Y-89764727D01*
X148693314Y-89774298D01*
X148736579Y-89817563D01*
X148746150Y-89877995D01*
X148741437Y-89893634D01*
X148741829Y-89893750D01*
X148739834Y-89900543D01*
X148719353Y-90042997D01*
X148719353Y-90043002D01*
X148739834Y-90185456D01*
X148798309Y-90313495D01*
X148799623Y-90316373D01*
X148885105Y-90415025D01*
X148893873Y-90425144D01*
X149014942Y-90502950D01*
X149014947Y-90502953D01*
X149014951Y-90502954D01*
X149021388Y-90505894D01*
X149020551Y-90507725D01*
X149063044Y-90536781D01*
X149083605Y-90594409D01*
X149066366Y-90653115D01*
X149017913Y-90690478D01*
X148984645Y-90696235D01*
X134857215Y-90696235D01*
X134843539Y-90694002D01*
X134843368Y-90695229D01*
X134834284Y-90693961D01*
X134793937Y-90695827D01*
X134786257Y-90696182D01*
X134783981Y-90696235D01*
X134764204Y-90696235D01*
X134760709Y-90696888D01*
X134753896Y-90697678D01*
X134722061Y-90699149D01*
X134722057Y-90699150D01*
X134713066Y-90703120D01*
X134691278Y-90709867D01*
X134681621Y-90711672D01*
X134681615Y-90711674D01*
X134654517Y-90728452D01*
X134648450Y-90731650D01*
X134619288Y-90744527D01*
X134619284Y-90744530D01*
X134612335Y-90751479D01*
X134594460Y-90765638D01*
X134586099Y-90770815D01*
X134566890Y-90796250D01*
X134562385Y-90801427D01*
X133418590Y-91945222D01*
X133407361Y-91953335D01*
X133408090Y-91954300D01*
X133400771Y-91959826D01*
X133368372Y-91995365D01*
X133366796Y-91997016D01*
X133352830Y-92010983D01*
X133352817Y-92010998D01*
X133350813Y-92013923D01*
X133346561Y-92019289D01*
X133325084Y-92042850D01*
X133325083Y-92042852D01*
X133321529Y-92052025D01*
X133310896Y-92072197D01*
X133305346Y-92080300D01*
X133305342Y-92080309D01*
X133298045Y-92111330D01*
X133296016Y-92117883D01*
X133284500Y-92147609D01*
X133284500Y-92157436D01*
X133281870Y-92180103D01*
X133279620Y-92189665D01*
X133284024Y-92221239D01*
X133284499Y-92228084D01*
X133284499Y-92907206D01*
X133265592Y-92965397D01*
X133264448Y-92966227D01*
X133273057Y-92974593D01*
X133284499Y-93020794D01*
X133284499Y-93680785D01*
X133265592Y-93738976D01*
X133252196Y-93753946D01*
X133252048Y-93754080D01*
X133232839Y-93779515D01*
X133228335Y-93784692D01*
X132583590Y-94429437D01*
X132572361Y-94437550D01*
X132573090Y-94438515D01*
X132565771Y-94444041D01*
X132533372Y-94479580D01*
X132531796Y-94481231D01*
X132517830Y-94495198D01*
X132517817Y-94495213D01*
X132515813Y-94498138D01*
X132511561Y-94503504D01*
X132490084Y-94527065D01*
X132490083Y-94527067D01*
X132486529Y-94536240D01*
X132475896Y-94556412D01*
X132470346Y-94564515D01*
X132470342Y-94564524D01*
X132463045Y-94595545D01*
X132461016Y-94602098D01*
X132449500Y-94631824D01*
X132449500Y-94641651D01*
X132446870Y-94664318D01*
X132444620Y-94673880D01*
X131828138Y-94673880D01*
X131776128Y-94613857D01*
X131776127Y-94613856D01*
X131776126Y-94613855D01*
X131655057Y-94536049D01*
X131655054Y-94536047D01*
X131655053Y-94536047D01*
X131631605Y-94529162D01*
X131516964Y-94495500D01*
X131516961Y-94495500D01*
X131373039Y-94495500D01*
X131373035Y-94495500D01*
X131234949Y-94536046D01*
X131234942Y-94536049D01*
X131113873Y-94613855D01*
X131019622Y-94722628D01*
X130959834Y-94853543D01*
X130939353Y-94995997D01*
X130939353Y-94996002D01*
X130959834Y-95138456D01*
X131017834Y-95265456D01*
X131019623Y-95269373D01*
X131063954Y-95320534D01*
X131111728Y-95375669D01*
X131135545Y-95432029D01*
X131121686Y-95491624D01*
X131111728Y-95505331D01*
X131019622Y-95611628D01*
X130959834Y-95742543D01*
X130939353Y-95884997D01*
X130939353Y-95885002D01*
X129251495Y-95885002D01*
X129678666Y-94027455D01*
X129683278Y-94009239D01*
X129696194Y-93958224D01*
X129696804Y-93956029D01*
X129717150Y-93889062D01*
X129717864Y-93886895D01*
X129741235Y-93821208D01*
X129742039Y-93819102D01*
X129768382Y-93754736D01*
X129769267Y-93752711D01*
X129798511Y-93689767D01*
X129799526Y-93687711D01*
X129806428Y-93674496D01*
X129831589Y-93626317D01*
X129832656Y-93624383D01*
X129867510Y-93564541D01*
X129868691Y-93562618D01*
X129906228Y-93504493D01*
X129907488Y-93502637D01*
X129947703Y-93446214D01*
X129949029Y-93444443D01*
X129991829Y-93389854D01*
X129993214Y-93388168D01*
X130038510Y-93335523D01*
X130040012Y-93333857D01*
X130087759Y-93283216D01*
X130089301Y-93281652D01*
X130139478Y-93233052D01*
X130141089Y-93231561D01*
X130193599Y-93185120D01*
X130195251Y-93183724D01*
X130250034Y-93139527D01*
X130251756Y-93138201D01*
X130294964Y-93106457D01*
X130309647Y-93095670D01*
X130499179Y-92964002D01*
X132082353Y-92964002D01*
X132102834Y-93106456D01*
X132159961Y-93231545D01*
X132162623Y-93237373D01*
X132254891Y-93343857D01*
X132256873Y-93346144D01*
X132357275Y-93410668D01*
X132377947Y-93423953D01*
X132466452Y-93449940D01*
X132516035Y-93464499D01*
X132516036Y-93464499D01*
X132516039Y-93464500D01*
X132516041Y-93464500D01*
X132659959Y-93464500D01*
X132659961Y-93464500D01*
X132798053Y-93423953D01*
X132919128Y-93346143D01*
X133013377Y-93237373D01*
X133073165Y-93106457D01*
X133073164Y-93106457D01*
X133073166Y-93106455D01*
X133087507Y-93006706D01*
X133107181Y-92966687D01*
X133105406Y-92965397D01*
X133087507Y-92921294D01*
X133073166Y-92821544D01*
X133026019Y-92718309D01*
X133013377Y-92690627D01*
X132919128Y-92581857D01*
X132919127Y-92581856D01*
X132919126Y-92581855D01*
X132798057Y-92504049D01*
X132798054Y-92504047D01*
X132798053Y-92504047D01*
X132798050Y-92504046D01*
X132659964Y-92463500D01*
X132659961Y-92463500D01*
X132516039Y-92463500D01*
X132516035Y-92463500D01*
X132377949Y-92504046D01*
X132377942Y-92504049D01*
X132256873Y-92581855D01*
X132162622Y-92690628D01*
X132102834Y-92821543D01*
X132082353Y-92963997D01*
X132082353Y-92964002D01*
X130499179Y-92964002D01*
X137588028Y-88039363D01*
X146403836Y-81915002D01*
X147195353Y-81915002D01*
X147215834Y-82057456D01*
X147267298Y-82170144D01*
X147275623Y-82188373D01*
X147366807Y-82293606D01*
X147369873Y-82297144D01*
X147478063Y-82366673D01*
X147490947Y-82374953D01*
X147591644Y-82404520D01*
X147629035Y-82415499D01*
X147629036Y-82415499D01*
X147629039Y-82415500D01*
X147629041Y-82415500D01*
X147772959Y-82415500D01*
X147772961Y-82415500D01*
X147911053Y-82374953D01*
X148032128Y-82297143D01*
X148126377Y-82188373D01*
X148157167Y-82120953D01*
X148170220Y-82092373D01*
X148211592Y-82047296D01*
X148260273Y-82034500D01*
X148280959Y-82034500D01*
X148280961Y-82034500D01*
X148419053Y-81993953D01*
X148540128Y-81916143D01*
X148634377Y-81807373D01*
X148694165Y-81676457D01*
X148703517Y-81611411D01*
X148714647Y-81534002D01*
X148714647Y-81533997D01*
X148694165Y-81391543D01*
X148685825Y-81373281D01*
X148634377Y-81260627D01*
X148540128Y-81151857D01*
X148540127Y-81151856D01*
X148540126Y-81151855D01*
X148419057Y-81074049D01*
X148419054Y-81074047D01*
X148419053Y-81074047D01*
X148419050Y-81074046D01*
X148280964Y-81033500D01*
X148280961Y-81033500D01*
X148137039Y-81033500D01*
X148137035Y-81033500D01*
X147998949Y-81074046D01*
X147998942Y-81074049D01*
X147877873Y-81151855D01*
X147783622Y-81260628D01*
X147739780Y-81356627D01*
X147698408Y-81401704D01*
X147649727Y-81414500D01*
X147629035Y-81414500D01*
X147490949Y-81455046D01*
X147490942Y-81455049D01*
X147369873Y-81532855D01*
X147275622Y-81641628D01*
X147215834Y-81772543D01*
X147195353Y-81914997D01*
X147195353Y-81915002D01*
X146403836Y-81915002D01*
X148972168Y-80130776D01*
X149030743Y-80113105D01*
X149088521Y-80133239D01*
X149123430Y-80183489D01*
X149122200Y-80241565D01*
X149122829Y-80241750D01*
X149122147Y-80244070D01*
X149122135Y-80244661D01*
X149121535Y-80246155D01*
X149120834Y-80248543D01*
X149100353Y-80390997D01*
X149100353Y-80391002D01*
X149120834Y-80533456D01*
X149180622Y-80664370D01*
X149180623Y-80664373D01*
X149237539Y-80730058D01*
X149274873Y-80773144D01*
X149395942Y-80850950D01*
X149395947Y-80850953D01*
X149493184Y-80879504D01*
X149534035Y-80891499D01*
X149534036Y-80891499D01*
X149534039Y-80891500D01*
X149534041Y-80891500D01*
X149677959Y-80891500D01*
X149677961Y-80891500D01*
X149816053Y-80850953D01*
X149937128Y-80773143D01*
X150031377Y-80664373D01*
X150037855Y-80650187D01*
X150079226Y-80605109D01*
X150139192Y-80592957D01*
X150155801Y-80596322D01*
X150157944Y-80596951D01*
X150157947Y-80596953D01*
X150296039Y-80637500D01*
X150296041Y-80637500D01*
X150439959Y-80637500D01*
X150439961Y-80637500D01*
X150578053Y-80596953D01*
X150699128Y-80519143D01*
X150793377Y-80410373D01*
X150853165Y-80279457D01*
X150865652Y-80192606D01*
X150873647Y-80137002D01*
X150873647Y-80136997D01*
X150853165Y-79994543D01*
X150846481Y-79979907D01*
X150793377Y-79863627D01*
X150699128Y-79754857D01*
X150699127Y-79754856D01*
X150699126Y-79754855D01*
X150578057Y-79677049D01*
X150578054Y-79677047D01*
X150578053Y-79677047D01*
X150578050Y-79677046D01*
X150439964Y-79636500D01*
X150439961Y-79636500D01*
X150296039Y-79636500D01*
X150296035Y-79636500D01*
X150157949Y-79677046D01*
X150157942Y-79677049D01*
X150036873Y-79754855D01*
X149942622Y-79863628D01*
X149936142Y-79877817D01*
X149894768Y-79922893D01*
X149834801Y-79935041D01*
X149818199Y-79931677D01*
X149677964Y-79890500D01*
X149677961Y-79890500D01*
X149634066Y-79890500D01*
X149575875Y-79871593D01*
X149539911Y-79822093D01*
X149539911Y-79760907D01*
X149575875Y-79711407D01*
X149577583Y-79710194D01*
X153007218Y-77327619D01*
X153018785Y-77319743D01*
X153056114Y-77294327D01*
X153106186Y-77263063D01*
X153157382Y-77233830D01*
X153209622Y-77206649D01*
X153262802Y-77181554D01*
X153316909Y-77158527D01*
X153353800Y-77144477D01*
X153371831Y-77137610D01*
X153403884Y-77126786D01*
X153427469Y-77118822D01*
X153483828Y-77102156D01*
X153540762Y-77087651D01*
X153598231Y-77075313D01*
X153656158Y-77065159D01*
X153663302Y-77064185D01*
X153714500Y-77057205D01*
X153747471Y-77053982D01*
X153773119Y-77051475D01*
X153831977Y-77047979D01*
X153891056Y-77046736D01*
X178707996Y-76938281D01*
X181239738Y-76978728D01*
X181241197Y-76979031D01*
X181258609Y-76979031D01*
X181258621Y-76979031D01*
X181272711Y-76979264D01*
X181273479Y-76979157D01*
X202976768Y-77164411D01*
X202979632Y-77164974D01*
X202995590Y-77164572D01*
X202995682Y-77164573D01*
X202995682Y-77164572D01*
X202995930Y-77164575D01*
X202996016Y-77164344D01*
X202996018Y-77164344D01*
X202996047Y-77164267D01*
X202996128Y-77164077D01*
X202996127Y-77164076D01*
X203001979Y-77150351D01*
X203002542Y-77147411D01*
X203014344Y-77116790D01*
X203015782Y-77113888D01*
X203017239Y-77109467D01*
X203018166Y-77106895D01*
X203019806Y-77102710D01*
X203020556Y-77099532D01*
X203033565Y-77060648D01*
X203034547Y-77058514D01*
X203036997Y-77050392D01*
X203039545Y-77042877D01*
X203039965Y-77040812D01*
X203073477Y-76932691D01*
X203084026Y-76901061D01*
X203092940Y-76874334D01*
X203102850Y-76848438D01*
X203114180Y-76818831D01*
X203115456Y-76815806D01*
X203127193Y-76790366D01*
X203139462Y-76763773D01*
X203140898Y-76760910D01*
X203153898Y-76736958D01*
X203155153Y-76734783D01*
X203156627Y-76732370D01*
X203169455Y-76711375D01*
X203170946Y-76709085D01*
X203186450Y-76686687D01*
X203188261Y-76684237D01*
X203205061Y-76662935D01*
X203207154Y-76660456D01*
X203225403Y-76640258D01*
X203227838Y-76637750D01*
X203228289Y-76637315D01*
X203247686Y-76618685D01*
X203250351Y-76616307D01*
X203272021Y-76598361D01*
X203274910Y-76596146D01*
X203298556Y-76579386D01*
X203301639Y-76577370D01*
X203327482Y-76561828D01*
X203330644Y-76560083D01*
X203358928Y-76545812D01*
X203362104Y-76544350D01*
X203385135Y-76534739D01*
X203392994Y-76531460D01*
X203396179Y-76530257D01*
X203429927Y-76518827D01*
X203432949Y-76517912D01*
X203469792Y-76508051D01*
X203472646Y-76507380D01*
X203512682Y-76499233D01*
X203515407Y-76498758D01*
X203558891Y-76492441D01*
X203561388Y-76492145D01*
X203608392Y-76487796D01*
X203610685Y-76487640D01*
X203662439Y-76485335D01*
X203710721Y-76485294D01*
X203712884Y-76485472D01*
X203719029Y-76485288D01*
X203726938Y-76485288D01*
X203729192Y-76484992D01*
X204630144Y-76458799D01*
X204671701Y-76458453D01*
X204674968Y-76458533D01*
X204716718Y-76460952D01*
X204719568Y-76461203D01*
X204762854Y-76466296D01*
X204765441Y-76466671D01*
X204809786Y-76474343D01*
X204812191Y-76474821D01*
X204846079Y-76482470D01*
X204857109Y-76484960D01*
X204859405Y-76485536D01*
X204900887Y-76497030D01*
X204904350Y-76497990D01*
X204906585Y-76498666D01*
X204951196Y-76513325D01*
X204953390Y-76514104D01*
X204982186Y-76525091D01*
X204997175Y-76530811D01*
X204999350Y-76531701D01*
X205040814Y-76549847D01*
X205041854Y-76550302D01*
X205044081Y-76551343D01*
X205084842Y-76571665D01*
X205087156Y-76572895D01*
X205125771Y-76594783D01*
X205128190Y-76596248D01*
X205164156Y-76619478D01*
X205166738Y-76621264D01*
X205199629Y-76645622D01*
X205202410Y-76647842D01*
X205231767Y-76673059D01*
X205234755Y-76675849D01*
X205260636Y-76702098D01*
X205262996Y-76704666D01*
X205273765Y-76717250D01*
X205275391Y-76719254D01*
X205285491Y-76732383D01*
X205286959Y-76734395D01*
X205292974Y-76743091D01*
X205305450Y-76761129D01*
X205306680Y-76762999D01*
X205323518Y-76789916D01*
X205324655Y-76791829D01*
X205340484Y-76819876D01*
X205355245Y-76848947D01*
X205368490Y-76878049D01*
X205380280Y-76907070D01*
X205390723Y-76936012D01*
X205399867Y-76964724D01*
X205404119Y-76979957D01*
X205407822Y-76993226D01*
X205413963Y-77018552D01*
X205414654Y-77021401D01*
X205420443Y-77049185D01*
X205425280Y-77076563D01*
X205428765Y-77100213D01*
X205429239Y-77103433D01*
X205432399Y-77129740D01*
X205434840Y-77155358D01*
X205436418Y-77177175D01*
X205436607Y-77180344D01*
X205436699Y-77180526D01*
X205436786Y-77180708D01*
X205436983Y-77180869D01*
X205437437Y-77181004D01*
X205440521Y-77180608D01*
X205481106Y-77178246D01*
X205483375Y-77178312D01*
X205489771Y-77177743D01*
X205489772Y-77177744D01*
X205489862Y-77177736D01*
X205489957Y-77177731D01*
X205489957Y-77177730D01*
X205498242Y-77177294D01*
X205500553Y-77176851D01*
X205532278Y-77174224D01*
X205534871Y-77174274D01*
X205542388Y-77173390D01*
X205542464Y-77173381D01*
X205542545Y-77173375D01*
X205542545Y-77173374D01*
X205549686Y-77172846D01*
X205552278Y-77172296D01*
X205584939Y-77168687D01*
X205587452Y-77168662D01*
X205594881Y-77167591D01*
X205602669Y-77166755D01*
X205605151Y-77166137D01*
X205637826Y-77161516D01*
X205640411Y-77161393D01*
X205647085Y-77160209D01*
X205655910Y-77158982D01*
X205658551Y-77158193D01*
X205689765Y-77152710D01*
X205692897Y-77152456D01*
X205697489Y-77151426D01*
X205700541Y-77150841D01*
X205703920Y-77150302D01*
X205706965Y-77149387D01*
X205740340Y-77142261D01*
X205743218Y-77141954D01*
X205749315Y-77140396D01*
X205751763Y-77139836D01*
X205757923Y-77138590D01*
X205760648Y-77137616D01*
X205760673Y-77137610D01*
X205767527Y-77135936D01*
X205769611Y-77135619D01*
X205776073Y-77133851D01*
X205776076Y-77133852D01*
X205776193Y-77133820D01*
X205776258Y-77133805D01*
X205776259Y-77133803D01*
X205785670Y-77131632D01*
X205788100Y-77130653D01*
X205791936Y-77129632D01*
X205793772Y-77129338D01*
X205801689Y-77127040D01*
X205811530Y-77124437D01*
X205813296Y-77123686D01*
X205817616Y-77122439D01*
X205819863Y-77122024D01*
X205826998Y-77119732D01*
X205827001Y-77119733D01*
X205827110Y-77119698D01*
X205827179Y-77119679D01*
X205827180Y-77119677D01*
X205830334Y-77118810D01*
X205833082Y-77118742D01*
X205851175Y-77112229D01*
X205853450Y-77111471D01*
X205862458Y-77108712D01*
X205863445Y-77108264D01*
X205879404Y-77103166D01*
X205881614Y-77102692D01*
X205888660Y-77100212D01*
X205888661Y-77100213D01*
X205888769Y-77100175D01*
X205888836Y-77100154D01*
X205888836Y-77100153D01*
X205899781Y-77096723D01*
X205902058Y-77095551D01*
X205913313Y-77091636D01*
X205915502Y-77091140D01*
X205923951Y-77087937D01*
X205933859Y-77084519D01*
X205935886Y-77083445D01*
X205947239Y-77079174D01*
X205949397Y-77078633D01*
X205957874Y-77075178D01*
X205957977Y-77075136D01*
X205958047Y-77075110D01*
X205958047Y-77075109D01*
X205967874Y-77071459D01*
X205969918Y-77070307D01*
X205982615Y-77065174D01*
X205984911Y-77064474D01*
X205990786Y-77061871D01*
X205998988Y-77058648D01*
X206001245Y-77057351D01*
X206013787Y-77051932D01*
X206016142Y-77051167D01*
X206021392Y-77048686D01*
X206023473Y-77047761D01*
X206030599Y-77044784D01*
X206032912Y-77043377D01*
X206043659Y-77038436D01*
X206045733Y-77037726D01*
X206052763Y-77034253D01*
X206052764Y-77034253D01*
X206052847Y-77034212D01*
X206052933Y-77034173D01*
X206052933Y-77034172D01*
X206063314Y-77029465D01*
X206065238Y-77028174D01*
X206072382Y-77024693D01*
X206074154Y-77024056D01*
X206082106Y-77019958D01*
X206090078Y-77016085D01*
X206091659Y-77015043D01*
X206100280Y-77010608D01*
X206102670Y-77009697D01*
X206110054Y-77005584D01*
X206110055Y-77005584D01*
X206110134Y-77005540D01*
X206110220Y-77005497D01*
X206110220Y-77005496D01*
X206119107Y-77001053D01*
X206121208Y-76999548D01*
X206121371Y-76999460D01*
X206126639Y-76996608D01*
X206128686Y-76995795D01*
X206136993Y-76991007D01*
X206143591Y-76987498D01*
X206145351Y-76986263D01*
X206148964Y-76984212D01*
X206154568Y-76981030D01*
X206156947Y-76979957D01*
X206161693Y-76977033D01*
X206163626Y-76975900D01*
X206169027Y-76972899D01*
X206171224Y-76971245D01*
X206201666Y-76952794D01*
X206204277Y-76951553D01*
X206210358Y-76947527D01*
X206216320Y-76943948D01*
X206218553Y-76942148D01*
X206244320Y-76925238D01*
X206247071Y-76923827D01*
X206252166Y-76920159D01*
X206254411Y-76918634D01*
X206259064Y-76915656D01*
X206261365Y-76913670D01*
X206279291Y-76901059D01*
X206281203Y-76900097D01*
X206291346Y-76892578D01*
X206299394Y-76886993D01*
X206300688Y-76885806D01*
X211416819Y-73177004D01*
X211416821Y-73177004D01*
X213750351Y-71498129D01*
X213751805Y-71497386D01*
X213762709Y-71489238D01*
X213779922Y-71477299D01*
X213781391Y-71475594D01*
X213784182Y-71473555D01*
X213842323Y-71454499D01*
X213900562Y-71473257D01*
G37*
%TD.AperFunction*%
%TD*%
M02*
