%TF.GenerationSoftware,KiCad,Pcbnew,7.0.6*%
%TF.CreationDate,2023-07-20T08:42:54+02:00*%
%TF.ProjectId,dc_sdr,64635f73-6472-42e6-9b69-6361645f7063,rev?*%
%TF.SameCoordinates,Original*%
%TF.FileFunction,Legend,Top*%
%TF.FilePolarity,Positive*%
%FSLAX46Y46*%
G04 Gerber Fmt 4.6, Leading zero omitted, Abs format (unit mm)*
G04 Created by KiCad (PCBNEW 7.0.6) date 2023-07-20 08:42:54*
%MOMM*%
%LPD*%
G01*
G04 APERTURE LIST*
%ADD10C,0.150000*%
%ADD11C,0.200000*%
%ADD12C,0.100000*%
%ADD13C,0.120000*%
%ADD14C,0.010000*%
%ADD15C,0.127000*%
G04 APERTURE END LIST*
D10*
X153670000Y-99695000D02*
X152400000Y-99695000D01*
X149860000Y-97155000D01*
X151130000Y-97155000D01*
X153670000Y-99695000D01*
G36*
X153670000Y-99695000D02*
G01*
X152400000Y-99695000D01*
X149860000Y-97155000D01*
X151130000Y-97155000D01*
X153670000Y-99695000D01*
G37*
X194310000Y-105156000D02*
X193040000Y-105156000D01*
X190500000Y-102616000D01*
X191770000Y-102616000D01*
X194310000Y-105156000D01*
G36*
X194310000Y-105156000D02*
G01*
X193040000Y-105156000D01*
X190500000Y-102616000D01*
X191770000Y-102616000D01*
X194310000Y-105156000D01*
G37*
X172720000Y-79502000D02*
X171450000Y-79502000D01*
X173990000Y-76962000D01*
X175260000Y-76962000D01*
X172720000Y-79502000D01*
G36*
X172720000Y-79502000D02*
G01*
X171450000Y-79502000D01*
X173990000Y-76962000D01*
X175260000Y-76962000D01*
X172720000Y-79502000D01*
G37*
X179070000Y-105156000D02*
X177800000Y-105156000D01*
X175260000Y-102616000D01*
X176530000Y-102616000D01*
X179070000Y-105156000D01*
G36*
X179070000Y-105156000D02*
G01*
X177800000Y-105156000D01*
X175260000Y-102616000D01*
X176530000Y-102616000D01*
X179070000Y-105156000D01*
G37*
X200660000Y-79502000D02*
X199390000Y-79502000D01*
X201930000Y-76962000D01*
X203200000Y-76962000D01*
X200660000Y-79502000D01*
G36*
X200660000Y-79502000D02*
G01*
X199390000Y-79502000D01*
X201930000Y-76962000D01*
X203200000Y-76962000D01*
X200660000Y-79502000D01*
G37*
X187960000Y-79502000D02*
X186690000Y-79502000D01*
X189230000Y-76962000D01*
X190500000Y-76962000D01*
X187960000Y-79502000D01*
G36*
X187960000Y-79502000D02*
G01*
X186690000Y-79502000D01*
X189230000Y-76962000D01*
X190500000Y-76962000D01*
X187960000Y-79502000D01*
G37*
X185420000Y-79502000D02*
X184150000Y-79502000D01*
X186690000Y-76962000D01*
X187960000Y-76962000D01*
X185420000Y-79502000D01*
G36*
X185420000Y-79502000D02*
G01*
X184150000Y-79502000D01*
X186690000Y-76962000D01*
X187960000Y-76962000D01*
X185420000Y-79502000D01*
G37*
X154940000Y-79502000D02*
X153670000Y-79502000D01*
X156210000Y-76962000D01*
X157480000Y-76962000D01*
X154940000Y-79502000D01*
G36*
X154940000Y-79502000D02*
G01*
X153670000Y-79502000D01*
X156210000Y-76962000D01*
X157480000Y-76962000D01*
X154940000Y-79502000D01*
G37*
X170180000Y-79502000D02*
X168910000Y-79502000D01*
X171450000Y-76962000D01*
X172720000Y-76962000D01*
X170180000Y-79502000D01*
G36*
X170180000Y-79502000D02*
G01*
X168910000Y-79502000D01*
X171450000Y-76962000D01*
X172720000Y-76962000D01*
X170180000Y-79502000D01*
G37*
X177800000Y-79502000D02*
X176530000Y-79502000D01*
X179070000Y-76962000D01*
X180340000Y-76962000D01*
X177800000Y-79502000D01*
G36*
X177800000Y-79502000D02*
G01*
X176530000Y-79502000D01*
X179070000Y-76962000D01*
X180340000Y-76962000D01*
X177800000Y-79502000D01*
G37*
X181610000Y-105156000D02*
X180340000Y-105156000D01*
X177800000Y-102616000D01*
X179070000Y-102616000D01*
X181610000Y-105156000D01*
G36*
X181610000Y-105156000D02*
G01*
X180340000Y-105156000D01*
X177800000Y-102616000D01*
X179070000Y-102616000D01*
X181610000Y-105156000D01*
G37*
X165100000Y-79502000D02*
X163830000Y-79502000D01*
X166370000Y-76962000D01*
X167640000Y-76962000D01*
X165100000Y-79502000D01*
G36*
X165100000Y-79502000D02*
G01*
X163830000Y-79502000D01*
X166370000Y-76962000D01*
X167640000Y-76962000D01*
X165100000Y-79502000D01*
G37*
X168783000Y-105156000D02*
X167513000Y-105156000D01*
X164973000Y-102616000D01*
X166243000Y-102616000D01*
X168783000Y-105156000D01*
G36*
X168783000Y-105156000D02*
G01*
X167513000Y-105156000D01*
X164973000Y-102616000D01*
X166243000Y-102616000D01*
X168783000Y-105156000D01*
G37*
X195580000Y-79502000D02*
X194310000Y-79502000D01*
X196850000Y-76962000D01*
X198120000Y-76962000D01*
X195580000Y-79502000D01*
G36*
X195580000Y-79502000D02*
G01*
X194310000Y-79502000D01*
X196850000Y-76962000D01*
X198120000Y-76962000D01*
X195580000Y-79502000D01*
G37*
X190500000Y-79502000D02*
X189230000Y-79502000D01*
X191770000Y-76962000D01*
X193040000Y-76962000D01*
X190500000Y-79502000D01*
G36*
X190500000Y-79502000D02*
G01*
X189230000Y-79502000D01*
X191770000Y-76962000D01*
X193040000Y-76962000D01*
X190500000Y-79502000D01*
G37*
X186690000Y-105156000D02*
X185420000Y-105156000D01*
X182880000Y-102616000D01*
X184150000Y-102616000D01*
X186690000Y-105156000D01*
G36*
X186690000Y-105156000D02*
G01*
X185420000Y-105156000D01*
X182880000Y-102616000D01*
X184150000Y-102616000D01*
X186690000Y-105156000D01*
G37*
X168910000Y-102616000D02*
X167640000Y-102616000D01*
X165100000Y-99695000D01*
X166370000Y-99695000D01*
X168910000Y-102616000D01*
G36*
X168910000Y-102616000D02*
G01*
X167640000Y-102616000D01*
X165100000Y-99695000D01*
X166370000Y-99695000D01*
X168910000Y-102616000D01*
G37*
X182880000Y-79502000D02*
X181610000Y-79502000D01*
X184150000Y-76962000D01*
X185420000Y-76962000D01*
X182880000Y-79502000D01*
G36*
X182880000Y-79502000D02*
G01*
X181610000Y-79502000D01*
X184150000Y-76962000D01*
X185420000Y-76962000D01*
X182880000Y-79502000D01*
G37*
X162560000Y-79502000D02*
X161290000Y-79502000D01*
X163830000Y-76962000D01*
X165100000Y-76962000D01*
X162560000Y-79502000D01*
G36*
X162560000Y-79502000D02*
G01*
X161290000Y-79502000D01*
X163830000Y-76962000D01*
X165100000Y-76962000D01*
X162560000Y-79502000D01*
G37*
X161290000Y-99695000D02*
X160020000Y-99695000D01*
X157480000Y-97155000D01*
X158750000Y-97155000D01*
X161290000Y-99695000D01*
G36*
X161290000Y-99695000D02*
G01*
X160020000Y-99695000D01*
X157480000Y-97155000D01*
X158750000Y-97155000D01*
X161290000Y-99695000D01*
G37*
X160020000Y-79502000D02*
X158750000Y-79502000D01*
X161290000Y-76962000D01*
X162560000Y-76962000D01*
X160020000Y-79502000D01*
G36*
X160020000Y-79502000D02*
G01*
X158750000Y-79502000D01*
X161290000Y-76962000D01*
X162560000Y-76962000D01*
X160020000Y-79502000D01*
G37*
X131800625Y-90113018D02*
X138023625Y-99638018D01*
X128879625Y-100781018D01*
X127863625Y-97479018D01*
X129133625Y-93415018D01*
X131800625Y-89986018D01*
X131800625Y-90113018D01*
G36*
X131800625Y-90113018D02*
G01*
X138023625Y-99638018D01*
X128879625Y-100781018D01*
X127863625Y-97479018D01*
X129133625Y-93415018D01*
X131800625Y-89986018D01*
X131800625Y-90113018D01*
G37*
X191770000Y-105156000D02*
X190500000Y-105156000D01*
X187960000Y-102616000D01*
X189230000Y-102616000D01*
X191770000Y-105156000D01*
G36*
X191770000Y-105156000D02*
G01*
X190500000Y-105156000D01*
X187960000Y-102616000D01*
X189230000Y-102616000D01*
X191770000Y-105156000D01*
G37*
X180340000Y-79502000D02*
X179070000Y-79502000D01*
X181610000Y-76962000D01*
X182880000Y-76962000D01*
X180340000Y-79502000D01*
G36*
X180340000Y-79502000D02*
G01*
X179070000Y-79502000D01*
X181610000Y-76962000D01*
X182880000Y-76962000D01*
X180340000Y-79502000D01*
G37*
X189230000Y-105156000D02*
X187960000Y-105156000D01*
X185420000Y-102616000D01*
X186690000Y-102616000D01*
X189230000Y-105156000D01*
G36*
X189230000Y-105156000D02*
G01*
X187960000Y-105156000D01*
X185420000Y-102616000D01*
X186690000Y-102616000D01*
X189230000Y-105156000D01*
G37*
X166243000Y-102616000D02*
X164973000Y-102616000D01*
X162560000Y-99695000D01*
X163830000Y-99695000D01*
X166243000Y-102616000D01*
G36*
X166243000Y-102616000D02*
G01*
X164973000Y-102616000D01*
X162560000Y-99695000D01*
X163830000Y-99695000D01*
X166243000Y-102616000D01*
G37*
X198120000Y-79502000D02*
X196850000Y-79502000D01*
X199390000Y-76962000D01*
X200660000Y-76962000D01*
X198120000Y-79502000D01*
G36*
X198120000Y-79502000D02*
G01*
X196850000Y-79502000D01*
X199390000Y-76962000D01*
X200660000Y-76962000D01*
X198120000Y-79502000D01*
G37*
X166370000Y-99695000D02*
X165100000Y-99695000D01*
X162560000Y-97155000D01*
X163830000Y-97155000D01*
X166370000Y-99695000D01*
G36*
X166370000Y-99695000D02*
G01*
X165100000Y-99695000D01*
X162560000Y-97155000D01*
X163830000Y-97155000D01*
X166370000Y-99695000D01*
G37*
X152400000Y-79502000D02*
X151130000Y-79502000D01*
X153670000Y-76962000D01*
X154940000Y-76962000D01*
X152400000Y-79502000D01*
G36*
X152400000Y-79502000D02*
G01*
X151130000Y-79502000D01*
X153670000Y-76962000D01*
X154940000Y-76962000D01*
X152400000Y-79502000D01*
G37*
X184150000Y-105156000D02*
X182880000Y-105156000D01*
X180340000Y-102616000D01*
X181610000Y-102616000D01*
X184150000Y-105156000D01*
G36*
X184150000Y-105156000D02*
G01*
X182880000Y-105156000D01*
X180340000Y-102616000D01*
X181610000Y-102616000D01*
X184150000Y-105156000D01*
G37*
X167640000Y-79502000D02*
X166370000Y-79502000D01*
X168910000Y-76962000D01*
X170180000Y-76962000D01*
X167640000Y-79502000D01*
G36*
X167640000Y-79502000D02*
G01*
X166370000Y-79502000D01*
X168910000Y-76962000D01*
X170180000Y-76962000D01*
X167640000Y-79502000D01*
G37*
X176530000Y-105156000D02*
X175260000Y-105156000D01*
X172720000Y-102616000D01*
X173990000Y-102616000D01*
X176530000Y-105156000D01*
G36*
X176530000Y-105156000D02*
G01*
X175260000Y-105156000D01*
X172720000Y-102616000D01*
X173990000Y-102616000D01*
X176530000Y-105156000D01*
G37*
X193040000Y-79502000D02*
X191770000Y-79502000D01*
X194310000Y-76962000D01*
X195580000Y-76962000D01*
X193040000Y-79502000D01*
G36*
X193040000Y-79502000D02*
G01*
X191770000Y-79502000D01*
X194310000Y-76962000D01*
X195580000Y-76962000D01*
X193040000Y-79502000D01*
G37*
X173990000Y-105156000D02*
X172720000Y-105156000D01*
X170180000Y-102616000D01*
X171450000Y-102616000D01*
X173990000Y-105156000D01*
G36*
X173990000Y-105156000D02*
G01*
X172720000Y-105156000D01*
X170180000Y-102616000D01*
X171450000Y-102616000D01*
X173990000Y-105156000D01*
G37*
X163830000Y-99695000D02*
X162560000Y-99695000D01*
X160020000Y-97155000D01*
X161290000Y-97155000D01*
X163830000Y-99695000D01*
G36*
X163830000Y-99695000D02*
G01*
X162560000Y-99695000D01*
X160020000Y-97155000D01*
X161290000Y-97155000D01*
X163830000Y-99695000D01*
G37*
X175260000Y-79502000D02*
X173990000Y-79502000D01*
X176530000Y-76962000D01*
X177800000Y-76962000D01*
X175260000Y-79502000D01*
G36*
X175260000Y-79502000D02*
G01*
X173990000Y-79502000D01*
X176530000Y-76962000D01*
X177800000Y-76962000D01*
X175260000Y-79502000D01*
G37*
X157480000Y-79502000D02*
X156210000Y-79502000D01*
X158750000Y-76962000D01*
X160020000Y-76962000D01*
X157480000Y-79502000D01*
G36*
X157480000Y-79502000D02*
G01*
X156210000Y-79502000D01*
X158750000Y-76962000D01*
X160020000Y-76962000D01*
X157480000Y-79502000D01*
G37*
X156210000Y-99695000D02*
X154940000Y-99695000D01*
X152400000Y-97155000D01*
X153670000Y-97155000D01*
X156210000Y-99695000D01*
G36*
X156210000Y-99695000D02*
G01*
X154940000Y-99695000D01*
X152400000Y-97155000D01*
X153670000Y-97155000D01*
X156210000Y-99695000D01*
G37*
X171450000Y-105156000D02*
X170180000Y-105156000D01*
X167640000Y-102616000D01*
X168910000Y-102616000D01*
X171450000Y-105156000D01*
G36*
X171450000Y-105156000D02*
G01*
X170180000Y-105156000D01*
X167640000Y-102616000D01*
X168910000Y-102616000D01*
X171450000Y-105156000D01*
G37*
X158750000Y-99695000D02*
X157480000Y-99695000D01*
X154940000Y-97155000D01*
X156210000Y-97155000D01*
X158750000Y-99695000D01*
G36*
X158750000Y-99695000D02*
G01*
X157480000Y-99695000D01*
X154940000Y-97155000D01*
X156210000Y-97155000D01*
X158750000Y-99695000D01*
G37*
D11*
G36*
X138655684Y-93617826D02*
G01*
X138704959Y-93622102D01*
X138753546Y-93629840D01*
X138801443Y-93641041D01*
X138848652Y-93655705D01*
X138876853Y-93666586D01*
X138904499Y-93678585D01*
X138931591Y-93691702D01*
X138958128Y-93705936D01*
X138984110Y-93721288D01*
X139009537Y-93737757D01*
X139034410Y-93755344D01*
X139058728Y-93774048D01*
X139082491Y-93793870D01*
X139105699Y-93814810D01*
X139128352Y-93836867D01*
X139150451Y-93860042D01*
X139171995Y-93884334D01*
X139192984Y-93909744D01*
X139213418Y-93936271D01*
X139233297Y-93963916D01*
X139252830Y-93992977D01*
X139270967Y-94021948D01*
X139287711Y-94050828D01*
X139303060Y-94079617D01*
X139317014Y-94108316D01*
X139329574Y-94136925D01*
X139340740Y-94165443D01*
X139350511Y-94193870D01*
X139358888Y-94222207D01*
X139368839Y-94264543D01*
X139375653Y-94306675D01*
X139379329Y-94348604D01*
X139379867Y-94390329D01*
X139378483Y-94418033D01*
X139375089Y-94449518D01*
X139369494Y-94481891D01*
X139361700Y-94515151D01*
X139351706Y-94549299D01*
X139339513Y-94584334D01*
X139325120Y-94620256D01*
X139312882Y-94647781D01*
X139299406Y-94675804D01*
X139289735Y-94694764D01*
X139319461Y-94687286D01*
X139348887Y-94680952D01*
X139378012Y-94675760D01*
X139421137Y-94670116D01*
X139463586Y-94667042D01*
X139505360Y-94666540D01*
X139546459Y-94668609D01*
X139586882Y-94673250D01*
X139626629Y-94680462D01*
X139665701Y-94690245D01*
X139704098Y-94702599D01*
X139729320Y-94712264D01*
X139766571Y-94728691D01*
X139802880Y-94747419D01*
X139838247Y-94768448D01*
X139872673Y-94791779D01*
X139906158Y-94817411D01*
X139938700Y-94845344D01*
X139970302Y-94875579D01*
X139990846Y-94897014D01*
X140010972Y-94919472D01*
X140030679Y-94942952D01*
X140049969Y-94967456D01*
X140068839Y-94992982D01*
X140078117Y-95006129D01*
X140096636Y-95033706D01*
X140114031Y-95061533D01*
X140130304Y-95089610D01*
X140145454Y-95117939D01*
X140159482Y-95146517D01*
X140172387Y-95175346D01*
X140184169Y-95204425D01*
X140194829Y-95233755D01*
X140204366Y-95263335D01*
X140212781Y-95293166D01*
X140220073Y-95323247D01*
X140226242Y-95353578D01*
X140231289Y-95384160D01*
X140235213Y-95414992D01*
X140238015Y-95446075D01*
X140239694Y-95477408D01*
X140240900Y-95508215D01*
X140241033Y-95538811D01*
X140240094Y-95569195D01*
X140238083Y-95599367D01*
X140235000Y-95629328D01*
X140230844Y-95659078D01*
X140225615Y-95688616D01*
X140219315Y-95717943D01*
X140211941Y-95747058D01*
X140203496Y-95775962D01*
X140197270Y-95795113D01*
X140185822Y-95827589D01*
X140172925Y-95859581D01*
X140158578Y-95891091D01*
X140142782Y-95922117D01*
X140125537Y-95952661D01*
X140106843Y-95982722D01*
X140086700Y-96012300D01*
X140065107Y-96041396D01*
X140042065Y-96070008D01*
X140017574Y-96098138D01*
X140000441Y-96116623D01*
X139973730Y-96143958D01*
X139946118Y-96171057D01*
X139917604Y-96197920D01*
X139888189Y-96224547D01*
X139857872Y-96250938D01*
X139826654Y-96277092D01*
X139794535Y-96303010D01*
X139761514Y-96328692D01*
X139727592Y-96354138D01*
X139692769Y-96379347D01*
X139669052Y-96396022D01*
X138538496Y-97181779D01*
X137548761Y-95757736D01*
X138286710Y-95757736D01*
X138741688Y-96412363D01*
X139354198Y-95986658D01*
X139384086Y-95965320D01*
X139412155Y-95944117D01*
X139438405Y-95923050D01*
X139462835Y-95902118D01*
X139485445Y-95881321D01*
X139506236Y-95860660D01*
X139531127Y-95833322D01*
X139552782Y-95806225D01*
X139571203Y-95779368D01*
X139579201Y-95766029D01*
X139597557Y-95729114D01*
X139611207Y-95691657D01*
X139620153Y-95653658D01*
X139624393Y-95615119D01*
X139623927Y-95576038D01*
X139618757Y-95536416D01*
X139608881Y-95496253D01*
X139594299Y-95455549D01*
X139581964Y-95428112D01*
X139567538Y-95400434D01*
X139551020Y-95372516D01*
X139532412Y-95344357D01*
X139506723Y-95310408D01*
X139479680Y-95280537D01*
X139451283Y-95254744D01*
X139421533Y-95233029D01*
X139390429Y-95215392D01*
X139357971Y-95201832D01*
X139324159Y-95192351D01*
X139288994Y-95186948D01*
X139252475Y-95185622D01*
X139214602Y-95188375D01*
X139188601Y-95192475D01*
X139158563Y-95199508D01*
X139127073Y-95209306D01*
X139094131Y-95221870D01*
X139059737Y-95237199D01*
X139032989Y-95250512D01*
X139005424Y-95265380D01*
X138977042Y-95281804D01*
X138947844Y-95299783D01*
X138917830Y-95319318D01*
X138907643Y-95326176D01*
X138286710Y-95757736D01*
X137548761Y-95757736D01*
X136852912Y-94756541D01*
X137590862Y-94756541D01*
X137992313Y-95334153D01*
X138604822Y-94908448D01*
X138634679Y-94886850D01*
X138662653Y-94864867D01*
X138688743Y-94842499D01*
X138712950Y-94819745D01*
X138735274Y-94796607D01*
X138755715Y-94773083D01*
X138774272Y-94749174D01*
X138790946Y-94724880D01*
X138810249Y-94691889D01*
X138826203Y-94658214D01*
X138837801Y-94623746D01*
X138844033Y-94588379D01*
X138844899Y-94552112D01*
X138840400Y-94514945D01*
X138830534Y-94476879D01*
X138819614Y-94447739D01*
X138805676Y-94418092D01*
X138788719Y-94387940D01*
X138768745Y-94357282D01*
X138744405Y-94324800D01*
X138719214Y-94296173D01*
X138693173Y-94271399D01*
X138666281Y-94250478D01*
X138638538Y-94233412D01*
X138609944Y-94220199D01*
X138580500Y-94210841D01*
X138550205Y-94205336D01*
X138519059Y-94203685D01*
X138487063Y-94205887D01*
X138465259Y-94209497D01*
X138428407Y-94220888D01*
X138400031Y-94231189D01*
X138371023Y-94242995D01*
X138341383Y-94256307D01*
X138311111Y-94271124D01*
X138280208Y-94287447D01*
X138248673Y-94305276D01*
X138216505Y-94324611D01*
X138183706Y-94345451D01*
X138150276Y-94367798D01*
X138138992Y-94375581D01*
X137590862Y-94756541D01*
X136852912Y-94756541D01*
X136798875Y-94678792D01*
X138010658Y-93836581D01*
X138039514Y-93817512D01*
X138068198Y-93799308D01*
X138096710Y-93781970D01*
X138125050Y-93765498D01*
X138153218Y-93749891D01*
X138181213Y-93735150D01*
X138209036Y-93721274D01*
X138236687Y-93708264D01*
X138264166Y-93696120D01*
X138291473Y-93684841D01*
X138345569Y-93664880D01*
X138398977Y-93648382D01*
X138451696Y-93635346D01*
X138503726Y-93625772D01*
X138555068Y-93619661D01*
X138605720Y-93617012D01*
X138655684Y-93617826D01*
G37*
G36*
X141126753Y-92829050D02*
G01*
X141163799Y-92833328D01*
X141200189Y-92840585D01*
X141235924Y-92850821D01*
X141271003Y-92864036D01*
X141305427Y-92880231D01*
X141339196Y-92899404D01*
X141372310Y-92921556D01*
X141404768Y-92946687D01*
X141436571Y-92974797D01*
X141467719Y-93005887D01*
X141498211Y-93039955D01*
X141528049Y-93077002D01*
X141557231Y-93117029D01*
X142143935Y-93961185D01*
X142163615Y-93989313D01*
X142184757Y-94019169D01*
X142202724Y-94044298D01*
X142221628Y-94070534D01*
X142241467Y-94097875D01*
X142262243Y-94126323D01*
X142283955Y-94155877D01*
X142295161Y-94171069D01*
X142317481Y-94199000D01*
X142338567Y-94223214D01*
X142362242Y-94247364D01*
X142387619Y-94268772D01*
X142413661Y-94284315D01*
X142416694Y-94285589D01*
X142445272Y-94293859D01*
X142476172Y-94297549D01*
X142505590Y-94296986D01*
X142528857Y-94294189D01*
X142582384Y-94371204D01*
X142057720Y-94735855D01*
X142032997Y-94716668D01*
X142009575Y-94697457D01*
X141987452Y-94678220D01*
X141963286Y-94655745D01*
X141940889Y-94633236D01*
X141919110Y-94609395D01*
X141896636Y-94583817D01*
X141876819Y-94560510D01*
X141856491Y-94535926D01*
X141835653Y-94510066D01*
X141831654Y-94544849D01*
X141826690Y-94579393D01*
X141820759Y-94613699D01*
X141813863Y-94647766D01*
X141806001Y-94681594D01*
X141797173Y-94715184D01*
X141787380Y-94748535D01*
X141776621Y-94781648D01*
X141764896Y-94814522D01*
X141752206Y-94847158D01*
X141743209Y-94868783D01*
X141725695Y-94906470D01*
X141706275Y-94942972D01*
X141684949Y-94978290D01*
X141661718Y-95012422D01*
X141636580Y-95045369D01*
X141609537Y-95077131D01*
X141580588Y-95107708D01*
X141549733Y-95137100D01*
X141516972Y-95165307D01*
X141482305Y-95192329D01*
X141458135Y-95209686D01*
X141426802Y-95230644D01*
X141395378Y-95250026D01*
X141363864Y-95267834D01*
X141332258Y-95284066D01*
X141300562Y-95298723D01*
X141268775Y-95311806D01*
X141236897Y-95323313D01*
X141204928Y-95333245D01*
X141172869Y-95341602D01*
X141140718Y-95348384D01*
X141108477Y-95353590D01*
X141076145Y-95357222D01*
X141043722Y-95359279D01*
X141011208Y-95359760D01*
X140978603Y-95358666D01*
X140945907Y-95355998D01*
X140913558Y-95351586D01*
X140881843Y-95345367D01*
X140850761Y-95337342D01*
X140820312Y-95327510D01*
X140790497Y-95315871D01*
X140761316Y-95302426D01*
X140732768Y-95287174D01*
X140704853Y-95270115D01*
X140677573Y-95251250D01*
X140650925Y-95230578D01*
X140624911Y-95208099D01*
X140599531Y-95183814D01*
X140574784Y-95157722D01*
X140550671Y-95129823D01*
X140527192Y-95100118D01*
X140504346Y-95068605D01*
X140476705Y-95026650D01*
X140452121Y-94984718D01*
X140430592Y-94942809D01*
X140412120Y-94900924D01*
X140396702Y-94859062D01*
X140384341Y-94817223D01*
X140375035Y-94775408D01*
X140368785Y-94733616D01*
X140365591Y-94691848D01*
X140365452Y-94650103D01*
X140368369Y-94608381D01*
X140374342Y-94566682D01*
X140383370Y-94525008D01*
X140388358Y-94507815D01*
X140896845Y-94507815D01*
X140896893Y-94541466D01*
X140901903Y-94574793D01*
X140911873Y-94607795D01*
X140926804Y-94640472D01*
X140946696Y-94672824D01*
X140966945Y-94699672D01*
X140987966Y-94723055D01*
X141009758Y-94742975D01*
X141038082Y-94763004D01*
X141067612Y-94777619D01*
X141098347Y-94786823D01*
X141130287Y-94790613D01*
X141162681Y-94789949D01*
X141194780Y-94785787D01*
X141226583Y-94778127D01*
X141258089Y-94766970D01*
X141289300Y-94752314D01*
X141320214Y-94734161D01*
X141332497Y-94725921D01*
X141360981Y-94705018D01*
X141387995Y-94682926D01*
X141413539Y-94659643D01*
X141437612Y-94635171D01*
X141460216Y-94609508D01*
X141481350Y-94582656D01*
X141501013Y-94554614D01*
X141519206Y-94525382D01*
X141535930Y-94494960D01*
X141551183Y-94463349D01*
X141560535Y-94441613D01*
X141572110Y-94408158D01*
X141579758Y-94373793D01*
X141583480Y-94338518D01*
X141583276Y-94302333D01*
X141579145Y-94265238D01*
X141571088Y-94227232D01*
X141559104Y-94188317D01*
X141543194Y-94148492D01*
X141530406Y-94121436D01*
X141515873Y-94093976D01*
X141499594Y-94066111D01*
X141481571Y-94037842D01*
X141365736Y-93871176D01*
X141351616Y-93899729D01*
X141336585Y-93927130D01*
X141320642Y-93953380D01*
X141303788Y-93978479D01*
X141284009Y-94004104D01*
X141262995Y-94028829D01*
X141242230Y-94051731D01*
X141218923Y-94076212D01*
X141197559Y-94097818D01*
X141102220Y-94191742D01*
X141077793Y-94215887D01*
X141055011Y-94239172D01*
X141033874Y-94261595D01*
X141008250Y-94290154D01*
X140985549Y-94317183D01*
X140965773Y-94342682D01*
X140945164Y-94372403D01*
X140929124Y-94399733D01*
X140926464Y-94404912D01*
X140911630Y-94439538D01*
X140901757Y-94473839D01*
X140896845Y-94507815D01*
X140388358Y-94507815D01*
X140395454Y-94483356D01*
X140410594Y-94441728D01*
X140428790Y-94400123D01*
X140446491Y-94365518D01*
X140467152Y-94330095D01*
X140490774Y-94293854D01*
X140508167Y-94269239D01*
X140526875Y-94244260D01*
X140546899Y-94218917D01*
X140568239Y-94193210D01*
X140590894Y-94167140D01*
X140614865Y-94140705D01*
X140640152Y-94113908D01*
X140666755Y-94086746D01*
X140694673Y-94059221D01*
X140723908Y-94031332D01*
X140754457Y-94003079D01*
X140770226Y-93988816D01*
X140920684Y-93854798D01*
X140942811Y-93834625D01*
X140970063Y-93808950D01*
X140994745Y-93784671D01*
X141016855Y-93761789D01*
X141040878Y-93735150D01*
X141060884Y-93710693D01*
X141079589Y-93684224D01*
X141082144Y-93680118D01*
X141098343Y-93651668D01*
X141110249Y-93623944D01*
X141119096Y-93590307D01*
X141121235Y-93557802D01*
X141116667Y-93526430D01*
X141105392Y-93496190D01*
X141091543Y-93472813D01*
X141071618Y-93446772D01*
X141050732Y-93424606D01*
X141023274Y-93402345D01*
X140994316Y-93386138D01*
X140963858Y-93375985D01*
X140931899Y-93371885D01*
X140905251Y-93372963D01*
X140870448Y-93378901D01*
X140841047Y-93386961D01*
X140810261Y-93397963D01*
X140778091Y-93411908D01*
X140744536Y-93428795D01*
X140718460Y-93443391D01*
X140691606Y-93459643D01*
X140663972Y-93477549D01*
X140645117Y-93490406D01*
X140614498Y-93512856D01*
X140586719Y-93535668D01*
X140561781Y-93558844D01*
X140539683Y-93582382D01*
X140520425Y-93606284D01*
X140499166Y-93638717D01*
X140482957Y-93671796D01*
X140471798Y-93705520D01*
X140465688Y-93739889D01*
X140464949Y-93748582D01*
X140465269Y-93780989D01*
X140468807Y-93814515D01*
X140475562Y-93849160D01*
X140483283Y-93877681D01*
X140493063Y-93906919D01*
X140504902Y-93936872D01*
X140518800Y-93967541D01*
X140522596Y-93975320D01*
X140056896Y-94298990D01*
X140037944Y-94266832D01*
X140020295Y-94234792D01*
X140003948Y-94202873D01*
X139988905Y-94171072D01*
X139975164Y-94139390D01*
X139962726Y-94107828D01*
X139951591Y-94076385D01*
X139941759Y-94045062D01*
X139933229Y-94013858D01*
X139926003Y-93982772D01*
X139920079Y-93951807D01*
X139915459Y-93920960D01*
X139912141Y-93890233D01*
X139910126Y-93859625D01*
X139909413Y-93829136D01*
X139910004Y-93798766D01*
X139914076Y-93751310D01*
X139921637Y-93704308D01*
X139932685Y-93657760D01*
X139947222Y-93611668D01*
X139965246Y-93566031D01*
X139986759Y-93520848D01*
X140011760Y-93476121D01*
X140040249Y-93431848D01*
X140072225Y-93388030D01*
X140107690Y-93344667D01*
X140146643Y-93301759D01*
X140167428Y-93280475D01*
X140189084Y-93259305D01*
X140211613Y-93238249D01*
X140235013Y-93217307D01*
X140259286Y-93196478D01*
X140284430Y-93175763D01*
X140310447Y-93155162D01*
X140337336Y-93134674D01*
X140365096Y-93114301D01*
X140393729Y-93094040D01*
X140431679Y-93068326D01*
X140469720Y-93043875D01*
X140507849Y-93020685D01*
X140546069Y-92998758D01*
X140584377Y-92978093D01*
X140622776Y-92958690D01*
X140661264Y-92940550D01*
X140699841Y-92923672D01*
X140738508Y-92908056D01*
X140777265Y-92893703D01*
X140816111Y-92880612D01*
X140855047Y-92868783D01*
X140894072Y-92858216D01*
X140933187Y-92848912D01*
X140972392Y-92840870D01*
X141011686Y-92834090D01*
X141050697Y-92829431D01*
X141089053Y-92827751D01*
X141126753Y-92829050D01*
G37*
G36*
X144576350Y-92985361D02*
G01*
X144107641Y-93311122D01*
X143931170Y-93057213D01*
X143931001Y-93098905D01*
X143929313Y-93139472D01*
X143926105Y-93178915D01*
X143921379Y-93217232D01*
X143915135Y-93254426D01*
X143907371Y-93290494D01*
X143898088Y-93325438D01*
X143887287Y-93359257D01*
X143874967Y-93391952D01*
X143861128Y-93423522D01*
X143851058Y-93443944D01*
X143834374Y-93473878D01*
X143815704Y-93503390D01*
X143795045Y-93532479D01*
X143772399Y-93561145D01*
X143747765Y-93589390D01*
X143721144Y-93617212D01*
X143692535Y-93644611D01*
X143661939Y-93671588D01*
X143629355Y-93698143D01*
X143594783Y-93724276D01*
X143570631Y-93741462D01*
X143529941Y-93768244D01*
X143488644Y-93792450D01*
X143446742Y-93814078D01*
X143404235Y-93833130D01*
X143361121Y-93849605D01*
X143317402Y-93863504D01*
X143273077Y-93874826D01*
X143228147Y-93883571D01*
X143182610Y-93889740D01*
X143136468Y-93893331D01*
X143089721Y-93894347D01*
X143042367Y-93892785D01*
X142994408Y-93888647D01*
X142945843Y-93881933D01*
X142896673Y-93872641D01*
X142846896Y-93860773D01*
X142797283Y-93846446D01*
X142748601Y-93829778D01*
X142700850Y-93810769D01*
X142654030Y-93789418D01*
X142608141Y-93765726D01*
X142563184Y-93739693D01*
X142519158Y-93711318D01*
X142476063Y-93680603D01*
X142433900Y-93647546D01*
X142392667Y-93612147D01*
X142352366Y-93574408D01*
X142312996Y-93534327D01*
X142274558Y-93491905D01*
X142237051Y-93447142D01*
X142218646Y-93423883D01*
X142200474Y-93400038D01*
X142182536Y-93375608D01*
X142164830Y-93350592D01*
X142144869Y-93321421D01*
X142125605Y-93292345D01*
X142107036Y-93263364D01*
X142089162Y-93234478D01*
X142071983Y-93205688D01*
X142055500Y-93176993D01*
X142039712Y-93148394D01*
X142024620Y-93119889D01*
X142010223Y-93091480D01*
X141996521Y-93063167D01*
X141983515Y-93034948D01*
X141971205Y-93006825D01*
X141959589Y-92978798D01*
X141948669Y-92950865D01*
X141938445Y-92923028D01*
X141928916Y-92895286D01*
X141911943Y-92840088D01*
X141897753Y-92785272D01*
X141886344Y-92730836D01*
X141877716Y-92676782D01*
X141871870Y-92623109D01*
X141868806Y-92569817D01*
X141868523Y-92516907D01*
X141871022Y-92464378D01*
X141872001Y-92454748D01*
X142445547Y-92454748D01*
X142446624Y-92483715D01*
X142449215Y-92512940D01*
X142453011Y-92542254D01*
X142458013Y-92571658D01*
X142464220Y-92601151D01*
X142471633Y-92630733D01*
X142480250Y-92660405D01*
X142490074Y-92690166D01*
X142501103Y-92720017D01*
X142513337Y-92749957D01*
X142526776Y-92779986D01*
X142541421Y-92810105D01*
X142557272Y-92840313D01*
X142574328Y-92870611D01*
X142592589Y-92900998D01*
X142612056Y-92931474D01*
X142632728Y-92962040D01*
X142655730Y-92994297D01*
X142678945Y-93025187D01*
X142702373Y-93054709D01*
X142726015Y-93082862D01*
X142749870Y-93109647D01*
X142773938Y-93135064D01*
X142798220Y-93159112D01*
X142822715Y-93181793D01*
X142847423Y-93203105D01*
X142872344Y-93223049D01*
X142897479Y-93241625D01*
X142922827Y-93258833D01*
X142948388Y-93274672D01*
X142974162Y-93289143D01*
X143013224Y-93308285D01*
X143026351Y-93313981D01*
X143065868Y-93328456D01*
X143105272Y-93338885D01*
X143144561Y-93345268D01*
X143183735Y-93347605D01*
X143222796Y-93345896D01*
X143261743Y-93340141D01*
X143300575Y-93330340D01*
X143339294Y-93316493D01*
X143377898Y-93298600D01*
X143403571Y-93284424D01*
X143429193Y-93268450D01*
X143441985Y-93259788D01*
X143466820Y-93241618D01*
X143490031Y-93222757D01*
X143521804Y-93193169D01*
X143549923Y-93162026D01*
X143574390Y-93129328D01*
X143595203Y-93095075D01*
X143612363Y-93059268D01*
X143625870Y-93021905D01*
X143635724Y-92982988D01*
X143641925Y-92942516D01*
X143644473Y-92900488D01*
X143644511Y-92886134D01*
X143642438Y-92842539D01*
X143639391Y-92813300D01*
X143635012Y-92783920D01*
X143629301Y-92754399D01*
X143622259Y-92724738D01*
X143613884Y-92694935D01*
X143604178Y-92664991D01*
X143593140Y-92634906D01*
X143580770Y-92604681D01*
X143567068Y-92574314D01*
X143552035Y-92543807D01*
X143535669Y-92513159D01*
X143517972Y-92482369D01*
X143498942Y-92451439D01*
X143478581Y-92420368D01*
X143467901Y-92404779D01*
X143437404Y-92362324D01*
X143406654Y-92322353D01*
X143375650Y-92284865D01*
X143344392Y-92249861D01*
X143312880Y-92217341D01*
X143281116Y-92187305D01*
X143249097Y-92159752D01*
X143216825Y-92134683D01*
X143184299Y-92112098D01*
X143151520Y-92091996D01*
X143118487Y-92074379D01*
X143085200Y-92059245D01*
X143051660Y-92046595D01*
X143017867Y-92036428D01*
X142983819Y-92028745D01*
X142949518Y-92023546D01*
X142918302Y-92021162D01*
X142887594Y-92020794D01*
X142857392Y-92022442D01*
X142827697Y-92026107D01*
X142798510Y-92031787D01*
X142769830Y-92039483D01*
X142741656Y-92049195D01*
X142713990Y-92060923D01*
X142686831Y-92074668D01*
X142660179Y-92090428D01*
X142642693Y-92102055D01*
X142617108Y-92120795D01*
X142593300Y-92140218D01*
X142571270Y-92160322D01*
X142541557Y-92191757D01*
X142515844Y-92224725D01*
X142494130Y-92259227D01*
X142476415Y-92295264D01*
X142462699Y-92332834D01*
X142452983Y-92371938D01*
X142447265Y-92412576D01*
X142445547Y-92454748D01*
X141872001Y-92454748D01*
X141876283Y-92412637D01*
X141884135Y-92362198D01*
X141894578Y-92313060D01*
X141907613Y-92265223D01*
X141923239Y-92218687D01*
X141941456Y-92173453D01*
X141962265Y-92129519D01*
X141985665Y-92086887D01*
X142011656Y-92045556D01*
X142040239Y-92005526D01*
X142071413Y-91966797D01*
X142105179Y-91929369D01*
X142141536Y-91893243D01*
X142180484Y-91858417D01*
X142222024Y-91824893D01*
X142266155Y-91792670D01*
X142297709Y-91771618D01*
X142329420Y-91752214D01*
X142361288Y-91734457D01*
X142393313Y-91718348D01*
X142425494Y-91703886D01*
X142457833Y-91691072D01*
X142490329Y-91679906D01*
X142522981Y-91670388D01*
X142555791Y-91662517D01*
X142588758Y-91656294D01*
X142610823Y-91653060D01*
X142643968Y-91649437D01*
X142676878Y-91647326D01*
X142709552Y-91646728D01*
X142741992Y-91647641D01*
X142774197Y-91650068D01*
X142806166Y-91654006D01*
X142837901Y-91659457D01*
X142869400Y-91666420D01*
X142900664Y-91674895D01*
X142931693Y-91684883D01*
X142952249Y-91692382D01*
X142347563Y-90822354D01*
X142836729Y-90482375D01*
X144576350Y-92985361D01*
G37*
G36*
X146610813Y-91444663D02*
G01*
X146641120Y-91489272D01*
X146669523Y-91533147D01*
X146696022Y-91576290D01*
X146720617Y-91618699D01*
X146743308Y-91660375D01*
X146764096Y-91701317D01*
X146782979Y-91741526D01*
X146799959Y-91781002D01*
X146815035Y-91819745D01*
X146828206Y-91857754D01*
X146839474Y-91895030D01*
X146848838Y-91931573D01*
X146856299Y-91967383D01*
X146861855Y-92002459D01*
X146865507Y-92036802D01*
X146867256Y-92070412D01*
X146866361Y-92127330D01*
X146860802Y-92183858D01*
X146850580Y-92239994D01*
X146835695Y-92295740D01*
X146816146Y-92351096D01*
X146804623Y-92378627D01*
X146791934Y-92406060D01*
X146778079Y-92433395D01*
X146763058Y-92460633D01*
X146746871Y-92487774D01*
X146729518Y-92514816D01*
X146711000Y-92541761D01*
X146691315Y-92568608D01*
X146670465Y-92595358D01*
X146648449Y-92622009D01*
X146625267Y-92648563D01*
X146600919Y-92675020D01*
X146575405Y-92701378D01*
X146548725Y-92727639D01*
X146520880Y-92753802D01*
X146491868Y-92779868D01*
X146461691Y-92805836D01*
X146430348Y-92831706D01*
X146397839Y-92857478D01*
X146364164Y-92883153D01*
X146329323Y-92908730D01*
X146293316Y-92934209D01*
X146249280Y-92963975D01*
X146205466Y-92991906D01*
X146161876Y-93018002D01*
X146118510Y-93042262D01*
X146075366Y-93064688D01*
X146032446Y-93085277D01*
X145989749Y-93104032D01*
X145947275Y-93120951D01*
X145905025Y-93136036D01*
X145862998Y-93149284D01*
X145821194Y-93160698D01*
X145779614Y-93170276D01*
X145738257Y-93178020D01*
X145697123Y-93183927D01*
X145656212Y-93188000D01*
X145615525Y-93190237D01*
X145575466Y-93190476D01*
X145536188Y-93188506D01*
X145497689Y-93184329D01*
X145459970Y-93177943D01*
X145423031Y-93169349D01*
X145386872Y-93158547D01*
X145351492Y-93145537D01*
X145316892Y-93130319D01*
X145283072Y-93112893D01*
X145250032Y-93093259D01*
X145217771Y-93071416D01*
X145186291Y-93047366D01*
X145155590Y-93021107D01*
X145125669Y-92992640D01*
X145096528Y-92961966D01*
X145068166Y-92929083D01*
X145592831Y-92564431D01*
X145617842Y-92585460D01*
X145642453Y-92603280D01*
X145671459Y-92620431D01*
X145699890Y-92632962D01*
X145732332Y-92641743D01*
X145745996Y-92643581D01*
X145778042Y-92644732D01*
X145811951Y-92641465D01*
X145847726Y-92633778D01*
X145875780Y-92625113D01*
X145904883Y-92613963D01*
X145935034Y-92600327D01*
X145966235Y-92584205D01*
X145998484Y-92565598D01*
X146031782Y-92544505D01*
X146054563Y-92529062D01*
X146085987Y-92506224D01*
X146115128Y-92482980D01*
X146141985Y-92459330D01*
X146166559Y-92435272D01*
X146188849Y-92410808D01*
X146208856Y-92385937D01*
X146226580Y-92360659D01*
X146242020Y-92334975D01*
X146260898Y-92295685D01*
X146274639Y-92255481D01*
X146283242Y-92214361D01*
X146286708Y-92172326D01*
X146285036Y-92129376D01*
X146283336Y-92114856D01*
X146278466Y-92085822D01*
X146270735Y-92054839D01*
X146260144Y-92021907D01*
X146246693Y-91987026D01*
X146230381Y-91950196D01*
X146211209Y-91911417D01*
X146196838Y-91884482D01*
X146181196Y-91856680D01*
X146164283Y-91828012D01*
X146146099Y-91798478D01*
X146126643Y-91768078D01*
X146105916Y-91736811D01*
X146083918Y-91704678D01*
X146002791Y-91587953D01*
X146004048Y-91617637D01*
X146004381Y-91655880D01*
X146003179Y-91692596D01*
X146000442Y-91727786D01*
X145996170Y-91761450D01*
X145990363Y-91793587D01*
X145983021Y-91824198D01*
X145974144Y-91853282D01*
X145971685Y-91860314D01*
X145956964Y-91898293D01*
X145939441Y-91935490D01*
X145919116Y-91971905D01*
X145895990Y-92007538D01*
X145870061Y-92042389D01*
X145851218Y-92065189D01*
X145831130Y-92087642D01*
X145809797Y-92109747D01*
X145787218Y-92131504D01*
X145763394Y-92152914D01*
X145738325Y-92173977D01*
X145712010Y-92194692D01*
X145684450Y-92215060D01*
X145670203Y-92225113D01*
X145625713Y-92254599D01*
X145580991Y-92281373D01*
X145536038Y-92305436D01*
X145490852Y-92326788D01*
X145445434Y-92345430D01*
X145399785Y-92361360D01*
X145353903Y-92374580D01*
X145307789Y-92385089D01*
X145261444Y-92392886D01*
X145214866Y-92397973D01*
X145168057Y-92400349D01*
X145121015Y-92400014D01*
X145073742Y-92396967D01*
X145026237Y-92391210D01*
X144978499Y-92382742D01*
X144930530Y-92371563D01*
X144882745Y-92357691D01*
X144835666Y-92341293D01*
X144789291Y-92322368D01*
X144743623Y-92300918D01*
X144698659Y-92276943D01*
X144654401Y-92250441D01*
X144610848Y-92221413D01*
X144568001Y-92189860D01*
X144525859Y-92155781D01*
X144484422Y-92119176D01*
X144443691Y-92080045D01*
X144403665Y-92038388D01*
X144383916Y-92016612D01*
X144364344Y-91994205D01*
X144344948Y-91971167D01*
X144325729Y-91947497D01*
X144306685Y-91923196D01*
X144287819Y-91898263D01*
X144269128Y-91872698D01*
X144250614Y-91846503D01*
X144233130Y-91820920D01*
X144216222Y-91795315D01*
X144199892Y-91769686D01*
X144184138Y-91744036D01*
X144168961Y-91718362D01*
X144154361Y-91692666D01*
X144126891Y-91641206D01*
X144101728Y-91589655D01*
X144078872Y-91538013D01*
X144058323Y-91486280D01*
X144040082Y-91434457D01*
X144024147Y-91382543D01*
X144010520Y-91330538D01*
X143999200Y-91278442D01*
X143990187Y-91226256D01*
X143983482Y-91173978D01*
X143979083Y-91121611D01*
X143976992Y-91069152D01*
X143977207Y-91016603D01*
X143979027Y-90982777D01*
X144551385Y-90982777D01*
X144551848Y-91018444D01*
X144554888Y-91055200D01*
X144560503Y-91093044D01*
X144568695Y-91131977D01*
X144577291Y-91163619D01*
X144587533Y-91195732D01*
X144599420Y-91228318D01*
X144612953Y-91261375D01*
X144628131Y-91294904D01*
X144644955Y-91328905D01*
X144663424Y-91363378D01*
X144683540Y-91398323D01*
X144705300Y-91433740D01*
X144728706Y-91469628D01*
X144745224Y-91493816D01*
X144767274Y-91524525D01*
X144789826Y-91553928D01*
X144812883Y-91582024D01*
X144836442Y-91608813D01*
X144860506Y-91634295D01*
X144885072Y-91658470D01*
X144910142Y-91681339D01*
X144935716Y-91702901D01*
X144961793Y-91723157D01*
X144988374Y-91742105D01*
X145006374Y-91754012D01*
X145039750Y-91774576D01*
X145073021Y-91792391D01*
X145106187Y-91807456D01*
X145139246Y-91819771D01*
X145172200Y-91829336D01*
X145205048Y-91836151D01*
X145237791Y-91840216D01*
X145270428Y-91841532D01*
X145302959Y-91840097D01*
X145335385Y-91835913D01*
X145367704Y-91828978D01*
X145399919Y-91819294D01*
X145432027Y-91806860D01*
X145464030Y-91791676D01*
X145495927Y-91773741D01*
X145527718Y-91753058D01*
X145558255Y-91730101D01*
X145586235Y-91705454D01*
X145611661Y-91679117D01*
X145634532Y-91651089D01*
X145654847Y-91621370D01*
X145672607Y-91589961D01*
X145687811Y-91556862D01*
X145700461Y-91522072D01*
X145710555Y-91485591D01*
X145718094Y-91447420D01*
X145721700Y-91421034D01*
X145724191Y-91380105D01*
X145722704Y-91337831D01*
X145717239Y-91294213D01*
X145711386Y-91264387D01*
X145703765Y-91233963D01*
X145694376Y-91202941D01*
X145683219Y-91171321D01*
X145670295Y-91139104D01*
X145655602Y-91106289D01*
X145639142Y-91072876D01*
X145620913Y-91038866D01*
X145600917Y-91004257D01*
X145579153Y-90969051D01*
X145555621Y-90933247D01*
X145543192Y-90915121D01*
X145519381Y-90881788D01*
X145495408Y-90850080D01*
X145471275Y-90819995D01*
X145446981Y-90791536D01*
X145422526Y-90764700D01*
X145397911Y-90739489D01*
X145373135Y-90715903D01*
X145348198Y-90693941D01*
X145323101Y-90673603D01*
X145297843Y-90654890D01*
X145272424Y-90637801D01*
X145246845Y-90622337D01*
X145208175Y-90602186D01*
X145169143Y-90585690D01*
X145142921Y-90576724D01*
X145103715Y-90566019D01*
X145064937Y-90558750D01*
X145026587Y-90554918D01*
X144988664Y-90554521D01*
X144951168Y-90557560D01*
X144914100Y-90564036D01*
X144877459Y-90573947D01*
X144841246Y-90587294D01*
X144805460Y-90604078D01*
X144770101Y-90624297D01*
X144746766Y-90639686D01*
X144716316Y-90662289D01*
X144688441Y-90685981D01*
X144663143Y-90710762D01*
X144640421Y-90736631D01*
X144620275Y-90763589D01*
X144602705Y-90791635D01*
X144587712Y-90820770D01*
X144575294Y-90850994D01*
X144565453Y-90882307D01*
X144558187Y-90914708D01*
X144553498Y-90948198D01*
X144551385Y-90982777D01*
X143979027Y-90982777D01*
X143980003Y-90964630D01*
X143985651Y-90913904D01*
X143994151Y-90864422D01*
X144005503Y-90816186D01*
X144019708Y-90769195D01*
X144036765Y-90723449D01*
X144056674Y-90678949D01*
X144079436Y-90635694D01*
X144105050Y-90593684D01*
X144133516Y-90552919D01*
X144164834Y-90513400D01*
X144199005Y-90475126D01*
X144236028Y-90438097D01*
X144275904Y-90402314D01*
X144318632Y-90367776D01*
X144364212Y-90334483D01*
X144390088Y-90317001D01*
X144415820Y-90300622D01*
X144441410Y-90285346D01*
X144475308Y-90266694D01*
X144508951Y-90250004D01*
X144542341Y-90235275D01*
X144575476Y-90222507D01*
X144608356Y-90211701D01*
X144632850Y-90204883D01*
X144674579Y-90195895D01*
X144716477Y-90189676D01*
X144758542Y-90186227D01*
X144800775Y-90185547D01*
X144843176Y-90187636D01*
X144885746Y-90192494D01*
X144928483Y-90200122D01*
X144957068Y-90206746D01*
X144985727Y-90214601D01*
X145014461Y-90223686D01*
X145043270Y-90234003D01*
X145072153Y-90245550D01*
X145086623Y-90251785D01*
X144916843Y-90007503D01*
X145385551Y-89681742D01*
X146610813Y-91444663D01*
G37*
G36*
X147181465Y-88615388D02*
G01*
X147212043Y-88617092D01*
X147242648Y-88619906D01*
X147273279Y-88623832D01*
X147303936Y-88628869D01*
X147334620Y-88635017D01*
X147365330Y-88642276D01*
X147396066Y-88650647D01*
X147426829Y-88660128D01*
X147457617Y-88670720D01*
X147488433Y-88682424D01*
X147515715Y-88693428D01*
X147542678Y-88705246D01*
X147569322Y-88717879D01*
X147595647Y-88731327D01*
X147621653Y-88745589D01*
X147647339Y-88760665D01*
X147672706Y-88776556D01*
X147697753Y-88793261D01*
X147722481Y-88810781D01*
X147746890Y-88829115D01*
X147770980Y-88848264D01*
X147794751Y-88868227D01*
X147818202Y-88889005D01*
X147841334Y-88910597D01*
X147864146Y-88933003D01*
X147886640Y-88956224D01*
X147906759Y-88978127D01*
X147927817Y-89002215D01*
X147949814Y-89028490D01*
X147972751Y-89056952D01*
X147996626Y-89087599D01*
X148021441Y-89120433D01*
X148047195Y-89155453D01*
X148064886Y-89180015D01*
X148082995Y-89205548D01*
X148101520Y-89232053D01*
X148120464Y-89259529D01*
X148139824Y-89287977D01*
X148149661Y-89302566D01*
X146887338Y-90179904D01*
X146913071Y-90212916D01*
X146939098Y-90243785D01*
X146965421Y-90272511D01*
X146992040Y-90299094D01*
X147018953Y-90323534D01*
X147046161Y-90345831D01*
X147073665Y-90365985D01*
X147101463Y-90383995D01*
X147129557Y-90399863D01*
X147157946Y-90413587D01*
X147186630Y-90425168D01*
X147215609Y-90434606D01*
X147244883Y-90441901D01*
X147274453Y-90447053D01*
X147304317Y-90450061D01*
X147334477Y-90450927D01*
X147371446Y-90449493D01*
X147408158Y-90445002D01*
X147444615Y-90437455D01*
X147480815Y-90426851D01*
X147516760Y-90413190D01*
X147543550Y-90400939D01*
X147570196Y-90386968D01*
X147596698Y-90371278D01*
X147623056Y-90353869D01*
X147649976Y-90333951D01*
X147674781Y-90313088D01*
X147697470Y-90291280D01*
X147718043Y-90268526D01*
X147736501Y-90244828D01*
X147752843Y-90220184D01*
X147771342Y-90185856D01*
X147786079Y-90149848D01*
X147794664Y-90121738D01*
X147801133Y-90092684D01*
X147805727Y-90059710D01*
X147807636Y-90024587D01*
X147807175Y-89993676D01*
X147804849Y-89961273D01*
X147800658Y-89927377D01*
X147794602Y-89891989D01*
X148286776Y-89549920D01*
X148304014Y-89584689D01*
X148318970Y-89621186D01*
X148331644Y-89659410D01*
X148342037Y-89699360D01*
X148350147Y-89741038D01*
X148355976Y-89784443D01*
X148358594Y-89814339D01*
X148360198Y-89845003D01*
X148360788Y-89876434D01*
X148360364Y-89908633D01*
X148358925Y-89941599D01*
X148356473Y-89975333D01*
X148353006Y-90009835D01*
X148345775Y-90064241D01*
X148335570Y-90117529D01*
X148322392Y-90169697D01*
X148306239Y-90220747D01*
X148287113Y-90270677D01*
X148265014Y-90319489D01*
X148239940Y-90367181D01*
X148211893Y-90413754D01*
X148180872Y-90459208D01*
X148146877Y-90503543D01*
X148109909Y-90546759D01*
X148069967Y-90588856D01*
X148048881Y-90609485D01*
X148027051Y-90629834D01*
X148004478Y-90649903D01*
X147981161Y-90669692D01*
X147957102Y-90689202D01*
X147932298Y-90708432D01*
X147906751Y-90727382D01*
X147880461Y-90746053D01*
X147836182Y-90775534D01*
X147791339Y-90802822D01*
X147745933Y-90827914D01*
X147699963Y-90850811D01*
X147653430Y-90871514D01*
X147606334Y-90890022D01*
X147558674Y-90906335D01*
X147510451Y-90920454D01*
X147461664Y-90932377D01*
X147412314Y-90942106D01*
X147362401Y-90949640D01*
X147311924Y-90954980D01*
X147260884Y-90958124D01*
X147209281Y-90959074D01*
X147157114Y-90957829D01*
X147104384Y-90954389D01*
X147051612Y-90947956D01*
X146999426Y-90937882D01*
X146947825Y-90924166D01*
X146896810Y-90906808D01*
X146846379Y-90885809D01*
X146796534Y-90861169D01*
X146747274Y-90832887D01*
X146698600Y-90800964D01*
X146674482Y-90783637D01*
X146650511Y-90765399D01*
X146626686Y-90746251D01*
X146603007Y-90726193D01*
X146579474Y-90705225D01*
X146556088Y-90683346D01*
X146532848Y-90660556D01*
X146509755Y-90636857D01*
X146486808Y-90612247D01*
X146464007Y-90586726D01*
X146441352Y-90560295D01*
X146418844Y-90532954D01*
X146396482Y-90504703D01*
X146374266Y-90475541D01*
X146352197Y-90445469D01*
X146330274Y-90414486D01*
X146310170Y-90385054D01*
X146290838Y-90355723D01*
X146272278Y-90326494D01*
X146254491Y-90297365D01*
X146237477Y-90268337D01*
X146221235Y-90239410D01*
X146205766Y-90210583D01*
X146191069Y-90181858D01*
X146177145Y-90153234D01*
X146163993Y-90124711D01*
X146151613Y-90096289D01*
X146140007Y-90067967D01*
X146129172Y-90039747D01*
X146119111Y-90011628D01*
X146109822Y-89983609D01*
X146093561Y-89927875D01*
X146080390Y-89872545D01*
X146070309Y-89817618D01*
X146063319Y-89763096D01*
X146059418Y-89708977D01*
X146058608Y-89655262D01*
X146060887Y-89601951D01*
X146064543Y-89565933D01*
X146602168Y-89565933D01*
X146603669Y-89598491D01*
X146607279Y-89631511D01*
X146612999Y-89664995D01*
X146620828Y-89698942D01*
X146630768Y-89733351D01*
X146642817Y-89768224D01*
X146656977Y-89803559D01*
X146673246Y-89839357D01*
X146685264Y-89863480D01*
X147434957Y-89342430D01*
X147407826Y-89309935D01*
X147380187Y-89280162D01*
X147352040Y-89253111D01*
X147323385Y-89228781D01*
X147294221Y-89207173D01*
X147264550Y-89188287D01*
X147234370Y-89172122D01*
X147203682Y-89158679D01*
X147172485Y-89147958D01*
X147140780Y-89139958D01*
X147119362Y-89136137D01*
X147087224Y-89132480D01*
X147055407Y-89131157D01*
X147023911Y-89132168D01*
X146992734Y-89135513D01*
X146961878Y-89141192D01*
X146931343Y-89149206D01*
X146901127Y-89159553D01*
X146871232Y-89172234D01*
X146841657Y-89187250D01*
X146812403Y-89204599D01*
X146793078Y-89217462D01*
X146763007Y-89239719D01*
X146735519Y-89262894D01*
X146710615Y-89286987D01*
X146688293Y-89311998D01*
X146668555Y-89337928D01*
X146651400Y-89364775D01*
X146636828Y-89392541D01*
X146624839Y-89421225D01*
X146615433Y-89450828D01*
X146608611Y-89481348D01*
X146605497Y-89502206D01*
X146602778Y-89533838D01*
X146602168Y-89565933D01*
X146064543Y-89565933D01*
X146066257Y-89549044D01*
X146070101Y-89522742D01*
X146079832Y-89470703D01*
X146092060Y-89419851D01*
X146106786Y-89370183D01*
X146124008Y-89321702D01*
X146143727Y-89274405D01*
X146165944Y-89228294D01*
X146190657Y-89183369D01*
X146217868Y-89139629D01*
X146247575Y-89097075D01*
X146279780Y-89055706D01*
X146314481Y-89015522D01*
X146351680Y-88976524D01*
X146391375Y-88938712D01*
X146433568Y-88902085D01*
X146478258Y-88866643D01*
X146525444Y-88832387D01*
X146554297Y-88812822D01*
X146583246Y-88794166D01*
X146612290Y-88776420D01*
X146641429Y-88759583D01*
X146670664Y-88743656D01*
X146699994Y-88728639D01*
X146729420Y-88714532D01*
X146758941Y-88701334D01*
X146788558Y-88689045D01*
X146818270Y-88677667D01*
X146848077Y-88667198D01*
X146877980Y-88657639D01*
X146907979Y-88648989D01*
X146938072Y-88641249D01*
X146968262Y-88634418D01*
X146998546Y-88628498D01*
X147028967Y-88623535D01*
X147059414Y-88619683D01*
X147089887Y-88616943D01*
X147120387Y-88615313D01*
X147150913Y-88614795D01*
X147181465Y-88615388D01*
G37*
D10*
G36*
X207815220Y-78293453D02*
G01*
X207536256Y-78495389D01*
X207264534Y-78286842D01*
X206811366Y-78614881D01*
X206918677Y-78942442D01*
X206649803Y-79137074D01*
X206247715Y-77763465D01*
X206542393Y-77763465D01*
X206729276Y-78355900D01*
X207041478Y-78129903D01*
X206542393Y-77763465D01*
X206247715Y-77763465D01*
X206195347Y-77584567D01*
X206485589Y-77374468D01*
X207815220Y-78293453D01*
G37*
G36*
X207066368Y-76954054D02*
G01*
X207335836Y-76758992D01*
X208438917Y-77251297D01*
X207825804Y-76404314D01*
X208065297Y-76230950D01*
X208958973Y-77465514D01*
X208701970Y-77651553D01*
X207570742Y-77146607D01*
X208199538Y-78015254D01*
X207960044Y-78188618D01*
X207066368Y-76954054D01*
G37*
G36*
X209191837Y-75415471D02*
G01*
X209343075Y-75624397D01*
X208975080Y-75890781D01*
X209717518Y-76916419D01*
X209458734Y-77103747D01*
X208716296Y-76078109D01*
X208346520Y-76345782D01*
X208195283Y-76136856D01*
X209191837Y-75415471D01*
G37*
G36*
X210397500Y-74861121D02*
G01*
X209746682Y-75332234D01*
X209952915Y-75617133D01*
X210550314Y-75184689D01*
X210701551Y-75393615D01*
X210104153Y-75826059D01*
X210324134Y-76129952D01*
X211005222Y-75636927D01*
X211170208Y-75864846D01*
X210237756Y-76539829D01*
X209344080Y-75305265D01*
X210246262Y-74652194D01*
X210397500Y-74861121D01*
G37*
G36*
X210466169Y-74493008D02*
G01*
X210735636Y-74297946D01*
X211838717Y-74790251D01*
X211225604Y-73943269D01*
X211465098Y-73769904D01*
X212358774Y-75004469D01*
X212101770Y-75190508D01*
X210970543Y-74685562D01*
X211599338Y-75554208D01*
X211359845Y-75727573D01*
X210466169Y-74493008D01*
G37*
G36*
X211693611Y-73604488D02*
G01*
X211963078Y-73409426D01*
X213066159Y-73901731D01*
X212453046Y-73054749D01*
X212692540Y-72881384D01*
X213586216Y-74115949D01*
X213329212Y-74301988D01*
X212197985Y-73797042D01*
X212826780Y-74665688D01*
X212587287Y-74839053D01*
X211693611Y-73604488D01*
G37*
G36*
X214897347Y-73166848D02*
G01*
X214618383Y-73368785D01*
X214346661Y-73160237D01*
X213893493Y-73488276D01*
X214000804Y-73815837D01*
X213731930Y-74010469D01*
X213329841Y-72636860D01*
X213624520Y-72636860D01*
X213811403Y-73229295D01*
X214123605Y-73003298D01*
X213624520Y-72636860D01*
X213329841Y-72636860D01*
X213277474Y-72457963D01*
X213567716Y-72247863D01*
X214897347Y-73166848D01*
G37*
D11*
G36*
X144849058Y-96790286D02*
G01*
X144874304Y-96816353D01*
X144899372Y-96840425D01*
X144924261Y-96862505D01*
X144948973Y-96882590D01*
X144973507Y-96900681D01*
X145005942Y-96921702D01*
X145038061Y-96939178D01*
X145069863Y-96953109D01*
X145101349Y-96963495D01*
X145109171Y-96965538D01*
X145137950Y-96971578D01*
X145167351Y-96975505D01*
X145197375Y-96977318D01*
X145228022Y-96977019D01*
X145259291Y-96974607D01*
X145291184Y-96970082D01*
X145323699Y-96963444D01*
X145356837Y-96954693D01*
X145390598Y-96943829D01*
X145424982Y-96930852D01*
X145459989Y-96915762D01*
X145495618Y-96898559D01*
X145531871Y-96879244D01*
X145568746Y-96857815D01*
X145606244Y-96834273D01*
X145644365Y-96808618D01*
X145678147Y-96784630D01*
X145710224Y-96760806D01*
X145740596Y-96737148D01*
X145769264Y-96713655D01*
X145796227Y-96690327D01*
X145821486Y-96667164D01*
X145845040Y-96644167D01*
X145866889Y-96621335D01*
X145887033Y-96598668D01*
X145911241Y-96568702D01*
X145916820Y-96561257D01*
X145936384Y-96532971D01*
X145953543Y-96504864D01*
X145968296Y-96476938D01*
X145980645Y-96449192D01*
X145994656Y-96407911D01*
X146003256Y-96367034D01*
X146006443Y-96326562D01*
X146004218Y-96286496D01*
X145996581Y-96246834D01*
X145983531Y-96207577D01*
X145965069Y-96168725D01*
X145949754Y-96143049D01*
X145941195Y-96130279D01*
X145919391Y-96102518D01*
X145895378Y-96078801D01*
X145869158Y-96059129D01*
X145840729Y-96043502D01*
X145810091Y-96031919D01*
X145777246Y-96024380D01*
X145742192Y-96020886D01*
X145704930Y-96021437D01*
X145675301Y-96024451D01*
X145643652Y-96029184D01*
X145609981Y-96035635D01*
X145574289Y-96043805D01*
X145536576Y-96053693D01*
X145496841Y-96065300D01*
X145455086Y-96078624D01*
X145426126Y-96088463D01*
X145396268Y-96099064D01*
X145365512Y-96110430D01*
X145333857Y-96122559D01*
X145301304Y-96135452D01*
X145284691Y-96142185D01*
X144978317Y-96264996D01*
X144950318Y-96276126D01*
X144922771Y-96286902D01*
X144869029Y-96307393D01*
X144817092Y-96326470D01*
X144766961Y-96344132D01*
X144718634Y-96360378D01*
X144672113Y-96375210D01*
X144627397Y-96388627D01*
X144584486Y-96400629D01*
X144543380Y-96411216D01*
X144504079Y-96420388D01*
X144466583Y-96428145D01*
X144430892Y-96434488D01*
X144397007Y-96439415D01*
X144364926Y-96442928D01*
X144334651Y-96445025D01*
X144306181Y-96445708D01*
X144260067Y-96444501D01*
X144214862Y-96440398D01*
X144170564Y-96433398D01*
X144127174Y-96423502D01*
X144084691Y-96410709D01*
X144043117Y-96395019D01*
X144002450Y-96376433D01*
X143962691Y-96354950D01*
X143923839Y-96330571D01*
X143885896Y-96303295D01*
X143848860Y-96273122D01*
X143812732Y-96240053D01*
X143777512Y-96204088D01*
X143743200Y-96165225D01*
X143709795Y-96123467D01*
X143677299Y-96078811D01*
X143649390Y-96036624D01*
X143623999Y-95993998D01*
X143601126Y-95950932D01*
X143580771Y-95907427D01*
X143562933Y-95863483D01*
X143547614Y-95819099D01*
X143534813Y-95774275D01*
X143524530Y-95729012D01*
X143516764Y-95683310D01*
X143511517Y-95637168D01*
X143508787Y-95590587D01*
X143508576Y-95543567D01*
X143510882Y-95496107D01*
X143515707Y-95448207D01*
X143523049Y-95399869D01*
X143532909Y-95351090D01*
X143545524Y-95302343D01*
X143561129Y-95254097D01*
X143579724Y-95206351D01*
X143601309Y-95159107D01*
X143625885Y-95112364D01*
X143653451Y-95066121D01*
X143684008Y-95020380D01*
X143717554Y-94975140D01*
X143754091Y-94930401D01*
X143773481Y-94908219D01*
X143793619Y-94886163D01*
X143814504Y-94864231D01*
X143836137Y-94842425D01*
X143858517Y-94820745D01*
X143881645Y-94799189D01*
X143905520Y-94777759D01*
X143930143Y-94756454D01*
X143955514Y-94735275D01*
X143981632Y-94714220D01*
X144008498Y-94693291D01*
X144036111Y-94672487D01*
X144064472Y-94651809D01*
X144093580Y-94631255D01*
X144118240Y-94614417D01*
X144142955Y-94598141D01*
X144167727Y-94582428D01*
X144217439Y-94552687D01*
X144267375Y-94525196D01*
X144317536Y-94499954D01*
X144367921Y-94476960D01*
X144418531Y-94456216D01*
X144469366Y-94437720D01*
X144520425Y-94421474D01*
X144571709Y-94407476D01*
X144623218Y-94395728D01*
X144674951Y-94386228D01*
X144726909Y-94378978D01*
X144779091Y-94373976D01*
X144831498Y-94371224D01*
X144884130Y-94370720D01*
X144910530Y-94371312D01*
X144962805Y-94374433D01*
X145014023Y-94380457D01*
X145064185Y-94389384D01*
X145113290Y-94401213D01*
X145161337Y-94415945D01*
X145208328Y-94433580D01*
X145254262Y-94454118D01*
X145299139Y-94477558D01*
X145342959Y-94503900D01*
X145385722Y-94533145D01*
X145427428Y-94565293D01*
X145468077Y-94600344D01*
X145507669Y-94638297D01*
X145546204Y-94679153D01*
X145583683Y-94722912D01*
X145602025Y-94745880D01*
X145620104Y-94769573D01*
X145119507Y-95117497D01*
X145097770Y-95091317D01*
X145075432Y-95067082D01*
X145052494Y-95044790D01*
X145028955Y-95024443D01*
X145004816Y-95006040D01*
X144980075Y-94989581D01*
X144941839Y-94968539D01*
X144902250Y-94951870D01*
X144861310Y-94939576D01*
X144819019Y-94931657D01*
X144775376Y-94928112D01*
X144745530Y-94928179D01*
X144715083Y-94930190D01*
X144699634Y-94931925D01*
X144668367Y-94936911D01*
X144636836Y-94943729D01*
X144605040Y-94952378D01*
X144572979Y-94962857D01*
X144540654Y-94975168D01*
X144508064Y-94989309D01*
X144475210Y-95005281D01*
X144442091Y-95023084D01*
X144408707Y-95042718D01*
X144375058Y-95064183D01*
X144352479Y-95079510D01*
X144327825Y-95097123D01*
X144304252Y-95114938D01*
X144270923Y-95142042D01*
X144240029Y-95169603D01*
X144211570Y-95197620D01*
X144185545Y-95226094D01*
X144161956Y-95255024D01*
X144140801Y-95284411D01*
X144122081Y-95314255D01*
X144105796Y-95344555D01*
X144091946Y-95375312D01*
X144087871Y-95385665D01*
X144077537Y-95416457D01*
X144070109Y-95446938D01*
X144065588Y-95477109D01*
X144063972Y-95506970D01*
X144065262Y-95536521D01*
X144069458Y-95565762D01*
X144076560Y-95594694D01*
X144086568Y-95623315D01*
X144099482Y-95651626D01*
X144115301Y-95679627D01*
X144127462Y-95698123D01*
X144145652Y-95722072D01*
X144171854Y-95749892D01*
X144200284Y-95773013D01*
X144230941Y-95791435D01*
X144263826Y-95805158D01*
X144298937Y-95814182D01*
X144336277Y-95818507D01*
X144365743Y-95818666D01*
X144386083Y-95817304D01*
X144415781Y-95813534D01*
X144451197Y-95806515D01*
X144481510Y-95799119D01*
X144515040Y-95789895D01*
X144551785Y-95778845D01*
X144591747Y-95765966D01*
X144620175Y-95756366D01*
X144650032Y-95745953D01*
X144681318Y-95734728D01*
X144714034Y-95722691D01*
X144748178Y-95709842D01*
X144783753Y-95696180D01*
X145286533Y-95502895D01*
X145327468Y-95487523D01*
X145367552Y-95473244D01*
X145406785Y-95460058D01*
X145445168Y-95447965D01*
X145482700Y-95436965D01*
X145519382Y-95427058D01*
X145555213Y-95418245D01*
X145590193Y-95410525D01*
X145624323Y-95403897D01*
X145657602Y-95398363D01*
X145690030Y-95393922D01*
X145721608Y-95390574D01*
X145752336Y-95388320D01*
X145782212Y-95387158D01*
X145825432Y-95387465D01*
X145839414Y-95388114D01*
X145881976Y-95391674D01*
X145923644Y-95397668D01*
X145964417Y-95406096D01*
X146004296Y-95416958D01*
X146043280Y-95430255D01*
X146081370Y-95445986D01*
X146118565Y-95464151D01*
X146154866Y-95484750D01*
X146190272Y-95507784D01*
X146224784Y-95533252D01*
X146258401Y-95561154D01*
X146291124Y-95591490D01*
X146322952Y-95624261D01*
X146353886Y-95659465D01*
X146383925Y-95697104D01*
X146413070Y-95737177D01*
X146441114Y-95779709D01*
X146466493Y-95822769D01*
X146489206Y-95866357D01*
X146509254Y-95910474D01*
X146526636Y-95955118D01*
X146541353Y-96000290D01*
X146553404Y-96045990D01*
X146562790Y-96092218D01*
X146569510Y-96138975D01*
X146573565Y-96186259D01*
X146574954Y-96234071D01*
X146573678Y-96282412D01*
X146569736Y-96331280D01*
X146563129Y-96380676D01*
X146553856Y-96430601D01*
X146541918Y-96481053D01*
X146527270Y-96531430D01*
X146509720Y-96581230D01*
X146489267Y-96630455D01*
X146465912Y-96679104D01*
X146439653Y-96727178D01*
X146410491Y-96774675D01*
X146378427Y-96821597D01*
X146343460Y-96867943D01*
X146324888Y-96890900D01*
X146305590Y-96913713D01*
X146285566Y-96936382D01*
X146264817Y-96958907D01*
X146243342Y-96981289D01*
X146221141Y-97003526D01*
X146198215Y-97025619D01*
X146174562Y-97047569D01*
X146150184Y-97069374D01*
X146125081Y-97091036D01*
X146099252Y-97112554D01*
X146072697Y-97133927D01*
X146045416Y-97155157D01*
X146017409Y-97176243D01*
X145988677Y-97197185D01*
X145959219Y-97217983D01*
X145928816Y-97238801D01*
X145898528Y-97258917D01*
X145868353Y-97278329D01*
X145838293Y-97297037D01*
X145808347Y-97315043D01*
X145778515Y-97332345D01*
X145748797Y-97348944D01*
X145719194Y-97364839D01*
X145689704Y-97380031D01*
X145660329Y-97394520D01*
X145631068Y-97408306D01*
X145601922Y-97421388D01*
X145572889Y-97433767D01*
X145543971Y-97445443D01*
X145515167Y-97456415D01*
X145486477Y-97466684D01*
X145457902Y-97476250D01*
X145429440Y-97485113D01*
X145401093Y-97493272D01*
X145344741Y-97507480D01*
X145288846Y-97518875D01*
X145233408Y-97527457D01*
X145178427Y-97533226D01*
X145123902Y-97536182D01*
X145069834Y-97536324D01*
X145042972Y-97535340D01*
X144989961Y-97531207D01*
X144938257Y-97524297D01*
X144887857Y-97514612D01*
X144838763Y-97502151D01*
X144790975Y-97486914D01*
X144744492Y-97468902D01*
X144699315Y-97448114D01*
X144655444Y-97424551D01*
X144612877Y-97398212D01*
X144571617Y-97369097D01*
X144531662Y-97337206D01*
X144493012Y-97302540D01*
X144455668Y-97265099D01*
X144419629Y-97224881D01*
X144384896Y-97181888D01*
X144351469Y-97136119D01*
X144849058Y-96790286D01*
G37*
G36*
X147386450Y-92719210D02*
G01*
X147426801Y-92721449D01*
X147467156Y-92725358D01*
X147507514Y-92730937D01*
X147547877Y-92738187D01*
X147588243Y-92747108D01*
X147628612Y-92757699D01*
X147668986Y-92769960D01*
X147709363Y-92783892D01*
X147741695Y-92796284D01*
X147773538Y-92809365D01*
X147804890Y-92823135D01*
X147835752Y-92837594D01*
X147866124Y-92852742D01*
X147896006Y-92868580D01*
X147925398Y-92885107D01*
X147954300Y-92902322D01*
X147982712Y-92920227D01*
X148010634Y-92938821D01*
X148038066Y-92958105D01*
X148065007Y-92978077D01*
X148091459Y-92998739D01*
X148117421Y-93020089D01*
X148142893Y-93042129D01*
X148167874Y-93064858D01*
X148192445Y-93087929D01*
X148216533Y-93111097D01*
X148240139Y-93134364D01*
X148263262Y-93157729D01*
X148285903Y-93181193D01*
X148308062Y-93204755D01*
X148329738Y-93228415D01*
X148350932Y-93252173D01*
X148371643Y-93276030D01*
X148391872Y-93299985D01*
X148411618Y-93324038D01*
X148430882Y-93348189D01*
X148449664Y-93372439D01*
X148467963Y-93396787D01*
X148485779Y-93421233D01*
X148503114Y-93445778D01*
X148524508Y-93476976D01*
X148545304Y-93508147D01*
X148565503Y-93539291D01*
X148585105Y-93570407D01*
X148604108Y-93601497D01*
X148622515Y-93632558D01*
X148640323Y-93663593D01*
X148657534Y-93694600D01*
X148674147Y-93725580D01*
X148690163Y-93756532D01*
X148705581Y-93787458D01*
X148720402Y-93818355D01*
X148734625Y-93849226D01*
X148748250Y-93880069D01*
X148761278Y-93910885D01*
X148773708Y-93941674D01*
X148785540Y-93972435D01*
X148796775Y-94003169D01*
X148807412Y-94033875D01*
X148817452Y-94064555D01*
X148826894Y-94095206D01*
X148835738Y-94125831D01*
X148843985Y-94156428D01*
X148851635Y-94186998D01*
X148858686Y-94217541D01*
X148865140Y-94248056D01*
X148870997Y-94278544D01*
X148876255Y-94309005D01*
X148880917Y-94339438D01*
X148884980Y-94369844D01*
X148888446Y-94400223D01*
X148891314Y-94430574D01*
X148894070Y-94471260D01*
X148895616Y-94511434D01*
X148895955Y-94551096D01*
X148895084Y-94590245D01*
X148893006Y-94628881D01*
X148889719Y-94667005D01*
X148885223Y-94704616D01*
X148879519Y-94741715D01*
X148872607Y-94778301D01*
X148864486Y-94814375D01*
X148855157Y-94849936D01*
X148844619Y-94884985D01*
X148832873Y-94919521D01*
X148819918Y-94953544D01*
X148805755Y-94987055D01*
X148790383Y-95020054D01*
X148773803Y-95052540D01*
X148756015Y-95084513D01*
X148737018Y-95115974D01*
X148716812Y-95146923D01*
X148695398Y-95177359D01*
X148672776Y-95207282D01*
X148648945Y-95236693D01*
X148623906Y-95265591D01*
X148597658Y-95293977D01*
X148570202Y-95321850D01*
X148541538Y-95349211D01*
X148511665Y-95376059D01*
X148480583Y-95402395D01*
X148448293Y-95428218D01*
X148414795Y-95453529D01*
X148380088Y-95478327D01*
X147305488Y-96225193D01*
X145615835Y-93794101D01*
X146366277Y-93794101D01*
X147517103Y-95449923D01*
X147997845Y-95115798D01*
X148042072Y-95082916D01*
X148082546Y-95048355D01*
X148119267Y-95012115D01*
X148152235Y-94974196D01*
X148181449Y-94934599D01*
X148206911Y-94893322D01*
X148228619Y-94850367D01*
X148246574Y-94805733D01*
X148260776Y-94759420D01*
X148271225Y-94711428D01*
X148277921Y-94661758D01*
X148280863Y-94610409D01*
X148280052Y-94557380D01*
X148275489Y-94502674D01*
X148267172Y-94446288D01*
X148261606Y-94417465D01*
X148255102Y-94388223D01*
X148246842Y-94355817D01*
X148237544Y-94323241D01*
X148227207Y-94290494D01*
X148215831Y-94257576D01*
X148203417Y-94224488D01*
X148189964Y-94191230D01*
X148175472Y-94157801D01*
X148159942Y-94124202D01*
X148143373Y-94090433D01*
X148125766Y-94056493D01*
X148107119Y-94022382D01*
X148087434Y-93988101D01*
X148066711Y-93953650D01*
X148044949Y-93919028D01*
X148022148Y-93884236D01*
X147998308Y-93849273D01*
X147964667Y-93801868D01*
X147931071Y-93756524D01*
X147897519Y-93713239D01*
X147864012Y-93672015D01*
X147830550Y-93632851D01*
X147797132Y-93595748D01*
X147763760Y-93560705D01*
X147730431Y-93527722D01*
X147697148Y-93496800D01*
X147663909Y-93467938D01*
X147630715Y-93441136D01*
X147597565Y-93416394D01*
X147564460Y-93393713D01*
X147531400Y-93373092D01*
X147498385Y-93354532D01*
X147465414Y-93338032D01*
X147432131Y-93323885D01*
X147398132Y-93312641D01*
X147363418Y-93304300D01*
X147327988Y-93298861D01*
X147291842Y-93296324D01*
X147254982Y-93296689D01*
X147217405Y-93299957D01*
X147179113Y-93306128D01*
X147140106Y-93315200D01*
X147100383Y-93327176D01*
X147059944Y-93342053D01*
X147018790Y-93359833D01*
X146976921Y-93380515D01*
X146934336Y-93404100D01*
X146891035Y-93430587D01*
X146847019Y-93459976D01*
X146366277Y-93794101D01*
X145615835Y-93794101D01*
X145565867Y-93722206D01*
X146640467Y-92975340D01*
X146669561Y-92956061D01*
X146698303Y-92937569D01*
X146726693Y-92919866D01*
X146754732Y-92902951D01*
X146782420Y-92886823D01*
X146809756Y-92871484D01*
X146836740Y-92856933D01*
X146863373Y-92843171D01*
X146889654Y-92830196D01*
X146928417Y-92812211D01*
X146966389Y-92796000D01*
X147003569Y-92781562D01*
X147039959Y-92768897D01*
X147063780Y-92761439D01*
X147104100Y-92750314D01*
X147144425Y-92740859D01*
X147184753Y-92733075D01*
X147225085Y-92726961D01*
X147265420Y-92722518D01*
X147305760Y-92719745D01*
X147346103Y-92718642D01*
X147386450Y-92719210D01*
G37*
G36*
X149942875Y-90903574D02*
G01*
X149976738Y-90906288D01*
X150010538Y-90910536D01*
X150044275Y-90916317D01*
X150077949Y-90923633D01*
X150100363Y-90929363D01*
X150137092Y-90940002D01*
X150173213Y-90952012D01*
X150208726Y-90965394D01*
X150243629Y-90980146D01*
X150277924Y-90996270D01*
X150311610Y-91013764D01*
X150344688Y-91032630D01*
X150377157Y-91052867D01*
X150408932Y-91074813D01*
X150432252Y-91092617D01*
X150455133Y-91111572D01*
X150477575Y-91131680D01*
X150499579Y-91152939D01*
X150521144Y-91175349D01*
X150542271Y-91198912D01*
X150562958Y-91223627D01*
X150583208Y-91249493D01*
X150603019Y-91276511D01*
X150609525Y-91285773D01*
X150632148Y-91320005D01*
X150653129Y-91355237D01*
X150672468Y-91391469D01*
X150690165Y-91428701D01*
X150706220Y-91466933D01*
X150720633Y-91506165D01*
X150733404Y-91546397D01*
X150744532Y-91587629D01*
X150754019Y-91629862D01*
X150761864Y-91673094D01*
X150766181Y-91702471D01*
X150769350Y-91731915D01*
X150771054Y-91761198D01*
X150770866Y-91804822D01*
X150767383Y-91848085D01*
X150760606Y-91890986D01*
X150750535Y-91933526D01*
X150741991Y-91961685D01*
X150731983Y-91989683D01*
X150720511Y-92017521D01*
X150707575Y-92045199D01*
X150693175Y-92072715D01*
X150677311Y-92100071D01*
X150659982Y-92127267D01*
X150641190Y-92154302D01*
X150682213Y-92146134D01*
X150722180Y-92140237D01*
X150761091Y-92136611D01*
X150798945Y-92135258D01*
X150835743Y-92136175D01*
X150871484Y-92139364D01*
X150906168Y-92144824D01*
X150939797Y-92152556D01*
X150972368Y-92162559D01*
X151003884Y-92174834D01*
X151024307Y-92184279D01*
X151054855Y-92200698D01*
X151085706Y-92220262D01*
X151116861Y-92242972D01*
X151148321Y-92268827D01*
X151180084Y-92297828D01*
X151201428Y-92318909D01*
X151222907Y-92341388D01*
X151244522Y-92365266D01*
X151266271Y-92390541D01*
X151288156Y-92417214D01*
X151310175Y-92445285D01*
X151332330Y-92474754D01*
X151354620Y-92505621D01*
X151365815Y-92521579D01*
X151480396Y-92686439D01*
X151501736Y-92716884D01*
X151522003Y-92745266D01*
X151541197Y-92771585D01*
X151559320Y-92795843D01*
X151581814Y-92824978D01*
X151602402Y-92850447D01*
X151625455Y-92877128D01*
X151649186Y-92901584D01*
X151652724Y-92904858D01*
X151680066Y-92928105D01*
X151708386Y-92947056D01*
X151737685Y-92961710D01*
X151767963Y-92972067D01*
X151799220Y-92978128D01*
X151831455Y-92979892D01*
X151844623Y-92979395D01*
X151887278Y-93040766D01*
X151313275Y-93439708D01*
X151289034Y-93419787D01*
X151266521Y-93400974D01*
X151241788Y-93379861D01*
X151219543Y-93360343D01*
X151196737Y-93339589D01*
X151188000Y-93331359D01*
X151165241Y-93308904D01*
X151142948Y-93285875D01*
X151121120Y-93262272D01*
X151099757Y-93238095D01*
X151078859Y-93213343D01*
X151058427Y-93188017D01*
X151038459Y-93162116D01*
X151018958Y-93135642D01*
X150857460Y-92909696D01*
X150836684Y-92881433D01*
X150816135Y-92854832D01*
X150795814Y-92829892D01*
X150775721Y-92806613D01*
X150755855Y-92784996D01*
X150726483Y-92755685D01*
X150697622Y-92730112D01*
X150669274Y-92708278D01*
X150641437Y-92690181D01*
X150614112Y-92675823D01*
X150578476Y-92662493D01*
X150552345Y-92656857D01*
X150516402Y-92654650D01*
X150477569Y-92658077D01*
X150446549Y-92664343D01*
X150413903Y-92673778D01*
X150379633Y-92686382D01*
X150343738Y-92702154D01*
X150306217Y-92721095D01*
X150280301Y-92735482D01*
X150253662Y-92751277D01*
X150226301Y-92768481D01*
X150198218Y-92787093D01*
X150183906Y-92796927D01*
X149646004Y-93170779D01*
X150315089Y-94133466D01*
X149805467Y-94487663D01*
X148114071Y-92054062D01*
X148869865Y-92054062D01*
X149351607Y-92747196D01*
X149942456Y-92336545D01*
X149974369Y-92313817D01*
X150004222Y-92291421D01*
X150032018Y-92269358D01*
X150057754Y-92247627D01*
X150081432Y-92226230D01*
X150103051Y-92205166D01*
X150128674Y-92177597D01*
X150150637Y-92150621D01*
X150168940Y-92124236D01*
X150176719Y-92111266D01*
X150194124Y-92076883D01*
X150207033Y-92041876D01*
X150215446Y-92006245D01*
X150219363Y-91969990D01*
X150218784Y-91933111D01*
X150213708Y-91895608D01*
X150204137Y-91857482D01*
X150190069Y-91818731D01*
X150171505Y-91779357D01*
X150156631Y-91752761D01*
X150139759Y-91725887D01*
X150130574Y-91712347D01*
X150110020Y-91684027D01*
X150089131Y-91657732D01*
X150067906Y-91633463D01*
X150046345Y-91611218D01*
X150024449Y-91590997D01*
X149990976Y-91564464D01*
X149956748Y-91542486D01*
X149921764Y-91525063D01*
X149886026Y-91512197D01*
X149849533Y-91503887D01*
X149812285Y-91500132D01*
X149774282Y-91500933D01*
X149761447Y-91502213D01*
X149731473Y-91507151D01*
X149699859Y-91515347D01*
X149666607Y-91526803D01*
X149631715Y-91541516D01*
X149604471Y-91554690D01*
X149576304Y-91569697D01*
X149547216Y-91586536D01*
X149517205Y-91605208D01*
X149486272Y-91625714D01*
X149475757Y-91632956D01*
X148869865Y-92054062D01*
X148114071Y-92054062D01*
X148065846Y-91984676D01*
X149289662Y-91134102D01*
X149322597Y-91112532D01*
X149354881Y-91092050D01*
X149386513Y-91072655D01*
X149417492Y-91054348D01*
X149447819Y-91037129D01*
X149477493Y-91020997D01*
X149506516Y-91005954D01*
X149534886Y-90991997D01*
X149562604Y-90979129D01*
X149589670Y-90967348D01*
X149629046Y-90951717D01*
X149666954Y-90938532D01*
X149703395Y-90927795D01*
X149738368Y-90919506D01*
X149772611Y-90913015D01*
X149806790Y-90908059D01*
X149840906Y-90904637D01*
X149874959Y-90902748D01*
X149908948Y-90902394D01*
X149942875Y-90903574D01*
G37*
D12*
X204848169Y-96735598D02*
X204081834Y-96474716D01*
X204081834Y-96474716D02*
X203976331Y-96489103D01*
X203976331Y-96489103D02*
X203915906Y-96518836D01*
X203915906Y-96518836D02*
X203840136Y-96593647D01*
X203840136Y-96593647D02*
X203778752Y-96773961D01*
X203778752Y-96773961D02*
X203793139Y-96879464D01*
X203793139Y-96879464D02*
X203822871Y-96939888D01*
X203822871Y-96939888D02*
X203897682Y-97015659D01*
X203897682Y-97015659D02*
X204664017Y-97276541D01*
X203548562Y-97450139D02*
X203487178Y-97630453D01*
X203487178Y-97630453D02*
X203501565Y-97735956D01*
X203501565Y-97735956D02*
X203531297Y-97796380D01*
X203531297Y-97796380D02*
X203635841Y-97932575D01*
X203635841Y-97932575D02*
X203800809Y-98039038D01*
X203800809Y-98039038D02*
X204161437Y-98161806D01*
X204161437Y-98161806D02*
X204266941Y-98147419D01*
X204266941Y-98147419D02*
X204327365Y-98117687D01*
X204327365Y-98117687D02*
X204403136Y-98042876D01*
X204403136Y-98042876D02*
X204464520Y-97862562D01*
X204464520Y-97862562D02*
X204450133Y-97757058D01*
X204450133Y-97757058D02*
X204420400Y-97696634D01*
X204420400Y-97696634D02*
X204345589Y-97620863D01*
X204345589Y-97620863D02*
X204120197Y-97544133D01*
X204120197Y-97544133D02*
X204014694Y-97558520D01*
X204014694Y-97558520D02*
X203954269Y-97588253D01*
X203954269Y-97588253D02*
X203878499Y-97663064D01*
X203878499Y-97663064D02*
X203817115Y-97843378D01*
X203817115Y-97843378D02*
X203831501Y-97948881D01*
X203831501Y-97948881D02*
X203861234Y-98009305D01*
X203861234Y-98009305D02*
X203936045Y-98085076D01*
D10*
X176222819Y-96781571D02*
X175222819Y-96781571D01*
X175222819Y-96781571D02*
X175222819Y-96543476D01*
X175222819Y-96543476D02*
X175270438Y-96400619D01*
X175270438Y-96400619D02*
X175365676Y-96305381D01*
X175365676Y-96305381D02*
X175460914Y-96257762D01*
X175460914Y-96257762D02*
X175651390Y-96210143D01*
X175651390Y-96210143D02*
X175794247Y-96210143D01*
X175794247Y-96210143D02*
X175984723Y-96257762D01*
X175984723Y-96257762D02*
X176079961Y-96305381D01*
X176079961Y-96305381D02*
X176175200Y-96400619D01*
X176175200Y-96400619D02*
X176222819Y-96543476D01*
X176222819Y-96543476D02*
X176222819Y-96781571D01*
X176222819Y-95781571D02*
X175556152Y-95781571D01*
X175222819Y-95781571D02*
X175270438Y-95829190D01*
X175270438Y-95829190D02*
X175318057Y-95781571D01*
X175318057Y-95781571D02*
X175270438Y-95733952D01*
X175270438Y-95733952D02*
X175222819Y-95781571D01*
X175222819Y-95781571D02*
X175318057Y-95781571D01*
X176175200Y-95353000D02*
X176222819Y-95257762D01*
X176222819Y-95257762D02*
X176222819Y-95067286D01*
X176222819Y-95067286D02*
X176175200Y-94972048D01*
X176175200Y-94972048D02*
X176079961Y-94924429D01*
X176079961Y-94924429D02*
X176032342Y-94924429D01*
X176032342Y-94924429D02*
X175937104Y-94972048D01*
X175937104Y-94972048D02*
X175889485Y-95067286D01*
X175889485Y-95067286D02*
X175889485Y-95210143D01*
X175889485Y-95210143D02*
X175841866Y-95305381D01*
X175841866Y-95305381D02*
X175746628Y-95353000D01*
X175746628Y-95353000D02*
X175699009Y-95353000D01*
X175699009Y-95353000D02*
X175603771Y-95305381D01*
X175603771Y-95305381D02*
X175556152Y-95210143D01*
X175556152Y-95210143D02*
X175556152Y-95067286D01*
X175556152Y-95067286D02*
X175603771Y-94972048D01*
X175556152Y-94495857D02*
X176556152Y-94495857D01*
X175603771Y-94495857D02*
X175556152Y-94400619D01*
X175556152Y-94400619D02*
X175556152Y-94210143D01*
X175556152Y-94210143D02*
X175603771Y-94114905D01*
X175603771Y-94114905D02*
X175651390Y-94067286D01*
X175651390Y-94067286D02*
X175746628Y-94019667D01*
X175746628Y-94019667D02*
X176032342Y-94019667D01*
X176032342Y-94019667D02*
X176127580Y-94067286D01*
X176127580Y-94067286D02*
X176175200Y-94114905D01*
X176175200Y-94114905D02*
X176222819Y-94210143D01*
X176222819Y-94210143D02*
X176222819Y-94400619D01*
X176222819Y-94400619D02*
X176175200Y-94495857D01*
X176222819Y-93448238D02*
X176175200Y-93543476D01*
X176175200Y-93543476D02*
X176079961Y-93591095D01*
X176079961Y-93591095D02*
X175222819Y-93591095D01*
X176222819Y-92638714D02*
X175699009Y-92638714D01*
X175699009Y-92638714D02*
X175603771Y-92686333D01*
X175603771Y-92686333D02*
X175556152Y-92781571D01*
X175556152Y-92781571D02*
X175556152Y-92972047D01*
X175556152Y-92972047D02*
X175603771Y-93067285D01*
X176175200Y-92638714D02*
X176222819Y-92733952D01*
X176222819Y-92733952D02*
X176222819Y-92972047D01*
X176222819Y-92972047D02*
X176175200Y-93067285D01*
X176175200Y-93067285D02*
X176079961Y-93114904D01*
X176079961Y-93114904D02*
X175984723Y-93114904D01*
X175984723Y-93114904D02*
X175889485Y-93067285D01*
X175889485Y-93067285D02*
X175841866Y-92972047D01*
X175841866Y-92972047D02*
X175841866Y-92733952D01*
X175841866Y-92733952D02*
X175794247Y-92638714D01*
X175556152Y-92257761D02*
X176222819Y-92019666D01*
X175556152Y-91781571D02*
X176222819Y-92019666D01*
X176222819Y-92019666D02*
X176460914Y-92114904D01*
X176460914Y-92114904D02*
X176508533Y-92162523D01*
X176508533Y-92162523D02*
X176556152Y-92257761D01*
X176222819Y-90876809D02*
X176222819Y-91448237D01*
X176222819Y-91162523D02*
X175222819Y-91162523D01*
X175222819Y-91162523D02*
X175365676Y-91257761D01*
X175365676Y-91257761D02*
X175460914Y-91352999D01*
X175460914Y-91352999D02*
X175508533Y-91448237D01*
X217028310Y-87531286D02*
X217704488Y-87761476D01*
X217704488Y-87761476D02*
X217824378Y-87852593D01*
X217824378Y-87852593D02*
X217883843Y-87973442D01*
X217883843Y-87973442D02*
X217882884Y-88124023D01*
X217882884Y-88124023D02*
X217852192Y-88214180D01*
X217256581Y-87156271D02*
X217226849Y-87095847D01*
X217226849Y-87095847D02*
X217212462Y-86990344D01*
X217212462Y-86990344D02*
X217289192Y-86764951D01*
X217289192Y-86764951D02*
X217364963Y-86690140D01*
X217364963Y-86690140D02*
X217425387Y-86660407D01*
X217425387Y-86660407D02*
X217530890Y-86646021D01*
X217530890Y-86646021D02*
X217621047Y-86676713D01*
X217621047Y-86676713D02*
X217740937Y-86767829D01*
X217740937Y-86767829D02*
X218097728Y-87492923D01*
X218097728Y-87492923D02*
X218297225Y-86906902D01*
D13*
%TO.C,D3*%
X142363297Y-89641936D02*
X140742470Y-87309873D01*
X140474654Y-90954577D02*
X141008401Y-90583614D01*
X140474654Y-90954577D02*
X138853827Y-88622514D01*
%TO.C,D8*%
X152791892Y-82393874D02*
X151171065Y-80061811D01*
X150903249Y-83706515D02*
X151436996Y-83335552D01*
X150903249Y-83706515D02*
X149282422Y-81374452D01*
%TO.C,D7*%
X150706173Y-83843486D02*
X149085346Y-81511423D01*
X148817530Y-85156127D02*
X149351277Y-84785164D01*
X148817530Y-85156127D02*
X147196703Y-82824064D01*
%TO.C,D6*%
X148620454Y-85293098D02*
X146999627Y-82961035D01*
X146731811Y-86605739D02*
X147265558Y-86234776D01*
X146731811Y-86605739D02*
X145110984Y-84273676D01*
%TO.C,D5*%
X146534735Y-86742711D02*
X144913908Y-84410648D01*
X144646092Y-88055352D02*
X145179839Y-87684389D01*
X144646092Y-88055352D02*
X143025265Y-85723289D01*
%TO.C,D4*%
X144449016Y-88192323D02*
X142828189Y-85860260D01*
X142560373Y-89504964D02*
X143094120Y-89134001D01*
X142560373Y-89504964D02*
X140939546Y-87172901D01*
%TO.C,D2*%
X140277578Y-91091548D02*
X138656751Y-88759485D01*
X138388935Y-92404189D02*
X138922682Y-92033226D01*
X138388935Y-92404189D02*
X136768108Y-90072126D01*
%TO.C,D1*%
X138191859Y-92541161D02*
X136571032Y-90209098D01*
X136303216Y-93853802D02*
X136836963Y-93482839D01*
X136303216Y-93853802D02*
X134682389Y-91521739D01*
%TO.C,G\u002A\u002A\u002A*%
D14*
X202394950Y-104828591D02*
X202480642Y-104837477D01*
X202565159Y-104852338D01*
X202648218Y-104873080D01*
X202729536Y-104899610D01*
X202808830Y-104931833D01*
X202885819Y-104969656D01*
X202960219Y-105012986D01*
X203031747Y-105061728D01*
X203100121Y-105115789D01*
X203165058Y-105175075D01*
X203173473Y-105183402D01*
X203233426Y-105247735D01*
X203288331Y-105315852D01*
X203338051Y-105387509D01*
X203382448Y-105462465D01*
X203421384Y-105540475D01*
X203454723Y-105621296D01*
X203482327Y-105704687D01*
X203494953Y-105751312D01*
X203506466Y-105801426D01*
X203515373Y-105849825D01*
X203521918Y-105898394D01*
X203526348Y-105949015D01*
X203528908Y-106003573D01*
X203529182Y-106013673D01*
X203528699Y-106098848D01*
X203522900Y-106181119D01*
X203511651Y-106261254D01*
X203494819Y-106340022D01*
X203472268Y-106418189D01*
X203445411Y-106492630D01*
X203410407Y-106572657D01*
X203369990Y-106649548D01*
X203324399Y-106723064D01*
X203273872Y-106792967D01*
X203218647Y-106859018D01*
X203158963Y-106920979D01*
X203095058Y-106978609D01*
X203027169Y-107031672D01*
X202955536Y-107079928D01*
X202880396Y-107123139D01*
X202801987Y-107161066D01*
X202761338Y-107178089D01*
X202681868Y-107206435D01*
X202599293Y-107229483D01*
X202513393Y-107247286D01*
X202441175Y-107257906D01*
X202427412Y-107259143D01*
X202408508Y-107260220D01*
X202385673Y-107261123D01*
X202360112Y-107261834D01*
X202333035Y-107262338D01*
X202305648Y-107262621D01*
X202279161Y-107262665D01*
X202254780Y-107262456D01*
X202233715Y-107261978D01*
X202217172Y-107261214D01*
X202212575Y-107260869D01*
X202125534Y-107250228D01*
X202039811Y-107233606D01*
X201955778Y-107211148D01*
X201873802Y-107183002D01*
X201794254Y-107149312D01*
X201717505Y-107110227D01*
X201643923Y-107065892D01*
X201573878Y-107016454D01*
X201551903Y-106999284D01*
X201484452Y-106941259D01*
X201421783Y-106879058D01*
X201363917Y-106812707D01*
X201310874Y-106742231D01*
X201262676Y-106667657D01*
X201219342Y-106589010D01*
X201216374Y-106583117D01*
X201182350Y-106508251D01*
X201153445Y-106429942D01*
X201129800Y-106348687D01*
X201111553Y-106264983D01*
X201098845Y-106179328D01*
X201096317Y-106155268D01*
X201094430Y-106129476D01*
X201093191Y-106099376D01*
X201092580Y-106066403D01*
X201092582Y-106031992D01*
X201092687Y-106025884D01*
X201334195Y-106025884D01*
X201335534Y-106097259D01*
X201335871Y-106102605D01*
X201343181Y-106176797D01*
X201355182Y-106247481D01*
X201372155Y-106315714D01*
X201394380Y-106382558D01*
X201422138Y-106449071D01*
X201434555Y-106475212D01*
X201471684Y-106544308D01*
X201513099Y-106608865D01*
X201559074Y-106669209D01*
X201609878Y-106725668D01*
X201665785Y-106778569D01*
X201727066Y-106828240D01*
X201728377Y-106829225D01*
X201791263Y-106872469D01*
X201857455Y-106910551D01*
X201926468Y-106943331D01*
X201997816Y-106970668D01*
X202071013Y-106992423D01*
X202145573Y-107008455D01*
X202221010Y-107018625D01*
X202296839Y-107022791D01*
X202372572Y-107020816D01*
X202388787Y-107019576D01*
X202466933Y-107009806D01*
X202543480Y-106994087D01*
X202618096Y-106972583D01*
X202690450Y-106945454D01*
X202760211Y-106912863D01*
X202827047Y-106874970D01*
X202890626Y-106831938D01*
X202950617Y-106783929D01*
X203006688Y-106731105D01*
X203029476Y-106706987D01*
X203071914Y-106657737D01*
X203109448Y-106608111D01*
X203143290Y-106556346D01*
X203174650Y-106500674D01*
X203185328Y-106479812D01*
X203217611Y-106408241D01*
X203243848Y-106334956D01*
X203264018Y-106260251D01*
X203278099Y-106184417D01*
X203286070Y-106107748D01*
X203287910Y-106030536D01*
X203283598Y-105953074D01*
X203273112Y-105875654D01*
X203256431Y-105798569D01*
X203239162Y-105739038D01*
X203213126Y-105668644D01*
X203181257Y-105600230D01*
X203143875Y-105534216D01*
X203101303Y-105471024D01*
X203053863Y-105411075D01*
X203001877Y-105354791D01*
X202945667Y-105302594D01*
X202885554Y-105254904D01*
X202850750Y-105230618D01*
X202784004Y-105189931D01*
X202715036Y-105155056D01*
X202644185Y-105125993D01*
X202571788Y-105102742D01*
X202498186Y-105085305D01*
X202423716Y-105073683D01*
X202348719Y-105067876D01*
X202273532Y-105067884D01*
X202198494Y-105073710D01*
X202123946Y-105085353D01*
X202050224Y-105102815D01*
X201977669Y-105126096D01*
X201906620Y-105155196D01*
X201837414Y-105190118D01*
X201774590Y-105228092D01*
X201712057Y-105272881D01*
X201653172Y-105322691D01*
X201598256Y-105377136D01*
X201547629Y-105435828D01*
X201501609Y-105498382D01*
X201460518Y-105564410D01*
X201424676Y-105633525D01*
X201407964Y-105671162D01*
X201383105Y-105738090D01*
X201363112Y-105808145D01*
X201348171Y-105880208D01*
X201338470Y-105953161D01*
X201334195Y-106025884D01*
X201092687Y-106025884D01*
X201093179Y-105997579D01*
X201094352Y-105964600D01*
X201096084Y-105934489D01*
X201098359Y-105908682D01*
X201099446Y-105899663D01*
X201109611Y-105833482D01*
X201122067Y-105771643D01*
X201137253Y-105712411D01*
X201155614Y-105654054D01*
X201176576Y-105597398D01*
X201211534Y-105517416D01*
X201251748Y-105440767D01*
X201296968Y-105367650D01*
X201346945Y-105298263D01*
X201401427Y-105232805D01*
X201460165Y-105171474D01*
X201522908Y-105114469D01*
X201589406Y-105061987D01*
X201659409Y-105014228D01*
X201732666Y-104971390D01*
X201808927Y-104933670D01*
X201887942Y-104901268D01*
X201969461Y-104874383D01*
X202053233Y-104853211D01*
X202133651Y-104838720D01*
X202221172Y-104829119D01*
X202308366Y-104825775D01*
X202394950Y-104828591D01*
G36*
X202394950Y-104828591D02*
G01*
X202480642Y-104837477D01*
X202565159Y-104852338D01*
X202648218Y-104873080D01*
X202729536Y-104899610D01*
X202808830Y-104931833D01*
X202885819Y-104969656D01*
X202960219Y-105012986D01*
X203031747Y-105061728D01*
X203100121Y-105115789D01*
X203165058Y-105175075D01*
X203173473Y-105183402D01*
X203233426Y-105247735D01*
X203288331Y-105315852D01*
X203338051Y-105387509D01*
X203382448Y-105462465D01*
X203421384Y-105540475D01*
X203454723Y-105621296D01*
X203482327Y-105704687D01*
X203494953Y-105751312D01*
X203506466Y-105801426D01*
X203515373Y-105849825D01*
X203521918Y-105898394D01*
X203526348Y-105949015D01*
X203528908Y-106003573D01*
X203529182Y-106013673D01*
X203528699Y-106098848D01*
X203522900Y-106181119D01*
X203511651Y-106261254D01*
X203494819Y-106340022D01*
X203472268Y-106418189D01*
X203445411Y-106492630D01*
X203410407Y-106572657D01*
X203369990Y-106649548D01*
X203324399Y-106723064D01*
X203273872Y-106792967D01*
X203218647Y-106859018D01*
X203158963Y-106920979D01*
X203095058Y-106978609D01*
X203027169Y-107031672D01*
X202955536Y-107079928D01*
X202880396Y-107123139D01*
X202801987Y-107161066D01*
X202761338Y-107178089D01*
X202681868Y-107206435D01*
X202599293Y-107229483D01*
X202513393Y-107247286D01*
X202441175Y-107257906D01*
X202427412Y-107259143D01*
X202408508Y-107260220D01*
X202385673Y-107261123D01*
X202360112Y-107261834D01*
X202333035Y-107262338D01*
X202305648Y-107262621D01*
X202279161Y-107262665D01*
X202254780Y-107262456D01*
X202233715Y-107261978D01*
X202217172Y-107261214D01*
X202212575Y-107260869D01*
X202125534Y-107250228D01*
X202039811Y-107233606D01*
X201955778Y-107211148D01*
X201873802Y-107183002D01*
X201794254Y-107149312D01*
X201717505Y-107110227D01*
X201643923Y-107065892D01*
X201573878Y-107016454D01*
X201551903Y-106999284D01*
X201484452Y-106941259D01*
X201421783Y-106879058D01*
X201363917Y-106812707D01*
X201310874Y-106742231D01*
X201262676Y-106667657D01*
X201219342Y-106589010D01*
X201216374Y-106583117D01*
X201182350Y-106508251D01*
X201153445Y-106429942D01*
X201129800Y-106348687D01*
X201111553Y-106264983D01*
X201098845Y-106179328D01*
X201096317Y-106155268D01*
X201094430Y-106129476D01*
X201093191Y-106099376D01*
X201092580Y-106066403D01*
X201092582Y-106031992D01*
X201092687Y-106025884D01*
X201334195Y-106025884D01*
X201335534Y-106097259D01*
X201335871Y-106102605D01*
X201343181Y-106176797D01*
X201355182Y-106247481D01*
X201372155Y-106315714D01*
X201394380Y-106382558D01*
X201422138Y-106449071D01*
X201434555Y-106475212D01*
X201471684Y-106544308D01*
X201513099Y-106608865D01*
X201559074Y-106669209D01*
X201609878Y-106725668D01*
X201665785Y-106778569D01*
X201727066Y-106828240D01*
X201728377Y-106829225D01*
X201791263Y-106872469D01*
X201857455Y-106910551D01*
X201926468Y-106943331D01*
X201997816Y-106970668D01*
X202071013Y-106992423D01*
X202145573Y-107008455D01*
X202221010Y-107018625D01*
X202296839Y-107022791D01*
X202372572Y-107020816D01*
X202388787Y-107019576D01*
X202466933Y-107009806D01*
X202543480Y-106994087D01*
X202618096Y-106972583D01*
X202690450Y-106945454D01*
X202760211Y-106912863D01*
X202827047Y-106874970D01*
X202890626Y-106831938D01*
X202950617Y-106783929D01*
X203006688Y-106731105D01*
X203029476Y-106706987D01*
X203071914Y-106657737D01*
X203109448Y-106608111D01*
X203143290Y-106556346D01*
X203174650Y-106500674D01*
X203185328Y-106479812D01*
X203217611Y-106408241D01*
X203243848Y-106334956D01*
X203264018Y-106260251D01*
X203278099Y-106184417D01*
X203286070Y-106107748D01*
X203287910Y-106030536D01*
X203283598Y-105953074D01*
X203273112Y-105875654D01*
X203256431Y-105798569D01*
X203239162Y-105739038D01*
X203213126Y-105668644D01*
X203181257Y-105600230D01*
X203143875Y-105534216D01*
X203101303Y-105471024D01*
X203053863Y-105411075D01*
X203001877Y-105354791D01*
X202945667Y-105302594D01*
X202885554Y-105254904D01*
X202850750Y-105230618D01*
X202784004Y-105189931D01*
X202715036Y-105155056D01*
X202644185Y-105125993D01*
X202571788Y-105102742D01*
X202498186Y-105085305D01*
X202423716Y-105073683D01*
X202348719Y-105067876D01*
X202273532Y-105067884D01*
X202198494Y-105073710D01*
X202123946Y-105085353D01*
X202050224Y-105102815D01*
X201977669Y-105126096D01*
X201906620Y-105155196D01*
X201837414Y-105190118D01*
X201774590Y-105228092D01*
X201712057Y-105272881D01*
X201653172Y-105322691D01*
X201598256Y-105377136D01*
X201547629Y-105435828D01*
X201501609Y-105498382D01*
X201460518Y-105564410D01*
X201424676Y-105633525D01*
X201407964Y-105671162D01*
X201383105Y-105738090D01*
X201363112Y-105808145D01*
X201348171Y-105880208D01*
X201338470Y-105953161D01*
X201334195Y-106025884D01*
X201092687Y-106025884D01*
X201093179Y-105997579D01*
X201094352Y-105964600D01*
X201096084Y-105934489D01*
X201098359Y-105908682D01*
X201099446Y-105899663D01*
X201109611Y-105833482D01*
X201122067Y-105771643D01*
X201137253Y-105712411D01*
X201155614Y-105654054D01*
X201176576Y-105597398D01*
X201211534Y-105517416D01*
X201251748Y-105440767D01*
X201296968Y-105367650D01*
X201346945Y-105298263D01*
X201401427Y-105232805D01*
X201460165Y-105171474D01*
X201522908Y-105114469D01*
X201589406Y-105061987D01*
X201659409Y-105014228D01*
X201732666Y-104971390D01*
X201808927Y-104933670D01*
X201887942Y-104901268D01*
X201969461Y-104874383D01*
X202053233Y-104853211D01*
X202133651Y-104838720D01*
X202221172Y-104829119D01*
X202308366Y-104825775D01*
X202394950Y-104828591D01*
G37*
X202369967Y-105263542D02*
X202428659Y-105269286D01*
X202484983Y-105279494D01*
X202538313Y-105294081D01*
X202588024Y-105312963D01*
X202630124Y-105334111D01*
X202678266Y-105365237D01*
X202722717Y-105401484D01*
X202763335Y-105442708D01*
X202799981Y-105488764D01*
X202832512Y-105539508D01*
X202834558Y-105543102D01*
X202851945Y-105576714D01*
X202868753Y-105614546D01*
X202884141Y-105654470D01*
X202897272Y-105694361D01*
X202904454Y-105720267D01*
X202917693Y-105781317D01*
X202927677Y-105846378D01*
X202934375Y-105914124D01*
X202937754Y-105983226D01*
X202937782Y-106052357D01*
X202934428Y-106120188D01*
X202927659Y-106185393D01*
X202917444Y-106246643D01*
X202917176Y-106247953D01*
X202900387Y-106317541D01*
X202879450Y-106382432D01*
X202854268Y-106442821D01*
X202824741Y-106498906D01*
X202790771Y-106550880D01*
X202752258Y-106598941D01*
X202725337Y-106627579D01*
X202680557Y-106668375D01*
X202632887Y-106703918D01*
X202582143Y-106734280D01*
X202528140Y-106759531D01*
X202470696Y-106779744D01*
X202409626Y-106794990D01*
X202344747Y-106805341D01*
X202275873Y-106810868D01*
X202252262Y-106811645D01*
X202230093Y-106811906D01*
X202206593Y-106811804D01*
X202183932Y-106811374D01*
X202164279Y-106810650D01*
X202155712Y-106810150D01*
X202072365Y-106801657D01*
X201990562Y-106787990D01*
X201990325Y-106787942D01*
X201970534Y-106783728D01*
X201948756Y-106778711D01*
X201926334Y-106773238D01*
X201904612Y-106767655D01*
X201884931Y-106762307D01*
X201868636Y-106757541D01*
X201857069Y-106753704D01*
X201856181Y-106753368D01*
X201847450Y-106750007D01*
X201847450Y-106474038D01*
X201870468Y-106484611D01*
X201912380Y-106502370D01*
X201956847Y-106518503D01*
X202002148Y-106532498D01*
X202046563Y-106543841D01*
X202088371Y-106552018D01*
X202104122Y-106554306D01*
X202132725Y-106557123D01*
X202164040Y-106558726D01*
X202196105Y-106559113D01*
X202226961Y-106558281D01*
X202254649Y-106556227D01*
X202268082Y-106554535D01*
X202315882Y-106544579D01*
X202359648Y-106529728D01*
X202399383Y-106509976D01*
X202435091Y-106485321D01*
X202466775Y-106455759D01*
X202494438Y-106421286D01*
X202518083Y-106381900D01*
X202537715Y-106337596D01*
X202553335Y-106288371D01*
X202564947Y-106234221D01*
X202565045Y-106233645D01*
X202568340Y-106213897D01*
X202570319Y-106199845D01*
X202570668Y-106190913D01*
X202569070Y-106186525D01*
X202565211Y-106186108D01*
X202558776Y-106189085D01*
X202549449Y-106194881D01*
X202545284Y-106197573D01*
X202495954Y-106225779D01*
X202444438Y-106248067D01*
X202390651Y-106264459D01*
X202334507Y-106274981D01*
X202275921Y-106279657D01*
X202258155Y-106279923D01*
X202195572Y-106277226D01*
X202136169Y-106269040D01*
X202079954Y-106255368D01*
X202026931Y-106236210D01*
X201997546Y-106222536D01*
X201958747Y-106200818D01*
X201924229Y-106176826D01*
X201891973Y-106149103D01*
X201880966Y-106138371D01*
X201848111Y-106101947D01*
X201820345Y-106063510D01*
X201797265Y-106022289D01*
X201778462Y-105977514D01*
X201763532Y-105928415D01*
X201758096Y-105905300D01*
X201755765Y-105893884D01*
X201753988Y-105883219D01*
X201752689Y-105872171D01*
X201751796Y-105859607D01*
X201751232Y-105844393D01*
X201750924Y-105825397D01*
X201750796Y-105801485D01*
X201750783Y-105794175D01*
X201750820Y-105768356D01*
X201750940Y-105757588D01*
X202121678Y-105757588D01*
X202121696Y-105785555D01*
X202122510Y-105812388D01*
X202124131Y-105836599D01*
X202126570Y-105856700D01*
X202127941Y-105864025D01*
X202138657Y-105902542D01*
X202152991Y-105935850D01*
X202170997Y-105963994D01*
X202192725Y-105987018D01*
X202218230Y-106004967D01*
X202247561Y-106017886D01*
X202280773Y-106025819D01*
X202317916Y-106028811D01*
X202320525Y-106028836D01*
X202337449Y-106028441D01*
X202354820Y-106027234D01*
X202369902Y-106025434D01*
X202375562Y-106024416D01*
X202407857Y-106014650D01*
X202436305Y-105999846D01*
X202460915Y-105979997D01*
X202481691Y-105955095D01*
X202498642Y-105925132D01*
X202511774Y-105890101D01*
X202519384Y-105859184D01*
X202521718Y-105845186D01*
X202523380Y-105829503D01*
X202524453Y-105810880D01*
X202525016Y-105788060D01*
X202525149Y-105768775D01*
X202524920Y-105739497D01*
X202524002Y-105715152D01*
X202522218Y-105694345D01*
X202519391Y-105675680D01*
X202515343Y-105657760D01*
X202509896Y-105639190D01*
X202507904Y-105633107D01*
X202494434Y-105600450D01*
X202477384Y-105572886D01*
X202456398Y-105550036D01*
X202431120Y-105531521D01*
X202401194Y-105516964D01*
X202397104Y-105515402D01*
X202380103Y-105510780D01*
X202358785Y-105507531D01*
X202335051Y-105505743D01*
X202310804Y-105505502D01*
X202287943Y-105506898D01*
X202270419Y-105509562D01*
X202238732Y-105519329D01*
X202210519Y-105534363D01*
X202185884Y-105554548D01*
X202164935Y-105579769D01*
X202147776Y-105609911D01*
X202134514Y-105644857D01*
X202129365Y-105664144D01*
X202126301Y-105681766D01*
X202123992Y-105704205D01*
X202122447Y-105729975D01*
X202121678Y-105757588D01*
X201750940Y-105757588D01*
X201751051Y-105747693D01*
X201751549Y-105730991D01*
X201752387Y-105717057D01*
X201753636Y-105704697D01*
X201755371Y-105692717D01*
X201757662Y-105679923D01*
X201757749Y-105679467D01*
X201771506Y-105623422D01*
X201790582Y-105570709D01*
X201814780Y-105521516D01*
X201843904Y-105476028D01*
X201877756Y-105434432D01*
X201916141Y-105396915D01*
X201958862Y-105363661D01*
X202005721Y-105334858D01*
X202056523Y-105310692D01*
X202111071Y-105291348D01*
X202169168Y-105277013D01*
X202185945Y-105273939D01*
X202247985Y-105265784D01*
X202309534Y-105262346D01*
X202369967Y-105263542D01*
G36*
X202369967Y-105263542D02*
G01*
X202428659Y-105269286D01*
X202484983Y-105279494D01*
X202538313Y-105294081D01*
X202588024Y-105312963D01*
X202630124Y-105334111D01*
X202678266Y-105365237D01*
X202722717Y-105401484D01*
X202763335Y-105442708D01*
X202799981Y-105488764D01*
X202832512Y-105539508D01*
X202834558Y-105543102D01*
X202851945Y-105576714D01*
X202868753Y-105614546D01*
X202884141Y-105654470D01*
X202897272Y-105694361D01*
X202904454Y-105720267D01*
X202917693Y-105781317D01*
X202927677Y-105846378D01*
X202934375Y-105914124D01*
X202937754Y-105983226D01*
X202937782Y-106052357D01*
X202934428Y-106120188D01*
X202927659Y-106185393D01*
X202917444Y-106246643D01*
X202917176Y-106247953D01*
X202900387Y-106317541D01*
X202879450Y-106382432D01*
X202854268Y-106442821D01*
X202824741Y-106498906D01*
X202790771Y-106550880D01*
X202752258Y-106598941D01*
X202725337Y-106627579D01*
X202680557Y-106668375D01*
X202632887Y-106703918D01*
X202582143Y-106734280D01*
X202528140Y-106759531D01*
X202470696Y-106779744D01*
X202409626Y-106794990D01*
X202344747Y-106805341D01*
X202275873Y-106810868D01*
X202252262Y-106811645D01*
X202230093Y-106811906D01*
X202206593Y-106811804D01*
X202183932Y-106811374D01*
X202164279Y-106810650D01*
X202155712Y-106810150D01*
X202072365Y-106801657D01*
X201990562Y-106787990D01*
X201990325Y-106787942D01*
X201970534Y-106783728D01*
X201948756Y-106778711D01*
X201926334Y-106773238D01*
X201904612Y-106767655D01*
X201884931Y-106762307D01*
X201868636Y-106757541D01*
X201857069Y-106753704D01*
X201856181Y-106753368D01*
X201847450Y-106750007D01*
X201847450Y-106474038D01*
X201870468Y-106484611D01*
X201912380Y-106502370D01*
X201956847Y-106518503D01*
X202002148Y-106532498D01*
X202046563Y-106543841D01*
X202088371Y-106552018D01*
X202104122Y-106554306D01*
X202132725Y-106557123D01*
X202164040Y-106558726D01*
X202196105Y-106559113D01*
X202226961Y-106558281D01*
X202254649Y-106556227D01*
X202268082Y-106554535D01*
X202315882Y-106544579D01*
X202359648Y-106529728D01*
X202399383Y-106509976D01*
X202435091Y-106485321D01*
X202466775Y-106455759D01*
X202494438Y-106421286D01*
X202518083Y-106381900D01*
X202537715Y-106337596D01*
X202553335Y-106288371D01*
X202564947Y-106234221D01*
X202565045Y-106233645D01*
X202568340Y-106213897D01*
X202570319Y-106199845D01*
X202570668Y-106190913D01*
X202569070Y-106186525D01*
X202565211Y-106186108D01*
X202558776Y-106189085D01*
X202549449Y-106194881D01*
X202545284Y-106197573D01*
X202495954Y-106225779D01*
X202444438Y-106248067D01*
X202390651Y-106264459D01*
X202334507Y-106274981D01*
X202275921Y-106279657D01*
X202258155Y-106279923D01*
X202195572Y-106277226D01*
X202136169Y-106269040D01*
X202079954Y-106255368D01*
X202026931Y-106236210D01*
X201997546Y-106222536D01*
X201958747Y-106200818D01*
X201924229Y-106176826D01*
X201891973Y-106149103D01*
X201880966Y-106138371D01*
X201848111Y-106101947D01*
X201820345Y-106063510D01*
X201797265Y-106022289D01*
X201778462Y-105977514D01*
X201763532Y-105928415D01*
X201758096Y-105905300D01*
X201755765Y-105893884D01*
X201753988Y-105883219D01*
X201752689Y-105872171D01*
X201751796Y-105859607D01*
X201751232Y-105844393D01*
X201750924Y-105825397D01*
X201750796Y-105801485D01*
X201750783Y-105794175D01*
X201750820Y-105768356D01*
X201750940Y-105757588D01*
X202121678Y-105757588D01*
X202121696Y-105785555D01*
X202122510Y-105812388D01*
X202124131Y-105836599D01*
X202126570Y-105856700D01*
X202127941Y-105864025D01*
X202138657Y-105902542D01*
X202152991Y-105935850D01*
X202170997Y-105963994D01*
X202192725Y-105987018D01*
X202218230Y-106004967D01*
X202247561Y-106017886D01*
X202280773Y-106025819D01*
X202317916Y-106028811D01*
X202320525Y-106028836D01*
X202337449Y-106028441D01*
X202354820Y-106027234D01*
X202369902Y-106025434D01*
X202375562Y-106024416D01*
X202407857Y-106014650D01*
X202436305Y-105999846D01*
X202460915Y-105979997D01*
X202481691Y-105955095D01*
X202498642Y-105925132D01*
X202511774Y-105890101D01*
X202519384Y-105859184D01*
X202521718Y-105845186D01*
X202523380Y-105829503D01*
X202524453Y-105810880D01*
X202525016Y-105788060D01*
X202525149Y-105768775D01*
X202524920Y-105739497D01*
X202524002Y-105715152D01*
X202522218Y-105694345D01*
X202519391Y-105675680D01*
X202515343Y-105657760D01*
X202509896Y-105639190D01*
X202507904Y-105633107D01*
X202494434Y-105600450D01*
X202477384Y-105572886D01*
X202456398Y-105550036D01*
X202431120Y-105531521D01*
X202401194Y-105516964D01*
X202397104Y-105515402D01*
X202380103Y-105510780D01*
X202358785Y-105507531D01*
X202335051Y-105505743D01*
X202310804Y-105505502D01*
X202287943Y-105506898D01*
X202270419Y-105509562D01*
X202238732Y-105519329D01*
X202210519Y-105534363D01*
X202185884Y-105554548D01*
X202164935Y-105579769D01*
X202147776Y-105609911D01*
X202134514Y-105644857D01*
X202129365Y-105664144D01*
X202126301Y-105681766D01*
X202123992Y-105704205D01*
X202122447Y-105729975D01*
X202121678Y-105757588D01*
X201750940Y-105757588D01*
X201751051Y-105747693D01*
X201751549Y-105730991D01*
X201752387Y-105717057D01*
X201753636Y-105704697D01*
X201755371Y-105692717D01*
X201757662Y-105679923D01*
X201757749Y-105679467D01*
X201771506Y-105623422D01*
X201790582Y-105570709D01*
X201814780Y-105521516D01*
X201843904Y-105476028D01*
X201877756Y-105434432D01*
X201916141Y-105396915D01*
X201958862Y-105363661D01*
X202005721Y-105334858D01*
X202056523Y-105310692D01*
X202111071Y-105291348D01*
X202169168Y-105277013D01*
X202185945Y-105273939D01*
X202247985Y-105265784D01*
X202309534Y-105262346D01*
X202369967Y-105263542D01*
G37*
D15*
%TO.C,Display1*%
X176161000Y-85028000D02*
X173681000Y-85028000D01*
X173681000Y-85028000D02*
X173681000Y-102528000D01*
X173681000Y-102528000D02*
X176161000Y-102528000D01*
D11*
X179581000Y-88028000D02*
G75*
G03*
X179581000Y-88028000I-100000J0D01*
G01*
D13*
%TO.C,J2*%
X215053584Y-83232208D02*
X214892451Y-83705533D01*
X213917605Y-82845489D02*
X214562136Y-80952191D01*
X213917605Y-82845489D02*
X215053584Y-83232208D01*
X211456317Y-82007598D02*
X212100848Y-80114300D01*
X205303097Y-79912871D02*
X211456317Y-82007598D01*
X201137840Y-78494902D02*
X202273819Y-78881621D01*
X217259074Y-84511197D02*
X215583293Y-89433773D01*
X214892451Y-83705533D02*
X217259074Y-84511197D01*
X215583293Y-89433773D02*
X213216670Y-88628109D01*
X213216670Y-88628109D02*
X213055537Y-89101433D01*
X213055537Y-89101433D02*
X210026259Y-88070183D01*
X207564971Y-87232292D02*
X199139793Y-84364128D01*
X199139793Y-84364128D02*
X201137840Y-78494902D01*
%TO.C,G\u002A\u002A\u002A*%
D14*
X157268456Y-81971750D02*
X157419467Y-81979308D01*
X157551597Y-81991335D01*
X157658772Y-82007643D01*
X157734918Y-82028048D01*
X157770279Y-82048041D01*
X157804930Y-82092979D01*
X157856333Y-82174826D01*
X157923562Y-82292031D01*
X158000640Y-82433583D01*
X158045195Y-82512611D01*
X158093719Y-82592382D01*
X158114384Y-82624083D01*
X158157293Y-82692268D01*
X158205329Y-82775330D01*
X158232268Y-82825167D01*
X158268156Y-82891937D01*
X158299125Y-82945983D01*
X158315106Y-82970801D01*
X158329874Y-82992395D01*
X158353069Y-83030100D01*
X158387714Y-83089061D01*
X158436828Y-83174422D01*
X158503432Y-83291330D01*
X158507273Y-83298092D01*
X158528121Y-83341635D01*
X158532859Y-83366628D01*
X158532298Y-83367424D01*
X158509250Y-83366439D01*
X158454334Y-83356508D01*
X158376626Y-83339426D01*
X158313779Y-83324235D01*
X157855570Y-83229650D01*
X157403133Y-83176793D01*
X156954765Y-83165720D01*
X156508762Y-83196490D01*
X156063422Y-83269161D01*
X155617044Y-83383792D01*
X155500917Y-83420374D01*
X155235897Y-83517719D01*
X154957834Y-83639144D01*
X154681992Y-83777254D01*
X154423638Y-83924654D01*
X154306692Y-83998930D01*
X154064967Y-84158667D01*
X153257178Y-84158667D01*
X153076259Y-84158309D01*
X152908736Y-84157289D01*
X152759304Y-84155688D01*
X152632657Y-84153587D01*
X152533490Y-84151066D01*
X152466498Y-84148205D01*
X152436375Y-84145086D01*
X152435278Y-84144555D01*
X152422321Y-84112730D01*
X152421167Y-84099257D01*
X152436618Y-84067361D01*
X152480047Y-84012409D01*
X152547066Y-83938629D01*
X152633285Y-83850253D01*
X152734316Y-83751509D01*
X152845771Y-83646628D01*
X152963261Y-83539840D01*
X153082399Y-83435373D01*
X153198794Y-83337459D01*
X153276090Y-83275240D01*
X153330248Y-83232422D01*
X153372356Y-83198835D01*
X153385909Y-83187840D01*
X153416380Y-83165512D01*
X153469531Y-83128874D01*
X153532488Y-83086597D01*
X153592382Y-83047356D01*
X153625733Y-83026250D01*
X153664084Y-83000440D01*
X153717512Y-82962092D01*
X153733832Y-82950005D01*
X153787125Y-82912396D01*
X153830422Y-82885533D01*
X153839333Y-82881070D01*
X153875855Y-82861816D01*
X153930852Y-82829456D01*
X153955750Y-82814071D01*
X154005630Y-82785476D01*
X154084724Y-82743217D01*
X154184023Y-82691822D01*
X154294517Y-82635818D01*
X154407194Y-82579736D01*
X154513044Y-82528101D01*
X154603058Y-82485443D01*
X154664833Y-82457723D01*
X154755986Y-82420704D01*
X154866257Y-82378521D01*
X154985899Y-82334620D01*
X155105166Y-82292447D01*
X155214310Y-82255449D01*
X155303584Y-82227071D01*
X155363241Y-82210762D01*
X155363333Y-82210741D01*
X155419783Y-82197404D01*
X155500995Y-82177044D01*
X155590874Y-82153709D01*
X155604844Y-82150007D01*
X155691063Y-82128880D01*
X155767968Y-82113182D01*
X155821345Y-82105746D01*
X155828152Y-82105500D01*
X155877681Y-82098684D01*
X155904142Y-82086117D01*
X155934782Y-82073973D01*
X155993581Y-82062365D01*
X156051250Y-82055454D01*
X156123585Y-82047937D01*
X156223984Y-82036053D01*
X156338615Y-82021498D01*
X156442833Y-82007470D01*
X156597117Y-81989905D01*
X156762896Y-81977737D01*
X156934096Y-81970778D01*
X157104641Y-81968844D01*
X157268456Y-81971750D01*
G36*
X157268456Y-81971750D02*
G01*
X157419467Y-81979308D01*
X157551597Y-81991335D01*
X157658772Y-82007643D01*
X157734918Y-82028048D01*
X157770279Y-82048041D01*
X157804930Y-82092979D01*
X157856333Y-82174826D01*
X157923562Y-82292031D01*
X158000640Y-82433583D01*
X158045195Y-82512611D01*
X158093719Y-82592382D01*
X158114384Y-82624083D01*
X158157293Y-82692268D01*
X158205329Y-82775330D01*
X158232268Y-82825167D01*
X158268156Y-82891937D01*
X158299125Y-82945983D01*
X158315106Y-82970801D01*
X158329874Y-82992395D01*
X158353069Y-83030100D01*
X158387714Y-83089061D01*
X158436828Y-83174422D01*
X158503432Y-83291330D01*
X158507273Y-83298092D01*
X158528121Y-83341635D01*
X158532859Y-83366628D01*
X158532298Y-83367424D01*
X158509250Y-83366439D01*
X158454334Y-83356508D01*
X158376626Y-83339426D01*
X158313779Y-83324235D01*
X157855570Y-83229650D01*
X157403133Y-83176793D01*
X156954765Y-83165720D01*
X156508762Y-83196490D01*
X156063422Y-83269161D01*
X155617044Y-83383792D01*
X155500917Y-83420374D01*
X155235897Y-83517719D01*
X154957834Y-83639144D01*
X154681992Y-83777254D01*
X154423638Y-83924654D01*
X154306692Y-83998930D01*
X154064967Y-84158667D01*
X153257178Y-84158667D01*
X153076259Y-84158309D01*
X152908736Y-84157289D01*
X152759304Y-84155688D01*
X152632657Y-84153587D01*
X152533490Y-84151066D01*
X152466498Y-84148205D01*
X152436375Y-84145086D01*
X152435278Y-84144555D01*
X152422321Y-84112730D01*
X152421167Y-84099257D01*
X152436618Y-84067361D01*
X152480047Y-84012409D01*
X152547066Y-83938629D01*
X152633285Y-83850253D01*
X152734316Y-83751509D01*
X152845771Y-83646628D01*
X152963261Y-83539840D01*
X153082399Y-83435373D01*
X153198794Y-83337459D01*
X153276090Y-83275240D01*
X153330248Y-83232422D01*
X153372356Y-83198835D01*
X153385909Y-83187840D01*
X153416380Y-83165512D01*
X153469531Y-83128874D01*
X153532488Y-83086597D01*
X153592382Y-83047356D01*
X153625733Y-83026250D01*
X153664084Y-83000440D01*
X153717512Y-82962092D01*
X153733832Y-82950005D01*
X153787125Y-82912396D01*
X153830422Y-82885533D01*
X153839333Y-82881070D01*
X153875855Y-82861816D01*
X153930852Y-82829456D01*
X153955750Y-82814071D01*
X154005630Y-82785476D01*
X154084724Y-82743217D01*
X154184023Y-82691822D01*
X154294517Y-82635818D01*
X154407194Y-82579736D01*
X154513044Y-82528101D01*
X154603058Y-82485443D01*
X154664833Y-82457723D01*
X154755986Y-82420704D01*
X154866257Y-82378521D01*
X154985899Y-82334620D01*
X155105166Y-82292447D01*
X155214310Y-82255449D01*
X155303584Y-82227071D01*
X155363241Y-82210762D01*
X155363333Y-82210741D01*
X155419783Y-82197404D01*
X155500995Y-82177044D01*
X155590874Y-82153709D01*
X155604844Y-82150007D01*
X155691063Y-82128880D01*
X155767968Y-82113182D01*
X155821345Y-82105746D01*
X155828152Y-82105500D01*
X155877681Y-82098684D01*
X155904142Y-82086117D01*
X155934782Y-82073973D01*
X155993581Y-82062365D01*
X156051250Y-82055454D01*
X156123585Y-82047937D01*
X156223984Y-82036053D01*
X156338615Y-82021498D01*
X156442833Y-82007470D01*
X156597117Y-81989905D01*
X156762896Y-81977737D01*
X156934096Y-81970778D01*
X157104641Y-81968844D01*
X157268456Y-81971750D01*
G37*
X160992863Y-92037708D02*
X161197504Y-92039242D01*
X161363812Y-92040845D01*
X161495787Y-92042733D01*
X161597430Y-92045123D01*
X161672741Y-92048232D01*
X161725720Y-92052276D01*
X161760366Y-92057471D01*
X161780681Y-92064035D01*
X161790664Y-92072184D01*
X161794128Y-92081083D01*
X161781946Y-92108444D01*
X161743063Y-92159928D01*
X161681930Y-92230993D01*
X161603000Y-92317098D01*
X161510724Y-92413704D01*
X161409556Y-92516269D01*
X161303947Y-92620254D01*
X161198349Y-92721116D01*
X161097215Y-92814316D01*
X161004997Y-92895313D01*
X160955303Y-92936565D01*
X160801238Y-93055224D01*
X160622473Y-93183719D01*
X160432235Y-93313090D01*
X160243755Y-93434376D01*
X160070261Y-93538615D01*
X160046625Y-93552070D01*
X159965569Y-93597352D01*
X159899013Y-93633643D01*
X159854996Y-93656614D01*
X159841522Y-93662500D01*
X159819580Y-93670900D01*
X159767859Y-93693575D01*
X159694869Y-93726735D01*
X159634981Y-93754481D01*
X159528715Y-93802370D01*
X159414622Y-93851058D01*
X159311902Y-93892432D01*
X159279167Y-93904799D01*
X159199076Y-93934900D01*
X159131187Y-93961619D01*
X159088095Y-93979975D01*
X159083662Y-93982151D01*
X159035820Y-93998578D01*
X159014583Y-94001167D01*
X158969047Y-94011261D01*
X158945504Y-94021955D01*
X158899510Y-94040729D01*
X158818878Y-94065976D01*
X158710478Y-94095855D01*
X158581182Y-94128527D01*
X158437861Y-94162151D01*
X158347833Y-94182052D01*
X158199359Y-94212397D01*
X158064885Y-94235522D01*
X157928983Y-94253581D01*
X157776227Y-94268729D01*
X157660340Y-94278053D01*
X157555842Y-94287325D01*
X157466327Y-94297880D01*
X157400441Y-94308510D01*
X157366829Y-94318009D01*
X157365065Y-94319301D01*
X157337020Y-94327274D01*
X157277309Y-94333280D01*
X157195730Y-94337281D01*
X157102084Y-94339242D01*
X157006169Y-94339126D01*
X156917785Y-94336896D01*
X156846733Y-94332516D01*
X156802810Y-94325948D01*
X156793793Y-94321433D01*
X156768929Y-94311704D01*
X156712039Y-94301248D01*
X156633362Y-94291760D01*
X156593557Y-94288258D01*
X156505334Y-94278930D01*
X156431289Y-94266660D01*
X156383088Y-94253556D01*
X156373526Y-94248450D01*
X156351323Y-94221702D01*
X156316644Y-94170900D01*
X156276321Y-94107228D01*
X156237184Y-94041870D01*
X156206066Y-93986010D01*
X156189798Y-93950831D01*
X156188833Y-93946099D01*
X156178283Y-93924240D01*
X156150714Y-93877367D01*
X156114750Y-93819822D01*
X156076814Y-93759341D01*
X156050100Y-93714501D01*
X156040667Y-93695716D01*
X156030346Y-93675554D01*
X156002070Y-93626122D01*
X155959867Y-93554328D01*
X155907765Y-93467080D01*
X155893979Y-93444184D01*
X155834568Y-93344509D01*
X155778898Y-93249034D01*
X155732928Y-93168111D01*
X155702617Y-93112094D01*
X155701013Y-93108932D01*
X155666358Y-93045719D01*
X155633033Y-92993808D01*
X155622052Y-92979745D01*
X155600852Y-92947033D01*
X155600365Y-92931579D01*
X155624207Y-92931801D01*
X155679798Y-92941136D01*
X155757965Y-92957865D01*
X155820721Y-92972932D01*
X156276858Y-93065914D01*
X156733048Y-93117428D01*
X157187094Y-93127898D01*
X157636800Y-93097749D01*
X158079969Y-93027404D01*
X158514405Y-92917289D01*
X158937912Y-92767827D01*
X159348292Y-92579443D01*
X159743350Y-92352561D01*
X160023135Y-92161162D01*
X160198879Y-92032167D01*
X160992863Y-92037708D01*
G36*
X160992863Y-92037708D02*
G01*
X161197504Y-92039242D01*
X161363812Y-92040845D01*
X161495787Y-92042733D01*
X161597430Y-92045123D01*
X161672741Y-92048232D01*
X161725720Y-92052276D01*
X161760366Y-92057471D01*
X161780681Y-92064035D01*
X161790664Y-92072184D01*
X161794128Y-92081083D01*
X161781946Y-92108444D01*
X161743063Y-92159928D01*
X161681930Y-92230993D01*
X161603000Y-92317098D01*
X161510724Y-92413704D01*
X161409556Y-92516269D01*
X161303947Y-92620254D01*
X161198349Y-92721116D01*
X161097215Y-92814316D01*
X161004997Y-92895313D01*
X160955303Y-92936565D01*
X160801238Y-93055224D01*
X160622473Y-93183719D01*
X160432235Y-93313090D01*
X160243755Y-93434376D01*
X160070261Y-93538615D01*
X160046625Y-93552070D01*
X159965569Y-93597352D01*
X159899013Y-93633643D01*
X159854996Y-93656614D01*
X159841522Y-93662500D01*
X159819580Y-93670900D01*
X159767859Y-93693575D01*
X159694869Y-93726735D01*
X159634981Y-93754481D01*
X159528715Y-93802370D01*
X159414622Y-93851058D01*
X159311902Y-93892432D01*
X159279167Y-93904799D01*
X159199076Y-93934900D01*
X159131187Y-93961619D01*
X159088095Y-93979975D01*
X159083662Y-93982151D01*
X159035820Y-93998578D01*
X159014583Y-94001167D01*
X158969047Y-94011261D01*
X158945504Y-94021955D01*
X158899510Y-94040729D01*
X158818878Y-94065976D01*
X158710478Y-94095855D01*
X158581182Y-94128527D01*
X158437861Y-94162151D01*
X158347833Y-94182052D01*
X158199359Y-94212397D01*
X158064885Y-94235522D01*
X157928983Y-94253581D01*
X157776227Y-94268729D01*
X157660340Y-94278053D01*
X157555842Y-94287325D01*
X157466327Y-94297880D01*
X157400441Y-94308510D01*
X157366829Y-94318009D01*
X157365065Y-94319301D01*
X157337020Y-94327274D01*
X157277309Y-94333280D01*
X157195730Y-94337281D01*
X157102084Y-94339242D01*
X157006169Y-94339126D01*
X156917785Y-94336896D01*
X156846733Y-94332516D01*
X156802810Y-94325948D01*
X156793793Y-94321433D01*
X156768929Y-94311704D01*
X156712039Y-94301248D01*
X156633362Y-94291760D01*
X156593557Y-94288258D01*
X156505334Y-94278930D01*
X156431289Y-94266660D01*
X156383088Y-94253556D01*
X156373526Y-94248450D01*
X156351323Y-94221702D01*
X156316644Y-94170900D01*
X156276321Y-94107228D01*
X156237184Y-94041870D01*
X156206066Y-93986010D01*
X156189798Y-93950831D01*
X156188833Y-93946099D01*
X156178283Y-93924240D01*
X156150714Y-93877367D01*
X156114750Y-93819822D01*
X156076814Y-93759341D01*
X156050100Y-93714501D01*
X156040667Y-93695716D01*
X156030346Y-93675554D01*
X156002070Y-93626122D01*
X155959867Y-93554328D01*
X155907765Y-93467080D01*
X155893979Y-93444184D01*
X155834568Y-93344509D01*
X155778898Y-93249034D01*
X155732928Y-93168111D01*
X155702617Y-93112094D01*
X155701013Y-93108932D01*
X155666358Y-93045719D01*
X155633033Y-92993808D01*
X155622052Y-92979745D01*
X155600852Y-92947033D01*
X155600365Y-92931579D01*
X155624207Y-92931801D01*
X155679798Y-92941136D01*
X155757965Y-92957865D01*
X155820721Y-92972932D01*
X156276858Y-93065914D01*
X156733048Y-93117428D01*
X157187094Y-93127898D01*
X157636800Y-93097749D01*
X158079969Y-93027404D01*
X158514405Y-92917289D01*
X158937912Y-92767827D01*
X159348292Y-92579443D01*
X159743350Y-92352561D01*
X160023135Y-92161162D01*
X160198879Y-92032167D01*
X160992863Y-92037708D01*
G37*
X162885665Y-86125246D02*
X162908748Y-86178072D01*
X162937466Y-86257106D01*
X162969271Y-86354978D01*
X163001612Y-86464317D01*
X163026340Y-86555792D01*
X163046834Y-86634327D01*
X163067739Y-86713260D01*
X163068082Y-86714542D01*
X163093362Y-86818558D01*
X163116729Y-86931691D01*
X163135907Y-87041081D01*
X163148619Y-87133868D01*
X163152649Y-87192183D01*
X163157435Y-87255037D01*
X163169155Y-87303807D01*
X163171372Y-87308600D01*
X163180336Y-87343536D01*
X163190067Y-87410396D01*
X163199257Y-87498820D01*
X163205273Y-87577083D01*
X163212070Y-87672189D01*
X163218811Y-87750969D01*
X163224643Y-87804271D01*
X163228191Y-87822622D01*
X163234337Y-87852288D01*
X163239459Y-87913238D01*
X163243423Y-87996046D01*
X163246095Y-88091288D01*
X163247343Y-88189538D01*
X163247032Y-88281369D01*
X163245029Y-88357356D01*
X163241202Y-88408073D01*
X163236705Y-88424138D01*
X163226386Y-88450124D01*
X163218448Y-88506664D01*
X163214485Y-88581987D01*
X163214380Y-88589041D01*
X163210331Y-88689850D01*
X163201651Y-88796107D01*
X163192607Y-88868250D01*
X163178630Y-88960181D01*
X163163073Y-89067123D01*
X163152402Y-89143417D01*
X163106773Y-89404108D01*
X163038198Y-89690921D01*
X162948859Y-89995907D01*
X162840938Y-90311117D01*
X162806657Y-90402833D01*
X162776158Y-90478765D01*
X162735347Y-90574720D01*
X162688703Y-90680775D01*
X162640708Y-90787007D01*
X162595843Y-90883490D01*
X162558587Y-90960302D01*
X162534283Y-91006083D01*
X162506433Y-91055324D01*
X162475465Y-91113052D01*
X162437974Y-91178554D01*
X162398285Y-91240052D01*
X162366552Y-91289419D01*
X162323519Y-91361334D01*
X162277971Y-91441082D01*
X162273585Y-91448978D01*
X162225325Y-91530681D01*
X162174915Y-91607432D01*
X162132787Y-91663403D01*
X162130591Y-91665936D01*
X162068781Y-91736333D01*
X160541246Y-91736333D01*
X160593844Y-91678125D01*
X160631982Y-91636107D01*
X160688743Y-91573794D01*
X160754167Y-91502114D01*
X160780703Y-91473079D01*
X161040347Y-91159862D01*
X161276517Y-90815631D01*
X161486159Y-90446459D01*
X161666222Y-90058415D01*
X161813650Y-89657569D01*
X161925390Y-89249991D01*
X161945345Y-89157771D01*
X161993939Y-88890430D01*
X162026443Y-88633608D01*
X162043954Y-88373242D01*
X162047570Y-88095271D01*
X162043179Y-87903960D01*
X162038467Y-87761336D01*
X162035818Y-87654719D01*
X162035622Y-87577818D01*
X162038267Y-87524337D01*
X162044144Y-87487986D01*
X162053642Y-87462471D01*
X162067150Y-87441500D01*
X162072199Y-87434954D01*
X162101837Y-87394024D01*
X162115410Y-87368864D01*
X162115500Y-87367979D01*
X162125581Y-87345603D01*
X162152533Y-87295917D01*
X162191414Y-87227897D01*
X162210750Y-87194944D01*
X162253170Y-87122477D01*
X162285868Y-87065256D01*
X162303942Y-87031919D01*
X162306000Y-87027034D01*
X162315705Y-87006730D01*
X162341312Y-86959451D01*
X162377556Y-86894886D01*
X162382672Y-86885908D01*
X162427972Y-86806540D01*
X162471331Y-86730560D01*
X162501606Y-86677500D01*
X162530457Y-86627495D01*
X162573913Y-86552853D01*
X162625073Y-86465405D01*
X162657767Y-86409723D01*
X162704658Y-86328198D01*
X162742175Y-86259580D01*
X162765794Y-86212352D01*
X162771667Y-86196045D01*
X162787316Y-86165760D01*
X162822539Y-86131185D01*
X162859743Y-86108304D01*
X162870768Y-86106000D01*
X162885665Y-86125246D01*
G36*
X162885665Y-86125246D02*
G01*
X162908748Y-86178072D01*
X162937466Y-86257106D01*
X162969271Y-86354978D01*
X163001612Y-86464317D01*
X163026340Y-86555792D01*
X163046834Y-86634327D01*
X163067739Y-86713260D01*
X163068082Y-86714542D01*
X163093362Y-86818558D01*
X163116729Y-86931691D01*
X163135907Y-87041081D01*
X163148619Y-87133868D01*
X163152649Y-87192183D01*
X163157435Y-87255037D01*
X163169155Y-87303807D01*
X163171372Y-87308600D01*
X163180336Y-87343536D01*
X163190067Y-87410396D01*
X163199257Y-87498820D01*
X163205273Y-87577083D01*
X163212070Y-87672189D01*
X163218811Y-87750969D01*
X163224643Y-87804271D01*
X163228191Y-87822622D01*
X163234337Y-87852288D01*
X163239459Y-87913238D01*
X163243423Y-87996046D01*
X163246095Y-88091288D01*
X163247343Y-88189538D01*
X163247032Y-88281369D01*
X163245029Y-88357356D01*
X163241202Y-88408073D01*
X163236705Y-88424138D01*
X163226386Y-88450124D01*
X163218448Y-88506664D01*
X163214485Y-88581987D01*
X163214380Y-88589041D01*
X163210331Y-88689850D01*
X163201651Y-88796107D01*
X163192607Y-88868250D01*
X163178630Y-88960181D01*
X163163073Y-89067123D01*
X163152402Y-89143417D01*
X163106773Y-89404108D01*
X163038198Y-89690921D01*
X162948859Y-89995907D01*
X162840938Y-90311117D01*
X162806657Y-90402833D01*
X162776158Y-90478765D01*
X162735347Y-90574720D01*
X162688703Y-90680775D01*
X162640708Y-90787007D01*
X162595843Y-90883490D01*
X162558587Y-90960302D01*
X162534283Y-91006083D01*
X162506433Y-91055324D01*
X162475465Y-91113052D01*
X162437974Y-91178554D01*
X162398285Y-91240052D01*
X162366552Y-91289419D01*
X162323519Y-91361334D01*
X162277971Y-91441082D01*
X162273585Y-91448978D01*
X162225325Y-91530681D01*
X162174915Y-91607432D01*
X162132787Y-91663403D01*
X162130591Y-91665936D01*
X162068781Y-91736333D01*
X160541246Y-91736333D01*
X160593844Y-91678125D01*
X160631982Y-91636107D01*
X160688743Y-91573794D01*
X160754167Y-91502114D01*
X160780703Y-91473079D01*
X161040347Y-91159862D01*
X161276517Y-90815631D01*
X161486159Y-90446459D01*
X161666222Y-90058415D01*
X161813650Y-89657569D01*
X161925390Y-89249991D01*
X161945345Y-89157771D01*
X161993939Y-88890430D01*
X162026443Y-88633608D01*
X162043954Y-88373242D01*
X162047570Y-88095271D01*
X162043179Y-87903960D01*
X162038467Y-87761336D01*
X162035818Y-87654719D01*
X162035622Y-87577818D01*
X162038267Y-87524337D01*
X162044144Y-87487986D01*
X162053642Y-87462471D01*
X162067150Y-87441500D01*
X162072199Y-87434954D01*
X162101837Y-87394024D01*
X162115410Y-87368864D01*
X162115500Y-87367979D01*
X162125581Y-87345603D01*
X162152533Y-87295917D01*
X162191414Y-87227897D01*
X162210750Y-87194944D01*
X162253170Y-87122477D01*
X162285868Y-87065256D01*
X162303942Y-87031919D01*
X162306000Y-87027034D01*
X162315705Y-87006730D01*
X162341312Y-86959451D01*
X162377556Y-86894886D01*
X162382672Y-86885908D01*
X162427972Y-86806540D01*
X162471331Y-86730560D01*
X162501606Y-86677500D01*
X162530457Y-86627495D01*
X162573913Y-86552853D01*
X162625073Y-86465405D01*
X162657767Y-86409723D01*
X162704658Y-86328198D01*
X162742175Y-86259580D01*
X162765794Y-86212352D01*
X162771667Y-86196045D01*
X162787316Y-86165760D01*
X162822539Y-86131185D01*
X162859743Y-86108304D01*
X162870768Y-86106000D01*
X162885665Y-86125246D01*
G37*
X158349538Y-82112133D02*
X158427806Y-82125221D01*
X158512200Y-82143156D01*
X158590496Y-82163110D01*
X158650465Y-82182253D01*
X158679014Y-82196792D01*
X158709310Y-82207881D01*
X158748236Y-82211438D01*
X158773391Y-82213574D01*
X158808326Y-82221013D01*
X158858121Y-82235421D01*
X158927856Y-82258467D01*
X159022610Y-82291820D01*
X159147464Y-82337148D01*
X159283057Y-82387080D01*
X159376982Y-82422228D01*
X159454304Y-82452626D01*
X159526061Y-82483152D01*
X159603287Y-82518683D01*
X159697016Y-82564097D01*
X159807441Y-82618865D01*
X159945255Y-82688324D01*
X160056097Y-82746440D01*
X160151361Y-82799766D01*
X160242440Y-82854852D01*
X160340728Y-82918249D01*
X160419288Y-82970655D01*
X160500039Y-83024979D01*
X160572163Y-83073503D01*
X160625380Y-83109311D01*
X160643492Y-83121500D01*
X160892816Y-83304059D01*
X161148058Y-83518295D01*
X161400953Y-83755996D01*
X161643234Y-84008952D01*
X161866637Y-84268953D01*
X162062894Y-84527788D01*
X162071227Y-84539667D01*
X162192942Y-84716739D01*
X162295697Y-84873517D01*
X162387242Y-85022550D01*
X162475321Y-85176392D01*
X162554587Y-85322833D01*
X162592858Y-85392928D01*
X162625406Y-85448853D01*
X162645683Y-85479394D01*
X162646692Y-85480525D01*
X162663301Y-85517570D01*
X162665833Y-85539478D01*
X162677105Y-85585560D01*
X162699680Y-85629980D01*
X162713333Y-85650312D01*
X162721078Y-85667563D01*
X162720466Y-85688410D01*
X162709047Y-85719528D01*
X162684369Y-85767595D01*
X162643985Y-85839285D01*
X162585442Y-85941276D01*
X162585422Y-85941310D01*
X162552305Y-86000130D01*
X162508501Y-86079306D01*
X162463376Y-86161910D01*
X162462481Y-86163560D01*
X162421767Y-86237002D01*
X162386050Y-86298503D01*
X162362268Y-86336160D01*
X162360301Y-86338833D01*
X162333870Y-86380283D01*
X162305287Y-86434083D01*
X162276606Y-86488565D01*
X162236338Y-86559302D01*
X162209972Y-86603417D01*
X162162041Y-86684839D01*
X162113496Y-86771881D01*
X162093391Y-86809792D01*
X162061707Y-86865888D01*
X162035865Y-86902384D01*
X162025578Y-86910333D01*
X162011148Y-86927384D01*
X162009667Y-86939738D01*
X161997162Y-86976775D01*
X161970955Y-87016950D01*
X161932244Y-87064756D01*
X161894210Y-86908170D01*
X161823354Y-86660278D01*
X161728322Y-86393954D01*
X161614407Y-86121158D01*
X161486905Y-85853851D01*
X161351106Y-85603993D01*
X161232991Y-85414091D01*
X160959206Y-85038602D01*
X160662336Y-84698034D01*
X160340347Y-84390581D01*
X159991209Y-84114438D01*
X159612889Y-83867798D01*
X159300898Y-83697097D01*
X159186382Y-83638744D01*
X159102794Y-83594259D01*
X159043203Y-83558567D01*
X159000677Y-83526592D01*
X158968285Y-83493260D01*
X158939095Y-83453495D01*
X158913064Y-83413123D01*
X158860949Y-83328212D01*
X158808335Y-83238544D01*
X158773652Y-83176419D01*
X158729742Y-83097405D01*
X158683239Y-83017760D01*
X158662522Y-82983917D01*
X158627397Y-82926229D01*
X158601004Y-82879722D01*
X158594851Y-82867500D01*
X158574721Y-82829918D01*
X158542581Y-82775774D01*
X158532898Y-82760192D01*
X158472825Y-82662007D01*
X158410580Y-82555829D01*
X158349985Y-82448703D01*
X158294861Y-82347670D01*
X158249030Y-82259775D01*
X158216312Y-82192060D01*
X158200530Y-82151568D01*
X158199667Y-82146016D01*
X158206729Y-82120153D01*
X158235085Y-82108651D01*
X158289625Y-82106720D01*
X158349538Y-82112133D01*
G36*
X158349538Y-82112133D02*
G01*
X158427806Y-82125221D01*
X158512200Y-82143156D01*
X158590496Y-82163110D01*
X158650465Y-82182253D01*
X158679014Y-82196792D01*
X158709310Y-82207881D01*
X158748236Y-82211438D01*
X158773391Y-82213574D01*
X158808326Y-82221013D01*
X158858121Y-82235421D01*
X158927856Y-82258467D01*
X159022610Y-82291820D01*
X159147464Y-82337148D01*
X159283057Y-82387080D01*
X159376982Y-82422228D01*
X159454304Y-82452626D01*
X159526061Y-82483152D01*
X159603287Y-82518683D01*
X159697016Y-82564097D01*
X159807441Y-82618865D01*
X159945255Y-82688324D01*
X160056097Y-82746440D01*
X160151361Y-82799766D01*
X160242440Y-82854852D01*
X160340728Y-82918249D01*
X160419288Y-82970655D01*
X160500039Y-83024979D01*
X160572163Y-83073503D01*
X160625380Y-83109311D01*
X160643492Y-83121500D01*
X160892816Y-83304059D01*
X161148058Y-83518295D01*
X161400953Y-83755996D01*
X161643234Y-84008952D01*
X161866637Y-84268953D01*
X162062894Y-84527788D01*
X162071227Y-84539667D01*
X162192942Y-84716739D01*
X162295697Y-84873517D01*
X162387242Y-85022550D01*
X162475321Y-85176392D01*
X162554587Y-85322833D01*
X162592858Y-85392928D01*
X162625406Y-85448853D01*
X162645683Y-85479394D01*
X162646692Y-85480525D01*
X162663301Y-85517570D01*
X162665833Y-85539478D01*
X162677105Y-85585560D01*
X162699680Y-85629980D01*
X162713333Y-85650312D01*
X162721078Y-85667563D01*
X162720466Y-85688410D01*
X162709047Y-85719528D01*
X162684369Y-85767595D01*
X162643985Y-85839285D01*
X162585442Y-85941276D01*
X162585422Y-85941310D01*
X162552305Y-86000130D01*
X162508501Y-86079306D01*
X162463376Y-86161910D01*
X162462481Y-86163560D01*
X162421767Y-86237002D01*
X162386050Y-86298503D01*
X162362268Y-86336160D01*
X162360301Y-86338833D01*
X162333870Y-86380283D01*
X162305287Y-86434083D01*
X162276606Y-86488565D01*
X162236338Y-86559302D01*
X162209972Y-86603417D01*
X162162041Y-86684839D01*
X162113496Y-86771881D01*
X162093391Y-86809792D01*
X162061707Y-86865888D01*
X162035865Y-86902384D01*
X162025578Y-86910333D01*
X162011148Y-86927384D01*
X162009667Y-86939738D01*
X161997162Y-86976775D01*
X161970955Y-87016950D01*
X161932244Y-87064756D01*
X161894210Y-86908170D01*
X161823354Y-86660278D01*
X161728322Y-86393954D01*
X161614407Y-86121158D01*
X161486905Y-85853851D01*
X161351106Y-85603993D01*
X161232991Y-85414091D01*
X160959206Y-85038602D01*
X160662336Y-84698034D01*
X160340347Y-84390581D01*
X159991209Y-84114438D01*
X159612889Y-83867798D01*
X159300898Y-83697097D01*
X159186382Y-83638744D01*
X159102794Y-83594259D01*
X159043203Y-83558567D01*
X159000677Y-83526592D01*
X158968285Y-83493260D01*
X158939095Y-83453495D01*
X158913064Y-83413123D01*
X158860949Y-83328212D01*
X158808335Y-83238544D01*
X158773652Y-83176419D01*
X158729742Y-83097405D01*
X158683239Y-83017760D01*
X158662522Y-82983917D01*
X158627397Y-82926229D01*
X158601004Y-82879722D01*
X158594851Y-82867500D01*
X158574721Y-82829918D01*
X158542581Y-82775774D01*
X158532898Y-82760192D01*
X158472825Y-82662007D01*
X158410580Y-82555829D01*
X158349985Y-82448703D01*
X158294861Y-82347670D01*
X158249030Y-82259775D01*
X158216312Y-82192060D01*
X158200530Y-82151568D01*
X158199667Y-82146016D01*
X158206729Y-82120153D01*
X158235085Y-82108651D01*
X158289625Y-82106720D01*
X158349538Y-82112133D01*
G37*
X152200730Y-89252060D02*
X152218120Y-89305907D01*
X152237880Y-89379234D01*
X152240901Y-89391513D01*
X152310946Y-89636550D01*
X152405007Y-89900295D01*
X152517827Y-90170879D01*
X152644149Y-90436430D01*
X152778714Y-90685077D01*
X152901509Y-90883075D01*
X153177482Y-91260903D01*
X153478006Y-91604474D01*
X153804244Y-91914820D01*
X154157365Y-92192975D01*
X154538532Y-92439969D01*
X154850802Y-92609034D01*
X155153188Y-92760061D01*
X155247677Y-92915698D01*
X155290423Y-92987571D01*
X155323095Y-93045296D01*
X155340574Y-93079709D01*
X155342167Y-93084792D01*
X155354582Y-93109798D01*
X155371686Y-93131666D01*
X155395904Y-93166566D01*
X155431579Y-93226618D01*
X155471189Y-93299134D01*
X155473038Y-93302667D01*
X155518021Y-93386078D01*
X155564437Y-93467813D01*
X155598966Y-93524917D01*
X155648688Y-93604560D01*
X155705103Y-93697817D01*
X155763437Y-93796440D01*
X155818912Y-93892186D01*
X155866754Y-93976807D01*
X155902185Y-94042058D01*
X155920430Y-94079695D01*
X155920659Y-94080303D01*
X155921987Y-94133583D01*
X155889867Y-94173435D01*
X155833049Y-94189823D01*
X155825220Y-94189746D01*
X155781149Y-94183880D01*
X155710464Y-94170186D01*
X155627521Y-94151479D01*
X155617333Y-94149009D01*
X155471739Y-94112283D01*
X155347562Y-94078711D01*
X155251172Y-94050100D01*
X155188939Y-94028258D01*
X155183417Y-94025888D01*
X155135755Y-94007607D01*
X155071295Y-93986192D01*
X155056417Y-93981641D01*
X154964343Y-93951448D01*
X154851581Y-93909434D01*
X154749500Y-93868801D01*
X154691694Y-93845350D01*
X154654250Y-93830157D01*
X154576257Y-93797639D01*
X154490057Y-93760393D01*
X154410685Y-93725027D01*
X154353170Y-93698148D01*
X154347333Y-93695245D01*
X154286488Y-93663706D01*
X154211604Y-93623740D01*
X154135648Y-93582402D01*
X154071587Y-93546748D01*
X154032948Y-93524185D01*
X153993293Y-93500498D01*
X153935507Y-93467261D01*
X153913417Y-93454797D01*
X153847381Y-93416436D01*
X153787198Y-93379390D01*
X153774126Y-93370862D01*
X153725108Y-93338668D01*
X153658550Y-93295572D01*
X153615376Y-93267863D01*
X153458260Y-93159334D01*
X153282927Y-93024275D01*
X153097096Y-92869611D01*
X152908486Y-92702269D01*
X152724817Y-92529176D01*
X152553809Y-92357257D01*
X152403182Y-92193439D01*
X152354167Y-92136275D01*
X152290833Y-92058684D01*
X152218941Y-91967296D01*
X152142946Y-91868162D01*
X152067303Y-91767335D01*
X151996466Y-91670867D01*
X151934890Y-91584810D01*
X151887031Y-91515215D01*
X151857343Y-91468136D01*
X151849667Y-91450896D01*
X151839017Y-91429469D01*
X151810673Y-91381605D01*
X151770043Y-91316341D01*
X151755220Y-91293087D01*
X151702525Y-91207010D01*
X151646820Y-91109565D01*
X151592265Y-91008834D01*
X151543020Y-90912903D01*
X151503246Y-90829854D01*
X151477103Y-90767773D01*
X151468666Y-90736292D01*
X151453616Y-90696667D01*
X151436917Y-90678000D01*
X151410119Y-90630416D01*
X151409093Y-90562181D01*
X151432762Y-90485374D01*
X151458083Y-90440620D01*
X151490163Y-90390647D01*
X151508957Y-90356024D01*
X151511000Y-90349335D01*
X151521587Y-90325754D01*
X151549113Y-90277952D01*
X151581136Y-90226504D01*
X151671180Y-90083384D01*
X151763191Y-89932462D01*
X151850658Y-89784723D01*
X151927068Y-89651153D01*
X151981717Y-89550769D01*
X152011529Y-89498865D01*
X152035722Y-89465134D01*
X152040938Y-89460440D01*
X152059219Y-89436992D01*
X152088825Y-89387161D01*
X152116679Y-89334675D01*
X152149280Y-89275820D01*
X152175894Y-89237651D01*
X152189172Y-89228602D01*
X152200730Y-89252060D01*
G36*
X152200730Y-89252060D02*
G01*
X152218120Y-89305907D01*
X152237880Y-89379234D01*
X152240901Y-89391513D01*
X152310946Y-89636550D01*
X152405007Y-89900295D01*
X152517827Y-90170879D01*
X152644149Y-90436430D01*
X152778714Y-90685077D01*
X152901509Y-90883075D01*
X153177482Y-91260903D01*
X153478006Y-91604474D01*
X153804244Y-91914820D01*
X154157365Y-92192975D01*
X154538532Y-92439969D01*
X154850802Y-92609034D01*
X155153188Y-92760061D01*
X155247677Y-92915698D01*
X155290423Y-92987571D01*
X155323095Y-93045296D01*
X155340574Y-93079709D01*
X155342167Y-93084792D01*
X155354582Y-93109798D01*
X155371686Y-93131666D01*
X155395904Y-93166566D01*
X155431579Y-93226618D01*
X155471189Y-93299134D01*
X155473038Y-93302667D01*
X155518021Y-93386078D01*
X155564437Y-93467813D01*
X155598966Y-93524917D01*
X155648688Y-93604560D01*
X155705103Y-93697817D01*
X155763437Y-93796440D01*
X155818912Y-93892186D01*
X155866754Y-93976807D01*
X155902185Y-94042058D01*
X155920430Y-94079695D01*
X155920659Y-94080303D01*
X155921987Y-94133583D01*
X155889867Y-94173435D01*
X155833049Y-94189823D01*
X155825220Y-94189746D01*
X155781149Y-94183880D01*
X155710464Y-94170186D01*
X155627521Y-94151479D01*
X155617333Y-94149009D01*
X155471739Y-94112283D01*
X155347562Y-94078711D01*
X155251172Y-94050100D01*
X155188939Y-94028258D01*
X155183417Y-94025888D01*
X155135755Y-94007607D01*
X155071295Y-93986192D01*
X155056417Y-93981641D01*
X154964343Y-93951448D01*
X154851581Y-93909434D01*
X154749500Y-93868801D01*
X154691694Y-93845350D01*
X154654250Y-93830157D01*
X154576257Y-93797639D01*
X154490057Y-93760393D01*
X154410685Y-93725027D01*
X154353170Y-93698148D01*
X154347333Y-93695245D01*
X154286488Y-93663706D01*
X154211604Y-93623740D01*
X154135648Y-93582402D01*
X154071587Y-93546748D01*
X154032948Y-93524185D01*
X153993293Y-93500498D01*
X153935507Y-93467261D01*
X153913417Y-93454797D01*
X153847381Y-93416436D01*
X153787198Y-93379390D01*
X153774126Y-93370862D01*
X153725108Y-93338668D01*
X153658550Y-93295572D01*
X153615376Y-93267863D01*
X153458260Y-93159334D01*
X153282927Y-93024275D01*
X153097096Y-92869611D01*
X152908486Y-92702269D01*
X152724817Y-92529176D01*
X152553809Y-92357257D01*
X152403182Y-92193439D01*
X152354167Y-92136275D01*
X152290833Y-92058684D01*
X152218941Y-91967296D01*
X152142946Y-91868162D01*
X152067303Y-91767335D01*
X151996466Y-91670867D01*
X151934890Y-91584810D01*
X151887031Y-91515215D01*
X151857343Y-91468136D01*
X151849667Y-91450896D01*
X151839017Y-91429469D01*
X151810673Y-91381605D01*
X151770043Y-91316341D01*
X151755220Y-91293087D01*
X151702525Y-91207010D01*
X151646820Y-91109565D01*
X151592265Y-91008834D01*
X151543020Y-90912903D01*
X151503246Y-90829854D01*
X151477103Y-90767773D01*
X151468666Y-90736292D01*
X151453616Y-90696667D01*
X151436917Y-90678000D01*
X151410119Y-90630416D01*
X151409093Y-90562181D01*
X151432762Y-90485374D01*
X151458083Y-90440620D01*
X151490163Y-90390647D01*
X151508957Y-90356024D01*
X151511000Y-90349335D01*
X151521587Y-90325754D01*
X151549113Y-90277952D01*
X151581136Y-90226504D01*
X151671180Y-90083384D01*
X151763191Y-89932462D01*
X151850658Y-89784723D01*
X151927068Y-89651153D01*
X151981717Y-89550769D01*
X152011529Y-89498865D01*
X152035722Y-89465134D01*
X152040938Y-89460440D01*
X152059219Y-89436992D01*
X152088825Y-89387161D01*
X152116679Y-89334675D01*
X152149280Y-89275820D01*
X152175894Y-89237651D01*
X152189172Y-89228602D01*
X152200730Y-89252060D01*
G37*
X153111196Y-84434647D02*
X153273851Y-84435343D01*
X153417750Y-84436531D01*
X153538219Y-84438148D01*
X153630581Y-84440129D01*
X153690164Y-84442412D01*
X153712293Y-84444934D01*
X153712333Y-84445048D01*
X153698280Y-84463439D01*
X153659847Y-84505758D01*
X153602623Y-84566033D01*
X153532194Y-84638292D01*
X153519226Y-84651423D01*
X153216790Y-84986889D01*
X152947244Y-85347805D01*
X152711809Y-85731530D01*
X152511708Y-86135421D01*
X152348160Y-86556839D01*
X152222387Y-86993139D01*
X152135610Y-87441681D01*
X152102763Y-87715658D01*
X152088356Y-87958299D01*
X152086646Y-88234099D01*
X152090706Y-88385230D01*
X152105020Y-88770043D01*
X152020651Y-88907886D01*
X151969695Y-88992902D01*
X151918984Y-89080362D01*
X151881600Y-89147489D01*
X151811330Y-89276147D01*
X151750967Y-89382437D01*
X151703223Y-89461751D01*
X151670811Y-89509483D01*
X151663503Y-89517963D01*
X151641144Y-89549354D01*
X151638000Y-89560820D01*
X151627330Y-89587287D01*
X151600113Y-89635568D01*
X151579988Y-89667712D01*
X151543943Y-89726011D01*
X151495479Y-89807965D01*
X151442503Y-89900093D01*
X151415833Y-89947482D01*
X151354967Y-90049538D01*
X151306465Y-90113846D01*
X151267967Y-90142348D01*
X151237111Y-90136985D01*
X151217048Y-90110950D01*
X151197339Y-90062793D01*
X151171367Y-89983539D01*
X151141655Y-89882803D01*
X151110729Y-89770199D01*
X151081110Y-89655342D01*
X151055324Y-89547848D01*
X151035895Y-89457329D01*
X151025345Y-89393401D01*
X151024167Y-89376158D01*
X151016163Y-89331872D01*
X151003000Y-89312750D01*
X150991501Y-89286017D01*
X150983814Y-89230552D01*
X150981833Y-89178151D01*
X150978544Y-89108467D01*
X150970055Y-89055841D01*
X150961724Y-89036524D01*
X150953200Y-89008897D01*
X150944079Y-88947492D01*
X150935350Y-88860832D01*
X150928001Y-88757443D01*
X150926770Y-88735226D01*
X150920003Y-88630489D01*
X150911929Y-88541731D01*
X150903465Y-88477132D01*
X150895531Y-88444872D01*
X150893962Y-88442936D01*
X150886570Y-88418195D01*
X150881201Y-88360774D01*
X150877828Y-88280274D01*
X150876425Y-88186300D01*
X150876965Y-88088454D01*
X150879422Y-87996340D01*
X150883768Y-87919560D01*
X150889976Y-87867717D01*
X150895615Y-87851192D01*
X150904045Y-87823497D01*
X150913092Y-87762135D01*
X150921752Y-87675739D01*
X150929020Y-87572942D01*
X150929967Y-87555917D01*
X150936674Y-87451219D01*
X150944489Y-87361448D01*
X150952507Y-87295280D01*
X150959826Y-87261390D01*
X150960840Y-87259583D01*
X150970836Y-87228713D01*
X150980991Y-87169060D01*
X150988419Y-87100833D01*
X151011407Y-86927095D01*
X151054090Y-86724605D01*
X151116956Y-86491599D01*
X151200493Y-86226312D01*
X151305189Y-85926978D01*
X151337910Y-85838042D01*
X151369635Y-85758836D01*
X151412404Y-85660611D01*
X151462111Y-85551898D01*
X151514650Y-85441224D01*
X151565914Y-85337119D01*
X151611799Y-85248110D01*
X151648198Y-85182728D01*
X151667457Y-85153500D01*
X151690557Y-85118145D01*
X151724200Y-85059184D01*
X151752806Y-85005333D01*
X151797109Y-84926179D01*
X151846054Y-84848974D01*
X151873496Y-84810783D01*
X151909524Y-84762209D01*
X151931344Y-84728350D01*
X151934333Y-84720873D01*
X151946282Y-84696323D01*
X151976821Y-84649688D01*
X152017988Y-84591857D01*
X152061818Y-84533715D01*
X152100351Y-84486149D01*
X152124431Y-84460965D01*
X152145248Y-84453725D01*
X152189891Y-84447803D01*
X152261316Y-84443103D01*
X152362480Y-84439527D01*
X152496337Y-84436980D01*
X152665845Y-84435364D01*
X152873959Y-84434584D01*
X152934458Y-84434506D01*
X153111196Y-84434647D01*
G36*
X153111196Y-84434647D02*
G01*
X153273851Y-84435343D01*
X153417750Y-84436531D01*
X153538219Y-84438148D01*
X153630581Y-84440129D01*
X153690164Y-84442412D01*
X153712293Y-84444934D01*
X153712333Y-84445048D01*
X153698280Y-84463439D01*
X153659847Y-84505758D01*
X153602623Y-84566033D01*
X153532194Y-84638292D01*
X153519226Y-84651423D01*
X153216790Y-84986889D01*
X152947244Y-85347805D01*
X152711809Y-85731530D01*
X152511708Y-86135421D01*
X152348160Y-86556839D01*
X152222387Y-86993139D01*
X152135610Y-87441681D01*
X152102763Y-87715658D01*
X152088356Y-87958299D01*
X152086646Y-88234099D01*
X152090706Y-88385230D01*
X152105020Y-88770043D01*
X152020651Y-88907886D01*
X151969695Y-88992902D01*
X151918984Y-89080362D01*
X151881600Y-89147489D01*
X151811330Y-89276147D01*
X151750967Y-89382437D01*
X151703223Y-89461751D01*
X151670811Y-89509483D01*
X151663503Y-89517963D01*
X151641144Y-89549354D01*
X151638000Y-89560820D01*
X151627330Y-89587287D01*
X151600113Y-89635568D01*
X151579988Y-89667712D01*
X151543943Y-89726011D01*
X151495479Y-89807965D01*
X151442503Y-89900093D01*
X151415833Y-89947482D01*
X151354967Y-90049538D01*
X151306465Y-90113846D01*
X151267967Y-90142348D01*
X151237111Y-90136985D01*
X151217048Y-90110950D01*
X151197339Y-90062793D01*
X151171367Y-89983539D01*
X151141655Y-89882803D01*
X151110729Y-89770199D01*
X151081110Y-89655342D01*
X151055324Y-89547848D01*
X151035895Y-89457329D01*
X151025345Y-89393401D01*
X151024167Y-89376158D01*
X151016163Y-89331872D01*
X151003000Y-89312750D01*
X150991501Y-89286017D01*
X150983814Y-89230552D01*
X150981833Y-89178151D01*
X150978544Y-89108467D01*
X150970055Y-89055841D01*
X150961724Y-89036524D01*
X150953200Y-89008897D01*
X150944079Y-88947492D01*
X150935350Y-88860832D01*
X150928001Y-88757443D01*
X150926770Y-88735226D01*
X150920003Y-88630489D01*
X150911929Y-88541731D01*
X150903465Y-88477132D01*
X150895531Y-88444872D01*
X150893962Y-88442936D01*
X150886570Y-88418195D01*
X150881201Y-88360774D01*
X150877828Y-88280274D01*
X150876425Y-88186300D01*
X150876965Y-88088454D01*
X150879422Y-87996340D01*
X150883768Y-87919560D01*
X150889976Y-87867717D01*
X150895615Y-87851192D01*
X150904045Y-87823497D01*
X150913092Y-87762135D01*
X150921752Y-87675739D01*
X150929020Y-87572942D01*
X150929967Y-87555917D01*
X150936674Y-87451219D01*
X150944489Y-87361448D01*
X150952507Y-87295280D01*
X150959826Y-87261390D01*
X150960840Y-87259583D01*
X150970836Y-87228713D01*
X150980991Y-87169060D01*
X150988419Y-87100833D01*
X151011407Y-86927095D01*
X151054090Y-86724605D01*
X151116956Y-86491599D01*
X151200493Y-86226312D01*
X151305189Y-85926978D01*
X151337910Y-85838042D01*
X151369635Y-85758836D01*
X151412404Y-85660611D01*
X151462111Y-85551898D01*
X151514650Y-85441224D01*
X151565914Y-85337119D01*
X151611799Y-85248110D01*
X151648198Y-85182728D01*
X151667457Y-85153500D01*
X151690557Y-85118145D01*
X151724200Y-85059184D01*
X151752806Y-85005333D01*
X151797109Y-84926179D01*
X151846054Y-84848974D01*
X151873496Y-84810783D01*
X151909524Y-84762209D01*
X151931344Y-84728350D01*
X151934333Y-84720873D01*
X151946282Y-84696323D01*
X151976821Y-84649688D01*
X152017988Y-84591857D01*
X152061818Y-84533715D01*
X152100351Y-84486149D01*
X152124431Y-84460965D01*
X152145248Y-84453725D01*
X152189891Y-84447803D01*
X152261316Y-84443103D01*
X152362480Y-84439527D01*
X152496337Y-84436980D01*
X152665845Y-84435364D01*
X152873959Y-84434584D01*
X152934458Y-84434506D01*
X153111196Y-84434647D01*
G37*
X160020459Y-84265093D02*
X160029352Y-84342110D01*
X160031918Y-84434763D01*
X160027634Y-84529867D01*
X160020520Y-84589352D01*
X159971542Y-84767834D01*
X159884444Y-84943484D01*
X159763417Y-85112118D01*
X159612653Y-85269552D01*
X159436342Y-85411600D01*
X159238677Y-85534080D01*
X159023848Y-85632807D01*
X158947921Y-85660126D01*
X158816474Y-85697058D01*
X158652673Y-85731502D01*
X158466497Y-85761407D01*
X158432500Y-85766003D01*
X158221673Y-85796456D01*
X158051003Y-85827061D01*
X157920959Y-85857697D01*
X157832011Y-85888240D01*
X157784630Y-85918567D01*
X157776333Y-85937411D01*
X157776960Y-85947774D01*
X157783366Y-85953965D01*
X157802338Y-85955668D01*
X157840663Y-85952565D01*
X157905128Y-85944341D01*
X158002518Y-85930679D01*
X158042524Y-85924996D01*
X158160296Y-85912023D01*
X158313161Y-85901697D01*
X158503072Y-85893931D01*
X158731985Y-85888638D01*
X158908750Y-85886427D01*
X159095064Y-85884484D01*
X159245136Y-85882128D01*
X159365059Y-85878975D01*
X159460923Y-85874641D01*
X159538822Y-85868741D01*
X159604847Y-85860892D01*
X159665089Y-85850710D01*
X159725640Y-85837810D01*
X159742619Y-85833862D01*
X159940053Y-85779901D01*
X160096914Y-85720415D01*
X160214668Y-85654837D01*
X160224963Y-85647472D01*
X160270981Y-85615941D01*
X160301765Y-85598951D01*
X160305659Y-85598000D01*
X160311113Y-85612646D01*
X160293750Y-85651687D01*
X160258763Y-85707774D01*
X160211343Y-85773560D01*
X160156683Y-85841697D01*
X160099975Y-85904837D01*
X160063625Y-85940500D01*
X159913962Y-86056770D01*
X159740439Y-86151994D01*
X159540323Y-86226920D01*
X159310882Y-86282296D01*
X159049384Y-86318869D01*
X158753096Y-86337387D01*
X158603449Y-86340053D01*
X158443270Y-86343862D01*
X158324456Y-86353370D01*
X158246415Y-86368662D01*
X158208553Y-86389819D01*
X158205385Y-86395761D01*
X158209559Y-86412425D01*
X158235869Y-86428442D01*
X158287763Y-86444555D01*
X158368686Y-86461508D01*
X158482085Y-86480044D01*
X158631408Y-86500907D01*
X158781750Y-86520107D01*
X158949749Y-86542683D01*
X159097020Y-86565911D01*
X159217258Y-86588668D01*
X159304161Y-86609826D01*
X159328598Y-86617744D01*
X159474552Y-86688472D01*
X159622758Y-86791463D01*
X159764024Y-86918222D01*
X159889160Y-87060253D01*
X159988972Y-87209061D01*
X160009022Y-87246586D01*
X160034752Y-87302040D01*
X160063952Y-87371676D01*
X160092763Y-87445242D01*
X160117324Y-87512487D01*
X160133775Y-87563161D01*
X160138256Y-87587012D01*
X160137466Y-87587667D01*
X160118354Y-87574715D01*
X160076001Y-87540406D01*
X160018760Y-87491556D01*
X160005357Y-87479849D01*
X159852004Y-87356044D01*
X159691131Y-87245351D01*
X159530472Y-87152050D01*
X159377757Y-87080426D01*
X159240718Y-87034759D01*
X159180553Y-87023007D01*
X159122355Y-87016720D01*
X159097658Y-87020456D01*
X159098402Y-87036185D01*
X159101659Y-87042293D01*
X159127325Y-87071702D01*
X159175961Y-87116462D01*
X159232447Y-87163190D01*
X159445984Y-87357940D01*
X159628460Y-87580406D01*
X159777874Y-87827518D01*
X159892224Y-88096208D01*
X159937273Y-88243844D01*
X159963616Y-88378324D01*
X159980838Y-88541299D01*
X159988784Y-88719889D01*
X159987300Y-88901215D01*
X159976228Y-89072400D01*
X159955415Y-89220562D01*
X159949410Y-89249250D01*
X159917695Y-89376780D01*
X159877556Y-89518862D01*
X159833306Y-89661596D01*
X159789259Y-89791080D01*
X159749729Y-89893413D01*
X159748888Y-89895382D01*
X159708317Y-89990083D01*
X159718434Y-89651417D01*
X159718387Y-89393455D01*
X159702063Y-89168400D01*
X159669713Y-88978470D01*
X159626251Y-88837260D01*
X159599769Y-88778555D01*
X159578554Y-88750547D01*
X159561865Y-88755243D01*
X159548959Y-88794647D01*
X159539094Y-88870764D01*
X159531530Y-88985598D01*
X159526645Y-89106375D01*
X159503894Y-89435683D01*
X159459130Y-89740656D01*
X159393185Y-90018857D01*
X159306888Y-90267848D01*
X159201069Y-90485193D01*
X159076559Y-90668453D01*
X158948888Y-90802510D01*
X158896491Y-90847062D01*
X158858325Y-90876563D01*
X158843549Y-90884438D01*
X158847186Y-90863226D01*
X158861737Y-90811208D01*
X158884518Y-90737668D01*
X158897840Y-90696686D01*
X158935431Y-90572440D01*
X158969277Y-90441228D01*
X158998404Y-90309335D01*
X159021838Y-90183050D01*
X159038604Y-90068658D01*
X159047730Y-89972447D01*
X159048241Y-89900704D01*
X159039163Y-89859716D01*
X159028627Y-89852500D01*
X159012300Y-89870260D01*
X158982721Y-89918051D01*
X158944749Y-89987642D01*
X158919327Y-90037708D01*
X158774140Y-90286477D01*
X158597046Y-90509353D01*
X158386951Y-90707364D01*
X158142759Y-90881537D01*
X157863377Y-91032900D01*
X157854771Y-91036945D01*
X157766531Y-91076834D01*
X157674553Y-91115198D01*
X157573600Y-91153815D01*
X157458440Y-91194463D01*
X157323839Y-91238919D01*
X157164562Y-91288963D01*
X156975375Y-91346372D01*
X156751045Y-91412924D01*
X156728583Y-91419531D01*
X156451707Y-91502986D01*
X156211651Y-91580417D01*
X156003748Y-91654232D01*
X155823332Y-91726841D01*
X155665738Y-91800652D01*
X155526299Y-91878072D01*
X155400351Y-91961512D01*
X155283226Y-92053378D01*
X155170260Y-92156080D01*
X155056786Y-92272026D01*
X155038111Y-92292143D01*
X154860897Y-92484228D01*
X154846385Y-92284906D01*
X154845777Y-92011199D01*
X154882318Y-91740355D01*
X154953887Y-91478162D01*
X155058362Y-91230410D01*
X155193620Y-91002891D01*
X155357539Y-90801393D01*
X155409095Y-90749648D01*
X155471052Y-90692338D01*
X155535024Y-90638186D01*
X155606297Y-90583579D01*
X155690163Y-90524901D01*
X155791910Y-90458538D01*
X155916827Y-90380874D01*
X156070203Y-90288296D01*
X156178250Y-90223991D01*
X156403146Y-90089319D01*
X156592830Y-89972793D01*
X156749576Y-89872886D01*
X156875656Y-89788074D01*
X156973345Y-89716831D01*
X157044916Y-89657631D01*
X157089839Y-89612268D01*
X157130769Y-89561701D01*
X157157122Y-89523865D01*
X157162500Y-89511665D01*
X157180594Y-89495908D01*
X157225643Y-89476050D01*
X157241875Y-89470517D01*
X157373772Y-89412329D01*
X157511388Y-89324146D01*
X157643943Y-89214958D01*
X157760655Y-89093756D01*
X157850744Y-88969528D01*
X157858340Y-88956462D01*
X157942787Y-88774519D01*
X157996529Y-88585606D01*
X158019950Y-88395792D01*
X158013431Y-88211145D01*
X157977357Y-88037736D01*
X157912109Y-87881635D01*
X157818071Y-87748912D01*
X157779742Y-87710314D01*
X157725381Y-87663845D01*
X157691218Y-87645740D01*
X157675984Y-87658529D01*
X157678412Y-87704743D01*
X157697234Y-87786910D01*
X157712833Y-87843812D01*
X157761270Y-88080146D01*
X157771011Y-88306313D01*
X157742539Y-88519882D01*
X157676337Y-88718422D01*
X157572889Y-88899503D01*
X157480235Y-89012796D01*
X157415402Y-89078246D01*
X157346733Y-89141320D01*
X157281418Y-89196195D01*
X157226645Y-89237046D01*
X157189603Y-89258047D01*
X157177991Y-89257686D01*
X157164989Y-89234516D01*
X157150211Y-89207870D01*
X157093557Y-89139851D01*
X157007668Y-89077820D01*
X156905571Y-89030228D01*
X156851891Y-89014340D01*
X156749689Y-88996033D01*
X156634714Y-88987019D01*
X156503559Y-88987727D01*
X156352816Y-88998583D01*
X156179079Y-89020015D01*
X155978939Y-89052452D01*
X155748990Y-89096321D01*
X155485824Y-89152049D01*
X155186033Y-89220065D01*
X155154552Y-89227409D01*
X155021747Y-89257898D01*
X154895684Y-89285821D01*
X154784998Y-89309340D01*
X154698324Y-89326622D01*
X154644773Y-89335768D01*
X154584141Y-89346673D01*
X154545386Y-89359142D01*
X154537833Y-89366082D01*
X154545933Y-89393438D01*
X154566485Y-89444524D01*
X154579702Y-89474480D01*
X154601563Y-89539400D01*
X154616145Y-89614825D01*
X154622356Y-89687939D01*
X154619104Y-89745924D01*
X154605387Y-89775911D01*
X154590101Y-89764308D01*
X154571401Y-89722722D01*
X154563631Y-89697785D01*
X154511351Y-89586031D01*
X154420939Y-89491057D01*
X154309290Y-89420757D01*
X154228542Y-89373577D01*
X154148106Y-89316878D01*
X154113666Y-89288311D01*
X154056321Y-89243562D01*
X154014581Y-89231949D01*
X153983097Y-89256021D01*
X153956520Y-89318329D01*
X153941969Y-89370162D01*
X153914323Y-89478030D01*
X153898805Y-89405973D01*
X153891356Y-89331618D01*
X153895367Y-89259833D01*
X153913231Y-89193992D01*
X153945697Y-89109825D01*
X153986753Y-89019920D01*
X154030385Y-88936864D01*
X154070580Y-88873244D01*
X154091948Y-88848337D01*
X154120766Y-88824521D01*
X154132931Y-88828782D01*
X154135629Y-88867332D01*
X154135667Y-88886136D01*
X154140528Y-88936394D01*
X154152547Y-88962475D01*
X154155816Y-88963500D01*
X154178340Y-88947438D01*
X154213959Y-88906339D01*
X154237952Y-88873542D01*
X154289755Y-88804280D01*
X154343890Y-88741344D01*
X154392257Y-88693294D01*
X154426754Y-88668694D01*
X154433204Y-88667167D01*
X154448815Y-88685388D01*
X154463458Y-88729352D01*
X154463750Y-88730667D01*
X154477905Y-88775065D01*
X154492723Y-88794152D01*
X154493053Y-88794167D01*
X154513961Y-88779848D01*
X154555292Y-88741970D01*
X154608828Y-88688148D01*
X154619358Y-88677110D01*
X154674266Y-88622719D01*
X154719032Y-88584858D01*
X154745418Y-88570345D01*
X154747753Y-88570837D01*
X154763900Y-88597407D01*
X154777987Y-88645559D01*
X154792595Y-88690234D01*
X154810138Y-88709483D01*
X154810593Y-88709500D01*
X154834137Y-88695641D01*
X154878741Y-88658902D01*
X154935734Y-88606542D01*
X154949652Y-88593083D01*
X155008323Y-88538153D01*
X155056668Y-88497185D01*
X155085987Y-88477442D01*
X155089113Y-88476667D01*
X155103420Y-88495035D01*
X155109333Y-88538917D01*
X155115720Y-88587700D01*
X155130070Y-88613984D01*
X155159563Y-88614672D01*
X155216535Y-88604000D01*
X155285364Y-88585239D01*
X155447075Y-88548423D01*
X155628048Y-88528838D01*
X155808211Y-88528063D01*
X155903083Y-88536674D01*
X155991986Y-88545225D01*
X156051502Y-88543839D01*
X156072417Y-88536610D01*
X156082442Y-88507234D01*
X156089902Y-88447311D01*
X156093457Y-88368610D01*
X156093583Y-88350362D01*
X156091984Y-88262366D01*
X156084792Y-88202133D01*
X156068415Y-88155142D01*
X156039261Y-88106869D01*
X156030083Y-88093650D01*
X155940789Y-87995995D01*
X155832126Y-87923168D01*
X155715198Y-87881532D01*
X155647248Y-87874177D01*
X155580507Y-87877894D01*
X155523003Y-87894007D01*
X155458256Y-87928328D01*
X155415110Y-87956060D01*
X155348216Y-88005315D01*
X155275776Y-88066326D01*
X155205597Y-88131494D01*
X155145486Y-88193223D01*
X155103253Y-88243916D01*
X155086730Y-88275583D01*
X155079552Y-88272603D01*
X155064016Y-88238580D01*
X155059568Y-88226702D01*
X155034190Y-88156654D01*
X154929714Y-88258452D01*
X154825237Y-88360250D01*
X154813336Y-88296750D01*
X154801434Y-88233250D01*
X154759592Y-88285202D01*
X154718689Y-88332463D01*
X154665047Y-88390193D01*
X154643667Y-88412202D01*
X154569583Y-88487250D01*
X154563014Y-88407875D01*
X154552211Y-88349098D01*
X154533090Y-88331806D01*
X154505841Y-88356047D01*
X154486220Y-88389479D01*
X154448842Y-88443390D01*
X154396591Y-88499046D01*
X154385135Y-88509150D01*
X154315583Y-88567844D01*
X154309022Y-88464047D01*
X154301843Y-88399958D01*
X154290988Y-88353988D01*
X154284891Y-88342469D01*
X154264344Y-88348149D01*
X154230188Y-88381683D01*
X154203515Y-88416553D01*
X154148223Y-88488396D01*
X154085200Y-88559636D01*
X154063604Y-88581360D01*
X153987500Y-88654304D01*
X153987500Y-88544319D01*
X153985961Y-88479994D01*
X153977875Y-88447333D01*
X153958036Y-88435686D01*
X153933740Y-88434333D01*
X153845299Y-88452879D01*
X153753759Y-88503087D01*
X153670427Y-88576811D01*
X153606609Y-88665907D01*
X153603182Y-88672474D01*
X153587714Y-88700527D01*
X153576235Y-88707435D01*
X153564890Y-88687836D01*
X153549821Y-88636367D01*
X153534668Y-88577224D01*
X153498919Y-88446149D01*
X153456389Y-88305950D01*
X153410704Y-88167336D01*
X153365491Y-88041014D01*
X153324378Y-87937692D01*
X153300341Y-87885495D01*
X153270947Y-87825634D01*
X153251451Y-87782374D01*
X153246667Y-87768287D01*
X153261901Y-87755848D01*
X153302817Y-87767465D01*
X153362229Y-87800508D01*
X153393626Y-87822059D01*
X153445071Y-87857309D01*
X153480614Y-87877882D01*
X153490094Y-87880267D01*
X153501462Y-87858802D01*
X153524438Y-87809716D01*
X153550195Y-87752310D01*
X153617995Y-87620140D01*
X153698807Y-87496950D01*
X153786362Y-87390223D01*
X153874395Y-87307445D01*
X153956639Y-87256100D01*
X153970066Y-87250870D01*
X154030480Y-87229810D01*
X153974625Y-87303040D01*
X153928410Y-87389436D01*
X153908048Y-87471385D01*
X153906264Y-87537458D01*
X153920686Y-87564649D01*
X153952031Y-87553206D01*
X154001018Y-87503372D01*
X154001155Y-87503209D01*
X154076030Y-87431332D01*
X154187139Y-87348932D01*
X154330386Y-87258361D01*
X154501677Y-87161970D01*
X154696918Y-87062112D01*
X154856308Y-86987288D01*
X156001934Y-86987288D01*
X156003975Y-87014774D01*
X156038435Y-87037710D01*
X156067125Y-87044577D01*
X156149453Y-87050416D01*
X156252973Y-87049273D01*
X156363949Y-87042224D01*
X156468644Y-87030348D01*
X156553318Y-87014719D01*
X156589778Y-87003602D01*
X156649737Y-86971198D01*
X156675224Y-86937618D01*
X156675667Y-86932953D01*
X156656378Y-86898699D01*
X156605097Y-86862710D01*
X156531702Y-86829498D01*
X156446071Y-86803574D01*
X156362180Y-86789789D01*
X156246693Y-86789623D01*
X156164174Y-86812972D01*
X156111672Y-86860947D01*
X156097590Y-86889424D01*
X156069619Y-86937698D01*
X156036006Y-86964729D01*
X156001934Y-86987288D01*
X154856308Y-86987288D01*
X154912013Y-86961138D01*
X155051825Y-86899742D01*
X155184172Y-86841878D01*
X155282991Y-86795460D01*
X155354411Y-86757123D01*
X155404563Y-86723504D01*
X155439576Y-86691239D01*
X155446579Y-86683114D01*
X155512888Y-86571040D01*
X155547221Y-86439637D01*
X155549986Y-86338206D01*
X155542579Y-86278330D01*
X155526977Y-86248637D01*
X155496234Y-86236995D01*
X155491638Y-86236297D01*
X155476914Y-86228868D01*
X155494494Y-86213888D01*
X155547281Y-86189653D01*
X155618638Y-86161768D01*
X155836140Y-86068007D01*
X156027471Y-85958167D01*
X156208222Y-85823106D01*
X156234997Y-85800441D01*
X156452639Y-85629833D01*
X156695077Y-85468388D01*
X156953730Y-85320362D01*
X157220019Y-85190015D01*
X157485364Y-85081605D01*
X157741187Y-84999389D01*
X157940375Y-84954053D01*
X158016964Y-84943228D01*
X158070510Y-84940887D01*
X158096235Y-84946084D01*
X158089364Y-84957875D01*
X158046208Y-84974978D01*
X157992690Y-84995991D01*
X157911737Y-85032982D01*
X157812782Y-85081121D01*
X157705259Y-85135580D01*
X157598600Y-85191529D01*
X157502238Y-85244139D01*
X157425607Y-85288581D01*
X157392767Y-85309491D01*
X157331711Y-85355354D01*
X157253549Y-85420332D01*
X157167319Y-85496188D01*
X157082060Y-85574686D01*
X157006810Y-85647589D01*
X156950610Y-85706661D01*
X156931310Y-85729982D01*
X156922020Y-85743939D01*
X156921803Y-85752045D01*
X156935181Y-85753053D01*
X156966675Y-85745717D01*
X157020806Y-85728790D01*
X157102096Y-85701025D01*
X157215066Y-85661177D01*
X157331833Y-85619568D01*
X157694789Y-85504215D01*
X158057059Y-85416493D01*
X158284333Y-85376213D01*
X158615896Y-85310868D01*
X158914492Y-85219027D01*
X159180216Y-85100630D01*
X159413166Y-84955617D01*
X159613438Y-84783928D01*
X159781128Y-84585503D01*
X159913940Y-84365062D01*
X159951641Y-84293675D01*
X159982584Y-84241832D01*
X160002043Y-84217159D01*
X160005760Y-84216895D01*
X160020459Y-84265093D01*
G36*
X160020459Y-84265093D02*
G01*
X160029352Y-84342110D01*
X160031918Y-84434763D01*
X160027634Y-84529867D01*
X160020520Y-84589352D01*
X159971542Y-84767834D01*
X159884444Y-84943484D01*
X159763417Y-85112118D01*
X159612653Y-85269552D01*
X159436342Y-85411600D01*
X159238677Y-85534080D01*
X159023848Y-85632807D01*
X158947921Y-85660126D01*
X158816474Y-85697058D01*
X158652673Y-85731502D01*
X158466497Y-85761407D01*
X158432500Y-85766003D01*
X158221673Y-85796456D01*
X158051003Y-85827061D01*
X157920959Y-85857697D01*
X157832011Y-85888240D01*
X157784630Y-85918567D01*
X157776333Y-85937411D01*
X157776960Y-85947774D01*
X157783366Y-85953965D01*
X157802338Y-85955668D01*
X157840663Y-85952565D01*
X157905128Y-85944341D01*
X158002518Y-85930679D01*
X158042524Y-85924996D01*
X158160296Y-85912023D01*
X158313161Y-85901697D01*
X158503072Y-85893931D01*
X158731985Y-85888638D01*
X158908750Y-85886427D01*
X159095064Y-85884484D01*
X159245136Y-85882128D01*
X159365059Y-85878975D01*
X159460923Y-85874641D01*
X159538822Y-85868741D01*
X159604847Y-85860892D01*
X159665089Y-85850710D01*
X159725640Y-85837810D01*
X159742619Y-85833862D01*
X159940053Y-85779901D01*
X160096914Y-85720415D01*
X160214668Y-85654837D01*
X160224963Y-85647472D01*
X160270981Y-85615941D01*
X160301765Y-85598951D01*
X160305659Y-85598000D01*
X160311113Y-85612646D01*
X160293750Y-85651687D01*
X160258763Y-85707774D01*
X160211343Y-85773560D01*
X160156683Y-85841697D01*
X160099975Y-85904837D01*
X160063625Y-85940500D01*
X159913962Y-86056770D01*
X159740439Y-86151994D01*
X159540323Y-86226920D01*
X159310882Y-86282296D01*
X159049384Y-86318869D01*
X158753096Y-86337387D01*
X158603449Y-86340053D01*
X158443270Y-86343862D01*
X158324456Y-86353370D01*
X158246415Y-86368662D01*
X158208553Y-86389819D01*
X158205385Y-86395761D01*
X158209559Y-86412425D01*
X158235869Y-86428442D01*
X158287763Y-86444555D01*
X158368686Y-86461508D01*
X158482085Y-86480044D01*
X158631408Y-86500907D01*
X158781750Y-86520107D01*
X158949749Y-86542683D01*
X159097020Y-86565911D01*
X159217258Y-86588668D01*
X159304161Y-86609826D01*
X159328598Y-86617744D01*
X159474552Y-86688472D01*
X159622758Y-86791463D01*
X159764024Y-86918222D01*
X159889160Y-87060253D01*
X159988972Y-87209061D01*
X160009022Y-87246586D01*
X160034752Y-87302040D01*
X160063952Y-87371676D01*
X160092763Y-87445242D01*
X160117324Y-87512487D01*
X160133775Y-87563161D01*
X160138256Y-87587012D01*
X160137466Y-87587667D01*
X160118354Y-87574715D01*
X160076001Y-87540406D01*
X160018760Y-87491556D01*
X160005357Y-87479849D01*
X159852004Y-87356044D01*
X159691131Y-87245351D01*
X159530472Y-87152050D01*
X159377757Y-87080426D01*
X159240718Y-87034759D01*
X159180553Y-87023007D01*
X159122355Y-87016720D01*
X159097658Y-87020456D01*
X159098402Y-87036185D01*
X159101659Y-87042293D01*
X159127325Y-87071702D01*
X159175961Y-87116462D01*
X159232447Y-87163190D01*
X159445984Y-87357940D01*
X159628460Y-87580406D01*
X159777874Y-87827518D01*
X159892224Y-88096208D01*
X159937273Y-88243844D01*
X159963616Y-88378324D01*
X159980838Y-88541299D01*
X159988784Y-88719889D01*
X159987300Y-88901215D01*
X159976228Y-89072400D01*
X159955415Y-89220562D01*
X159949410Y-89249250D01*
X159917695Y-89376780D01*
X159877556Y-89518862D01*
X159833306Y-89661596D01*
X159789259Y-89791080D01*
X159749729Y-89893413D01*
X159748888Y-89895382D01*
X159708317Y-89990083D01*
X159718434Y-89651417D01*
X159718387Y-89393455D01*
X159702063Y-89168400D01*
X159669713Y-88978470D01*
X159626251Y-88837260D01*
X159599769Y-88778555D01*
X159578554Y-88750547D01*
X159561865Y-88755243D01*
X159548959Y-88794647D01*
X159539094Y-88870764D01*
X159531530Y-88985598D01*
X159526645Y-89106375D01*
X159503894Y-89435683D01*
X159459130Y-89740656D01*
X159393185Y-90018857D01*
X159306888Y-90267848D01*
X159201069Y-90485193D01*
X159076559Y-90668453D01*
X158948888Y-90802510D01*
X158896491Y-90847062D01*
X158858325Y-90876563D01*
X158843549Y-90884438D01*
X158847186Y-90863226D01*
X158861737Y-90811208D01*
X158884518Y-90737668D01*
X158897840Y-90696686D01*
X158935431Y-90572440D01*
X158969277Y-90441228D01*
X158998404Y-90309335D01*
X159021838Y-90183050D01*
X159038604Y-90068658D01*
X159047730Y-89972447D01*
X159048241Y-89900704D01*
X159039163Y-89859716D01*
X159028627Y-89852500D01*
X159012300Y-89870260D01*
X158982721Y-89918051D01*
X158944749Y-89987642D01*
X158919327Y-90037708D01*
X158774140Y-90286477D01*
X158597046Y-90509353D01*
X158386951Y-90707364D01*
X158142759Y-90881537D01*
X157863377Y-91032900D01*
X157854771Y-91036945D01*
X157766531Y-91076834D01*
X157674553Y-91115198D01*
X157573600Y-91153815D01*
X157458440Y-91194463D01*
X157323839Y-91238919D01*
X157164562Y-91288963D01*
X156975375Y-91346372D01*
X156751045Y-91412924D01*
X156728583Y-91419531D01*
X156451707Y-91502986D01*
X156211651Y-91580417D01*
X156003748Y-91654232D01*
X155823332Y-91726841D01*
X155665738Y-91800652D01*
X155526299Y-91878072D01*
X155400351Y-91961512D01*
X155283226Y-92053378D01*
X155170260Y-92156080D01*
X155056786Y-92272026D01*
X155038111Y-92292143D01*
X154860897Y-92484228D01*
X154846385Y-92284906D01*
X154845777Y-92011199D01*
X154882318Y-91740355D01*
X154953887Y-91478162D01*
X155058362Y-91230410D01*
X155193620Y-91002891D01*
X155357539Y-90801393D01*
X155409095Y-90749648D01*
X155471052Y-90692338D01*
X155535024Y-90638186D01*
X155606297Y-90583579D01*
X155690163Y-90524901D01*
X155791910Y-90458538D01*
X155916827Y-90380874D01*
X156070203Y-90288296D01*
X156178250Y-90223991D01*
X156403146Y-90089319D01*
X156592830Y-89972793D01*
X156749576Y-89872886D01*
X156875656Y-89788074D01*
X156973345Y-89716831D01*
X157044916Y-89657631D01*
X157089839Y-89612268D01*
X157130769Y-89561701D01*
X157157122Y-89523865D01*
X157162500Y-89511665D01*
X157180594Y-89495908D01*
X157225643Y-89476050D01*
X157241875Y-89470517D01*
X157373772Y-89412329D01*
X157511388Y-89324146D01*
X157643943Y-89214958D01*
X157760655Y-89093756D01*
X157850744Y-88969528D01*
X157858340Y-88956462D01*
X157942787Y-88774519D01*
X157996529Y-88585606D01*
X158019950Y-88395792D01*
X158013431Y-88211145D01*
X157977357Y-88037736D01*
X157912109Y-87881635D01*
X157818071Y-87748912D01*
X157779742Y-87710314D01*
X157725381Y-87663845D01*
X157691218Y-87645740D01*
X157675984Y-87658529D01*
X157678412Y-87704743D01*
X157697234Y-87786910D01*
X157712833Y-87843812D01*
X157761270Y-88080146D01*
X157771011Y-88306313D01*
X157742539Y-88519882D01*
X157676337Y-88718422D01*
X157572889Y-88899503D01*
X157480235Y-89012796D01*
X157415402Y-89078246D01*
X157346733Y-89141320D01*
X157281418Y-89196195D01*
X157226645Y-89237046D01*
X157189603Y-89258047D01*
X157177991Y-89257686D01*
X157164989Y-89234516D01*
X157150211Y-89207870D01*
X157093557Y-89139851D01*
X157007668Y-89077820D01*
X156905571Y-89030228D01*
X156851891Y-89014340D01*
X156749689Y-88996033D01*
X156634714Y-88987019D01*
X156503559Y-88987727D01*
X156352816Y-88998583D01*
X156179079Y-89020015D01*
X155978939Y-89052452D01*
X155748990Y-89096321D01*
X155485824Y-89152049D01*
X155186033Y-89220065D01*
X155154552Y-89227409D01*
X155021747Y-89257898D01*
X154895684Y-89285821D01*
X154784998Y-89309340D01*
X154698324Y-89326622D01*
X154644773Y-89335768D01*
X154584141Y-89346673D01*
X154545386Y-89359142D01*
X154537833Y-89366082D01*
X154545933Y-89393438D01*
X154566485Y-89444524D01*
X154579702Y-89474480D01*
X154601563Y-89539400D01*
X154616145Y-89614825D01*
X154622356Y-89687939D01*
X154619104Y-89745924D01*
X154605387Y-89775911D01*
X154590101Y-89764308D01*
X154571401Y-89722722D01*
X154563631Y-89697785D01*
X154511351Y-89586031D01*
X154420939Y-89491057D01*
X154309290Y-89420757D01*
X154228542Y-89373577D01*
X154148106Y-89316878D01*
X154113666Y-89288311D01*
X154056321Y-89243562D01*
X154014581Y-89231949D01*
X153983097Y-89256021D01*
X153956520Y-89318329D01*
X153941969Y-89370162D01*
X153914323Y-89478030D01*
X153898805Y-89405973D01*
X153891356Y-89331618D01*
X153895367Y-89259833D01*
X153913231Y-89193992D01*
X153945697Y-89109825D01*
X153986753Y-89019920D01*
X154030385Y-88936864D01*
X154070580Y-88873244D01*
X154091948Y-88848337D01*
X154120766Y-88824521D01*
X154132931Y-88828782D01*
X154135629Y-88867332D01*
X154135667Y-88886136D01*
X154140528Y-88936394D01*
X154152547Y-88962475D01*
X154155816Y-88963500D01*
X154178340Y-88947438D01*
X154213959Y-88906339D01*
X154237952Y-88873542D01*
X154289755Y-88804280D01*
X154343890Y-88741344D01*
X154392257Y-88693294D01*
X154426754Y-88668694D01*
X154433204Y-88667167D01*
X154448815Y-88685388D01*
X154463458Y-88729352D01*
X154463750Y-88730667D01*
X154477905Y-88775065D01*
X154492723Y-88794152D01*
X154493053Y-88794167D01*
X154513961Y-88779848D01*
X154555292Y-88741970D01*
X154608828Y-88688148D01*
X154619358Y-88677110D01*
X154674266Y-88622719D01*
X154719032Y-88584858D01*
X154745418Y-88570345D01*
X154747753Y-88570837D01*
X154763900Y-88597407D01*
X154777987Y-88645559D01*
X154792595Y-88690234D01*
X154810138Y-88709483D01*
X154810593Y-88709500D01*
X154834137Y-88695641D01*
X154878741Y-88658902D01*
X154935734Y-88606542D01*
X154949652Y-88593083D01*
X155008323Y-88538153D01*
X155056668Y-88497185D01*
X155085987Y-88477442D01*
X155089113Y-88476667D01*
X155103420Y-88495035D01*
X155109333Y-88538917D01*
X155115720Y-88587700D01*
X155130070Y-88613984D01*
X155159563Y-88614672D01*
X155216535Y-88604000D01*
X155285364Y-88585239D01*
X155447075Y-88548423D01*
X155628048Y-88528838D01*
X155808211Y-88528063D01*
X155903083Y-88536674D01*
X155991986Y-88545225D01*
X156051502Y-88543839D01*
X156072417Y-88536610D01*
X156082442Y-88507234D01*
X156089902Y-88447311D01*
X156093457Y-88368610D01*
X156093583Y-88350362D01*
X156091984Y-88262366D01*
X156084792Y-88202133D01*
X156068415Y-88155142D01*
X156039261Y-88106869D01*
X156030083Y-88093650D01*
X155940789Y-87995995D01*
X155832126Y-87923168D01*
X155715198Y-87881532D01*
X155647248Y-87874177D01*
X155580507Y-87877894D01*
X155523003Y-87894007D01*
X155458256Y-87928328D01*
X155415110Y-87956060D01*
X155348216Y-88005315D01*
X155275776Y-88066326D01*
X155205597Y-88131494D01*
X155145486Y-88193223D01*
X155103253Y-88243916D01*
X155086730Y-88275583D01*
X155079552Y-88272603D01*
X155064016Y-88238580D01*
X155059568Y-88226702D01*
X155034190Y-88156654D01*
X154929714Y-88258452D01*
X154825237Y-88360250D01*
X154813336Y-88296750D01*
X154801434Y-88233250D01*
X154759592Y-88285202D01*
X154718689Y-88332463D01*
X154665047Y-88390193D01*
X154643667Y-88412202D01*
X154569583Y-88487250D01*
X154563014Y-88407875D01*
X154552211Y-88349098D01*
X154533090Y-88331806D01*
X154505841Y-88356047D01*
X154486220Y-88389479D01*
X154448842Y-88443390D01*
X154396591Y-88499046D01*
X154385135Y-88509150D01*
X154315583Y-88567844D01*
X154309022Y-88464047D01*
X154301843Y-88399958D01*
X154290988Y-88353988D01*
X154284891Y-88342469D01*
X154264344Y-88348149D01*
X154230188Y-88381683D01*
X154203515Y-88416553D01*
X154148223Y-88488396D01*
X154085200Y-88559636D01*
X154063604Y-88581360D01*
X153987500Y-88654304D01*
X153987500Y-88544319D01*
X153985961Y-88479994D01*
X153977875Y-88447333D01*
X153958036Y-88435686D01*
X153933740Y-88434333D01*
X153845299Y-88452879D01*
X153753759Y-88503087D01*
X153670427Y-88576811D01*
X153606609Y-88665907D01*
X153603182Y-88672474D01*
X153587714Y-88700527D01*
X153576235Y-88707435D01*
X153564890Y-88687836D01*
X153549821Y-88636367D01*
X153534668Y-88577224D01*
X153498919Y-88446149D01*
X153456389Y-88305950D01*
X153410704Y-88167336D01*
X153365491Y-88041014D01*
X153324378Y-87937692D01*
X153300341Y-87885495D01*
X153270947Y-87825634D01*
X153251451Y-87782374D01*
X153246667Y-87768287D01*
X153261901Y-87755848D01*
X153302817Y-87767465D01*
X153362229Y-87800508D01*
X153393626Y-87822059D01*
X153445071Y-87857309D01*
X153480614Y-87877882D01*
X153490094Y-87880267D01*
X153501462Y-87858802D01*
X153524438Y-87809716D01*
X153550195Y-87752310D01*
X153617995Y-87620140D01*
X153698807Y-87496950D01*
X153786362Y-87390223D01*
X153874395Y-87307445D01*
X153956639Y-87256100D01*
X153970066Y-87250870D01*
X154030480Y-87229810D01*
X153974625Y-87303040D01*
X153928410Y-87389436D01*
X153908048Y-87471385D01*
X153906264Y-87537458D01*
X153920686Y-87564649D01*
X153952031Y-87553206D01*
X154001018Y-87503372D01*
X154001155Y-87503209D01*
X154076030Y-87431332D01*
X154187139Y-87348932D01*
X154330386Y-87258361D01*
X154501677Y-87161970D01*
X154696918Y-87062112D01*
X154856308Y-86987288D01*
X156001934Y-86987288D01*
X156003975Y-87014774D01*
X156038435Y-87037710D01*
X156067125Y-87044577D01*
X156149453Y-87050416D01*
X156252973Y-87049273D01*
X156363949Y-87042224D01*
X156468644Y-87030348D01*
X156553318Y-87014719D01*
X156589778Y-87003602D01*
X156649737Y-86971198D01*
X156675224Y-86937618D01*
X156675667Y-86932953D01*
X156656378Y-86898699D01*
X156605097Y-86862710D01*
X156531702Y-86829498D01*
X156446071Y-86803574D01*
X156362180Y-86789789D01*
X156246693Y-86789623D01*
X156164174Y-86812972D01*
X156111672Y-86860947D01*
X156097590Y-86889424D01*
X156069619Y-86937698D01*
X156036006Y-86964729D01*
X156001934Y-86987288D01*
X154856308Y-86987288D01*
X154912013Y-86961138D01*
X155051825Y-86899742D01*
X155184172Y-86841878D01*
X155282991Y-86795460D01*
X155354411Y-86757123D01*
X155404563Y-86723504D01*
X155439576Y-86691239D01*
X155446579Y-86683114D01*
X155512888Y-86571040D01*
X155547221Y-86439637D01*
X155549986Y-86338206D01*
X155542579Y-86278330D01*
X155526977Y-86248637D01*
X155496234Y-86236995D01*
X155491638Y-86236297D01*
X155476914Y-86228868D01*
X155494494Y-86213888D01*
X155547281Y-86189653D01*
X155618638Y-86161768D01*
X155836140Y-86068007D01*
X156027471Y-85958167D01*
X156208222Y-85823106D01*
X156234997Y-85800441D01*
X156452639Y-85629833D01*
X156695077Y-85468388D01*
X156953730Y-85320362D01*
X157220019Y-85190015D01*
X157485364Y-85081605D01*
X157741187Y-84999389D01*
X157940375Y-84954053D01*
X158016964Y-84943228D01*
X158070510Y-84940887D01*
X158096235Y-84946084D01*
X158089364Y-84957875D01*
X158046208Y-84974978D01*
X157992690Y-84995991D01*
X157911737Y-85032982D01*
X157812782Y-85081121D01*
X157705259Y-85135580D01*
X157598600Y-85191529D01*
X157502238Y-85244139D01*
X157425607Y-85288581D01*
X157392767Y-85309491D01*
X157331711Y-85355354D01*
X157253549Y-85420332D01*
X157167319Y-85496188D01*
X157082060Y-85574686D01*
X157006810Y-85647589D01*
X156950610Y-85706661D01*
X156931310Y-85729982D01*
X156922020Y-85743939D01*
X156921803Y-85752045D01*
X156935181Y-85753053D01*
X156966675Y-85745717D01*
X157020806Y-85728790D01*
X157102096Y-85701025D01*
X157215066Y-85661177D01*
X157331833Y-85619568D01*
X157694789Y-85504215D01*
X158057059Y-85416493D01*
X158284333Y-85376213D01*
X158615896Y-85310868D01*
X158914492Y-85219027D01*
X159180216Y-85100630D01*
X159413166Y-84955617D01*
X159613438Y-84783928D01*
X159781128Y-84585503D01*
X159913940Y-84365062D01*
X159951641Y-84293675D01*
X159982584Y-84241832D01*
X160002043Y-84217159D01*
X160005760Y-84216895D01*
X160020459Y-84265093D01*
G37*
%TD*%
M02*
