%TF.GenerationSoftware,KiCad,Pcbnew,7.0.6*%
%TF.CreationDate,2023-07-20T08:42:54+02:00*%
%TF.ProjectId,dc_sdr,64635f73-6472-42e6-9b69-6361645f7063,rev?*%
%TF.SameCoordinates,Original*%
%TF.FileFunction,Soldermask,Bot*%
%TF.FilePolarity,Negative*%
%FSLAX46Y46*%
G04 Gerber Fmt 4.6, Leading zero omitted, Abs format (unit mm)*
G04 Created by KiCad (PCBNEW 7.0.6) date 2023-07-20 08:42:54*
%MOMM*%
%LPD*%
G01*
G04 APERTURE LIST*
G04 Aperture macros list*
%AMRoundRect*
0 Rectangle with rounded corners*
0 $1 Rounding radius*
0 $2 $3 $4 $5 $6 $7 $8 $9 X,Y pos of 4 corners*
0 Add a 4 corners polygon primitive as box body*
4,1,4,$2,$3,$4,$5,$6,$7,$8,$9,$2,$3,0*
0 Add four circle primitives for the rounded corners*
1,1,$1+$1,$2,$3*
1,1,$1+$1,$4,$5*
1,1,$1+$1,$6,$7*
1,1,$1+$1,$8,$9*
0 Add four rect primitives between the rounded corners*
20,1,$1+$1,$2,$3,$4,$5,0*
20,1,$1+$1,$4,$5,$6,$7,0*
20,1,$1+$1,$6,$7,$8,$9,0*
20,1,$1+$1,$8,$9,$2,$3,0*%
%AMHorizOval*
0 Thick line with rounded ends*
0 $1 width*
0 $2 $3 position (X,Y) of the first rounded end (center of the circle)*
0 $4 $5 position (X,Y) of the second rounded end (center of the circle)*
0 Add line between two ends*
20,1,$1,$2,$3,$4,$5,0*
0 Add two circle primitives to create the rounded ends*
1,1,$1,$2,$3*
1,1,$1,$4,$5*%
%AMRotRect*
0 Rectangle, with rotation*
0 The origin of the aperture is its center*
0 $1 length*
0 $2 width*
0 $3 Rotation angle, in degrees counterclockwise*
0 Add horizontal line*
21,1,$1,$2,0,0,$3*%
G04 Aperture macros list end*
%ADD10C,1.700000*%
%ADD11C,3.000000*%
%ADD12RoundRect,0.250000X-0.450000X0.325000X-0.450000X-0.325000X0.450000X-0.325000X0.450000X0.325000X0*%
%ADD13RoundRect,0.250000X0.337500X0.475000X-0.337500X0.475000X-0.337500X-0.475000X0.337500X-0.475000X0*%
%ADD14RoundRect,0.250000X0.350000X0.450000X-0.350000X0.450000X-0.350000X-0.450000X0.350000X-0.450000X0*%
%ADD15RoundRect,0.050000X-0.387500X-0.050000X0.387500X-0.050000X0.387500X0.050000X-0.387500X0.050000X0*%
%ADD16RoundRect,0.050000X-0.050000X-0.387500X0.050000X-0.387500X0.050000X0.387500X-0.050000X0.387500X0*%
%ADD17R,3.200000X3.200000*%
%ADD18RoundRect,0.250000X-0.337500X-0.475000X0.337500X-0.475000X0.337500X0.475000X-0.337500X0.475000X0*%
%ADD19RoundRect,0.250000X-0.475000X0.337500X-0.475000X-0.337500X0.475000X-0.337500X0.475000X0.337500X0*%
%ADD20RoundRect,0.250000X-0.450000X0.350000X-0.450000X-0.350000X0.450000X-0.350000X0.450000X0.350000X0*%
%ADD21R,0.300000X0.900000*%
%ADD22R,1.650000X0.250000*%
%ADD23RoundRect,0.250000X0.450000X-0.325000X0.450000X0.325000X-0.450000X0.325000X-0.450000X-0.325000X0*%
%ADD24RoundRect,0.250000X0.475000X-0.337500X0.475000X0.337500X-0.475000X0.337500X-0.475000X-0.337500X0*%
%ADD25RoundRect,0.062500X0.325000X0.062500X-0.325000X0.062500X-0.325000X-0.062500X0.325000X-0.062500X0*%
%ADD26RoundRect,0.062500X0.062500X0.325000X-0.062500X0.325000X-0.062500X-0.325000X0.062500X-0.325000X0*%
%ADD27R,2.800000X2.800000*%
%ADD28RoundRect,0.250000X-0.325000X-0.450000X0.325000X-0.450000X0.325000X0.450000X-0.325000X0.450000X0*%
%ADD29RoundRect,0.250000X-0.350000X-0.450000X0.350000X-0.450000X0.350000X0.450000X-0.350000X0.450000X0*%
%ADD30RoundRect,0.250000X0.450000X-0.350000X0.450000X0.350000X-0.450000X0.350000X-0.450000X-0.350000X0*%
%ADD31RoundRect,0.200000X-0.250000X0.200000X-0.250000X-0.200000X0.250000X-0.200000X0.250000X0.200000X0*%
%ADD32RoundRect,0.062500X0.375000X0.062500X-0.375000X0.062500X-0.375000X-0.062500X0.375000X-0.062500X0*%
%ADD33RoundRect,0.062500X0.062500X0.375000X-0.062500X0.375000X-0.062500X-0.375000X0.062500X-0.375000X0*%
%ADD34R,2.500000X2.500000*%
%ADD35RoundRect,0.250000X0.476347X0.313199X-0.186308X0.538785X-0.476347X-0.313199X0.186308X-0.538785X0*%
%ADD36R,0.400000X0.650000*%
%ADD37C,0.800000*%
%ADD38RotRect,0.900000X1.700000X71.200000*%
%ADD39RoundRect,0.200000X0.250000X-0.200000X0.250000X0.200000X-0.250000X0.200000X-0.250000X-0.200000X0*%
%ADD40R,1.500000X2.000000*%
%ADD41R,3.800000X2.000000*%
%ADD42RoundRect,0.150000X0.587500X0.150000X-0.587500X0.150000X-0.587500X-0.150000X0.587500X-0.150000X0*%
%ADD43RoundRect,0.190000X0.635000X0.190000X-0.635000X0.190000X-0.635000X-0.190000X0.635000X-0.190000X0*%
%ADD44C,0.650000*%
%ADD45RotRect,0.600000X1.150000X251.100000*%
%ADD46RotRect,0.300000X1.150000X251.100000*%
%ADD47HorizOval,1.000000X-0.378434X0.129567X0.378434X-0.129567X0*%
%ADD48HorizOval,1.000000X-0.520347X0.178155X0.520347X-0.178155X0*%
%ADD49R,0.400000X0.900000*%
G04 APERTURE END LIST*
D10*
%TO.C,J2*%
X210646623Y-85006664D03*
X204020078Y-82750804D03*
%TD*%
D11*
%TO.C,REF\u002A\u002A*%
X216154000Y-71247000D03*
%TD*%
D12*
%TO.C,L6*%
X181362250Y-88501000D03*
X181362250Y-90551000D03*
%TD*%
D13*
%TO.C,C47*%
X167010500Y-98679000D03*
X164935500Y-98679000D03*
%TD*%
D14*
%TO.C,R16*%
X170656000Y-79629000D03*
X168656000Y-79629000D03*
%TD*%
D13*
%TO.C,C8*%
X188899500Y-87521000D03*
X186824500Y-87521000D03*
%TD*%
D15*
%TO.C,U1*%
X163948500Y-95437000D03*
X163948500Y-95037000D03*
X163948500Y-94637000D03*
X163948500Y-94237000D03*
X163948500Y-93837000D03*
X163948500Y-93437000D03*
X163948500Y-93037000D03*
X163948500Y-92637000D03*
X163948500Y-92237000D03*
X163948500Y-91837000D03*
X163948500Y-91437000D03*
X163948500Y-91037000D03*
X163948500Y-90637000D03*
X163948500Y-90237000D03*
D16*
X164786000Y-89399500D03*
X165186000Y-89399500D03*
X165586000Y-89399500D03*
X165986000Y-89399500D03*
X166386000Y-89399500D03*
X166786000Y-89399500D03*
X167186000Y-89399500D03*
X167586000Y-89399500D03*
X167986000Y-89399500D03*
X168386000Y-89399500D03*
X168786000Y-89399500D03*
X169186000Y-89399500D03*
X169586000Y-89399500D03*
X169986000Y-89399500D03*
D15*
X170823500Y-90237000D03*
X170823500Y-90637000D03*
X170823500Y-91037000D03*
X170823500Y-91437000D03*
X170823500Y-91837000D03*
X170823500Y-92237000D03*
X170823500Y-92637000D03*
X170823500Y-93037000D03*
X170823500Y-93437000D03*
X170823500Y-93837000D03*
X170823500Y-94237000D03*
X170823500Y-94637000D03*
X170823500Y-95037000D03*
X170823500Y-95437000D03*
D16*
X169986000Y-96274500D03*
X169586000Y-96274500D03*
X169186000Y-96274500D03*
X168786000Y-96274500D03*
X168386000Y-96274500D03*
X167986000Y-96274500D03*
X167586000Y-96274500D03*
X167186000Y-96274500D03*
X166786000Y-96274500D03*
X166386000Y-96274500D03*
X165986000Y-96274500D03*
X165586000Y-96274500D03*
X165186000Y-96274500D03*
X164786000Y-96274500D03*
D17*
X167386000Y-92837000D03*
%TD*%
D18*
%TO.C,C16*%
X184763500Y-94488000D03*
X186838500Y-94488000D03*
%TD*%
D19*
%TO.C,C28*%
X139954000Y-93302000D03*
X139954000Y-95377000D03*
%TD*%
D20*
%TO.C,R5*%
X192688000Y-92760000D03*
X192688000Y-94760000D03*
%TD*%
D19*
%TO.C,C6*%
X197387000Y-79498500D03*
X197387000Y-81573500D03*
%TD*%
D13*
%TO.C,C27*%
X138070500Y-93853000D03*
X135995500Y-93853000D03*
%TD*%
D18*
%TO.C,C44*%
X161014500Y-98044000D03*
X163089500Y-98044000D03*
%TD*%
D19*
%TO.C,C19*%
X183394250Y-88488500D03*
X183394250Y-90563500D03*
%TD*%
D20*
%TO.C,R2*%
X198247000Y-96409000D03*
X198247000Y-98409000D03*
%TD*%
D19*
%TO.C,C50*%
X172704000Y-96490000D03*
X172704000Y-98565000D03*
%TD*%
%TO.C,C10*%
X188595000Y-79344500D03*
X188595000Y-81419500D03*
%TD*%
D21*
%TO.C,U8*%
X163183000Y-86363000D03*
X162683000Y-86363000D03*
X162183000Y-86363000D03*
X161683000Y-86363000D03*
X161683000Y-83563000D03*
X162183000Y-83563000D03*
X162683000Y-83563000D03*
X163183000Y-83563000D03*
D22*
X162433000Y-84963000D03*
%TD*%
D14*
%TO.C,R9*%
X182229000Y-97536000D03*
X180229000Y-97536000D03*
%TD*%
D23*
%TO.C,L9*%
X178435000Y-85374500D03*
X178435000Y-83324500D03*
%TD*%
D24*
%TO.C,C38*%
X152908000Y-81047500D03*
X152908000Y-78972500D03*
%TD*%
D25*
%TO.C,U3*%
X196424500Y-83840000D03*
X196424500Y-84340000D03*
X196424500Y-84840000D03*
X196424500Y-85340000D03*
X196424500Y-85840000D03*
X196424500Y-86340000D03*
D26*
X195687000Y-87077500D03*
X195187000Y-87077500D03*
X194687000Y-87077500D03*
X194187000Y-87077500D03*
X193687000Y-87077500D03*
X193187000Y-87077500D03*
D25*
X192449500Y-86340000D03*
X192449500Y-85840000D03*
X192449500Y-85340000D03*
X192449500Y-84840000D03*
X192449500Y-84340000D03*
X192449500Y-83840000D03*
D26*
X193187000Y-83102500D03*
X193687000Y-83102500D03*
X194187000Y-83102500D03*
X194687000Y-83102500D03*
X195187000Y-83102500D03*
X195687000Y-83102500D03*
D27*
X194437000Y-85090000D03*
%TD*%
D28*
%TO.C,L3*%
X184776000Y-92456000D03*
X186826000Y-92456000D03*
%TD*%
D13*
%TO.C,C26*%
X138070500Y-95885000D03*
X135995500Y-95885000D03*
%TD*%
%TO.C,C7*%
X188899500Y-85489000D03*
X186824500Y-85489000D03*
%TD*%
%TO.C,C33*%
X147742500Y-96774000D03*
X145667500Y-96774000D03*
%TD*%
D19*
%TO.C,C20*%
X183394250Y-84678500D03*
X183394250Y-86753500D03*
%TD*%
D18*
%TO.C,C48*%
X168761500Y-98679000D03*
X170836500Y-98679000D03*
%TD*%
D29*
%TO.C,R10*%
X178324000Y-99568000D03*
X180324000Y-99568000D03*
%TD*%
D30*
%TO.C,R3*%
X190754000Y-93456000D03*
X190754000Y-91456000D03*
%TD*%
D19*
%TO.C,C11*%
X195355000Y-79498500D03*
X195355000Y-81573500D03*
%TD*%
D31*
%TO.C,X2*%
X164810000Y-86524000D03*
X166660000Y-86524000D03*
X166660000Y-87974000D03*
X164810000Y-87974000D03*
%TD*%
D18*
%TO.C,C3*%
X198098500Y-87503000D03*
X200173500Y-87503000D03*
%TD*%
D24*
%TO.C,C46*%
X161036000Y-91207500D03*
X161036000Y-89132500D03*
%TD*%
%TO.C,C53*%
X164834000Y-83711500D03*
X164834000Y-81636500D03*
%TD*%
D14*
%TO.C,R18*%
X163036000Y-79502000D03*
X161036000Y-79502000D03*
%TD*%
D24*
%TO.C,C31*%
X142006000Y-94255500D03*
X142006000Y-92180500D03*
%TD*%
D13*
%TO.C,C54*%
X162950500Y-81661000D03*
X160875500Y-81661000D03*
%TD*%
D24*
%TO.C,C25*%
X184150000Y-99716500D03*
X184150000Y-97641500D03*
%TD*%
D13*
%TO.C,C1*%
X172995500Y-100711000D03*
X170920500Y-100711000D03*
%TD*%
D23*
%TO.C,L1*%
X192434000Y-81416000D03*
X192434000Y-79366000D03*
%TD*%
D24*
%TO.C,C30*%
X142240000Y-90064500D03*
X142240000Y-87989500D03*
%TD*%
D32*
%TO.C,U6*%
X147870500Y-90962000D03*
X147870500Y-91462000D03*
X147870500Y-91962000D03*
X147870500Y-92462000D03*
X147870500Y-92962000D03*
X147870500Y-93462000D03*
D33*
X147183000Y-94149500D03*
X146683000Y-94149500D03*
X146183000Y-94149500D03*
X145683000Y-94149500D03*
X145183000Y-94149500D03*
X144683000Y-94149500D03*
D32*
X143995500Y-93462000D03*
X143995500Y-92962000D03*
X143995500Y-92462000D03*
X143995500Y-91962000D03*
X143995500Y-91462000D03*
X143995500Y-90962000D03*
D33*
X144683000Y-90274500D03*
X145183000Y-90274500D03*
X145683000Y-90274500D03*
X146183000Y-90274500D03*
X146683000Y-90274500D03*
X147183000Y-90274500D03*
D34*
X145933000Y-92212000D03*
%TD*%
D23*
%TO.C,L2*%
X190529000Y-81416000D03*
X190529000Y-79366000D03*
%TD*%
D14*
%TO.C,R17*%
X166846000Y-79629000D03*
X164846000Y-79629000D03*
%TD*%
D24*
%TO.C,C17*%
X183388000Y-81555500D03*
X183388000Y-79480500D03*
%TD*%
D23*
%TO.C,L8*%
X178435000Y-81564500D03*
X178435000Y-79514500D03*
%TD*%
D18*
%TO.C,C18*%
X177397500Y-89281000D03*
X179472500Y-89281000D03*
%TD*%
D14*
%TO.C,R21*%
X138033000Y-91821000D03*
X136033000Y-91821000D03*
%TD*%
%TO.C,R8*%
X200136000Y-89535000D03*
X198136000Y-89535000D03*
%TD*%
D18*
%TO.C,C4*%
X188806000Y-89535000D03*
X190881000Y-89535000D03*
%TD*%
D13*
%TO.C,C52*%
X174138500Y-87630000D03*
X172063500Y-87630000D03*
%TD*%
D18*
%TO.C,C45*%
X168253500Y-87630000D03*
X170328500Y-87630000D03*
%TD*%
D29*
%TO.C,R22*%
X131842000Y-96510000D03*
X133842000Y-96510000D03*
%TD*%
D35*
%TO.C,R20*%
X203765649Y-105478266D03*
X201872351Y-104833734D03*
%TD*%
D18*
%TO.C,C2*%
X197993000Y-85471000D03*
X200068000Y-85471000D03*
%TD*%
D28*
%TO.C,L5*%
X177388500Y-87249000D03*
X179438500Y-87249000D03*
%TD*%
D29*
%TO.C,R19*%
X168291000Y-85598000D03*
X170291000Y-85598000D03*
%TD*%
D20*
%TO.C,R6*%
X194720000Y-92760000D03*
X194720000Y-94760000D03*
%TD*%
D19*
%TO.C,C23*%
X178292000Y-95631000D03*
X178292000Y-97706000D03*
%TD*%
D24*
%TO.C,C29*%
X139954000Y-91567000D03*
X139954000Y-89492000D03*
%TD*%
D23*
%TO.C,L4*%
X181356000Y-81543000D03*
X181356000Y-79493000D03*
%TD*%
D24*
%TO.C,C21*%
X176403000Y-81555500D03*
X176403000Y-79480500D03*
%TD*%
D29*
%TO.C,R13*%
X148352000Y-82296000D03*
X150352000Y-82296000D03*
%TD*%
%TO.C,R23*%
X131842000Y-94488000D03*
X133842000Y-94488000D03*
%TD*%
D19*
%TO.C,C24*%
X178308000Y-91164500D03*
X178308000Y-93239500D03*
%TD*%
D29*
%TO.C,R1*%
X202962000Y-86868000D03*
X204962000Y-86868000D03*
%TD*%
D19*
%TO.C,C14*%
X194749000Y-96550500D03*
X194749000Y-98625500D03*
%TD*%
D24*
%TO.C,C39*%
X159004000Y-81047500D03*
X159004000Y-78972500D03*
%TD*%
D14*
%TO.C,R12*%
X168767000Y-81661000D03*
X166767000Y-81661000D03*
%TD*%
D36*
%TO.C,U4*%
X181371000Y-95819000D03*
X180721000Y-95819000D03*
X180071000Y-95819000D03*
X180071000Y-93919000D03*
X180721000Y-93919000D03*
X181371000Y-93919000D03*
%TD*%
D19*
%TO.C,C34*%
X149626000Y-94232500D03*
X149626000Y-96307500D03*
%TD*%
D24*
%TO.C,C9*%
X193929000Y-90699500D03*
X193929000Y-88624500D03*
%TD*%
D37*
%TO.C,RESET1*%
X204470000Y-102108000D03*
D38*
X203922148Y-103717304D03*
X205017852Y-100498696D03*
%TD*%
D20*
%TO.C,R11*%
X150319500Y-84156000D03*
X150319500Y-86156000D03*
%TD*%
D14*
%TO.C,R7*%
X200038000Y-91544000D03*
X198038000Y-91544000D03*
%TD*%
D19*
%TO.C,C35*%
X149626000Y-88263500D03*
X149626000Y-90338500D03*
%TD*%
D12*
%TO.C,L7*%
X181362250Y-84691000D03*
X181362250Y-86741000D03*
%TD*%
D13*
%TO.C,C5*%
X190296500Y-83457000D03*
X188221500Y-83457000D03*
%TD*%
%TO.C,C43*%
X169185500Y-101219000D03*
X167110500Y-101219000D03*
%TD*%
D24*
%TO.C,C22*%
X176403000Y-85387000D03*
X176403000Y-83312000D03*
%TD*%
D13*
%TO.C,C12*%
X200068000Y-83439000D03*
X197993000Y-83439000D03*
%TD*%
D14*
%TO.C,R14*%
X168767000Y-83566000D03*
X166767000Y-83566000D03*
%TD*%
D24*
%TO.C,C15*%
X196117000Y-90717500D03*
X196117000Y-88642500D03*
%TD*%
D39*
%TO.C,X1*%
X199872000Y-94770000D03*
X198022000Y-94770000D03*
X198022000Y-93320000D03*
X199872000Y-93320000D03*
%TD*%
D20*
%TO.C,R4*%
X190732500Y-85487000D03*
X190732500Y-87487000D03*
%TD*%
D40*
%TO.C,U11*%
X158256000Y-86970000D03*
X155956000Y-86970000D03*
D41*
X155956000Y-80670000D03*
D40*
X153656000Y-86970000D03*
%TD*%
D37*
%TO.C,BOOT1*%
X201344164Y-101043879D03*
D38*
X200796312Y-102653183D03*
X201892016Y-99434575D03*
%TD*%
D19*
%TO.C,C37*%
X152908000Y-95482500D03*
X152908000Y-97557500D03*
%TD*%
D24*
%TO.C,C49*%
X172577000Y-91707000D03*
X172577000Y-89632000D03*
%TD*%
D19*
%TO.C,C13*%
X192717000Y-96550500D03*
X192717000Y-98625500D03*
%TD*%
D18*
%TO.C,C36*%
X144143500Y-88138000D03*
X146218500Y-88138000D03*
%TD*%
D24*
%TO.C,C51*%
X161036000Y-95652500D03*
X161036000Y-93577500D03*
%TD*%
D29*
%TO.C,R15*%
X172466000Y-79629000D03*
X174466000Y-79629000D03*
%TD*%
D42*
%TO.C,Q1*%
X148336000Y-84206000D03*
X148336000Y-86106000D03*
X146461000Y-85156000D03*
%TD*%
D40*
%TO.C,U7*%
X153656000Y-89560000D03*
X155956000Y-89560000D03*
D41*
X155956000Y-95860000D03*
D40*
X158256000Y-89560000D03*
%TD*%
D43*
%TO.C,TR2*%
X187386000Y-96520000D03*
X187386000Y-97790000D03*
X187386000Y-99060000D03*
X190566000Y-99060000D03*
X190566000Y-96520000D03*
%TD*%
D18*
%TO.C,C32*%
X141857500Y-96159000D03*
X143932500Y-96159000D03*
%TD*%
D44*
%TO.C,J1*%
X204719569Y-90910008D03*
X202847326Y-96378382D03*
D45*
X203802942Y-90268511D03*
X203543808Y-91025379D03*
D46*
X203171303Y-92113377D03*
X202847385Y-93059463D03*
X202685427Y-93532505D03*
X202361509Y-94478591D03*
D45*
X201989004Y-95566589D03*
X201729870Y-96323457D03*
X201729870Y-96323457D03*
X201989004Y-95566589D03*
D46*
X202199550Y-94951633D03*
X202523468Y-94005548D03*
X203009344Y-92586420D03*
X203333261Y-91640335D03*
D45*
X203543808Y-91025379D03*
X203802942Y-90268511D03*
D47*
X208664365Y-90749122D03*
D48*
X204709728Y-89395148D03*
D47*
X205865719Y-98923300D03*
D48*
X201911082Y-97569325D03*
%TD*%
D49*
%TO.C,U5*%
X173370000Y-83396000D03*
X172720000Y-83396000D03*
X172070000Y-83396000D03*
X172070000Y-81196000D03*
X172720000Y-81196000D03*
X173370000Y-81196000D03*
%TD*%
D19*
%TO.C,C42*%
X159004000Y-95482500D03*
X159004000Y-97557500D03*
%TD*%
M02*
